<svg id="Layer_1" data-name="Layer 1" xmlns="http://www.w3.org/2000/svg" viewBox="0 0 592.29 592.29"><defs><style>.cls-1{fill:#fff;}</style></defs><title>ags1</title><path d="M296.14,0C132.59,0,0,132.62,0,296.15S132.59,592.29,296.14,592.29,592.29,459.7,592.29,296.15,459.7,0,296.14,0Zm0,537.37c-133.22,0-241.22-108-241.22-241.22s108-241.23,241.22-241.23,241.23,108,241.23,241.23S429.37,537.37,296.14,537.37Z"/><path d="M433.84,187.36a50.49,50.49,0,0,1-49.95-57.72,188.56,188.56,0,0,0-175.49,0,50.5,50.5,0,0,1-64.32,55.64A187.38,187.38,0,0,0,108,296.15H484.29a187.38,187.38,0,0,0-36.11-110.87A50.4,50.4,0,0,1,433.84,187.36ZM204,284.36a41.17,41.17,0,1,1,41.16-41.18h0a41.16,41.16,0,0,1-41.12,41.2h0Zm92.12-50.48a41.16,41.16,0,1,1,41.15-41.17v0a41.16,41.16,0,0,1-41.15,41.16Zm92.15,50.51a41.17,41.17,0,1,1,41.16-41.18h0a41.16,41.16,0,0,1-41.15,41.17Z"/><path d="M158.44,404.93a50.49,50.49,0,0,1,50,57.72,188.5,188.5,0,0,0,175.49,0A50.49,50.49,0,0,1,448.24,407a187.33,187.33,0,0,0,36.05-110.86H108A187.23,187.23,0,0,0,144.08,407,50.59,50.59,0,0,1,158.44,404.93Zm229.83-97a41.16,41.16,0,1,1-41.16,41.16h0a41.16,41.16,0,0,1,41.14-41.18h0ZM296.14,358.4A41.17,41.17,0,1,1,255,399.58v0a41.16,41.16,0,0,1,41.14-41.18h0ZM204,307.93a41.16,41.16,0,1,1-41.16,41.16h0A41.16,41.16,0,0,1,204,307.91h0Z"/><rect x="18.54" y="233.75" width="555.21" height="124.79"/><rect class="cls-1" x="50.88" y="241.02" width="490.53" height="110.26"/><path d="M196.68,303.94h1.1a17.47,17.47,0,0,1,3.68.37,18,18,0,0,1,3.44,1.07,20.39,20.39,0,0,1,3.18,1.73c.45.31,1,.71,1.61,1.2l-3.47,3.49a13.69,13.69,0,0,0-3.24-1.95,13,13,0,0,0-5.15-1,12.79,12.79,0,0,0-5.18,1,13.43,13.43,0,0,0-4.37,3,13.92,13.92,0,0,0-3,4.36,13.27,13.27,0,0,0,3,14.72,13.12,13.12,0,0,0,4.37,3,13.73,13.73,0,0,0,9.35.34,12.44,12.44,0,0,0,3.68-1.88,13.64,13.64,0,0,0,2.49-2.37,12.94,12.94,0,0,0,1.83-2.85l1-2.17H198.92v-4.52h17.21a20,20,0,0,1-1,7.15,17.16,17.16,0,0,1-4.29,6.81,19,19,0,0,1-6,4.05,18,18,0,0,1-7.06,1.34,18.68,18.68,0,0,1-17-11.34,18.58,18.58,0,0,1,10-24.22,18,18,0,0,1,6-1.34Z"/><path d="M248.29,304.19v22.3a13.61,13.61,0,0,1-4.18,10.13h0a14.22,14.22,0,0,1-4.66,3.15,14,14,0,0,1-5.5,1,14.58,14.58,0,0,1-5.54-1,13.6,13.6,0,0,1-4.66-3.19,14.2,14.2,0,0,1-3.17-4.64,14.47,14.47,0,0,1-1-5.52v-22.3h4.91V326.4a9,9,0,0,0,2.78,6.61,9,9,0,0,0,3.08,2.08A9.43,9.43,0,0,0,240.6,333a9,9,0,0,0,2.83-6.66V304.19Z"/><path d="M276.88,328.74V304.11h4.86v37L258,315.85v24.77h-4.85v-36.8Z"/><path d="M312.66,335.41a7.62,7.62,0,0,0,2-1.14,5.31,5.31,0,0,0,1.4-1.72,4.68,4.68,0,0,0,.54-2.2,3.71,3.71,0,0,0-.41-1.82,4.72,4.72,0,0,0-1.1-1.45,8,8,0,0,0-1.65-1.12,14.19,14.19,0,0,0-1.87-.83c-.6-.22-1.25-.42-2-.62a19.63,19.63,0,0,1-4.29-1.72A11.64,11.64,0,0,1,302,320a8.9,8.9,0,0,1-2-5.62,10.21,10.21,0,0,1,.81-4,10,10,0,0,1,2.25-3.35,10.45,10.45,0,0,1,7.43-3.07,10.2,10.2,0,0,1,3.71.67,10.63,10.63,0,0,1,3.17,1.89,10.28,10.28,0,0,1,3.22,5.07l-4.85,1a5.66,5.66,0,0,0-1.31-2.06,5.45,5.45,0,0,0-6-1.2,5.65,5.65,0,0,0-3,3,5.28,5.28,0,0,0-.44,2.11,4.76,4.76,0,0,0,.24,1.5,4.28,4.28,0,0,0,.62,1.2,4.74,4.74,0,0,0,1,1,9,9,0,0,0,1.16.77,13.12,13.12,0,0,0,1.32.61c.52.2,1,.36,1.34.48l1.33.42,1.17.39a16.62,16.62,0,0,1,2.52,1.11,15.32,15.32,0,0,1,2.3,1.53,11.9,11.9,0,0,1,1.89,1.93,8.36,8.36,0,0,1,1.27,2.35,8,8,0,0,1,.48,2.75,9.43,9.43,0,0,1-.93,4.11,10.57,10.57,0,0,1-2.46,3.35,11.89,11.89,0,0,1-3.55,2.21A11,11,0,0,1,306,340a11.17,11.17,0,0,1-3.82-2.7,10.27,10.27,0,0,1-2.32-4l4.87-1a5.69,5.69,0,0,0,2.32,2.67,6.27,6.27,0,0,0,3.44,1A7.45,7.45,0,0,0,312.66,335.41Z"/><path d="M329.8,304.19v15.74H346V304.19h4.83v36.29H346V324.74H329.8v15.74H325V304.19Z"/><path d="M379.71,305.23a18.87,18.87,0,0,1,6,4.11,18.51,18.51,0,0,1,4.08,20.11,17.9,17.9,0,0,1-4.08,5.95,18.76,18.76,0,0,1-20.11,4.05,18.69,18.69,0,0,1-10-10.05,19.11,19.11,0,0,1,0-14.06,18.87,18.87,0,0,1,10-10.08,19.29,19.29,0,0,1,14.14,0Zm-12.26,4.57a13.72,13.72,0,0,0-4.34,3,13.53,13.53,0,0,0-3,14.71,13,13,0,0,0,3,4.37,12.35,12.35,0,0,0,4.34,3,13.65,13.65,0,0,0,17.7-7.33,13.89,13.89,0,0,0,0-10.35,14.39,14.39,0,0,0-3-4.36,14.05,14.05,0,0,0-4.39-3,13.35,13.35,0,0,0-5.15-1A13.58,13.58,0,0,0,367.45,309.8Z"/><path d="M394.54,330.2v-26h12.28a12.19,12.19,0,0,1,12.3,12.27,11.49,11.49,0,0,1-3.59,8.64,11.83,11.83,0,0,1-8.71,3.59H399.4v11.79h-4.86Zm4.86-6.32h7.42a7.13,7.13,0,0,0,5.27-2.18,7.83,7.83,0,0,0,1.61-2.41,7.48,7.48,0,0,0,0-5.69,7.88,7.88,0,0,0-1.61-2.42,7.09,7.09,0,0,0-5.27-2.22H399.4v14.92Z"/><path d="M201.64,287.71H188.32l-2.58,7.44H173l15.84-42h12.3l15.9,42H204.22ZM198.22,278,195,268.75,191.74,278Z"/><path d="M252.34,285.43v9.72H223.12v-42h11.52v32.28Z"/><path d="M284.74,287.71H271.42l-2.58,7.44H256.06l15.84-42h12.3l15.9,42H287.32ZM281.32,278l-3.24-9.24L274.84,278Z"/><path d="M321.88,281.65h-4.2v13.5H306.22v-42h17.22c10.14,0,16.44,6.24,16.44,14.22a13.41,13.41,0,0,1-6.78,11.88l9.18,15.9h-12.6Zm-4.2-9.72H323c4.92,0,6.48-1.86,6.48-4.56s-1.56-4.5-6.48-4.5h-5.34Z"/><path d="M375.28,287.71H362l-2.58,7.44H346.6l15.84-42h12.3l15.9,42H377.86ZM371.86,278l-3.24-9.24L365.38,278Z"/><path d="M419.8,295.15l-11.58-18.48v18.48H396.76v-42h11.46v17.52l9.9-17.52H431.5l-12.12,20.34,13.8,21.66Z"/></svg>