<svg id="Layer_1" data-name="Layer 1" xmlns="http://www.w3.org/2000/svg" viewBox="0 0 544.29 544.29"><title>ags1</title><path d="M819.41,415.74l-11.9,78.84h11.26l2.14-16.09h11.16l2.14,16.09h11.27l-11.91-78.84Zm3.11,50.52,3.33-24.88.32-2h.64l.32,2,3.33,24.88Z" transform="translate(-688.71 -268.38)"/><polygon points="172.75 181.47 173.39 181.47 174.36 185.12 185.62 226.2 195.92 226.2 195.92 147.36 185.3 147.36 185.3 192.09 184.66 192.09 183.69 188.44 172.43 147.36 162.13 147.36 162.13 226.2 172.75 226.2 172.75 181.47"/><path d="M908.65,439.34h.53q4.05-8.08,8.1-15.42l-1.23-8.18H901.89l-9.08,60.11c5-12.56,10.26-24.23,15.59-35Z" transform="translate(-688.71 -268.38)"/><path d="M1023.09,461.33l0,.22c4.51,10.33,8.86,21.36,12.89,33h4.66l-7.4-38.19c4.39-3,6.43-10.08,6.43-17.91,0-14.91-5.9-22.74-19.73-22.74h-11.59v15.2c4.92,9.32,9.87,19.47,14.64,30.39ZM1020,427.22a7.93,7.93,0,0,1,5.47,1.61c1.71,1.5,3.11,4.5,3.11,10.08s-1.4,8.47-3.11,10a8.05,8.05,0,0,1-5.47,1.71Z" transform="translate(-688.71 -268.38)"/><polygon points="354.33 159.27 365.27 159.27 365.27 226.2 376.85 226.2 376.85 159.27 387.79 159.27 387.79 147.36 354.33 147.36 354.33 159.27"/><polygon points="392.3 226.2 418.79 226.2 418.79 214.29 403.88 214.29 403.88 192.63 414.61 192.63 414.61 179.97 403.88 179.97 403.88 159.27 418.79 159.27 418.79 147.36 392.3 147.36 392.3 226.2"/><path d="M1133.66,451.25c-2.25-3.33-4.5-6.44-6.22-9.44s-2.89-5.79-2.89-8.48c0-4.61,1-7.72,4-7.83,1.82,0,3,1.51,3.75,3.65a25.89,25.89,0,0,1,.86,7.72l11.37-1.07c0-4.4-.65-9.65-2.9-13.94s-6.33-7.08-13.3-7a14,14,0,0,0-11.69,6c-2.47,3.54-3.43,8.15-3.43,12.44a21.17,21.17,0,0,0,1,6.33,45.19,45.19,0,0,0,5.69,12.23c2.57,4,5,7.61,7.29,10.83,1.08,1.61,2,3.22,3,4.72,1.71,3.11,3,6.11,3,8.69,0,5-1.29,8.69-4.72,8.69-2.47,0-3.75-1.72-4.5-4.29s-1-5.8-1-9.12l-11.37,1.07c0,5.9.54,11.58,2.9,15.88s6.54,7.07,13.94,7.07c6.33,0,10.3-2.36,12.76-6s3.33-8.58,3.33-13.84a27.12,27.12,0,0,0-3.43-12.33A118.94,118.94,0,0,0,1133.66,451.25Z" transform="translate(-688.71 -268.38)"/><path d="M838.41,535.75V523.63a21.3,21.3,0,0,0-1.93-8.48,15,15,0,0,0-4.61-5.9,14.48,14.48,0,0,0-8.9-2.68,13.61,13.61,0,0,0-13.52,8.58,21.47,21.47,0,0,0-1.93,8.48v46.44a21.62,21.62,0,0,0,1.29,8.58,14.39,14.39,0,0,0,4.08,5.79c1.93,1.72,4.5,2.68,8.25,2.68a11.51,11.51,0,0,0,9-4.61l1.4,3.75h6.86V547H822.22v9.76h4.61V571a7.55,7.55,0,0,1-.43,2.9,3.38,3.38,0,0,1-3.43,2.89,3.07,3.07,0,0,1-2.25-.85,6.8,6.8,0,0,1-1.61-4.94v-47.4a8,8,0,0,1,.43-2.9,3.58,3.58,0,0,1,3.43-2.9,3.38,3.38,0,0,1,2.36.86,7.18,7.18,0,0,1,1.5,4.94v12.12Z" transform="translate(-688.71 -268.38)"/><path d="M877.67,507.43H866.08v62.64a7.31,7.31,0,0,1-.43,2.89c-.43,1.61-1.39,2.9-3.43,2.9A3.07,3.07,0,0,1,860,575a6.84,6.84,0,0,1-1.61-4.93V507.43H846.78v62.64a21.35,21.35,0,0,0,1.93,8.58,14.48,14.48,0,0,0,4.5,5.79c2.15,1.72,5.15,2.68,9,2.68a20.8,20.8,0,0,0,2.7-.17,421.76,421.76,0,0,1,12.75-66Z" transform="translate(-688.71 -268.38)"/><path d="M824.45,611.59c1.83,0,3,1.5,3.76,3.64a25.93,25.93,0,0,1,.86,7.72l11.36-1.07c0-4.39-.64-9.65-2.89-13.94s-6.33-7.08-13.3-7a14.06,14.06,0,0,0-11.69,6c-2.47,3.54-3.43,8.16-3.43,12.45a21.1,21.1,0,0,0,1,6.32A44.76,44.76,0,0,0,815.77,638c2.57,4,5,7.62,7.29,10.83,1.07,1.61,2,3.22,3,4.72,1.72,3.11,3,6.12,3,8.69,0,5-1.29,8.69-4.72,8.69-2.47,0-3.76-1.72-4.51-4.29s-1-5.79-1-9.12l-11.37,1.07c0,5.9.53,11.59,2.89,15.88s6.55,7.08,14,7.08c6.32,0,10.29-2.36,12.76-6s3.32-8.58,3.32-13.84A27,27,0,0,0,837,649.34a121.8,121.8,0,0,0-7.4-12c-2.25-3.33-4.5-6.44-6.22-9.44s-2.89-5.79-2.89-8.47C820.49,614.8,821.45,611.69,824.45,611.59Z" transform="translate(-688.71 -268.38)"/><path d="M862.41,634.43h-4.17v-32.6H846.65v78.83h11.59V646.34h4.41Q862.44,640.34,862.41,634.43Z" transform="translate(-688.71 -268.38)"/><rect x="178.54" y="409.29" width="11.58" height="2.98"/><path d="M893.09,678.83c2.15,1.72,5.15,2.69,9,2.69s6.76-1,8.91-2.69a13.72,13.72,0,0,0,1.35-1.16H891.75A12.54,12.54,0,0,0,893.09,678.83Z" transform="translate(-688.71 -268.38)"/><rect x="236.67" y="409.29" width="11.58" height="2.98"/><path d="M960.85,268.38c-150.3,0-272.14,121.84-272.14,272.15S810.55,812.67,960.85,812.67,1233,690.83,1233,540.53,1111.16,268.38,960.85,268.38Zm0,493.82c-122.43,0-221.67-99.24-221.67-221.67s99.24-221.68,221.67-221.68,221.68,99.25,221.68,221.68S1083.28,762.2,960.85,762.2Z" transform="translate(-688.71 -268.38)"/><path d="M902.1,612.23a3.59,3.59,0,0,0-3.43,2.9,8.21,8.21,0,0,0-.43,2.89v46.44a6.86,6.86,0,0,0,1.61,4.94,3.1,3.1,0,0,0,2.25.85,3.39,3.39,0,0,0,3.44-2.89,7.55,7.55,0,0,0,.43-2.9V618a7.1,7.1,0,0,0-1.51-4.93A3.31,3.31,0,0,0,902.1,612.23Z" transform="translate(-688.71 -268.38)"/><path d="M862.65,646.34q.52,15.36,2.28,31.33h2.32V646.34Z" transform="translate(-688.71 -268.38)"/><path d="M944,634.86c1.29-1.72,1.61-4.61,1.61-9s-.32-7.51-1.61-9.44-3.54-2.79-7.08-2.79v23.71C940.5,637.33,942.75,636.68,944,634.86Z" transform="translate(-688.71 -268.38)"/><path d="M908.33,441.38,905,466.26h7.94l-3.33-24.88-.32-2h-.11l-.78,1.56Z" transform="translate(-688.71 -268.38)"/><path d="M867.25,601.83h11.58v75.84h12.92a15,15,0,0,1-3.16-4.63,21.48,21.48,0,0,1-1.93-8.58V618a21.42,21.42,0,0,1,1.93-8.47A13.58,13.58,0,0,1,902.1,601a14.42,14.42,0,0,1,8.91,2.68,15.12,15.12,0,0,1,4.61,5.9,21.42,21.42,0,0,1,1.93,8.47v46.44a21.48,21.48,0,0,1-1.93,8.58,14.86,14.86,0,0,1-3.26,4.63h13V601.83H937c5,0,10.08,1.28,13.94,4.93s6.44,9.65,6.44,18.66-2.57,14.91-6.44,18.56A20,20,0,0,1,937,649.13v28.54h120c7.84-70.6-3.57-132.83-21-183.09h-6.93l-6-33-.1-.22h-3v33.25h-11.59V430.94c-24-45.49-47.44-71.33-47.44-71.33s-21,23.19-43.67,64.31L928,494.58H916.69l-2.14-16.09H903.39l-2.14,16.09H890l2.82-18.73A441.12,441.12,0,0,0,877.67,521v49.11a21.52,21.52,0,0,1-1.93,8.58,14.82,14.82,0,0,1-4.62,5.79,12.46,12.46,0,0,1-6.2,2.51,410.16,410.16,0,0,0-2.51,47.48h4.84ZM969.67,431.94a21.38,21.38,0,0,1,1.94-8.47,13.58,13.58,0,0,1,13.51-8.58,14.39,14.39,0,0,1,8.9,2.68,14.94,14.94,0,0,1,4.61,5.9,21.21,21.21,0,0,1,1.93,8.47v46.44a21.35,21.35,0,0,1-1.93,8.58,14.63,14.63,0,0,1-4.61,5.79c-2.14,1.72-5,2.68-8.9,2.68s-6.86-1-9-2.68a14.33,14.33,0,0,1-4.5-5.79,21.52,21.52,0,0,1-1.94-8.58Zm-37.1,0a21.21,21.21,0,0,1,1.93-8.47A13.58,13.58,0,0,1,948,414.89a14.39,14.39,0,0,1,8.9,2.68,14.94,14.94,0,0,1,4.61,5.9,21.21,21.21,0,0,1,1.93,8.47v10.83H952.62V431.94a6.72,6.72,0,0,0-1.71-4.93,3.83,3.83,0,0,0-2.69-.86c-2,0-3,1.5-3.54,2.89a11.88,11.88,0,0,0-.53,2.9v46.44a7.42,7.42,0,0,0,1.82,4.93,3.07,3.07,0,0,0,2.25.86,3.73,3.73,0,0,0,4-2.89,7.55,7.55,0,0,0,.43-2.9V467.55h10.83v10.83a21.35,21.35,0,0,1-1.93,8.58,14.63,14.63,0,0,1-4.61,5.79c-2.14,1.72-5,2.68-8.9,2.68s-6.86-1-9-2.68a14.42,14.42,0,0,1-4.5-5.79,21.35,21.35,0,0,1-1.93-8.58Zm-46.43,75.49h10.3l11.26,41.08,1,3.65h.65V507.43h10.61v78.83H909.63l-11.26-41.08-1-3.64h-.64v44.72H886.14Z" transform="translate(-688.71 -268.38)"/><path d="M985.12,484.17a3.39,3.39,0,0,0,3.43-2.89,7.55,7.55,0,0,0,.43-2.9V431.94a7.13,7.13,0,0,0-1.5-4.93,3.34,3.34,0,0,0-2.36-.86,3.58,3.58,0,0,0-3.43,2.89,8.3,8.3,0,0,0-.43,2.9v46.44a6.79,6.79,0,0,0,1.61,4.93A3,3,0,0,0,985.12,484.17Z" transform="translate(-688.71 -268.38)"/><rect x="173.22" y="423.66" width="198.04" height="30.01"/></svg>