<svg id="Layer_1" data-name="Layer 1" xmlns="http://www.w3.org/2000/svg" viewBox="0 0 659.38 655.89"><defs><style>.cls-1{fill:#fff;}</style></defs><title>ags2</title><circle cx="341.35" cy="318.03" r="318.03"/><circle class="cls-1" cx="341.35" cy="318.03" r="259.05"/><rect x="890.52" y="757.98" width="168.9" height="45.02" transform="translate(1121.84 -403.53) rotate(90)"/><path d="M974.71,610h56.84c12.43-111.89-56.84-188.27-56.84-188.27S905.44,498.09,917.88,610Z" transform="translate(-633.62 -209.04)"/><rect x="282.48" y="409.44" width="117.22" height="17.76"/><path d="M975,354.22A173.13,173.13,0,1,0,1148.1,527.35,173.14,173.14,0,0,0,975,354.22Zm0,316.12a143,143,0,1,1,143-143A143,143,0,0,1,975,670.34Z" transform="translate(-633.62 -209.04)"/><path d="M797.46,440.08l-14.17,39.37L799.23,494,797.82,498l-59.31-54.57,1.44-4,80.49-4.29L819,439Zm-16.86,37,13.25-36.83-50.74,2.54Z" transform="translate(-633.62 -209.04)"/><path d="M768.58,392.21,822,435.08l-2.26,2.81L761.81,391.4l2.25-2.81,84.58,3-52.89-42.45L798,346.3l57.93,46.49-2.25,2.81Z" transform="translate(-633.62 -209.04)"/><path d="M888.61,348.11l-35.34,22.41,3.65,21.3-3.51,2.23L840,314.56l3.61-2.29,66.2,46-3.51,2.23Zm-36,18.87,33.06-21L844,316.9Z" transform="translate(-633.62 -209.04)"/><path d="M892.49,326.35c-5.84-22.07,6.26-41.4,26.38-46.73a33.61,33.61,0,0,1,28.22,4.63L945,287.34a30.08,30.08,0,0,0-25.28-4.49c-18.16,4.81-28.78,22.26-23.42,42.5,5.3,20,23.22,30.14,41.38,25.33a30.09,30.09,0,0,0,19.75-16.4l3.43,1.51c-4.83,9.46-12.1,15.42-22.32,18.12C918.42,359.24,898.33,348.43,892.49,326.35Z" transform="translate(-633.62 -209.04)"/><path d="M1001.61,274.22c21.61,2.08,33.87,20.27,31.8,41.67s-17.57,36.9-39.18,34.82S960.36,330.43,962.42,309,979.88,272.12,1001.61,274.22Zm-.32,3.32c-19.38-1.87-33,11.59-34.95,31.87-1.93,20.07,8.84,36.1,28.21,38,19.15,1.85,33-11.81,34.94-31.87C1031.45,295.22,1020.43,279.39,1001.29,277.54Z" transform="translate(-633.62 -209.04)"/><path d="M1064.14,335.32l-16.34-7.55-13.45,29.12-3.27-1.51,31.16-67.44,23.48,10.86c11,5.09,17,16.07,11.29,28.4s-18,15-29,9.91L1075.6,376l-4.19-1.93Zm20.18-33.49-20.22-9.34-14.9,32.25,20.22,9.34c10,4.63,19.72.77,24-8.53S1094.33,306.46,1084.32,301.83Z" transform="translate(-633.62 -209.04)"/><path d="M1138.23,336.78l-19.17-16.53,2.18-2.53,41.16,35.48-2.18,2.53L1141,339.13l-46.31,53.74-2.73-2.35Z" transform="translate(-633.62 -209.04)"/><path d="M1176.27,370.16l25.24,38.34-2.79,1.83L1175.46,375l-26,17.09,22.83,34.67-2.79,1.84-22.83-34.67L1119,412.18l23.26,35.33-2.79,1.83L1114.22,411Z" transform="translate(-633.62 -209.04)"/><path d="M1153,448.08a30,30,0,0,0-3.7,25.5c5.1,16.56,15.75,17.87,22.46,15.81,11.5-3.54,11.37-14.92,11.08-26.48-.32-12-.74-24.37,11.61-28.17,11.5-3.54,21.37,5.08,25,16.91,3.24,10.53,1.76,19.35-2.86,26.3l-3.28-1.94c4.94-7.05,5.49-15.1,3-23.38-3.21-10.43-11.93-16.81-20.66-14.13-9.58,2.95-9.27,13.45-9,24.54.24,12.52.36,25.79-13.69,30.11-8,2.45-20.86.76-26.81-18.59-3.44-11.18-1.33-21.37,3.58-28.52Z" transform="translate(-633.62 -209.04)"/><path d="M1189.2,649.71a31,31,0,0,1-19.13,16.54l-1-2.72c7.22-2,13.77-7.46,17.56-15.08,7.12-14.3,1.94-30.87-14-38.8-15.76-7.85-32.36-2.13-39.48,12.17a28.66,28.66,0,0,0-1.41,21.94l15.51,7.72L1159,628l2.54,1.26-13.08,26.28L1129.32,646a31.26,31.26,0,0,1,1.33-25.4c7.89-15.84,26.15-22.55,43.52-13.9S1197.09,633.88,1189.2,649.71Z" transform="translate(-633.62 -209.04)"/><path d="M1166.19,685.93l-2.1,2.23-28.58-26.81c-10.21-9.59-21.19-9.92-30.35-.16s-8.13,20.7,2.09,30.28l28.58,26.82-2.09,2.23-28.58-26.82c-11.39-10.68-12.67-23.16-2.07-34.45s23.2-10.76,34.52-.13Z" transform="translate(-633.62 -209.04)"/><path d="M1111.75,731.44l-29.39-50.26,2.64-1.54,31.87,54.51-2.64,1.54L1048,707.64l29.09,49.77-2.64,1.54-31.87-54.51,2.65-1.54Z" transform="translate(-633.62 -209.04)"/><path d="M932.19,713.87a25.53,25.53,0,0,0-15.73-15.24c-14-4.73-20.15,2-22.07,7.61-3.28,9.68,4.62,15.26,12.73,20.81,8.45,5.77,17.16,11.62,13.63,22-3.28,9.68-14.13,12.2-24.09,8.82-8.88-3-14.21-8.42-16.7-15.06l3-1.3c2.4,6.92,7.68,11.31,14.65,13.67,8.78,3,17.52.15,20-7.2,2.73-8.07-4.66-13.08-12.44-18.42-8.74-6.06-17.94-12.58-13.93-24.41,2.28-6.73,9.85-14.76,26.15-9.23,9.42,3.2,15.39,9.72,17.88,16.67Z" transform="translate(-633.62 -209.04)"/><path d="M838.65,689.08l36,24.49,17.48-25.66,2.53,1.72-35.54,52.19-2.53-1.72L873,715.92l-36-24.49-16.46,24.18-2.53-1.73L853.6,661.7l2.52,1.72Z" transform="translate(-633.62 -209.04)"/><path d="M783.47,677.65c-11.37-14.53-7.35-32.74,7-44s33-10.78,44.4,3.75,7.34,32.74-7,44S794.9,692.27,783.47,677.65Zm2.24-1.75c10.19,13,26.45,13.54,40.1,2.87,13.49-10.55,17.06-26.58,6.87-39.61-10.08-12.88-26.61-13.42-40.1-2.87C778.93,647,775.63,663,785.71,675.9Z" transform="translate(-633.62 -209.04)"/><path d="M757.41,635.6l-8.31-20.47c-4.46-11,.62-20.38,9.57-24s19.2-.26,23.59,10.55l7.15,17.63L814.76,609l1.15,2.84Zm-5.64-21.45,7.12,17.54,27.89-11.32-7.12-17.54c-3.52-8.69-11.66-11.88-19.73-8.61S748.25,605.46,751.77,614.15Z" transform="translate(-633.62 -209.04)"/><rect y="306.55" width="178.59" height="45.02"/></svg>