<?xml version="1.0" encoding="utf-8"?>
<!-- Generator: Adobe Illustrator 22.1.0, SVG Export Plug-In . SVG Version: 6.00 Build 0)  -->
<svg version="1.1" id="Layer_1" xmlns="http://www.w3.org/2000/svg" xmlns:xlink="http://www.w3.org/1999/xlink" x="0px" y="0px"
	 viewBox="0 0 592.3 592.3" style="enable-background:new 0 0 592.3 592.3;" xml:space="preserve">
<style type="text/css">
	.st0{fill:#FFFFFF;}
</style>
<title>ags3</title>
<path d="M296.1,0C132.6,0,0,132.6,0,296.2s132.6,296.1,296.1,296.1s296.2-132.6,296.2-296.1S459.7,0,296.1,0z M296.1,537.4
	c-133.2,0-241.2-108-241.2-241.2s108-241.2,241.2-241.2s241.2,108,241.2,241.2S429.4,537.4,296.1,537.4z"/>
<path d="M433.8,187.4c-27.9,0-50.5-22.6-50.5-50.5c0-2.4,0.2-4.8,0.5-7.3c-54.9-28.9-120.6-28.9-175.5,0c0.3,2.4,0.5,4.8,0.5,7.3
	c0,27.9-22.6,50.5-50.5,50.5c-4.8,0-9.7-0.7-14.3-2.1c-23.5,32.2-36.2,71-36.1,110.9h376.3c0.1-39.9-12.6-78.7-36.1-110.9
	C443.5,186.7,438.7,187.4,433.8,187.4z M204,284.4c-22.7,0-41.2-18.4-41.2-41.2c0-22.7,18.4-41.2,41.2-41.2
	c22.7,0,41.2,18.4,41.2,41.2c0,0,0,0,0,0C245.2,265.9,226.8,284.4,204,284.4C204,284.4,204,284.4,204,284.4L204,284.4z M296.1,233.9
	c-22.7,0-41.2-18.4-41.2-41.1c0-22.7,18.4-41.2,41.1-41.2c22.7,0,41.2,18.4,41.2,41.1c0,0,0,0,0,0
	C337.3,215.5,318.9,233.9,296.1,233.9L296.1,233.9z M388.3,284.4c-22.7,0-41.2-18.4-41.2-41.2c0-22.7,18.4-41.2,41.2-41.2
	s41.2,18.4,41.2,41.2c0,0,0,0,0,0C429.5,266,411,284.4,388.3,284.4C388.3,284.4,388.3,284.4,388.3,284.4z"/>
<path d="M158.4,404.9c27.9,0,50.5,22.6,50.5,50.5c0,2.4-0.2,4.9-0.5,7.3c54.9,28.9,120.6,28.9,175.5,0c-4-27.6,15.1-53.2,42.7-57.2
	c7.2-1,14.6-0.5,21.6,1.6c23.5-32.2,36.1-71,36.1-110.9H108c-0.1,39.9,12.6,78.7,36.1,110.9C148.7,405.6,153.6,404.9,158.4,404.9z
	 M388.3,307.9c22.7,0,41.2,18.4,41.2,41.2s-18.4,41.2-41.2,41.2c-22.7,0-41.2-18.4-41.2-41.2v0C347.1,326.4,365.5,307.9,388.3,307.9
	C388.3,307.9,388.3,307.9,388.3,307.9L388.3,307.9z M296.1,358.4c22.7,0,41.2,18.4,41.2,41.2c0,22.7-18.4,41.2-41.2,41.2
	c-22.7,0-41.2-18.4-41.2-41.2c0,0,0,0,0,0C255,376.8,273.4,358.4,296.1,358.4C296.1,358.4,296.1,358.4,296.1,358.4L296.1,358.4z
	 M204,307.9c22.7,0,41.2,18.4,41.2,41.2s-18.4,41.2-41.2,41.2s-41.2-18.4-41.2-41.2v0C162.8,326.4,181.3,307.9,204,307.9
	C204,307.9,204,307.9,204,307.9L204,307.9z"/>
<rect x="18.5" y="233.8" width="555.2" height="124.8"/>
<rect x="50.9" y="241" class="st0" width="490.5" height="110.3"/>
<path d="M196.7,303.9h1.1c1.2,0,2.5,0.1,3.7,0.4c1.2,0.2,2.3,0.6,3.4,1.1c1.1,0.5,2.2,1.1,3.2,1.7c0.5,0.3,1,0.7,1.6,1.2l-3.5,3.5
	c-1-0.8-2.1-1.5-3.2-2c-1.6-0.7-3.4-1-5.2-1c-1.8,0-3.5,0.3-5.2,1c-1.6,0.7-3.1,1.7-4.4,3c-1.3,1.2-2.3,2.7-3,4.4
	c-0.7,1.6-1,3.4-1,5.2c0,1.8,0.3,3.5,1,5.2c0.7,1.6,1.7,3.1,3,4.4c1.2,1.3,2.7,2.3,4.4,3c1.6,0.7,3.4,1,5.2,1c1.4,0,2.8-0.2,4.2-0.7
	c1.3-0.4,2.6-1.1,3.7-1.9c0.9-0.7,1.8-1.5,2.5-2.4c0.7-0.9,1.3-1.8,1.8-2.8l1-2.2h-12.1v-4.5h17.2c0.1,2.4-0.3,4.9-1,7.2
	c-0.9,2.6-2.3,4.9-4.3,6.8c-1.7,1.7-3.8,3.1-6,4c-2.2,0.9-4.6,1.4-7.1,1.3c-4.9,0.1-9.6-1.9-13-5.4c-1.7-1.7-3.1-3.7-4-6
	c-1.8-4.6-1.8-9.6,0-14.2c1.9-4.5,5.5-8.1,10-10.1C192.6,304.5,194.6,304,196.7,303.9L196.7,303.9z"/>
<path d="M248.3,304.2v22.3c0.1,3.8-1.4,7.5-4.2,10.1l0,0c-1.3,1.3-2.9,2.4-4.7,3.2c-1.7,0.7-3.6,1-5.5,1c-1.9,0-3.8-0.3-5.5-1
	c-1.8-0.7-3.3-1.8-4.7-3.2c-1.4-1.3-2.4-2.9-3.2-4.6c-0.7-1.8-1-3.6-1-5.5v-22.3h4.9v22.3c0,1.2,0.2,2.5,0.7,3.6
	c0.5,1.1,1.2,2.1,2.1,3c0.9,0.9,1.9,1.6,3.1,2.1c1.1,0.5,2.4,0.7,3.6,0.7c2.5,0,4.9-1,6.6-2.8c1.8-1.7,2.9-4.1,2.8-6.7v-22.2H248.3z
	"/>
<path d="M276.9,328.7v-24.6h4.9v37L258,315.8v24.8h-4.8v-36.8L276.9,328.7z"/>
<path d="M312.7,335.4c0.7-0.3,1.4-0.7,2-1.1c0.6-0.5,1.1-1.1,1.4-1.7c0.4-0.7,0.5-1.4,0.5-2.2c0-0.6-0.1-1.3-0.4-1.8
	c-0.3-0.5-0.6-1-1.1-1.5c-0.5-0.4-1.1-0.8-1.7-1.1c-0.6-0.3-1.2-0.6-1.9-0.8c-0.6-0.2-1.3-0.4-2-0.6c-1.5-0.4-2.9-1-4.3-1.7
	c-1.3-0.7-2.4-1.6-3.3-2.8c-0.6-0.8-1.1-1.7-1.5-2.6c-0.3-1-0.5-2-0.5-3c0-1.4,0.3-2.7,0.8-4c0.5-1.3,1.3-2.4,2.3-3.3
	c2-2,4.6-3.1,7.4-3.1c1.3,0,2.5,0.2,3.7,0.7c1.2,0.4,2.2,1.1,3.2,1.9c1.6,1.3,2.7,3.1,3.2,5.1l-4.8,1c-0.3-0.8-0.7-1.5-1.3-2.1
	c-1.6-1.6-3.9-2.1-6-1.2c-1.3,0.6-2.4,1.7-3,3c-0.3,0.7-0.4,1.4-0.4,2.1c0,0.5,0.1,1,0.2,1.5c0.1,0.4,0.4,0.8,0.6,1.2
	c0.3,0.4,0.6,0.7,1,1c0.4,0.3,0.8,0.5,1.2,0.8c0.4,0.2,0.9,0.4,1.3,0.6c0.5,0.2,1,0.4,1.3,0.5l1.3,0.4l1.2,0.4
	c0.9,0.3,1.7,0.7,2.5,1.1c0.8,0.4,1.6,0.9,2.3,1.5c0.7,0.6,1.3,1.2,1.9,1.9c0.5,0.7,1,1.5,1.3,2.3c0.3,0.9,0.5,1.8,0.5,2.8
	c0,1.4-0.3,2.8-0.9,4.1c-0.6,1.3-1.4,2.4-2.5,3.3c-1,0.9-2.2,1.7-3.5,2.2c-2.8,1.1-5.9,1.1-8.7-0.1c-1.4-0.6-2.7-1.5-3.8-2.7
	c-1.1-1.1-1.9-2.5-2.3-4l4.9-1c0.5,1.1,1.3,2,2.3,2.7c1,0.7,2.2,1,3.4,1C311.2,335.9,312,335.7,312.7,335.4z"/>
<path d="M329.8,304.2v15.7H346v-15.7h4.8v36.3H346v-15.7h-16.2v15.7H325v-36.3H329.8z"/>
<path d="M379.7,305.2c2.2,1,4.3,2.4,6,4.1c5.3,5.3,6.9,13.2,4.1,20.1c-0.9,2.2-2.3,4.3-4.1,6c-5.3,5.2-13.2,6.8-20.1,4
	c-2.3-0.9-4.3-2.3-6-4c-1.7-1.7-3.1-3.7-4-6c-0.9-2.2-1.4-4.6-1.3-7c0-2.4,0.4-4.8,1.3-7.1c0.9-2.2,2.3-4.3,4-6
	c1.7-1.7,3.8-3.1,6-4.1C370.1,303.5,375.2,303.5,379.7,305.2L379.7,305.2z M367.5,309.8c-1.6,0.7-3.1,1.7-4.3,3
	c-1.3,1.2-2.3,2.7-3,4.4c-0.7,1.6-1,3.4-1,5.2c0,1.8,0.3,3.5,1,5.2c0.7,1.6,1.7,3.1,3,4.4c1.2,1.3,2.7,2.3,4.3,3
	c1.7,0.7,3.4,1,5.2,1c5.5-0.1,10.4-3.3,12.5-8.3c0.7-1.6,1-3.4,1-5.2c0-1.8-0.3-3.5-1-5.2c-0.7-1.6-1.7-3.1-3-4.4
	c-1.3-1.3-2.7-2.3-4.4-3c-1.6-0.7-3.4-1-5.2-1C370.8,308.8,369.1,309.1,367.5,309.8z"/>
<path d="M394.5,330.2v-26h12.3c1.6,0,3.2,0.3,4.7,0.9c4.7,1.8,7.7,6.4,7.6,11.4c0.1,3.3-1.2,6.4-3.6,8.6c-2.3,2.4-5.4,3.7-8.7,3.6
	h-7.4v11.8h-4.9V330.2z M399.4,323.9h1.5h5.9c2,0,3.9-0.8,5.3-2.2c0.7-0.7,1.2-1.5,1.6-2.4c0.7-1.8,0.7-3.9,0-5.7
	c-0.4-0.9-0.9-1.7-1.6-2.4c-1.4-1.4-3.3-2.3-5.3-2.2h-7.4V323.9L399.4,323.9z"/>
<g>
	<path d="M201.6,287.7h-13.3l-2.6,7.4H173l15.8-42h12.3l15.9,42h-12.8L201.6,287.7z M198.2,278l-3.2-9.2l-3.2,9.2H198.2z"/>
	<path d="M252.3,285.4v9.7h-29.2v-42h11.5v32.3H252.3z"/>
	<path d="M284.7,287.7h-13.3l-2.6,7.4h-12.8l15.8-42h12.3l15.9,42h-12.8L284.7,287.7z M281.3,278l-3.2-9.2l-3.2,9.2H281.3z"/>
	<path d="M321.9,281.7h-4.2v13.5h-11.5v-42h17.2c10.1,0,16.4,6.2,16.4,14.2c0,5-2.5,9.4-6.8,11.9l9.2,15.9h-12.6L321.9,281.7z
		 M317.7,271.9h5.3c4.9,0,6.5-1.9,6.5-4.6c0-2.6-1.6-4.5-6.5-4.5h-5.3V271.9z"/>
	<path d="M375.3,287.7H362l-2.6,7.4h-12.8l15.8-42h12.3l15.9,42h-12.8L375.3,287.7z M371.9,278l-3.2-9.2l-3.2,9.2H371.9z"/>
	<path d="M419.8,295.1l-11.6-18.5v18.5h-11.5v-42h11.5v17.5l9.9-17.5h13.4l-12.1,20.3l13.8,21.7H419.8z"/>
</g>
</svg>
