<svg id="Layer_1" data-name="Layer 1" xmlns="http://www.w3.org/2000/svg" viewBox="0 0 592.29 592.29"><defs><style>.cls-1{fill:#fff;}</style></defs><title>ags3</title><path d="M960.85,244.38C797.3,244.38,664.71,377,664.71,540.53S797.3,836.67,960.85,836.67,1257,704.08,1257,540.53,1124.41,244.38,960.85,244.38Zm0,537.37c-133.22,0-241.22-108-241.22-241.22s108-241.23,241.22-241.23,241.23,108,241.23,241.23S1094.08,781.75,960.85,781.75Z" transform="translate(-664.71 -244.38)"/><path d="M1098.55,431.74a50.47,50.47,0,0,1-50.47-50.47,51,51,0,0,1,.52-7.25,188.56,188.56,0,0,0-175.49,0,51,51,0,0,1,.52,7.25,50.5,50.5,0,0,1-64.84,48.39,187.35,187.35,0,0,0-36.11,110.87H1149a187.35,187.35,0,0,0-36.11-110.87A50.41,50.41,0,0,1,1098.55,431.74Zm-229.82,97a41.17,41.17,0,1,1,41.16-41.17A41.16,41.16,0,0,1,868.73,528.77Zm92.12-50.48A41.16,41.16,0,1,1,1002,437.13,41.16,41.16,0,0,1,960.85,478.29ZM1053,528.77a41.17,41.17,0,1,1,41.16-41.17A41.16,41.16,0,0,1,1053,528.77Z" transform="translate(-664.71 -244.38)"/><path d="M823.15,649.31a50.49,50.49,0,0,1,50,57.72,188.48,188.48,0,0,0,175.49,0,50.49,50.49,0,0,1,64.31-55.64A187.29,187.29,0,0,0,1149,540.53H772.68a187.29,187.29,0,0,0,36.11,110.86A50.47,50.47,0,0,1,823.15,649.31Zm229.83-97a41.16,41.16,0,1,1-41.16,41.16A41.16,41.16,0,0,1,1053,552.29Zm-92.13,50.47a41.17,41.17,0,1,1-41.16,41.16A41.16,41.16,0,0,1,960.85,602.76Zm-92.12-50.47a41.16,41.16,0,1,1-41.16,41.16A41.16,41.16,0,0,1,868.73,552.29Z" transform="translate(-664.71 -244.38)"/><rect x="18.54" y="233.75" width="555.21" height="124.79"/><rect class="cls-1" x="50.88" y="241.02" width="490.53" height="110.26"/><path d="M841.75,539.38h-6.21l-3.22-7.15H813.88l-3.22,7.15h-6.21l18.65-43.81Zm-18.66-11.82h7.1c-1.18-2.72-2.37-5.65-3.54-8.79s-2.35-6.07-3.52-8.81q-1.78,4.11-3.58,8.81c-1.19,3.14-2.38,6.07-3.54,8.79Z" transform="translate(-664.71 -244.38)"/><path d="M874.18,525.34V495.89H880v44.28L851.65,510V539.5h-5.81v-44Z" transform="translate(-664.71 -244.38)"/><path d="M921.39,539.38h-6.22L912,532.23H893.51l-3.21,7.15h-6.22l18.65-43.81Zm-18.67-11.82h7.11q-1.79-4.08-3.55-8.79T902.76,510c-1.18,2.74-2.38,5.68-3.57,8.81s-2.38,6.07-3.55,8.79Z" transform="translate(-664.71 -244.38)"/><path d="M942.55,495.74a24.37,24.37,0,0,1,4.44.41,21.11,21.11,0,0,1,4.11,1.31,27.89,27.89,0,0,1,3.8,2.08c.7.48,1.34,1,1.92,1.43l-4.17,4.17a16.25,16.25,0,0,0-3.88-2.36,15.91,15.91,0,0,0-6.16-1.2,16.14,16.14,0,0,0-6.19,1.2,16.57,16.57,0,0,0-5.2,3.56,16.24,16.24,0,0,0-3.53,5.22h0a15.9,15.9,0,0,0,3.56,17.61,15.05,15.05,0,0,0,5.2,3.53,16.14,16.14,0,0,0,6.19,1.2,16.36,16.36,0,0,0,6.22-1.2,14.38,14.38,0,0,0,3.88-2.34l4.14,4.18c-.58.48-1.22,1-1.92,1.43a21.36,21.36,0,0,1-3.8,2.07,19.57,19.57,0,0,1-4.11,1.28,21.16,21.16,0,0,1-4.44.44,22,22,0,0,1-8.44-1.6,21.54,21.54,0,0,1-7.12-4.85,21.11,21.11,0,0,1-4.85-7.15,23,23,0,0,1,0-16.87,23.15,23.15,0,0,1,12-12.06,21.52,21.52,0,0,1,6.07-1.49Z" transform="translate(-664.71 -244.38)"/><path d="M985.4,497.23a22.5,22.5,0,0,1,7.15,4.91,22.19,22.19,0,0,1,4.88,24.05,21.64,21.64,0,0,1-4.88,7.12,22.41,22.41,0,0,1-24,4.85,21.44,21.44,0,0,1-7.12-4.85,21,21,0,0,1-4.85-7.15,23,23,0,0,1,0-16.87,23.15,23.15,0,0,1,12-12.06,23.11,23.11,0,0,1,16.9,0Zm-14.65,5.46a16.49,16.49,0,0,0-5.2,3.56,15.47,15.47,0,0,0-4.73,11.41,15.88,15.88,0,0,0,1.17,6.19,15.56,15.56,0,0,0,3.56,5.23,14.92,14.92,0,0,0,5.2,3.53,16.18,16.18,0,0,0,6.22,1.2,15.91,15.91,0,0,0,6.16-1.2,16.78,16.78,0,0,0,8.78-8.76,15.34,15.34,0,0,0,1.23-6.19,15.6,15.6,0,0,0-1.23-6.18,17.37,17.37,0,0,0-3.53-5.23,17.07,17.07,0,0,0-5.25-3.56,15.91,15.91,0,0,0-6.16-1.2A16.18,16.18,0,0,0,970.75,502.69Z" transform="translate(-664.71 -244.38)"/><path d="M1003.15,496h13.55a16.76,16.76,0,0,1,6.13,1.13,15.18,15.18,0,0,1,4.9,3.13,14.37,14.37,0,0,1,3.09,4.29,12.54,12.54,0,0,1,.94,5.11v1.22a12.58,12.58,0,0,1-.67,4.15,16.19,16.19,0,0,1-2,3.76,10,10,0,0,1-2.16,2.31,11.34,11.34,0,0,1-2.68,1.4l-2,.82,1.2,1.87,9.17,14.21h-7.24l-9.9-15.21H1009v15.21h-5.84Zm14.42,22.39,0,0a7.72,7.72,0,0,0,3.12-.58,8.92,8.92,0,0,0,2.49-1.84,7.88,7.88,0,0,0,1.86-2.8,8.5,8.5,0,0,0,.56-3.24,8.61,8.61,0,0,0-.56-3.15,9.24,9.24,0,0,0-1.84-2.63v0a7.9,7.9,0,0,0-3.15-1.81,12.42,12.42,0,0,0-4-.61H1009v16.64h1.81l2.19,0h4.58Z" transform="translate(-664.71 -244.38)"/><path d="M1050.38,496h9.75v5.75h-11.59v37.65h-5.81V501.73h-11.58V496h19.23Z" transform="translate(-664.71 -244.38)"/><path d="M1088.91,495.89v5.78H1070V514.8h14.16v5.78H1070v13.14h18.88v5.78h-24.69V495.89Z" transform="translate(-664.71 -244.38)"/><path d="M1106.63,533.32A9.13,9.13,0,0,0,1109,532a6.25,6.25,0,0,0,1.68-2.06,5.59,5.59,0,0,0,.64-2.63,4.56,4.56,0,0,0-.49-2.18,5.69,5.69,0,0,0-1.31-1.73,9.53,9.53,0,0,0-2-1.33,17.9,17.9,0,0,0-2.25-1c-.71-.25-1.49-.5-2.35-.73a23.47,23.47,0,0,1-5.13-2.06,13.79,13.79,0,0,1-3.93-3.31,10.32,10.32,0,0,1-1.79-3.13,10.6,10.6,0,0,1-.63-3.64,12.37,12.37,0,0,1,1-4.84,12.21,12.21,0,0,1,2.69-4,12.48,12.48,0,0,1,4-2.71,12.59,12.59,0,0,1,9.29-.16,12.6,12.6,0,0,1,3.8,2.26,12.12,12.12,0,0,1,3.84,6.06l-5.79,1.22a6.82,6.82,0,0,0-1.57-2.46,6.41,6.41,0,0,0-4.65-1.95,6.31,6.31,0,0,0-2.54.52,6.67,6.67,0,0,0-2.12,1.43,6.88,6.88,0,0,0-1.45,2.13,6.3,6.3,0,0,0-.52,2.53,5.46,5.46,0,0,0,.29,1.79,5.32,5.32,0,0,0,.73,1.45,6.05,6.05,0,0,0,1.16,1.16,10.22,10.22,0,0,0,1.38.91,16.16,16.16,0,0,0,1.58.73c.62.24,1.15.44,1.6.58l1.59.5,1.4.46a22.25,22.25,0,0,1,3,1.33,17.75,17.75,0,0,1,2.75,1.83,14.05,14.05,0,0,1,2.26,2.31,9.87,9.87,0,0,1,1.52,2.81,9.62,9.62,0,0,1,.57,3.3,11.33,11.33,0,0,1-1.11,4.91,12.47,12.47,0,0,1-2.94,4,14,14,0,0,1-4.24,2.64,13,13,0,0,1-5,1,13.4,13.4,0,0,1-5.41-1.14,13.69,13.69,0,0,1-4.56-3.23,12.26,12.26,0,0,1-2.78-4.77l5.82-1.24a6.9,6.9,0,0,0,2.78,3.2,7.63,7.63,0,0,0,4.12,1.25A9.2,9.2,0,0,0,1106.63,533.32Z" transform="translate(-664.71 -244.38)"/><path d="M861.39,548.32h1.1a17.6,17.6,0,0,1,3.68.37,18.22,18.22,0,0,1,3.44,1.07,20.53,20.53,0,0,1,3.18,1.73c.45.31,1,.71,1.61,1.2l-3.47,3.49a13.69,13.69,0,0,0-3.24-1.95,13.06,13.06,0,0,0-5.15-1,12.9,12.9,0,0,0-5.18,1,13.35,13.35,0,0,0-4.37,3,14,14,0,0,0-3,4.36,13.61,13.61,0,0,0-1,5.18,13.45,13.45,0,0,0,1,5.17,13.61,13.61,0,0,0,3,4.37,13.19,13.19,0,0,0,4.37,3,13.65,13.65,0,0,0,5.18,1,13.37,13.37,0,0,0,4.17-.66,12.47,12.47,0,0,0,3.68-1.88,13.73,13.73,0,0,0,2.49-2.37,13,13,0,0,0,1.83-2.85l1-2.17H863.63v-4.52h17.21a19.83,19.83,0,0,1-1.05,7.15,17.22,17.22,0,0,1-4.29,6.81,18.86,18.86,0,0,1-6,4.05,18,18,0,0,1-7.06,1.34,17.7,17.7,0,0,1-13-5.39,17.61,17.61,0,0,1-4.05-5.95,19.37,19.37,0,0,1,0-14.16,19.36,19.36,0,0,1,10-10.06,17.82,17.82,0,0,1,6-1.34Z" transform="translate(-664.71 -244.38)"/><path d="M913,548.57v22.3A13.58,13.58,0,0,1,908.82,581v0a14.34,14.34,0,0,1-4.66,3.15,14.15,14.15,0,0,1-5.5,1,14.46,14.46,0,0,1-5.54-1,13.66,13.66,0,0,1-4.66-3.19,14.17,14.17,0,0,1-3.17-4.64,14.58,14.58,0,0,1-1-5.52v-22.3h4.91v22.28a9.37,9.37,0,0,0,.71,3.61,9.6,9.6,0,0,0,2.07,3,9,9,0,0,0,3.08,2.08,9.11,9.11,0,0,0,3.61.7,9.11,9.11,0,0,0,6.64-2.78,9,9,0,0,0,2.83-6.66V548.57Z" transform="translate(-664.71 -244.38)"/><path d="M941.59,573.12V548.49h4.86v37l-23.7-25.26V585H917.9V548.2Z" transform="translate(-664.71 -244.38)"/><path d="M977.37,579.79a7.57,7.57,0,0,0,2-1.14,5.23,5.23,0,0,0,1.4-1.72,4.68,4.68,0,0,0,.54-2.2,3.77,3.77,0,0,0-.41-1.82,4.84,4.84,0,0,0-1.1-1.45,8,8,0,0,0-1.65-1.12,14.76,14.76,0,0,0-1.87-.83c-.6-.22-1.25-.42-2-.62a19.49,19.49,0,0,1-4.29-1.72,11.7,11.7,0,0,1-3.29-2.76,8.82,8.82,0,0,1-1.49-2.62,8.92,8.92,0,0,1-.53-3,10.24,10.24,0,0,1,.81-4,10.09,10.09,0,0,1,2.25-3.35,10.48,10.48,0,0,1,7.43-3.07,10.25,10.25,0,0,1,3.71.67,10.59,10.59,0,0,1,3.17,1.89,10.28,10.28,0,0,1,3.22,5.07l-4.85,1a5.59,5.59,0,0,0-1.31-2.06,5.45,5.45,0,0,0-6-1.2,5.68,5.68,0,0,0-3,3,5.28,5.28,0,0,0-.44,2.11,4.58,4.58,0,0,0,.24,1.5,4.37,4.37,0,0,0,.62,1.2,4.62,4.62,0,0,0,1,1,8.94,8.94,0,0,0,1.16.77,14.14,14.14,0,0,0,1.32.61c.52.2,1,.36,1.34.48l1.33.42,1.17.39a17.33,17.33,0,0,1,2.52,1.11,14.58,14.58,0,0,1,2.3,1.53,11.85,11.85,0,0,1,1.89,1.93,8.43,8.43,0,0,1,1.27,2.35,8,8,0,0,1,.48,2.75,9.43,9.43,0,0,1-.93,4.11,10.51,10.51,0,0,1-2.46,3.35,12,12,0,0,1-3.55,2.21,11,11,0,0,1-8.66-.14,11.27,11.27,0,0,1-3.82-2.7,10.2,10.2,0,0,1-2.32-4l4.87-1a5.73,5.73,0,0,0,2.32,2.67,6.31,6.31,0,0,0,3.44,1A7.23,7.23,0,0,0,977.37,579.79Z" transform="translate(-664.71 -244.38)"/><path d="M994.51,548.57v15.74h16.18V548.57h4.83v36.29h-4.83V569.12H994.51v15.74h-4.84V548.57Z" transform="translate(-664.71 -244.38)"/><path d="M1044.42,549.61a18.92,18.92,0,0,1,6,4.11,18.52,18.52,0,0,1,4.08,20.11,18,18,0,0,1-4.08,5.95,18.74,18.74,0,0,1-20.11,4.05,17.8,17.8,0,0,1-6-4.05,17.53,17.53,0,0,1-4-6,17.83,17.83,0,0,1-1.34-7,18,18,0,0,1,1.34-7.06,18.4,18.4,0,0,1,4-6,18.63,18.63,0,0,1,6-4.08,19.32,19.32,0,0,1,14.14,0Zm-12.26,4.57a13.67,13.67,0,0,0-4.34,3,13.46,13.46,0,0,0-3,4.36,13.6,13.6,0,0,0-1,5.18,13.3,13.3,0,0,0,1,5.17,13,13,0,0,0,3,4.37,12.4,12.4,0,0,0,4.34,3,13.53,13.53,0,0,0,5.2,1,13.74,13.74,0,0,0,12.5-8.33,12.93,12.93,0,0,0,1-5.17,13.22,13.22,0,0,0-1-5.18,14.41,14.41,0,0,0-3-4.36,14.06,14.06,0,0,0-4.39-3,13.28,13.28,0,0,0-5.15-1A13.53,13.53,0,0,0,1032.16,554.18Z" transform="translate(-664.71 -244.38)"/><path d="M1059.25,574.58v-26h12.28a12.05,12.05,0,0,1,4.71.9,12,12,0,0,1,7.59,11.37,11.5,11.5,0,0,1-3.59,8.64,11.8,11.8,0,0,1-8.71,3.59h-7.42v11.79h-4.86Zm4.86-6.32h1.51l5.91,0a7.14,7.14,0,0,0,5.27-2.18,7.89,7.89,0,0,0,1.61-2.41,7.51,7.51,0,0,0,0-5.69,7.79,7.79,0,0,0-1.61-2.42,7.09,7.09,0,0,0-5.27-2.22h-7.42v14.89Z" transform="translate(-664.71 -244.38)"/></svg>