<svg id="Layer_1" data-name="Layer 1" xmlns="http://www.w3.org/2000/svg" viewBox="0 0 142.16 406.7"><defs><style>.cls-1{fill:#71dbd1;}.cls-2{fill:#40ada5;}.cls-3{fill:#5f8985;}.cls-4,.cls-5{fill:#8080e0;}.cls-4,.cls-6,.cls-7{stroke:#000;stroke-miterlimit:10;}.cls-6,.cls-8{fill:#3f3faf;}.cls-7,.cls-9{fill:#5e5e96;}</style></defs><title>ai</title><polygon class="cls-1" points="59.56 144.72 71.39 137.72 83.22 144.55 71.39 151.55 59.56 144.72"/><polygon class="cls-2" points="71.39 151.56 71.39 166.04 83.22 159.05 83.22 144.55 71.39 151.56"/><polygon class="cls-3" points="59.56 144.72 71.39 151.56 71.39 166.04 59.56 159.07 59.56 144.72"/><polygon class="cls-4" points="117.8 0.58 94.44 14.39 24.35 55.47 0.99 69.28 24.35 82.77 47.72 69.28 117.8 27.88 141.17 14.39 117.8 0.58"/><path class="cls-5" d="M58.4,162.87" transform="translate(0.99 0.58)"/><path class="cls-5" d="M84.19,149.17" transform="translate(0.99 0.58)"/><polygon class="cls-6" points="141.39 178.65 141.39 177.42 141.39 14.24 117.99 27.75 47.79 69.22 24.39 82.73 24.39 247.4 24.39 247.4 24.39 404.56 47.39 390.96 47.39 232.52 47.39 112.6 118.39 72.2 118.39 192.41 118.39 192.41 118.39 350.25 141.39 336.65 141.39 178.65"/><polygon class="cls-7" points="24.39 218 24.39 82.77 1.39 69.28 1.39 232.69 1.39 392.34 24.39 405.83 24.39 218 24.39 218"/><polygon class="cls-7" points="118.39 72.2 95.39 85.28 94.46 338.14 118.39 350.25 118.39 72.2"/><polygon class="cls-5" points="59.62 172.18 58.39 172.91 59.62 173.62 60.86 172.89 59.62 172.18"/><polygon class="cls-8" points="60.86 172.89 59.62 173.62 59.62 175.12 60.86 174.39 60.86 172.89"/><polygon class="cls-9" points="59.62 175.12 59.62 173.62 58.39 172.91 58.39 174.5 59.62 175.12"/><polygon class="cls-5" points="63.6 163.96 62.36 164.69 63.6 165.4 64.83 164.67 63.6 163.96"/><polygon class="cls-8" points="64.83 164.67 63.6 165.4 63.6 166.9 64.83 166.17 64.83 164.67"/><polygon class="cls-9" points="63.6 166.9 63.6 165.4 62.36 164.69 62.36 166.28 63.6 166.9"/><polygon class="cls-5" points="68.41 165.43 67.17 166.16 68.41 166.87 69.64 166.14 68.41 165.43"/><polygon class="cls-8" points="69.64 166.14 68.41 166.87 68.41 168.38 69.64 167.64 69.64 166.14"/><polygon class="cls-9" points="68.41 168.38 68.41 166.87 67.17 166.16 67.17 167.75 68.41 168.38"/><polygon class="cls-5" points="64.39 168.93 63.15 169.66 64.39 170.37 65.62 169.64 64.39 168.93"/><polygon class="cls-8" points="65.62 169.64 64.39 170.37 64.39 171.88 65.62 171.14 65.62 169.64"/><polygon class="cls-9" points="64.39 171.88 64.39 170.37 63.15 169.66 63.15 171.25 64.39 171.88"/><polygon class="cls-5" points="64.21 175.97 62.98 176.7 64.21 177.41 65.45 176.68 64.21 175.97"/><polygon class="cls-8" points="65.45 176.68 64.21 177.41 64.21 178.92 65.45 178.18 65.45 176.68"/><polygon class="cls-9" points="64.21 178.92 64.21 177.41 62.98 176.7 62.98 178.29 64.21 178.92"/><polygon class="cls-5" points="60.24 187.01 59.01 187.74 60.24 188.45 61.47 187.72 60.24 187.01"/><polygon class="cls-8" points="61.47 187.72 60.24 188.45 60.24 189.96 61.47 189.22 61.47 187.72"/><polygon class="cls-9" points="60.24 189.96 60.24 188.45 59.01 187.74 59.01 189.33 60.24 189.96"/><polygon class="cls-5" points="75.56 186.45 74.33 187.18 75.56 187.89 76.8 187.16 75.56 186.45"/><polygon class="cls-8" points="76.8 187.16 75.56 187.89 75.56 189.4 76.8 188.66 76.8 187.16"/><polygon class="cls-9" points="75.56 189.4 75.56 187.89 74.33 187.18 74.33 188.77 75.56 189.4"/><polygon class="cls-5" points="69.02 203.99 67.79 204.72 69.02 205.43 70.26 204.7 69.02 203.99"/><polygon class="cls-8" points="70.26 204.7 69.02 205.43 69.02 206.94 70.26 206.2 70.26 204.7"/><polygon class="cls-9" points="69.02 206.94 69.02 205.43 67.79 204.72 67.79 206.31 69.02 206.94"/><polygon class="cls-5" points="70.77 212.87 69.54 213.6 70.77 214.31 72.01 213.58 70.77 212.87"/><polygon class="cls-8" points="72.01 213.58 70.77 214.31 70.77 215.81 72.01 215.08 72.01 213.58"/><polygon class="cls-9" points="70.77 215.81 70.77 214.31 69.54 213.6 69.54 215.18 70.77 215.81"/><polygon class="cls-5" points="76.8 194.18 75.56 194.91 76.8 195.62 78.03 194.89 76.8 194.18"/><polygon class="cls-8" points="78.03 194.89 76.8 195.62 76.8 197.12 78.03 196.39 78.03 194.89"/><polygon class="cls-9" points="76.8 197.12 76.8 195.62 75.56 194.91 75.56 196.5 76.8 197.12"/><polygon class="cls-5" points="71.39 198.33 70.15 199.06 71.39 199.77 72.62 199.05 71.39 198.33"/><polygon class="cls-8" points="72.62 199.05 71.39 199.77 71.39 201.28 72.62 200.54 72.62 199.05"/><polygon class="cls-9" points="71.39 201.28 71.39 199.77 70.15 199.06 70.15 200.65 71.39 201.28"/><polygon class="cls-5" points="79.37 204.75 78.14 205.48 79.37 206.2 80.6 205.46 79.37 204.75"/><polygon class="cls-8" points="80.6 205.46 79.37 206.2 79.37 207.7 80.6 206.96 80.6 205.46"/><polygon class="cls-9" points="79.37 207.7 79.37 206.2 78.14 205.48 78.14 207.07 79.37 207.7"/><polygon class="cls-5" points="68.92 223.35 67.69 224.08 68.92 224.79 70.15 224.06 68.92 223.35"/><polygon class="cls-8" points="70.15 224.06 68.92 224.79 68.92 226.29 70.15 225.56 70.15 224.06"/><polygon class="cls-9" points="68.92 226.3 68.92 224.79 67.69 224.08 67.69 225.67 68.92 226.3"/><polygon class="cls-5" points="76.18 213.26 74.95 213.99 76.18 214.71 77.41 213.98 76.18 213.26"/><polygon class="cls-8" points="77.41 213.98 76.18 214.71 76.18 216.21 77.41 215.47 77.41 213.98"/><polygon class="cls-9" points="76.18 216.21 76.18 214.71 74.95 213.99 74.95 215.58 76.18 216.21"/><polygon class="cls-5" points="68.3 232.8 67.07 233.53 68.3 234.25 69.54 233.52 68.3 232.8"/><polygon class="cls-8" points="69.54 233.52 68.3 234.25 68.3 235.75 69.54 235.02 69.54 233.52"/><polygon class="cls-9" points="68.3 235.75 68.3 234.25 67.07 233.53 67.07 235.12 68.3 235.75"/><polygon class="cls-5" points="64.39 237.72 63.15 238.45 64.39 239.16 65.62 238.43 64.39 237.72"/><polygon class="cls-8" points="65.62 238.43 64.39 239.16 64.39 240.67 65.62 239.93 65.62 238.43"/><polygon class="cls-9" points="64.39 240.67 64.39 239.16 63.15 238.45 63.15 240.04 64.39 240.67"/><polygon class="cls-5" points="64.63 282.67 63.4 283.4 64.63 284.11 65.87 283.38 64.63 282.67"/><polygon class="cls-8" points="65.87 283.38 64.63 284.11 64.63 285.62 65.87 284.88 65.87 283.38"/><polygon class="cls-9" points="64.63 285.62 64.63 284.11 63.4 283.4 63.4 284.99 64.63 285.62"/><polygon class="cls-5" points="71.25 296.9 70.02 297.63 71.25 298.34 72.48 297.61 71.25 296.9"/><polygon class="cls-8" points="72.48 297.61 71.25 298.34 71.25 299.85 72.48 299.11 72.48 297.61"/><polygon class="cls-9" points="71.25 299.85 71.25 298.34 70.02 297.63 70.02 299.22 71.25 299.85"/><polygon class="cls-5" points="66.68 278.42 65.45 279.15 66.68 279.86 67.91 279.13 66.68 278.42"/><polygon class="cls-8" points="67.91 279.13 66.68 279.86 66.68 281.37 67.91 280.63 67.91 279.13"/><polygon class="cls-9" points="66.68 281.37 66.68 279.86 65.45 279.15 65.45 280.74 66.68 281.37"/><polygon class="cls-5" points="70.02 273.42 68.78 274.15 70.02 274.86 71.25 274.13 70.02 273.42"/><polygon class="cls-8" points="71.25 274.13 70.02 274.86 70.02 276.37 71.25 275.63 71.25 274.13"/><polygon class="cls-9" points="70.02 276.37 70.02 274.86 68.78 274.15 68.78 275.74 70.02 276.37"/><polygon class="cls-5" points="67.08 307.71 65.85 308.44 67.08 309.15 68.31 308.42 67.08 307.71"/><polygon class="cls-8" points="68.31 308.42 67.08 309.15 67.08 310.66 68.31 309.92 68.31 308.42"/><polygon class="cls-9" points="67.08 310.66 67.08 309.15 65.85 308.44 65.85 310.03 67.08 310.66"/><polygon class="cls-5" points="62.93 312.18 61.7 312.91 62.93 313.62 64.16 312.89 62.93 312.18"/><polygon class="cls-8" points="64.16 312.89 62.93 313.62 62.93 315.13 64.16 314.39 64.16 312.89"/><polygon class="cls-9" points="62.93 315.13 62.93 313.62 61.7 312.91 61.7 314.5 62.93 315.13"/><polygon class="cls-5" points="75.41 250.72 74.18 251.45 75.41 252.16 76.65 251.43 75.41 250.72"/><polygon class="cls-8" points="76.65 251.43 75.41 252.16 75.41 253.67 76.65 252.93 76.65 251.43"/><polygon class="cls-9" points="75.41 253.67 75.41 252.16 74.18 251.45 74.18 253.04 75.41 253.67"/><polygon class="cls-5" points="72.62 256.07 71.39 256.8 72.62 257.51 73.85 256.78 72.62 256.07"/><polygon class="cls-8" points="73.85 256.78 72.62 257.51 72.62 259.02 73.85 258.28 73.85 256.78"/><polygon class="cls-9" points="72.62 259.02 72.62 257.51 71.39 256.8 71.39 258.39 72.62 259.02"/><polygon class="cls-5" points="80.83 265.39 79.6 266.12 80.83 266.83 82.07 266.1 80.83 265.39"/><polygon class="cls-8" points="82.07 266.1 80.83 266.83 80.83 268.34 82.07 267.6 82.07 266.1"/><polygon class="cls-9" points="80.83 268.34 80.83 266.83 79.6 266.12 79.6 267.71 80.83 268.34"/><polygon class="cls-5" points="68 249.43 66.77 250.16 68 250.87 69.23 250.14 68 249.43"/><polygon class="cls-8" points="69.23 250.14 68 250.87 68 252.38 69.23 251.64 69.23 250.14"/><polygon class="cls-9" points="68 252.38 68 250.87 66.77 250.16 66.77 251.75 68 252.38"/><polygon class="cls-5" points="68.41 186.2 65.41 187.96 68.41 189.69 71.4 187.92 68.41 186.2"/><polygon class="cls-8" points="71.4 187.92 68.41 189.69 68.41 193.35 71.4 191.56 71.4 187.92"/><polygon class="cls-9" points="68.41 193.35 68.41 189.69 65.41 187.96 65.41 191.82 68.41 193.35"/><polygon class="cls-5" points="62.22 226.59 59.23 228.36 62.22 230.09 65.22 228.32 62.22 226.59"/><polygon class="cls-8" points="65.22 228.32 62.22 230.09 62.22 233.74 65.22 231.96 65.22 228.32"/><polygon class="cls-9" points="62.22 233.75 62.22 230.09 59.23 228.36 59.23 232.22 62.22 233.75"/><polygon class="cls-5" points="65.45 286.81 62.45 288.58 65.45 290.31 68.44 288.54 65.45 286.81"/><polygon class="cls-8" points="68.44 288.54 65.45 290.31 65.45 293.96 68.44 292.17 68.44 288.54"/><polygon class="cls-9" points="65.45 293.96 65.45 290.31 62.45 288.58 62.45 292.44 65.45 293.96"/><polygon class="cls-5" points="63.22 198.33 61.23 199.51 63.22 200.66 65.21 199.48 63.22 198.33"/><polygon class="cls-8" points="65.21 199.48 63.22 200.66 63.22 203.08 65.21 201.89 65.21 199.48"/><polygon class="cls-9" points="63.22 203.08 63.22 200.66 61.23 199.51 61.23 202.07 63.22 203.08"/><polygon class="cls-5" points="85.81 205.93 83.83 207.1 85.81 208.25 87.8 207.07 85.81 205.93"/><polygon class="cls-8" points="87.8 207.07 85.81 208.25 85.81 210.68 87.8 209.49 87.8 207.07"/><polygon class="cls-9" points="85.81 210.68 85.81 208.25 83.83 207.1 83.83 209.66 85.81 210.68"/><polygon class="cls-5" points="82.83 199.65 80.85 200.82 82.83 201.97 84.82 200.79 82.83 199.65"/><polygon class="cls-8" points="84.82 200.79 82.83 201.97 82.83 204.39 84.82 203.21 84.82 200.79"/><polygon class="cls-9" points="82.83 204.39 82.83 201.97 80.85 200.82 80.85 203.38 82.83 204.39"/><polygon class="cls-5" points="69.4 240.27 67.41 241.45 69.4 242.59 71.39 241.42 69.4 240.27"/><polygon class="cls-8" points="71.39 241.42 69.4 242.59 69.4 245.02 71.39 243.83 71.39 241.42"/><polygon class="cls-9" points="69.4 245.02 69.4 242.59 67.41 241.45 67.41 244.01 69.4 245.02"/><polygon class="cls-5" points="72.01 264.85 70.02 266.03 72.01 267.18 73.99 266 72.01 264.85"/><polygon class="cls-8" points="73.99 266 72.01 267.18 72.01 269.6 73.99 268.41 73.99 266"/><polygon class="cls-9" points="72.01 269.6 72.01 267.18 70.02 266.03 70.02 268.59 72.01 269.6"/><polygon class="cls-5" points="75.36 223.65 73.38 224.82 75.36 225.97 77.35 224.79 75.36 223.65"/><polygon class="cls-8" points="77.35 224.79 75.36 225.97 75.36 228.39 77.35 227.21 77.35 224.79"/><polygon class="cls-9" points="75.36 228.39 75.36 225.97 73.38 224.82 73.38 227.38 75.36 228.39"/><polygon class="cls-5" points="71.01 178.41 69.02 179.58 71.01 180.73 73 179.55 71.01 178.41"/><polygon class="cls-8" points="73 179.55 71.01 180.73 71.01 183.15 73 181.97 73 179.55"/><polygon class="cls-9" points="71.01 183.16 71.01 180.73 69.02 179.58 69.02 182.14 71.01 183.16"/><polygon class="cls-5" points="76.37 169.26 74.38 170.43 76.37 171.58 78.36 170.4 76.37 169.26"/><polygon class="cls-8" points="78.36 170.4 76.37 171.58 76.37 174.01 78.36 172.82 78.36 170.4"/><polygon class="cls-9" points="76.37 174.01 76.37 171.58 74.38 170.43 74.38 172.99 76.37 174.01"/><polygon class="cls-5" points="74.37 207.7 72.38 208.88 74.37 210.02 76.36 208.85 74.37 207.7"/><polygon class="cls-8" points="76.36 208.85 74.37 210.02 74.37 212.45 76.36 211.26 76.36 208.85"/><polygon class="cls-9" points="74.37 212.45 74.37 210.02 72.38 208.88 72.38 211.44 74.37 212.45"/></svg>