<svg xmlns="http://www.w3.org/2000/svg" viewBox="0 0 1037.09 550"><defs><style>.cls-1{fill:#2176cc;}.cls-2{fill:#fff;}.cls-3{font-size:72px;font-family:ProximaNovaT-Thin, Proxima Nova;}.cls-4{letter-spacing:-0.09em;}.cls-5{letter-spacing:0em;}.cls-6{letter-spacing:-0.02em;}.cls-7{letter-spacing:-0.01em;}</style></defs><title>askthelawyerslogo</title><g id="Layer_1" data-name="Layer 1"><polygon class="cls-1" points="518.47 450 778.28 0 258.67 0 518.47 450"/><polygon class="cls-1" points="259.81 0 0 450 519.62 450 259.81 0"/><polygon class="cls-1" points="777.28 0 517.47 450 1037.09 450 777.28 0"/><polygon class="cls-2" points="468.87 359.59 468.87 123 333.08 123 468.87 359.59"/><polygon class="cls-2" points="568.08 359.59 568.08 123 703.87 123 568.08 359.59"/><polygon class="cls-2" points="258.47 325 128.57 550 388.38 550 258.47 325"/><polygon class="cls-2" points="849.46 123 719.56 348 979.37 348 849.46 123"/></g><g id="Layer_2" data-name="Layer 2"><text class="cls-3" transform="translate(204.07 528.54)">As<tspan class="cls-4" x="78.48" y="0">k</tspan><tspan class="cls-5" x="107.71" y="0">The</tspan><tspan class="cls-6" x="227.09" y="0">L</tspan><tspan x="261.57" y="0">awyers</tspan><tspan class="cls-7" x="478.87" y="0">.</tspan><tspan x="493.12" y="0">com</tspan></text></g></svg>