<svg xmlns="http://www.w3.org/2000/svg" viewBox="0 0 1037.09 550"><defs><style>.cls-1{fill:#2176cc;}.cls-2{fill:#fff;}</style></defs><title>askthelawyerslogo</title><g id="Layer_1" data-name="Layer 1"><polygon class="cls-1" points="518.47 450 778.28 0 258.67 0 518.47 450"/><polygon class="cls-1" points="259.81 0 0 450 519.62 450 259.81 0"/><polygon class="cls-1" points="777.28 0 517.47 450 1037.09 450 777.28 0"/><polygon class="cls-2" points="468.87 359.59 468.87 123 333.08 123 468.87 359.59"/><polygon class="cls-2" points="568.08 359.59 568.08 123 703.87 123 568.08 359.59"/><polygon class="cls-2" points="258.47 325 128.57 550 388.38 550 258.47 325"/><polygon class="cls-2" points="849.46 123 719.56 348 979.37 348 849.46 123"/></g><g id="Layer_2" data-name="Layer 2"><path d="M406.21,641.65H379.43l-5.33,12.89h-2.67l20-48h2.74l20,48h-2.66Zm-25.92-2.16h25.06l-12.53-30.32Z" transform="translate(-165.85 -126)"/><path d="M420.61,648.27a13.42,13.42,0,0,0,11,5.19c6.4,0,10.29-3.46,10.29-8.07,0-5.11-5.18-6.48-10.51-7.92-5.76-1.51-11.81-3-11.81-9.36,0-5.11,4.32-9.21,11.81-9.21,6,0,9.72,2.37,11.95,5.25l-1.58,1.44c-2-2.88-5.69-4.75-10.37-4.75-6.05,0-9.65,3.17-9.65,7.27,0,4.54,4.82,5.69,9.94,7.06,6,1.51,12.38,3.17,12.38,10.22,0,5.4-4,10-12.45,10-5.48,0-9.29-1.58-12.75-5.54Z" transform="translate(-165.85 -126)"/><path d="M464,637l-7.2,6.63v10.87h-2.16v-48h2.16v34.42l22.68-21.17h3.1l-16.92,15.7,16.7,19.08h-3.09Z" transform="translate(-165.85 -126)"/><path d="M496.57,608.67h-16.2v-2.16h34.78v2.16H498.87v45.87h-2.3Z" transform="translate(-165.85 -126)"/><path d="M547.54,630.13c0-7.27-3.6-9.29-9-9.29-4.75,0-9.86,3.1-12.31,6.55v27.15h-2.16v-48h2.16v18.72c2.59-3.17,7.78-6.33,12.6-6.33,6.91,0,10.88,3,10.88,11.23v24.41h-2.17Z" transform="translate(-165.85 -126)"/><path d="M576.56,618.9c10.66,0,16.13,8.56,16.13,18.21v.72h-30c.22,8.5,5.76,15.63,14.62,15.63a15.85,15.85,0,0,0,12.1-5.26l1.29,1.37a17.39,17.39,0,0,1-13.39,5.83c-10.08,0-17.07-7.7-17.07-18.29C560.21,627,567.2,618.9,576.56,618.9Zm-13.9,17h27.73c0-6.7-4.4-15-13.9-15C567.56,620.84,562.88,629.05,562.66,635.89Z" transform="translate(-165.85 -126)"/><path d="M603.34,606.51h2.31v45.87h24.12v2.16H603.34Z" transform="translate(-165.85 -126)"/><path d="M660.15,650.29a15.33,15.33,0,0,1-12,5.11c-6.12,0-12.17-4.17-12.17-11.59s6-11.59,12.17-11.59a15.33,15.33,0,0,1,12,5.11v-7.85c0-5.62-4.46-8.64-9.79-8.64-4.54,0-7.92,1.58-11.16,5.47l-1.66-1.44c3.39-4,7-6,12.82-6,6.84,0,11.95,3.45,11.95,10.51v25.13h-2.16Zm0-10.8a14.06,14.06,0,0,0-11.45-5.33c-6.33,0-10.36,4.25-10.36,9.65s4,9.65,10.36,9.65a14.06,14.06,0,0,0,11.45-5.33Z" transform="translate(-165.85 -126)"/><path d="M693.85,623l-10.51,31.54h-1.73l-11.52-34.78h2.37l10.08,31.39L693,619.76h1.73l10.44,31.39,10.08-31.39h2.38l-11.52,34.78h-1.73Z" transform="translate(-165.85 -126)"/><path d="M726.25,666.71c2.3,0,3.89-1,5.47-4.75l3.17-7.21-14.91-35h2.52L736.18,652l13.61-32.26h2.52l-18.43,43c-1.66,3.74-4.18,5.9-7.63,5.9a12,12,0,0,1-3.46-.5l.43-2A8.68,8.68,0,0,0,726.25,666.71Z" transform="translate(-165.85 -126)"/><path d="M773.77,618.9c10.65,0,16.13,8.56,16.13,18.21v.72h-30c.22,8.5,5.76,15.63,14.62,15.63a15.84,15.84,0,0,0,12.09-5.26l1.3,1.37a17.39,17.39,0,0,1-13.39,5.83c-10.08,0-17.07-7.7-17.07-18.29C757.42,627,764.41,618.9,773.77,618.9Zm-13.9,17h27.72c0-6.7-4.39-15-13.89-15C764.77,620.84,760.09,629.05,759.87,635.89Z" transform="translate(-165.85 -126)"/><path d="M800.41,619.76h2.16v6.34c3.09-4.11,6.91-7,11.95-7v2.59a14.3,14.3,0,0,0-1.73-.07c-3.67,0-8.64,3.6-10.22,6.84v26.07h-2.16Z" transform="translate(-165.85 -126)"/><path d="M821,648.27a13.42,13.42,0,0,0,11,5.19c6.41,0,10.3-3.46,10.3-8.07,0-5.11-5.18-6.48-10.51-7.92C826,636,820,634.45,820,628.11c0-5.11,4.32-9.21,11.81-9.21,6,0,9.72,2.37,12,5.25l-1.58,1.44c-2-2.88-5.69-4.75-10.37-4.75-6,0-9.65,3.17-9.65,7.27,0,4.54,4.82,5.69,9.94,7.06,6,1.51,12.38,3.17,12.38,10.22,0,5.4-4,10-12.46,10-5.47,0-9.28-1.58-12.74-5.54Z" transform="translate(-165.85 -126)"/><path d="M856.28,650.51a2.34,2.34,0,1,1-2.38,2.3A2.38,2.38,0,0,1,856.28,650.51Z" transform="translate(-165.85 -126)"/><path d="M883.78,618.9c5.69,0,8.93,2.16,11.88,5.83L894.08,626a11.69,11.69,0,0,0-10.15-5.18c-8.93,0-14.19,7.2-14.19,16.27s5.26,16.35,14.19,16.35a11.74,11.74,0,0,0,10.15-5.26l1.58,1.37c-2.95,3.67-6.19,5.83-11.88,5.83-10.08,0-16.42-8.28-16.42-18.29S873.7,618.9,883.78,618.9Z" transform="translate(-165.85 -126)"/><path d="M902.86,637.11c0-10.22,6.41-18.21,16.2-18.21s16.2,8,16.2,18.21-6.33,18.29-16.2,18.29S902.86,647.34,902.86,637.11Zm30,0c0-8.42-4.9-16.27-13.83-16.27s-13.82,7.85-13.82,16.27,5,16.35,13.82,16.35S932.89,645.61,932.89,637.11Z" transform="translate(-165.85 -126)"/><path d="M986.67,629.48c0-5.4-2.23-8.64-7.49-8.64-3.89,0-8.64,2.95-10.8,6.48v27.22h-2.16V629.48c0-5.4-2.23-8.64-7.49-8.64-3.89,0-8.49,3-10.8,6.55v27.15h-2.16V619.76h2.16v5.47c1.44-2.3,6.19-6.33,11.16-6.33,5.48,0,8.28,3.38,9,6.62,1.95-3.24,6.63-6.62,11.45-6.62,6.34,0,9.29,3.67,9.29,10.58v25.06h-2.16Z" transform="translate(-165.85 -126)"/></g></svg>