<?xml version="1.0" encoding="utf-8"?>
<!-- Generator: Adobe Illustrator 22.0.1, SVG Export Plug-In . SVG Version: 6.00 Build 0)  -->
<svg version="1.1" id="Layer_1" xmlns="http://www.w3.org/2000/svg" xmlns:xlink="http://www.w3.org/1999/xlink" x="0px" y="0px"
	 viewBox="0 0 449 444" style="enable-background:new 0 0 449 444;" xml:space="preserve">
<style type="text/css">
	.st0{fill:#56C1BE;}
	.st1{fill:#00FFFF;}
	.st2{fill:#2571CC;}
	.st3{fill:#183CAD;}
	.st4{fill:#335FDD;}
	.st5{fill:#23A0CC;}
</style>
<circle class="st0" cx="224.5" cy="61.9" r="57.5"/>
<path class="st1" d="M266.1,100.7c-1,1-2,2-3,2.9C264,102.6,265,101.6,266.1,100.7z"/>
<path class="st1" d="M185.8,182c-1.3,1.4-2.6,2.7-4,3.9C183.1,184.5,184.4,183.2,185.8,182z"/>
<path class="st1" d="M265.9,185.9c-1.2-1.1-2.3-2.2-3.4-3.3C263.7,183.6,264.9,184.7,265.9,185.9z"/>
<path class="st2" d="M385.4,165.4c-14.8,0-28.3,5.6-38.5,14.8c0,0,0,0,0,0c-1,1-2,2-3,2.9c0,0,0,0,0,0
	c-10.2,9.2-23.7,14.8-38.5,14.8c-15.3,0-29.3-6-39.6-15.8c0,0,0,0-0.1-0.1c-0.5-0.5-1-0.9-1.4-1.4c0,0,0,0-0.1-0.1
	c-10.3-9.8-24.3-15.8-39.6-15.8c-17.5,0-33.2,7.8-43.7,20.2c-9.9,8.1-22.6,13-36.4,13c-15.3,0-29.3-6-39.6-15.8c0,0,0,0-0.1-0.1
	c-0.5-0.5-1-0.9-1.4-1.4c0,0,0,0-0.1-0.1c-10.3-9.8-24.3-15.8-39.6-15.8c-31.8,0-57.5,25.8-57.5,57.5c0,31.8,25.7,57.5,57.5,57.5
	c14.6,0,27.9-5.4,38-14.4c1.3-1.4,2.6-2.7,4-3.9c10.1-9,23.5-14.4,38-14.4c14.9,0,28.5,5.7,38.7,14.9c0,0,0,0,0,0
	c1.2,1.1,2.3,2.2,3.4,3.3l0,0c10.2,9.3,23.8,14.9,38.7,14.9c17.7,0,33.4-8,44-20.5c9.9-8,22.5-12.8,36.2-12.8
	c14.9,0,28.5,5.7,38.7,14.9c0,0,0,0,0,0c1.2,1.1,2.3,2.2,3.4,3.3l0,0c10.2,9.3,23.8,14.9,38.7,14.9c31.8,0,57.5-25.8,57.5-57.5
	C442.9,191.2,417.1,165.4,385.4,165.4z"/>
<path class="st1" d="M266.1,100.7c-1,1-2,2-3,2.9C264,102.6,265,101.6,266.1,100.7z"/>
<path class="st3" d="M362.1,303.4c0,31.8-25.7,57.5-57.5,57.5c-14.9,0-28.5-5.7-38.7-14.9l0,0c-1.1-1.1-2.2-2.3-3.4-3.3c0,0,0,0,0,0
	c-10.2-9.3-23.8-14.9-38.7-14.9c-14.6,0-27.9,5.4-38,14.4c-1.4,1.3-2.8,2.6-4,3.9c-10.1,8.9-23.5,14.4-38,14.4
	c-31.8,0-57.5-25.7-57.5-57.5c0-31.8,25.7-57.5,57.5-57.5c15.3,0,29.3,6,39.6,15.8c0,0,0.1,0,0.1,0.1c0.5,0.5,0.9,1,1.4,1.4
	c0,0,0,0,0.1,0.1c10.3,9.8,24.3,15.8,39.6,15.8c14.8,0,28.3-5.6,38.5-14.8c0,0,0,0,0,0c1-0.9,2-1.9,3-2.9c0,0,0,0,0,0
	c10.2-9.2,23.7-14.8,38.5-14.8C336.4,245.9,362.1,271.7,362.1,303.4z"/>
<circle class="st4" cx="224.5" cy="384.4" r="57.5"/>
<path class="st5" d="M362.4,142.3c0,31.8-25.7,57.5-57.5,57.5c-14.9,0-28.5-5.7-38.7-14.9l0,0c-1.1-1.1-2.2-2.3-3.4-3.3c0,0,0,0,0,0
	c-10.2-9.3-23.8-14.9-38.7-14.9c-14.6,0-27.9,5.4-38,14.4c-1.4,1.3-2.8,2.6-4,3.9c-10.1,8.9-23.5,14.4-38,14.4
	c-31.8,0-57.5-25.7-57.5-57.5c0-31.8,25.7-57.5,57.5-57.5c15.3,0,29.3,6,39.6,15.8c0,0,0.1,0,0.1,0.1c0.5,0.5,0.9,1,1.4,1.4
	c0,0,0,0,0.1,0.1c10.3,9.8,24.3,15.8,39.6,15.8c14.8,0,28.3-5.6,38.5-14.8c0,0,0,0,0,0c1-0.9,2-1.9,3-2.9c0,0,0,0,0,0
	c10.2-9.2,23.7-14.8,38.5-14.8C336.7,84.8,362.4,110.6,362.4,142.3z"/>
</svg>
