<svg id="Layer_1" data-name="Layer 1" xmlns="http://www.w3.org/2000/svg" viewBox="0 0 29.41 177.41"><defs><style>.cls-1{fill:#71dbd1;}.cls-2{fill:#40ada5;}.cls-3{fill:#5f8985;}.cls-4{fill:#8080e0;}.cls-5{fill:#3f3faf;}.cls-6{fill:#5e5e96;}</style></defs><title>blockdrops</title><polygon class="cls-1" points="1.17 7 13 0 24.83 6.83 13 13.83 1.17 7"/><polygon class="cls-2" points="13 13.84 13 28.32 24.83 21.33 24.83 6.83 13 13.84"/><polygon class="cls-3" points="1.17 7 13 13.84 13 28.32 1.17 21.35 1.17 7"/><path class="cls-4" d="M625.4,449.87" transform="translate(-624.4 -424.14)"/><path class="cls-4" d="M651.19,436.17" transform="translate(-624.4 -424.14)"/><polygon class="cls-4" points="1.23 34.46 0 35.19 1.23 35.9 2.47 35.17 1.23 34.46"/><polygon class="cls-5" points="2.47 35.17 1.23 35.9 1.23 37.4 2.47 36.67 2.47 35.17"/><polygon class="cls-6" points="1.23 37.4 1.23 35.9 0 35.19 0 36.78 1.23 37.4"/><polygon class="cls-4" points="5.21 26.24 3.97 26.97 5.21 27.68 6.44 26.95 5.21 26.24"/><polygon class="cls-5" points="6.44 26.95 5.21 27.68 5.21 29.18 6.44 28.45 6.44 26.95"/><polygon class="cls-6" points="5.21 29.18 5.21 27.68 3.97 26.97 3.97 28.56 5.21 29.18"/><polygon class="cls-4" points="10.02 27.71 8.78 28.44 10.02 29.15 11.25 28.42 10.02 27.71"/><polygon class="cls-5" points="11.25 28.42 10.02 29.15 10.02 30.66 11.25 29.92 11.25 28.42"/><polygon class="cls-6" points="10.02 30.66 10.02 29.15 8.78 28.44 8.78 30.03 10.02 30.66"/><polygon class="cls-4" points="6 31.21 4.76 31.94 6 32.65 7.23 31.92 6 31.21"/><polygon class="cls-5" points="7.23 31.92 6 32.65 6 34.16 7.23 33.42 7.23 31.92"/><polygon class="cls-6" points="6 34.16 6 32.65 4.76 31.94 4.76 33.53 6 34.16"/><polygon class="cls-4" points="5.82 38.25 4.59 38.98 5.82 39.69 7.06 38.96 5.82 38.25"/><polygon class="cls-5" points="7.06 38.96 5.82 39.69 5.82 41.2 7.06 40.46 7.06 38.96"/><polygon class="cls-6" points="5.82 41.2 5.82 39.69 4.59 38.98 4.59 40.57 5.82 41.2"/><polygon class="cls-4" points="1.85 49.29 0.62 50.02 1.85 50.73 3.08 50 1.85 49.29"/><polygon class="cls-5" points="3.08 50 1.85 50.73 1.85 52.24 3.08 51.5 3.08 50"/><polygon class="cls-6" points="1.85 52.24 1.85 50.73 0.62 50.02 0.62 51.61 1.85 52.24"/><polygon class="cls-4" points="17.17 48.73 15.94 49.46 17.17 50.17 18.41 49.44 17.17 48.73"/><polygon class="cls-5" points="18.41 49.44 17.17 50.17 17.17 51.68 18.41 50.94 18.41 49.44"/><polygon class="cls-6" points="17.17 51.68 17.17 50.17 15.94 49.46 15.94 51.05 17.17 51.68"/><polygon class="cls-4" points="10.63 66.27 9.4 67 10.63 67.71 11.87 66.98 10.63 66.27"/><polygon class="cls-5" points="11.87 66.98 10.63 67.71 10.63 69.22 11.87 68.48 11.87 66.98"/><polygon class="cls-6" points="10.63 69.22 10.63 67.71 9.4 67 9.4 68.59 10.63 69.22"/><polygon class="cls-4" points="12.38 75.15 11.15 75.88 12.38 76.59 13.62 75.86 12.38 75.15"/><polygon class="cls-5" points="13.62 75.86 12.38 76.59 12.38 78.09 13.62 77.36 13.62 75.86"/><polygon class="cls-6" points="12.38 78.09 12.38 76.59 11.15 75.88 11.15 77.46 12.38 78.09"/><polygon class="cls-4" points="18.41 56.46 17.17 57.19 18.41 57.9 19.64 57.17 18.41 56.46"/><polygon class="cls-5" points="19.64 57.17 18.41 57.9 18.41 59.4 19.64 58.67 19.64 57.17"/><polygon class="cls-6" points="18.41 59.4 18.41 57.9 17.17 57.19 17.17 58.78 18.41 59.4"/><polygon class="cls-4" points="13 60.61 11.76 61.34 13 62.05 14.23 61.33 13 60.61"/><polygon class="cls-5" points="14.23 61.33 13 62.05 13 63.56 14.23 62.82 14.23 61.33"/><polygon class="cls-6" points="13 63.56 13 62.05 11.76 61.34 11.76 62.93 13 63.56"/><polygon class="cls-4" points="20.98 67.03 19.75 67.76 20.98 68.48 22.21 67.74 20.98 67.03"/><polygon class="cls-5" points="22.21 67.74 20.98 68.48 20.98 69.98 22.21 69.24 22.21 67.74"/><polygon class="cls-6" points="20.98 69.98 20.98 68.48 19.75 67.76 19.75 69.35 20.98 69.98"/><polygon class="cls-4" points="10.53 85.63 9.3 86.36 10.53 87.07 11.76 86.34 10.53 85.63"/><polygon class="cls-5" points="11.76 86.34 10.53 87.07 10.53 88.57 11.76 87.84 11.76 86.34"/><polygon class="cls-6" points="10.53 88.58 10.53 87.07 9.3 86.36 9.3 87.95 10.53 88.58"/><polygon class="cls-4" points="17.79 75.54 16.56 76.27 17.79 76.99 19.02 76.26 17.79 75.54"/><polygon class="cls-5" points="19.02 76.26 17.79 76.99 17.79 78.49 19.02 77.75 19.02 76.26"/><polygon class="cls-6" points="17.79 78.49 17.79 76.99 16.56 76.27 16.56 77.86 17.79 78.49"/><polygon class="cls-4" points="9.91 95.08 8.68 95.81 9.91 96.53 11.15 95.8 9.91 95.08"/><polygon class="cls-5" points="11.15 95.8 9.91 96.53 9.91 98.03 11.15 97.3 11.15 95.8"/><polygon class="cls-6" points="9.91 98.03 9.91 96.53 8.68 95.81 8.68 97.4 9.91 98.03"/><polygon class="cls-4" points="6 100 4.76 100.73 6 101.44 7.23 100.71 6 100"/><polygon class="cls-5" points="7.23 100.71 6 101.44 6 102.95 7.23 102.21 7.23 100.71"/><polygon class="cls-6" points="6 102.95 6 101.44 4.76 100.73 4.76 102.32 6 102.95"/><polygon class="cls-4" points="6.24 144.95 5.01 145.68 6.24 146.39 7.48 145.66 6.24 144.95"/><polygon class="cls-5" points="7.48 145.66 6.24 146.39 6.24 147.9 7.48 147.16 7.48 145.66"/><polygon class="cls-6" points="6.24 147.9 6.24 146.39 5.01 145.68 5.01 147.27 6.24 147.9"/><polygon class="cls-4" points="12.86 159.18 11.63 159.91 12.86 160.62 14.09 159.89 12.86 159.18"/><polygon class="cls-5" points="14.09 159.89 12.86 160.62 12.86 162.13 14.09 161.39 14.09 159.89"/><polygon class="cls-6" points="12.86 162.13 12.86 160.62 11.63 159.91 11.63 161.5 12.86 162.13"/><polygon class="cls-4" points="8.29 140.7 7.06 141.43 8.29 142.14 9.52 141.41 8.29 140.7"/><polygon class="cls-5" points="9.52 141.41 8.29 142.14 8.29 143.65 9.52 142.91 9.52 141.41"/><polygon class="cls-6" points="8.29 143.65 8.29 142.14 7.06 141.43 7.06 143.02 8.29 143.65"/><polygon class="cls-4" points="11.63 135.7 10.39 136.43 11.63 137.14 12.86 136.41 11.63 135.7"/><polygon class="cls-5" points="12.86 136.41 11.63 137.14 11.63 138.65 12.86 137.91 12.86 136.41"/><polygon class="cls-6" points="11.63 138.65 11.63 137.14 10.39 136.43 10.39 138.02 11.63 138.65"/><polygon class="cls-4" points="8.69 169.99 7.46 170.72 8.69 171.43 9.92 170.7 8.69 169.99"/><polygon class="cls-5" points="9.92 170.7 8.69 171.43 8.69 172.94 9.92 172.2 9.92 170.7"/><polygon class="cls-6" points="8.69 172.94 8.69 171.43 7.46 170.72 7.46 172.31 8.69 172.94"/><polygon class="cls-4" points="4.54 174.46 3.31 175.19 4.54 175.9 5.77 175.17 4.54 174.46"/><polygon class="cls-5" points="5.77 175.17 4.54 175.9 4.54 177.41 5.77 176.67 5.77 175.17"/><polygon class="cls-6" points="4.54 177.41 4.54 175.9 3.31 175.19 3.31 176.78 4.54 177.41"/><polygon class="cls-4" points="17.02 113 15.79 113.73 17.02 114.44 18.26 113.71 17.02 113"/><polygon class="cls-5" points="18.26 113.71 17.02 114.44 17.02 115.95 18.26 115.21 18.26 113.71"/><polygon class="cls-6" points="17.02 115.95 17.02 114.44 15.79 113.73 15.79 115.32 17.02 115.95"/><polygon class="cls-4" points="14.23 118.35 13 119.08 14.23 119.79 15.46 119.06 14.23 118.35"/><polygon class="cls-5" points="15.46 119.06 14.23 119.79 14.23 121.3 15.46 120.56 15.46 119.06"/><polygon class="cls-6" points="14.23 121.3 14.23 119.79 13 119.08 13 120.67 14.23 121.3"/><polygon class="cls-4" points="22.44 127.67 21.21 128.4 22.44 129.11 23.68 128.38 22.44 127.67"/><polygon class="cls-5" points="23.68 128.38 22.44 129.11 22.44 130.62 23.68 129.88 23.68 128.38"/><polygon class="cls-6" points="22.44 130.62 22.44 129.11 21.21 128.4 21.21 129.99 22.44 130.62"/><polygon class="cls-4" points="9.61 111.71 8.38 112.44 9.61 113.15 10.84 112.42 9.61 111.71"/><polygon class="cls-5" points="10.84 112.42 9.61 113.15 9.61 114.66 10.84 113.92 10.84 112.42"/><polygon class="cls-6" points="9.61 114.66 9.61 113.15 8.38 112.44 8.38 114.03 9.61 114.66"/><polygon class="cls-4" points="10.02 48.48 7.02 50.24 10.02 51.97 13.01 50.2 10.02 48.48"/><polygon class="cls-5" points="13.01 50.2 10.02 51.97 10.02 55.63 13.01 53.84 13.01 50.2"/><polygon class="cls-6" points="10.02 55.63 10.02 51.97 7.02 50.24 7.02 54.1 10.02 55.63"/><polygon class="cls-4" points="3.83 88.87 0.84 90.64 3.83 92.37 6.83 90.6 3.83 88.87"/><polygon class="cls-5" points="6.83 90.6 3.83 92.37 3.83 96.02 6.83 94.24 6.83 90.6"/><polygon class="cls-6" points="3.83 96.03 3.83 92.37 0.84 90.64 0.84 94.5 3.83 96.03"/><polygon class="cls-4" points="7.06 149.09 4.06 150.86 7.06 152.59 10.05 150.82 7.06 149.09"/><polygon class="cls-5" points="10.05 150.82 7.06 152.59 7.06 156.24 10.05 154.45 10.05 150.82"/><polygon class="cls-6" points="7.06 156.24 7.06 152.59 4.06 150.86 4.06 154.72 7.06 156.24"/><polygon class="cls-4" points="4.83 60.61 2.84 61.79 4.83 62.94 6.82 61.76 4.83 60.61"/><polygon class="cls-5" points="6.82 61.76 4.83 62.94 4.83 65.36 6.82 64.17 6.82 61.76"/><polygon class="cls-6" points="4.83 65.36 4.83 62.94 2.84 61.79 2.84 64.35 4.83 65.36"/><polygon class="cls-4" points="27.42 68.21 25.44 69.38 27.42 70.53 29.41 69.35 27.42 68.21"/><polygon class="cls-5" points="29.41 69.35 27.42 70.53 27.42 72.96 29.41 71.77 29.41 69.35"/><polygon class="cls-6" points="27.42 72.96 27.42 70.53 25.44 69.38 25.44 71.94 27.42 72.96"/><polygon class="cls-4" points="24.44 61.93 22.46 63.1 24.44 64.25 26.43 63.07 24.44 61.93"/><polygon class="cls-5" points="26.43 63.07 24.44 64.25 24.44 66.67 26.43 65.49 26.43 63.07"/><polygon class="cls-6" points="24.44 66.67 24.44 64.25 22.46 63.1 22.46 65.66 24.44 66.67"/><polygon class="cls-4" points="11.01 102.55 9.02 103.73 11.01 104.87 13 103.7 11.01 102.55"/><polygon class="cls-5" points="13 103.7 11.01 104.87 11.01 107.3 13 106.11 13 103.7"/><polygon class="cls-6" points="11.01 107.3 11.01 104.87 9.02 103.73 9.02 106.29 11.01 107.3"/><polygon class="cls-4" points="13.62 127.13 11.63 128.31 13.62 129.46 15.6 128.28 13.62 127.13"/><polygon class="cls-5" points="15.6 128.28 13.62 129.46 13.62 131.88 15.6 130.69 15.6 128.28"/><polygon class="cls-6" points="13.62 131.88 13.62 129.46 11.63 128.31 11.63 130.87 13.62 131.88"/><polygon class="cls-4" points="16.97 85.93 14.99 87.1 16.97 88.25 18.96 87.07 16.97 85.93"/><polygon class="cls-5" points="18.96 87.07 16.97 88.25 16.97 90.67 18.96 89.49 18.96 87.07"/><polygon class="cls-6" points="16.97 90.67 16.97 88.25 14.99 87.1 14.99 89.66 16.97 90.67"/><polygon class="cls-4" points="12.62 40.69 10.63 41.86 12.62 43.01 14.61 41.83 12.62 40.69"/><polygon class="cls-5" points="14.61 41.83 12.62 43.01 12.62 45.43 14.61 44.25 14.61 41.83"/><polygon class="cls-6" points="12.62 45.44 12.62 43.01 10.63 41.86 10.63 44.42 12.62 45.44"/><polygon class="cls-4" points="17.98 31.54 15.99 32.71 17.98 33.86 19.97 32.68 17.98 31.54"/><polygon class="cls-5" points="19.97 32.68 17.98 33.86 17.98 36.29 19.97 35.1 19.97 32.68"/><polygon class="cls-6" points="17.98 36.29 17.98 33.86 15.99 32.71 15.99 35.27 17.98 36.29"/><polygon class="cls-4" points="15.98 69.98 13.99 71.16 15.98 72.3 17.97 71.13 15.98 69.98"/><polygon class="cls-5" points="17.97 71.13 15.98 72.3 15.98 74.73 17.97 73.54 17.97 71.13"/><polygon class="cls-6" points="15.98 74.73 15.98 72.3 13.99 71.16 13.99 73.72 15.98 74.73"/></svg>