<svg id="Layer_1" data-name="Layer 1" xmlns="http://www.w3.org/2000/svg" viewBox="0 0 155.49 207.21"><defs><style>.cls-1{fill:#326b87;}.cls-1,.cls-3{stroke:#fff;stroke-miterlimit:10;}.cls-2{fill:none;}.cls-3{fill:#193c51;}.cls-4{fill:#fff;}</style></defs><title>bulwarkstudios</title><polyline class="cls-1" points="137.99 144.87 138.07 164.73 99.62 187.13 60.99 165.03 61.17 122.12 61.28 100.99"/><path class="cls-2" d="M223.61,262.81" transform="translate(-364.69 -224.05)"/><line class="cls-2" x1="0.43" y1="53.18" y2="53.18"/><polygon class="cls-3" points="43.64 46.84 98.94 14.62 154.49 46.4 154.74 110.4 137.46 100.52 137.64 56.22 99.02 34.12 60.56 56.52 61.17 120.73 43.89 110.84 43.64 46.84"/><polygon class="cls-3" points="60.56 56.52 99.02 34.12 137.64 56.22 137.46 100.52 137.99 144.87 61.28 100.99 60.56 56.52"/><polygon class="cls-3" points="154.99 174.41 99.69 206.63 44.14 174.85 43.89 110.85 61.17 120.73 60.99 165.03 99.62 187.13 138.07 164.73 137.46 100.52 154.74 110.41 154.99 174.41"/><path class="cls-2" d="M365.33,260.67" transform="translate(-364.69 -224.05)"/><line class="cls-2" x1="0.63" y1="37.48" x2="0.26" y2="37.26"/><path d="M410,269.89l-8.83-14.84,1.92-1.15a4.88,4.88,0,0,1,3.48-.9,4.65,4.65,0,0,1,2.84,2.47,4.71,4.71,0,0,1,.74,1.89,5,5,0,0,1-.27,2,3.52,3.52,0,0,1,2.36,1.06,6.45,6.45,0,0,1,1.32,1.68,6,6,0,0,1,1,3.28,3.68,3.68,0,0,1-1.87,2.92Zm-3-10a2,2,0,0,0,.84-.8c.22-.46.21-1.11-.4-2.14s-1.19-1.35-1.69-1.38a2,2,0,0,0-1.11.36Zm3.91,6.56a1.7,1.7,0,0,0,.83-.8c.21-.47.15-1.23-.58-2.44s-1.35-1.63-1.87-1.68a1.79,1.79,0,0,0-1.1.36Z" transform="translate(-364.69 -224.05)"/><path d="M414.32,247.22l7,11.8a4.74,4.74,0,0,1,.6,1.83,3.28,3.28,0,0,1-.22,1.61,3,3,0,0,1-1.38,1.5,3.06,3.06,0,0,1-2,.5,3.18,3.18,0,0,1-1.49-.58,4.71,4.71,0,0,1-1.33-1.4l-7-11.8,2.18-1.3,7,11.8a1.52,1.52,0,0,0,.86.75.67.67,0,0,0,.52-.09.75.75,0,0,0,.32-.93,1.66,1.66,0,0,0-.24-.6l-7-11.79Z" transform="translate(-364.69 -224.05)"/><path d="M415.92,246.27l2.18-1.3,7.63,12.83,2.89-1.72,1.2,2-5.07,3Z" transform="translate(-364.69 -224.05)"/><path d="M433.84,255.71l-1.69,1-10.84-13.66,2-1.2,5.46,7.2.33.46.16-.1-.23-.52-3.66-8.27,1.58-.94,5.52,7.17.35.45.16-.1-.25-.51L429,238.47l2-1.21,6.83,16-1.69,1-5.2-6.43-.64-.79-.08,0,.4,1Z" transform="translate(-364.69 -224.05)"/><path d="M440.33,251.85l-6.59-16.19,2.66-1.58,11.08,13.51-2.12,1.26-2.21-2.79-2.1,1.25,1.4,3.28Zm-2.27-12.22-.29-.35-.12.07.17.42,2.16,5.06,1.5-.89Z" transform="translate(-364.69 -224.05)"/><path d="M452.39,244.67l-4.86-5.59-.58.35,3.72,6.26-2.18,1.3-8.83-14.85,2.18-1.3c2.6-1.55,4.59-.73,6.26,2.07.88,1.48,1.29,3,.8,4.1l5.67,6.36Zm-6.65-7.26a1.71,1.71,0,0,0,.84-.94,2.71,2.71,0,0,0-.53-2.22c-.62-1.06-1.22-1.46-1.72-1.56a1.7,1.7,0,0,0-1.21.32Z" transform="translate(-364.69 -224.05)"/><path d="M449.13,226.5l3.09,5.2.08,0,0-.31-1.13-6,2.12-1.26.91,6.08,8.19,8.61L460.23,240l-5.36-5.57-.24-.26-.06,0,.05.38.22,1.51,3.13,5.25-2.19,1.3L447,227.8Z" transform="translate(-364.69 -224.05)"/><path class="cls-4" d="M424.89,268a4.4,4.4,0,0,0-.75-1c-.28-.24-.58-.36-.84-.21-.42.26-.3.79.08,1.44a2.82,2.82,0,0,0,1.11,1c.49.29,1.07.55,1.66.84a17.87,17.87,0,0,1,2,1.1,4.34,4.34,0,0,1,1.5,1.48,4,4,0,0,1,.67,2.24,2.8,2.8,0,0,1-3.9,2,5.57,5.57,0,0,1-1.71-2l1.53-1.09a4.75,4.75,0,0,0,.89,1.22.79.79,0,0,0,1,.24c.49-.28.37-.91,0-1.62a3.26,3.26,0,0,0-1.14-1l-.82-.42c-.58-.27-1.23-.59-1.93-.95a7.24,7.24,0,0,1-1.81-1.27,3.71,3.71,0,0,1-.66-.82,3.65,3.65,0,0,1-.53-2.06,2.3,2.3,0,0,1,1.17-1.81,2.23,2.23,0,0,1,2.47-.1,5,5,0,0,1,1.56,1.75Z" transform="translate(-364.69 -224.05)"/><path class="cls-4" d="M426.06,265.6l-1-1.7,4.76-2.75,1,1.7-1.56.9,5.5,9.53-1.65,1-5.5-9.54Z" transform="translate(-364.69 -224.05)"/><path class="cls-4" d="M434.88,258.26l5.15,8.92a3.79,3.79,0,0,1,.43,1.38,2.43,2.43,0,0,1-.19,1.2,2.21,2.21,0,0,1-1,1.12,2.25,2.25,0,0,1-2.63-.1,3.47,3.47,0,0,1-1-1.06l-5.14-8.93,1.65-1,5.14,8.93a1.15,1.15,0,0,0,.64.57.52.52,0,0,0,.39-.07.55.55,0,0,0,.25-.69,1.14,1.14,0,0,0-.18-.45l-5.14-8.92Z" transform="translate(-364.69 -224.05)"/><path class="cls-4" d="M442.56,268.79l-6.47-11.23,1.3-.75c1.53-.88,2.53-1.05,3.46-.45s1.8,2,3.06,4.18,2,3.63,2.08,4.73-.6,1.89-2.13,2.77Zm.7-2.6c.57-.33.85-.57.7-1.22a5.61,5.61,0,0,0-.53-1.28c-.29-.54-.71-1.26-1.24-2.18s-.94-1.63-1.26-2.16a6.36,6.36,0,0,0-.84-1.1c-.48-.44-.83-.32-1.4,0Z" transform="translate(-364.69 -224.05)"/><path class="cls-4" d="M441.77,254.28l1.65-.95,6.48,11.23-1.65.95Z" transform="translate(-364.69 -224.05)"/><path class="cls-4" d="M454.09,259.07a3.84,3.84,0,0,1,.43,1.39,2.46,2.46,0,0,1-.19,1.2,2.19,2.19,0,0,1-1,1.11,2.3,2.3,0,0,1-1.51.36,2.43,2.43,0,0,1-1.12-.45,3.63,3.63,0,0,1-1-1.07L445.87,255a3.4,3.4,0,0,1-.42-1.36,2.52,2.52,0,0,1,2.71-2.68,2.37,2.37,0,0,1,1.14.46,3.4,3.4,0,0,1,1,1.05Zm-5.47-5.66a1.19,1.19,0,0,0-.62-.58.53.53,0,0,0-.4.07.59.59,0,0,0-.26.7,1.46,1.46,0,0,0,.18.44l3.81,6.62a1.15,1.15,0,0,0,.64.57.51.51,0,0,0,.39-.06.56.56,0,0,0,.25-.7,1.16,1.16,0,0,0-.17-.44Z" transform="translate(-364.69 -224.05)"/><path class="cls-4" d="M454.53,250.94a4.23,4.23,0,0,0-.76-1c-.28-.24-.57-.36-.83-.21-.42.26-.3.78.07,1.44a3,3,0,0,0,1.11,1c.49.29,1.07.55,1.66.83a20.87,20.87,0,0,1,2.05,1.11,4.49,4.49,0,0,1,1.5,1.47,4.13,4.13,0,0,1,.66,2.25,2.78,2.78,0,0,1-3.89,2,5.54,5.54,0,0,1-1.72-2l1.53-1.08a5,5,0,0,0,.89,1.22c.32.3.64.44,1,.24s.38-.91,0-1.63a3.25,3.25,0,0,0-1.14-1l-.81-.42c-.59-.28-1.24-.59-1.93-1a7.12,7.12,0,0,1-1.82-1.27,3.71,3.71,0,0,1-.66-.82,3.67,3.67,0,0,1-.53-2.06A2.33,2.33,0,0,1,452,248.2a2.23,2.23,0,0,1,2.47-.09,5.06,5.06,0,0,1,1.56,1.74Z" transform="translate(-364.69 -224.05)"/></svg>