<svg id="Layer_1" data-name="Layer 1" xmlns="http://www.w3.org/2000/svg" viewBox="0 0 112.36 193.17"><defs><style>.cls-1{fill:#50585b;}.cls-1,.cls-2{stroke:#fff;stroke-miterlimit:10;}</style></defs><title>bulwark</title><polyline class="cls-1" points="94.85 130.83 94.93 150.69 56.48 173.09 17.85 150.99 18.03 108.08 18.14 86.95"/><polygon class="cls-2" points="0.5 32.8 55.8 0.58 111.35 32.36 111.6 96.36 94.32 86.47 94.5 42.18 55.88 20.08 17.43 42.48 18.04 106.69 0.75 96.8 0.5 32.8"/><polygon class="cls-2" points="17.43 42.48 55.88 20.08 94.5 42.18 94.32 86.47 94.85 130.83 18.14 86.95 17.43 42.48"/><polygon class="cls-2" points="111.86 160.37 56.56 192.59 1 160.81 0.75 96.81 18.04 106.69 17.85 150.99 56.48 173.09 94.93 150.69 94.32 86.47 111.61 96.36 111.86 160.37"/></svg>