<svg id="Layer_2" data-name="Layer 2" xmlns="http://www.w3.org/2000/svg" xmlns:xlink="http://www.w3.org/1999/xlink" viewBox="0 0 500.03 544.96"><defs><style>.cls-1{fill:url(#New_Gradient_Swatch);}.cls-2{fill:url(#linear-gradient);}.cls-3{fill:url(#New_Gradient_Swatch-2);}.cls-4{fill:url(#linear-gradient-2);}.cls-5{fill:url(#New_Gradient_Swatch-3);}.cls-6{fill:url(#linear-gradient-3);}.cls-7{fill:url(#New_Gradient_Swatch-4);}.cls-8{fill:url(#linear-gradient-4);}</style><linearGradient id="New_Gradient_Swatch" x1="485.74" y1="286.47" x2="484.41" y2="557.14" gradientUnits="userSpaceOnUse"><stop offset="0"/><stop offset="0.34" stop-color="#fff"/><stop offset="0.66" stop-color="#cccbcc"/><stop offset="1" stop-color="#020202"/></linearGradient><linearGradient id="linear-gradient" x1="462.87" y1="271.21" x2="628.21" y2="629.21" gradientUnits="userSpaceOnUse"><stop offset="0"/><stop offset="0.51" stop-color="#bffff5"/><stop offset="1" stop-color="#020202"/></linearGradient><linearGradient id="New_Gradient_Swatch-2" x1="328.37" y1="277.98" x2="688.01" y2="277.98" xlink:href="#New_Gradient_Swatch"/><linearGradient id="linear-gradient-2" x1="626.38" y1="193.95" x2="295.4" y2="395.65" xlink:href="#linear-gradient"/><linearGradient id="New_Gradient_Swatch-3" x1="713.79" y1="388.14" x2="495.79" y2="78.81" xlink:href="#New_Gradient_Swatch"/><linearGradient id="linear-gradient-3" x1="660.71" y1="303.01" x2="406.05" y2="75.68" xlink:href="#linear-gradient"/><linearGradient id="New_Gradient_Swatch-4" x1="772.11" y1="98.78" x2="670.77" y2="459.45" xlink:href="#New_Gradient_Swatch"/><linearGradient id="linear-gradient-4" x1="591.61" y1="468.55" x2="760.94" y2="100.55" xlink:href="#linear-gradient"/></defs><title>claw</title><path class="cls-1" d="M398.76,397.9c11.49-97.83,97.56-168.75,194.71-162.62-3.24-.55-6.51-1-9.81-1.43C482.46,222,390.78,294.37,378.9,395.57s60.52,192.88,161.72,204.76c3.3.39,6.59.67,9.87.88A184.5,184.5,0,0,1,398.76,397.9Z" transform="translate(-328.37 -57.99)"/><path class="cls-2" d="M476.34,423.66A184.57,184.57,0,0,1,607.54,237a185,185,0,0,0-43.71-2.83C462.08,239.66,384,326.57,389.47,428.32s92.36,179.81,194.11,174.36a185.06,185.06,0,0,0,43.16-7.49A184.56,184.56,0,0,1,476.34,423.66Z" transform="translate(-328.37 -57.99)"/><path class="cls-3" d="M452.77,178.85c91.68-36,194.82,6.41,235.24,95-1-3.12-2.15-6.23-3.37-9.33C647.38,169.65,540.29,123,445.45,160.24S303.94,304.59,341.2,399.43c1.21,3.09,2.52,6.13,3.88,9.12C314.41,316.16,361.08,214.87,452.77,178.85Z" transform="translate(-328.37 -57.99)"/><path class="cls-4" d="M466.65,259.41a184.56,184.56,0,0,1,226.44,27.64A184.71,184.71,0,0,0,675,247.17C622.16,160,508.71,132.2,421.56,185s-115,166.27-62.16,253.41a184.55,184.55,0,0,0,27,34.52C361.16,393.61,392.32,304.45,466.65,259.41Z" transform="translate(-328.37 -57.99)"/><path class="cls-5" d="M634.09,101.55c84.42,50.77,113.59,158.4,68,244.41,1.85-2.73,3.64-5.5,5.35-8.35,52.51-87.33,24.3-200.69-63-253.2s-200.68-24.3-253.19,63c-1.72,2.85-3.33,5.73-4.87,8.63C440.91,75.47,549.67,50.78,634.09,101.55Z" transform="translate(-328.37 -57.99)"/><path class="cls-6" d="M578.66,161.63a184.55,184.55,0,0,1,116,196.42,185,185,0,0,0,20.59-38.66c36.94-95-10.1-201.9-105.06-238.84A184.62,184.62,0,0,0,360.41,228C408,159.72,497.66,130.12,578.66,161.63Z" transform="translate(-328.37 -57.99)"/><path class="cls-7" d="M797.57,321.69c-35.08,92.05-135.88,139.76-228.58,110,3,1.33,6,2.6,9.16,3.78a184.5,184.5,0,0,0,238.11-106.7C852.55,233.6,804.78,127,709.56,90.71c-3.11-1.19-6.23-2.27-9.36-3.27A184.49,184.49,0,0,1,797.57,321.69Z" transform="translate(-328.37 -57.99)"/><path class="cls-8" d="M728.66,277.73A184.57,184.57,0,0,1,555.78,426.57,184.33,184.33,0,0,0,597.47,440c100,19.61,196.95-45.55,216.56-145.54s-45.56-197-145.55-216.56a184.8,184.8,0,0,0-43.68-3.3A184.57,184.57,0,0,1,728.66,277.73Z" transform="translate(-328.37 -57.99)"/></svg>