<?xml version="1.0" encoding="utf-8"?>
<!-- Generator: Adobe Illustrator 22.0.1, SVG Export Plug-In . SVG Version: 6.00 Build 0)  -->
<svg version="1.1" id="Layer_1" xmlns="http://www.w3.org/2000/svg" xmlns:xlink="http://www.w3.org/1999/xlink" x="0px" y="0px"
	 viewBox="0 0 499 299" style="enable-background:new 0 0 499 299;" xml:space="preserve">
<style type="text/css">
	.st0{fill:#0097E2;}
	.st1{fill:#FFFFFF;}
	.st2{fill:url(#SVGID_1_);}
	.st3{fill:#FCFCFC;}
	.st4{fill:url(#SVGID_2_);}
</style>
<rect class="st0" width="499" height="299"/>
<g>
	<g>
		<polygon class="st1" points="173.3,228 18.7,101.6 0.1,107.2 150,237.8 		"/>
		<path class="st1" d="M144.1,175.6c4.3,0.9,10.3,1.7,18.2,2.4l37,3.2c5.1,0.5,9.1,1,11.8,1.5c2.7,0.5,6.3,2.2,10.5,5.1l18.1,12.4
			l23.3-9.7l-26.2-16.7c-8.3-5.3-14.5-8.7-18.6-10.2c-4-1.5-8-2.5-12-3.1c-4-0.6-10.1-1.3-18.3-2l-35.9-3.1
			c-4.9-0.7-8.7-1.3-11.4-1.9c-2.6-0.6-6-2.4-10.2-5.5l-37.1-27c-8.9-6.5-10.6-10.6-5.1-12.4l3-1c5.7-1.8,13.1,0.4,22.3,6.7
			l20.2,13.8l20.3-7.1l-23.1-14.7C103.9,89,83,82.6,68.1,87l-11.6,3.5c-14.9,4.4-9.9,16.2,14.9,35.5l44.5,34.5
			c5.7,4.4,10.7,7.8,15.1,10.2C135.5,173,139.8,174.6,144.1,175.6z"/>
		<path class="st1" d="M304.4,173.1l-23.7-13.4l26-10.5L331,162l23.3-9.7l-146-71.6c-29.9-14.7-52.2-19.8-67.1-15.4l-14,4.1
			c-14.9,4.4-8.5,15,19.1,31.7l134.8,81.7L304.4,173.1z M168.1,95.8c-9.7-5.5-11.7-9.1-6-11l5.2-1.7c5.7-1.8,13.5-0.1,23.4,5.1
			l85,44.6l-25.1,9.7L168.1,95.8z"/>
		<path class="st1" d="M396.9,134.4l-26.1-11.2l26-10.5l26.8,10.6l23.3-9.7L286.7,54.7c-32.8-12-56.6-15.8-71.5-11.4l-14,4.1
			c-14.9,4.4-7,13.7,23.4,27.8l148.9,68.9L396.9,134.4z M246.7,69.7c-10.7-4.6-13.2-7.8-7.5-9.6l5.2-1.7c5.7-1.8,14-0.6,24.9,3.8
			l93.4,37l-25.1,9.7L246.7,69.7z"/>
		<path class="st1" d="M489.5,95.6l-164.2-52c-11.6-3.7-14.9-6.4-9.8-8l3.8-1.2c5.8-1.9,14.6-1.1,26.5,2.4l31.5,9.1l20.4-7.2
			l-35.2-9.4c-35.3-9.4-60.4-11.9-75.3-7.5l-12,3.6c-14.9,4.4-5.7,12.3,27.4,23.7l163.5,56.2L489.5,95.6z"/>
	</g>
</g>
<linearGradient id="SVGID_1_" gradientUnits="userSpaceOnUse" x1="335.7341" y1="376.4805" x2="246.6108" y2="185.3549">
	<stop  offset="0" style="stop-color:#0097E2"/>
	<stop  offset="5.269915e-02" style="stop-color:#038FD6"/>
	<stop  offset="0.1924" style="stop-color:#0A7FBA"/>
	<stop  offset="0.3443" style="stop-color:#1071A5"/>
	<stop  offset="0.5119" style="stop-color:#146896"/>
	<stop  offset="0.7078" style="stop-color:#16638D"/>
	<stop  offset="1" style="stop-color:#17618A"/>
</linearGradient>
<polygon class="st2" points="499,299 499,91 3.2,299 "/>
<polygon class="st3" points="173,298.7 173,227.3 149.9,237.1 149.9,298.7 "/>
<polygon class="st3" points="263,298.7 262,190 240,199 240,298.7 "/>
<polygon class="st3" points="304,299 303.8,172.9 280.7,182.6 281,299 "/>
<polygon class="st3" points="330.4,161.7 353.7,152 354,280 331,280 "/>
<polygon class="st3" points="354,299.7 354,173 331,183 331,299.7 "/>
<polygon class="st3" points="397,299.7 396.2,134.1 373,143.9 374,299.7 "/>
<polygon class="st3" points="447,299.7 446.1,113.2 423,122.9 424,299.7 "/>
<polygon class="st3" points="489,299.7 488.8,95.3 465.4,105.1 466,299.7 "/>
<polygon class="st0" points="499,153 133,299 499,299 "/>
<linearGradient id="SVGID_2_" gradientUnits="userSpaceOnUse" x1="485.0805" y1="426.5373" x2="356.432" y2="273.9542">
	<stop  offset="0" style="stop-color:#17618A;stop-opacity:0"/>
	<stop  offset="1" style="stop-color:#FFFFFF;stop-opacity:0.2"/>
</linearGradient>
<polygon class="st4" points="499,153 133,299 499,299 "/>
</svg>
