<?xml version="1.0" encoding="utf-8"?>
<!-- Generator: Adobe Illustrator 22.1.0, SVG Export Plug-In . SVG Version: 6.00 Build 0)  -->
<svg version="1.1" id="Layer_1" xmlns="http://www.w3.org/2000/svg" xmlns:xlink="http://www.w3.org/1999/xlink" x="0px" y="0px"
	 viewBox="0 0 499 299" style="enable-background:new 0 0 499 299;" xml:space="preserve">
<style type="text/css">
	.st0{fill:#0097E2;}
	.st1{fill:url(#SVGID_1_);}
	.st2{fill:#FCFCFC;}
	.st3{fill:url(#SVGID_2_);}
</style>
<rect class="st0" width="499" height="299"/>
<linearGradient id="SVGID_1_" gradientUnits="userSpaceOnUse" x1="335.5841" y1="-76.5506" x2="246.4608" y2="114.575" gradientTransform="matrix(1 0 0 -1 0 300)">
	<stop  offset="0" style="stop-color:#0097E2"/>
	<stop  offset="5.269914e-02" style="stop-color:#038FD6"/>
	<stop  offset="0.1924" style="stop-color:#0A7FBA"/>
	<stop  offset="0.3443" style="stop-color:#1071A5"/>
	<stop  offset="0.5119" style="stop-color:#146896"/>
	<stop  offset="0.7078" style="stop-color:#16638D"/>
	<stop  offset="1" style="stop-color:#17618A"/>
</linearGradient>
<polygon class="st1" points="498.7,299.1 499,91 2.9,299.1 "/>
<g>
	<polygon class="st2" points="0.1,107.2 149.7,237.5 149.9,299 173,299 173,227.8 18.7,101.6 	"/>
	<path class="st2" d="M236.8,173.8c-8.3-5.3-14.5-8.7-18.6-10.2c-4-1.5-8-2.5-12-3.1c-4-0.6-10.1-1.3-18.3-2l-35.9-3.1
		c-4.9-0.7-8.7-1.3-11.4-1.9c-2.6-0.6-6-2.4-10.2-5.5l-37.1-27c-8.9-6.5-10.6-10.6-5.1-12.4l3-1c5.7-1.8,13.1,0.4,22.3,6.7
		l20.2,13.8L154,121l-23.1-14.7C103.9,89,83,82.6,68.1,87l-11.6,3.5c-14.9,4.4-9.9,16.2,14.9,35.5l44.5,34.5
		c5.7,4.4,10.7,7.8,15.1,10.2c4.5,2.3,8.8,3.9,13.1,4.9c4.3,0.9,10.3,1.7,18.2,2.4l37,3.2c5.1,0.5,9.1,1,11.8,1.5
		c2.7,0.5,6.3,2.2,10.5,5.1l17.7,12.1l0.7,98.8h23l-0.5-108.5L236.8,173.8z"/>
	<path class="st2" d="M286.7,54.7c-32.8-12-56.6-15.8-71.5-11.4l-14,4.1c-14.9,4.4-7,13.7,23.4,27.8L373,143.9l1,155.1h23
		l-0.8-164.9l-25.4-10.9l26-10.5l26,10.3l1.2,176h23l-0.9-185.8L286.7,54.7z M337.6,108.9l-90.9-39.2c-10.7-4.6-13.2-7.8-7.5-9.6
		l5.2-1.7c5.7-1.8,14-0.6,24.9,3.8l93.4,37L337.6,108.9z"/>
	<path class="st2" d="M353.7,152L208.3,80.7c-29.9-14.7-52.2-19.8-67.1-15.4l-14,4.1c-14.9,4.4-8.5,15,19.1,31.7l134.4,81.5L281,299
		h23l-0.2-126.1l-23.1-13.2l26-10.5l23.7,12.5L331,280v19h23V173l-0.3,0.1L353.7,152z M250.6,142.5l-82.5-46.7
		c-9.7-5.5-11.7-9.1-6-11l5.2-1.7c5.7-1.8,13.5-0.1,23.4,5.1l85,44.6L250.6,142.5z"/>
	<path class="st2" d="M488.8,95.3L325.3,43.6c-11.6-3.7-14.9-6.4-9.8-8l3.8-1.2c5.8-1.9,14.6-1.1,26.5,2.4l31.5,9.1l20.4-7.2
		l-35.2-9.4c-35.3-9.4-60.4-11.9-75.3-7.5l-12,3.6c-14.9,4.4-5.7,12.3,27.4,23.7l162.8,56L466,299h23L488.8,95.3z"/>
</g>
<polygon class="st0" points="499,153 133,299 499,299 "/>
<linearGradient id="SVGID_2_" gradientUnits="userSpaceOnUse" x1="485.0805" y1="-126.5373" x2="356.432" y2="26.0458" gradientTransform="matrix(1 0 0 -1 0 300)">
	<stop  offset="0" style="stop-color:#17618A;stop-opacity:0"/>
	<stop  offset="1" style="stop-color:#FFFFFF;stop-opacity:0.2"/>
</linearGradient>
<polygon class="st3" points="499,153 133,299 499,299 "/>
</svg>
