<svg id="Layer_1" data-name="Layer 1" xmlns="http://www.w3.org/2000/svg" xmlns:xlink="http://www.w3.org/1999/xlink" viewBox="0 0 499 299.13"><defs><style>.cls-1{fill:#0097e2;}.cls-2{fill:url(#linear-gradient);}.cls-3{fill:#fcfcfc;}.cls-4{fill:url(#linear-gradient-2);}</style><linearGradient id="linear-gradient" x1="335.58" y1="-76.55" x2="246.46" y2="114.58" gradientTransform="matrix(1, 0, 0, -1, 0, 300)" gradientUnits="userSpaceOnUse"><stop offset="0" stop-color="#0097e2"/><stop offset="0.05" stop-color="#038fd6"/><stop offset="0.19" stop-color="#0a7fba"/><stop offset="0.34" stop-color="#1071a5"/><stop offset="0.51" stop-color="#146896"/><stop offset="0.71" stop-color="#16638d"/><stop offset="1" stop-color="#17618a"/></linearGradient><linearGradient id="linear-gradient-2" x1="485.08" y1="-126.54" x2="356.43" y2="26.05" gradientTransform="matrix(1, 0, 0, -1, 0, 300)" gradientUnits="userSpaceOnUse"><stop offset="0" stop-color="#17618a" stop-opacity="0"/><stop offset="1" stop-color="#fff" stop-opacity="0.2"/></linearGradient></defs><title>cliffedgerevised</title><rect class="cls-1" width="499" height="299"/><polygon class="cls-2" points="498.72 299.13 499 91.01 2.92 299.13 498.72 299.13"/><polygon class="cls-3" points="0.1 107.2 149.69 237.54 149.89 299.05 172.99 299.05 172.99 227.77 18.7 101.6 0.1 107.2"/><path class="cls-3" d="M236.8,173.8q-12.45-8-18.6-10.2a58.91,58.91,0,0,0-12-3.1c-4-.6-10.1-1.3-18.3-2L152,155.4c-4.9-.7-8.7-1.3-11.4-1.9s-6-2.4-10.2-5.5L93.3,121c-8.9-6.5-10.6-10.6-5.1-12.4l3-1c5.7-1.8,13.1.4,22.3,6.7l20.2,13.8L154,121l-23.1-14.7Q90.4,80.35,68.1,87L56.5,90.5Q34.15,97.1,71.4,126l44.5,34.5A118.27,118.27,0,0,0,131,170.7a57,57,0,0,0,13.1,4.9,164.54,164.54,0,0,0,18.2,2.4l37,3.2c5.1.5,9.1,1,11.8,1.5s6.3,2.2,10.5,5.1l17.72,12.14L240,298.7h23l-.47-108.5Z"/><path class="cls-3" d="M286.7,54.7q-49.2-18-71.5-11.4l-14,4.1c-14.9,4.4-7,13.7,23.4,27.8L373,143.9,374,299h23l-.8-164.9-25.4-10.9,26-10.5,26,10.28L424,299h23l-.9-185.8Zm50.9,54.2L246.7,69.7q-16-6.9-7.5-9.6l5.2-1.7c5.7-1.8,14-.6,24.9,3.8l93.4,37Z"/><path class="cls-3" d="M353.7,152,208.3,80.7C178.4,66,156.1,60.9,141.2,65.3l-14,4.1q-22.35,6.6,19.1,31.7l134.4,81.5L281,299h23l-.2-126.1-23.1-13.2,26-10.5,23.7,12.5L331,280v19h23V173l-.25.11Zm-103.1-9.5L168.1,95.8c-9.7-5.5-11.7-9.1-6-11l5.2-1.7q8.55-2.7,23.4,5.1l85,44.6Z"/><path class="cls-3" d="M488.8,95.3,325.3,43.6c-11.6-3.7-14.9-6.4-9.8-8l3.8-1.2c5.8-1.9,14.6-1.1,26.5,2.4l31.5,9.1,20.4-7.2-35.2-9.4q-53-14.1-75.3-7.5l-12,3.6c-14.9,4.4-5.7,12.3,27.4,23.7l162.8,56L466,299h23Z"/><polygon class="cls-1" points="499 153 133 299 499 299 499 153"/><polygon class="cls-4" points="499 153 133 299 499 299 499 153"/></svg>