<svg xmlns="http://www.w3.org/2000/svg" xmlns:xlink="http://www.w3.org/1999/xlink" viewBox="0 0 471.17 292.71"><defs><style>.cls-1{fill:url(#linear-gradient);}.cls-2{fill:#d1a142;}.cls-3{stroke:#000;stroke-miterlimit:10;stroke-width:4px;fill:url(#linear-gradient-2);}</style><linearGradient id="linear-gradient" x1="318.7" y1="457.38" x2="783.29" y2="457.38" gradientUnits="userSpaceOnUse"><stop offset="0" stop-color="#e89624"/><stop offset="1" stop-color="#e23c00"/></linearGradient><linearGradient id="linear-gradient-2" x1="401.85" y1="358.28" x2="640" y2="358.28" gradientUnits="userSpaceOnUse"><stop offset="0" stop-color="#e89624"/><stop offset="0.1" stop-color="#e7861e"/><stop offset="0.44" stop-color="#e35209"/><stop offset="0.61" stop-color="#e23e01"/><stop offset="0.62" stop-color="#e23e01"/><stop offset="1" stop-color="#e23c00"/></linearGradient></defs><title>craigscrabshackversion2</title><g id="Layer_1" data-name="Layer 1"><path class="cls-1" d="M516.22,601.23a395.07,395.07,0,0,1-120.75-19.05c-32.5-10.73-51.76-23-53.39-29.15-3.17-12-4.79-23.08-6.35-33.82-2.13-14.69-4.15-28.56-9.86-42.91a85.62,85.62,0,0,1-6.67-24.86c-.15-1-.28-2-.39-2.95l-.1-4.43c-.21-8.84,29.06-37.32,50.42-58.11,14.71-14.32,27.42-26.68,31-32.66,11.3-18.81,63.83-39.76,121.15-39.76,33.13,0,61.53,7.22,82.12,20.89,23.89,15.86,37,39.95,38.94,71.63-14.09-2.56-76.75-15-119.61-23.56-50.19-10-50.26-10-50.74-10h-1.92l-.15.53c-5.65,1.71-13.31,3-21.38,4.33-18.17,3-37,6.14-41.88,15.44a10.57,10.57,0,0,0-1.18,6.14,3.08,3.08,0,0,0-.61-.06,2.84,2.84,0,0,0-1.12.23,32.36,32.36,0,0,0-9.94,2.68,39.27,39.27,0,0,1-3.82,1.37,44.63,44.63,0,0,0-4.85,1.69l-1.07.45-.36,1.11c0,.09-.06.17-.08.25a9.94,9.94,0,0,0-2.89-.44c-9.89,0-16,15.08-21.9,29.66-2.39,5.93-4.66,11.53-6.87,15.19a92.65,92.65,0,0,0-7.31,15l-.76,2,1.85,1.06c7.68,4.42,14.5,6.65,20.28,6.65a20.78,20.78,0,0,0,3.32-.26c0,.1-.09.2-.13.31a2.63,2.63,0,0,0,.24,2.47l.75,1.09,1.39,0c.92,0,1.6-.34,3.82-2a7.58,7.58,0,0,0,1,3.12c2.45,4.11,8.73,6.11,19.2,6.11,15.68,0,38-4.57,51.76-9l1,.54c22.63,12.34,43.28,18.6,61.37,18.6,17.27,0,31.82-5.82,43.28-17.29,6.63-1,41.83-11.32,111.65-31.93,49-14.49,103.94-30.7,118.59-34.17-23.64,67-62.1,117-114.36,148.57C625.82,588,574.44,601.23,516.22,601.23Z" transform="translate(-315.84 -311.03)"/><path d="M521.29,316c32.64,0,60.56,7.08,80.73,20.47,22.39,14.87,35,37.21,37.59,66.5-18.51-3.49-76.22-15-116.39-23C472.8,370,472.8,370,472,370h-3.87l-.27,1c-5.35,1.47-12.36,2.64-19.72,3.86-19.64,3.27-38.18,6.35-43.68,16.74a12.73,12.73,0,0,0-1.47,5,36.27,36.27,0,0,0-10.08,2.8c-1.31.52-2.55,1-3.58,1.3a42.75,42.75,0,0,0-5.15,1.79l-2.14.91-.1.32a11.85,11.85,0,0,0-1.19-.06c-11.58,0-18,15.88-24.21,31.23-2.36,5.83-4.59,11.34-6.7,14.82a94.78,94.78,0,0,0-7.5,15.39l-1.52,4,3.7,2.12c8.05,4.63,15.3,7,21.52,7h.7a4.77,4.77,0,0,0,.66,1.43,5.09,5.09,0,0,0,4.2,2.22,5.17,5.17,0,0,0,2.43-.58c.1.17.19.34.29.5,3,5,9.76,7.33,21.34,7.33,15.54,0,37.51-4.4,51.49-8.78l.05,0c23,12.54,44.06,18.9,62.57,18.9,17.69,0,32.65-5.88,44.5-17.48,8.11-1.56,37.11-10,111-31.82,42.9-12.67,94.51-27.91,114-33-23.56,64.24-61.11,112.27-111.72,142.86a261.7,261.7,0,0,1-74.73,30.22,330.23,330.23,0,0,1-76.68,8.68,392.28,392.28,0,0,1-120-18.93c-36.47-12-50.81-23.87-51.75-27.42-3.14-11.82-4.74-22.86-6.29-33.53-2.16-14.84-4.2-28.85-10-43.47l0-.08,0-.08a83.12,83.12,0,0,1-6.45-24.05v-.09l0-.08c-.13-.9-.25-1.8-.36-2.68l-.09-4.32c0-.76.64-5.4,15.4-21.67,9.79-10.78,22.79-23.43,34.27-34.59,17.14-16.68,27.83-27.21,31.41-33.17,5.43-9.05,21.49-18.83,43-26.16a241.4,241.4,0,0,1,76-12.38m0-5c-55.24,0-110.75,20.09-123.29,41-9,15-82.16,76.07-81.79,92.12l-.37-.37c.19,2.67.49,5.33.88,8a87.74,87.74,0,0,0,6.83,25.51c9.75,24.52,8.58,48,16.12,76.44,4.14,15.6,83.72,50.06,176.55,50.06,101.52,0,218.89-41.2,270.78-193.4,0-.07-.07-.1-.26-.1-8.61,0-226.9,66.86-234.54,66.86-.16,0-.23,0-.2-.09-12.07,12.5-26.8,17.29-42.23,17.29-20.36,0-41.92-8.34-60.17-18.29-.65-.35-1.29-.71-1.91-1.07-12.66,4.22-35.87,9.21-52,9.21-12.92,0-21.34-3.19-16.28-12.52.05-.1.05-.14,0-.14-.58,0-7,5.41-7.77,5.41-.07,0-.09-.05-.05-.17a34.85,34.85,0,0,1,3-6.15c-.1,0-2.52,2.68-8.48,2.68-4.32,0-10.51-1.42-19-6.31a89.13,89.13,0,0,1,7.11-14.58c7.42-12.26,14.7-43.64,26.63-43.64,3.31,0,7,2.41,11.08,8.28h0s-6.09-9.7-5.73-9.85a40.11,40.11,0,0,1,4.57-1.59c4-1.12,8.68-3.91,13.9-4a.32.32,0,0,1,.3-.2c1.4,0,6,7.42,6.64,7.42.29,0-.27-1.57-2.39-6.18C399.47,381.68,451,382,472,375h0c.86,0,170.21,34,173,34h0c-2.86-73.8-63.12-98-123.71-98Z" transform="translate(-315.84 -311.03)"/></g><g id="Layer_2" data-name="Layer 2"><path class="cls-2" d="M615.36,372.2" transform="translate(-315.84 -311.03)"/><path class="cls-3" d="M468.08,370l60.25,11.67c10.8,2.09,59.34,11.33,59.34,11.33L640,402.33s-5.12-23.43-9.58-34.41c-7-17.25-28.57-31.88-30.67-33-31.69-17.64-36.23-17.69-72.25-20.13-37.33-2.53-51.27,4.66-74.83,11.25-29.5,8.25-34.67,15.25-42.17,20.5s-8.65,8.83-8.65,8.83S451,350,468.08,370Z" transform="translate(-315.84 -311.03)"/><path d="M433.87,406.72h-5.55v14.56h-5.17V406.72H417.6v-4.39h16.27Z" transform="translate(-315.84 -311.03)"/><path d="M453.81,402.33v18.95h-5.16V414h-6.36v7.28h-5.17V402.33h5.17v7.28h6.36v-7.28Z" transform="translate(-315.84 -311.03)"/><path d="M472.3,416.89v4.39H458.14V402.33h13.7v4.39h-8.53v2.89H471V414h-7.69v2.89Z" transform="translate(-315.84 -311.03)"/><path d="M420.64,441.17c0,7.85-6.09,14.59-16,14.59H399v11.9H387.76v-41h16.88C414.55,426.64,420.64,433.32,420.64,441.17Zm-10.14,0c0-2.58-1.46-5-6.27-5H399v10.14h5.21C409,446.27,410.5,443.75,410.5,441.17Z" transform="translate(-315.84 -311.03)"/><path d="M439.5,426.64v41H428.31v-41Z" transform="translate(-315.84 -311.03)"/><path d="M458.84,426.64l14.24,21.74V426.64h11.25v41h-10l-14.24-21.8v21.8H448.88v-41Z" transform="translate(-315.84 -311.03)"/><path d="M521.89,455.59l5.51,7.85a22.29,22.29,0,0,1-13.89,5.1c-13.3,0-23.32-9.56-23.32-21.39s10-21.45,23.32-21.45a22,22,0,0,1,13.89,5.16l-5.51,7.79a13.84,13.84,0,0,0-8.38-2.87c-7,0-12.36,5-12.36,11.37s5.33,11.37,12.36,11.37A14.3,14.3,0,0,0,521.89,455.59Z" transform="translate(-315.84 -311.03)"/><path d="M570,426.64v41H558.8V451.89H545v15.77H533.84v-41H545V442.4H558.8V426.64Z" transform="translate(-315.84 -311.03)"/></g></svg>