<svg id="Layer_1" data-name="Layer 1" xmlns="http://www.w3.org/2000/svg" viewBox="0 0 570.17 205.05"><defs><style>.cls-1{fill:#d84421;}</style></defs><title>craigscrabshack2</title><path class="cls-1" d="M411.67,536.92c-15.5,0-26.82-.66-33.66-2-27.65-5.3-42.39-34.13-52.14-58.65a85.62,85.62,0,0,1-6.67-24.86c-.15-1-.28-2-.39-2.95l-.1-4.43c-.21-8.87,29.15-37.44,50.58-58.3,14.62-14.23,27.25-26.52,30.85-32.47,6.5-10.74,27-16.41,59.35-16.41,65.6,0,164.32,23.42,202,38.52-18-.24-54.28-.83-89.67-1.41-45.47-.74-92.49-1.51-99-1.51a5.3,5.3,0,0,0-1.6.18l0,0c-4.66,1.55-9.68,2.89-15,4.3-18,4.79-38.41,10.22-48.18,26.36-1.13,1.87-2.2,3.79-3.19,5.72-30.63.93-38.81,16.2-47.46,32.36-1.7,3.18-3.46,6.46-5.41,9.7a92.65,92.65,0,0,0-7.31,15l-.79,2.07,2,1a131.86,131.86,0,0,0,101.57,8.5l1,.54c22.63,12.34,43.28,18.6,61.37,18.6,17.16,0,31.64-5.74,43.06-17.07.64,0,1.39,0,2.27,0h.09c16.55,0,94.42-4.85,169.73-9.53,66.88-4.16,135.91-8.46,155.5-8.92-19.49,16.59-90.8,35-198.77,51C585.93,526.59,472.38,536.92,411.67,536.92Z" transform="translate(-315.84 -334.38)"/><path d="M459.49,339.38c44,0,96.21,10.09,123.43,16.11a659.66,659.66,0,0,1,63.9,17.2c-19.56-.3-47.56-.75-75-1.2-47.57-.77-92.51-1.51-99-1.51a8.41,8.41,0,0,0-2.35.31v0c-4.59,1.53-9.57,2.85-14.84,4.25C437.12,379.42,416.2,385,405.91,402c-.92,1.5-1.79,3-2.6,4.58-30.9,1.43-39.65,17.79-48.12,33.62-1.69,3.15-3.43,6.4-5.35,9.58a94.78,94.78,0,0,0-7.5,15.39l-1.58,4.14,3.93,2.06a134.33,134.33,0,0,0,102.46,9l.05,0c23,12.54,44.06,18.9,62.57,18.9,17.46,0,32.26-5.73,44-17h1.38c16.62,0,94.54-4.85,169.89-9.54,59.13-3.68,120-7.46,146.71-8.6-9.32,5.29-26.26,12.2-57,20.16-34,8.8-80.13,17.65-133.53,25.59-95.62,14.23-209,24.56-269.61,24.56-15.12,0-26.6-.67-33.19-1.94-26.45-5.07-40.77-33.18-50.29-57.11l0-.08,0-.08a83.12,83.12,0,0,1-6.45-24.05v-.09l0-.08c-.13-.9-.25-1.8-.36-2.68l-.09-4.32c0-.76.64-5.42,15.47-21.76,9.82-10.81,22.86-23.5,34.35-34.69,15.36-14.94,27.49-26.75,31.25-33,4.2-6.94,17.54-15.21,57.21-15.21m0-5c-30.3,0-53.78,4.88-61.49,17.62-9,14.94-82.16,76.07-81.79,92.12l-.37-.37c.19,2.67.49,5.33.88,8a87.74,87.74,0,0,0,6.83,25.51c9.75,24.52,25.12,54.64,54,60.18,7.16,1.37,18.91,2,34.13,2C529.56,539.43,856.6,500.61,886,459c.11-.15-.83-.23-2.69-.23-29.71,0-295.84,18.49-328.12,18.49-2.17,0-3.28-.08-3.19-.26-12.07,12.5-26.8,17.29-42.23,17.29-20.36,0-41.92-8.34-60.17-18.29-.65-.35-1.29-.71-1.91-1.07a130,130,0,0,1-41.05,6.64A128.24,128.24,0,0,1,347,466.94a89.52,89.52,0,0,1,7.11-14.58c12.1-20,15.88-40.36,52.29-40.88q1.71-3.5,3.77-6.9C422.13,384.85,451,382,472,375a6.08,6.08,0,0,1,.78,0c13.05,0,186.12,3,199.41,3a6.57,6.57,0,0,0,.81,0c-26.2-14.87-140-43.62-213.51-43.62Z" transform="translate(-315.84 -334.38)"/><path d="M458.37,402.4c-.86,2.52-7.56,3.45-12.67,9.86-4,5-3.38,10.44-4.25,10.44s-3.38-2.38-3.81-7.27.21-6.55,2.73-10.16a20.56,20.56,0,0,1,6.34-5.47c-.43.07-17.86,2.31-33.56,22.76-11.45,15-14,31.1-3.16,31.1,15.33,0,23.61-15.05,24.91-15.91s4,5.47,2.74,7.42c-3.39,5.11-14.48,12.89-27.87,12.89-7.63,0-20.95-7.06-6.12-34.64,17.64-33.12,44.43-33.12,51.84-33.12C459.09,390.3,459.17,399.8,458.37,402.4Z" transform="translate(-315.84 -334.38)"/><path d="M472.55,434.08c-2.16,2.88-5.4,6.77-8.64,7.13-4.68.5-1.8-8.14-.64-12.17,2.73-9.65-4.54,1.37-9.15,8.42l-3.74,13.32c-1.52,5.55-.65,5.55.21,6.12-3.24,2.88-9.07.44-7.27-6.12,6.62-23.69,6.62-23.61,7.06-25,.21-.94-1.44-.22-1.52-1.16,0-.29,3.68-4.46,6.41-4.46,4.61,0,2.52,4.39.15,12.74,3.53-5.61,8.42-12.74,10.58-12.74,3.53,0,6,4,4.32,8.93-.79,2.81-2.73,7.7,1.3,4.1.43-.36.65-.72.93-.57C473.13,432.85,472.84,433.72,472.55,434.08Z" transform="translate(-315.84 -334.38)"/><path d="M502.15,423.71c-3,.86-2.52,1.65-9.65,27.07-1.59,5.55-.72,5.55.14,6.12a4.57,4.57,0,0,1-7.63-3.45c-5.11,9.29-15.12,3.24-12.82-5L477.66,429c1.8-6.2,5.48-8.86,10.73-8.86a6.39,6.39,0,0,1,5.33,3C496.67,418.38,501.5,419.68,502.15,423.71Zm-9.65,2a3.1,3.1,0,0,0-3.17-2.45c-3.82,0-5.11,7.7-10,25.13-2.16,8.06,4.54,6,7.92-4.32C491.85,427.67,491.92,427.45,492.5,425.73Z" transform="translate(-315.84 -334.38)"/><path d="M507,450.78c-1.51,5.55-.65,5.55.21,6.12-3.16,2.74-9.14.58-7.27-6.12,6.63-23.69,6.63-23.54,7.06-25,.21-.94-1.44-.22-1.51-1.16,0-.29,3.67-4.46,6.4-4.46C516.69,420.11,514.89,422.56,507,450.78ZM510.42,411c-.5,2.38.44,5.19,2.38,5.19s4-2.81,4.54-5.19C518.49,405.27,511.65,405.2,510.42,411Z" transform="translate(-315.84 -334.38)"/><path d="M542.61,427.74l-8.5,30.32c-1.87,6.76-8.28,28.58-25.56,28.58-14,0-8.28-19.3,8.28-22.9,2.38-.57,4.39-.93,5.11-.64,1.37.43.51,2.88-1.51,3-.65.07-1.73-.58-2.3-.58-5.55,2-8.79,5.76-11.09,11.24-1.73,4.17-2.16,7.7,1.51,7.7,12.17,0,16.71-20.38,19.44-30-5,7.63-14.33,1.94-12.1-6.12L521.37,429c1.8-6.2,5.47-8.86,10.65-8.86a6.5,6.5,0,0,1,5.4,3c3-4.75,7.71-3.45,8.43.58C544.41,424.14,543.47,424.86,542.61,427.74Zm-6.41-2c-.94-3-5.26-4.54-7.78,3.24L523,448.41c-2.09,8.06,4.54,6,8-4.32C535.55,427.81,535.62,427.45,536.2,425.73Z" transform="translate(-315.84 -334.38)"/><path d="M563.92,431.05c1.73-3,1.22-5.47-.22-6.77s-6-.43-5.47,4.11c.29,2.66,2.95,7.78,5,15.77a11.12,11.12,0,0,1-11.16,13.9c-6,0-9.43-4.32-9.07-9.08.14-1.29,1.37-6.41,4.46-7.85,4-1.8,5.4,2.67,5.62,3.53s-.36.87-.72.79c-4.25-1.51-7,6.92-2.31,8.72,2.38.93,6.85-2.31,6.27-7.56-1.15-9.87-8.79-20.31,1.51-25.57,4.54-2.37,9.65.08,10.73,3.24,2.3,7.06-6,10.52-6.34,9.8S563.34,432.13,563.92,431.05Z" transform="translate(-315.84 -334.38)"/><path d="M645.07,402.4c-.87,2.52-7.56,3.45-12.68,9.86-4,5-3.38,10.44-4.25,10.44s-3.38-2.38-3.81-7.27.21-6.55,2.73-10.16a20.56,20.56,0,0,1,6.34-5.47c-.43.07-17.86,2.31-33.55,22.76-11.45,15-14,31.1-3.17,31.1,15.34,0,23.62-15.05,24.91-15.91s4,5.47,2.74,7.42c-3.39,5.11-14.48,12.89-27.87,12.89-7.63,0-21-7.06-6.12-34.64C608,390.3,634.77,390.3,642.19,390.3,645.79,390.3,645.86,399.8,645.07,402.4Z" transform="translate(-315.84 -334.38)"/><path d="M659.25,434.08c-2.16,2.88-5.4,6.77-8.64,7.13-4.68.5-1.8-8.14-.65-12.17,2.73-9.65-4.54,1.37-9.15,8.42l-3.74,13.32c-1.51,5.55-.65,5.55.22,6.12-3.25,2.88-9.08.44-7.28-6.12,6.63-23.69,6.63-23.61,7.06-25,.22-.94-1.44-.22-1.51-1.16,0-.29,3.67-4.46,6.4-4.46,4.61,0,2.53,4.39.15,12.74,3.53-5.61,8.42-12.74,10.58-12.74,3.53,0,6,4,4.32,8.93-.79,2.81-2.73,7.7,1.3,4.1.43-.36.65-.72.94-.57C659.82,432.85,659.54,433.72,659.25,434.08Z" transform="translate(-315.84 -334.38)"/><path d="M688.84,423.71c-3,.86-2.52,1.65-9.65,27.07-1.58,5.55-.72,5.55.14,6.12a4.57,4.57,0,0,1-7.63-3.45c-5.11,9.29-15.12,3.24-12.82-5L664.36,429c1.8-6.2,5.47-8.86,10.73-8.86a6.37,6.37,0,0,1,5.32,3C683.37,418.38,688.19,419.68,688.84,423.71Zm-9.65,2a3.1,3.1,0,0,0-3.17-2.45c-3.81,0-5.11,7.7-10,25.13-2.16,8.06,4.54,6,7.92-4.32C678.54,427.67,678.61,427.45,679.19,425.73Z" transform="translate(-315.84 -334.38)"/><path d="M713.61,429,708.78,446c-4,14-25.42,16.49-22.18,4.75,15.77-56.09,15.77-56.38,16.49-58.11,2.88-6.76,8.57-5.4,9.36-1.15-3,.94-2.66,2-10.51,30C706.84,418.38,716.05,420.25,713.61,429Zm-8.07-6.2c-2.88,0-4.75,3.53-5.47,5.26l-6.41,22.75c-.43,1.73.14,3.32,2.09,3.32,4.61,0,5.62-6.77,10.8-25.13C707.56,425.44,707.77,422.77,705.54,422.77Z" transform="translate(-315.84 -334.38)"/><path d="M733.91,431.05c1.73-3,1.22-5.47-.22-6.77s-6-.43-5.47,4.11c.29,2.66,2.95,7.78,5,15.77a11.12,11.12,0,0,1-11.16,13.9c-6,0-9.43-4.32-9.07-9.08.14-1.29,1.36-6.41,4.46-7.85,4-1.8,5.4,2.67,5.62,3.53s-.36.87-.72.79c-4.25-1.51-7,6.92-2.31,8.72,2.38.93,6.84-2.31,6.27-7.56-1.15-9.87-8.79-20.31,1.51-25.57,4.54-2.37,9.65.08,10.73,3.24,2.3,7.06-6,10.52-6.34,9.8S733.33,432.13,733.91,431.05Z" transform="translate(-315.84 -334.38)"/><path d="M760.62,450.78c-1.51,5.55-.65,5.55.22,6.12-3.24,2.88-9.08.44-7.28-6.12,7.06-25.2,11.52-35.71-3-13.32l-3.75,13.32c-1.51,5.55-.64,5.55.22,6.12-3.24,2.88-9.07.44-7.27-6.12,15.77-56,15.77-56.38,16.49-58.11,2.88-6.76,8.57-5.4,9.36-1.15-3.1.94-2.38.87-13.76,41.33,3.53-5.61,8.43-12.74,10.59-12.74,3.53,0,6,4,4.32,8.93Z" transform="translate(-315.84 -334.38)"/><path d="M798.92,423.71c-3,.86-2.52,1.65-9.64,27.07-1.59,5.55-.72,5.55.14,6.12a4.57,4.57,0,0,1-7.63-3.45c-5.12,9.29-15.12,3.24-12.82-5L774.44,429c1.8-6.2,5.48-8.86,10.73-8.86a6.4,6.4,0,0,1,5.33,3C793.45,418.38,798.28,419.68,798.92,423.71Zm-9.64,2a3.1,3.1,0,0,0-3.17-2.45c-3.82,0-5.11,7.7-10,25.13-2.16,8.06,4.53,6,7.92-4.32C788.63,427.67,788.7,427.45,789.28,425.73Z" transform="translate(-315.84 -334.38)"/><path d="M820.38,425.65c0,4.32-3.67,4-3.6,1.8,0-.43.65-1.15.79-1.87.58-3.38-6-3.67-8,3.39-5.76,20.3-8.93,27.07-2.81,27.07,4,0,5.69-7.06,6.34-9.15.21-.5.72-1.08,1.22-.86,1,.36,3.75,2.74,3.38,3.6-5,12.1-25.27,11-20.66-1.22l5.4-19.44C805.76,417.66,820.38,417.8,820.38,425.65Z" transform="translate(-315.84 -334.38)"/><path d="M847.24,428c-2.67,4.46-11.24,4.25-11.24,4.25,4.68,2.59,10.66,6.48,9,11.52l-1.94,7c-1.51,5.55-.72,5.55.21,6.12-3.31,2.88-9.07.44-7.27-6.12l2-7c.93-3.32,2.66-5.48-4.11-9.29l-4.61,16.34c-1.51,5.55-.65,5.55.22,6.12-3.24,2.88-9.07.44-7.27-6.12,15.77-56,15.77-56.38,16.49-58.11,2.88-6.76,8.57-5.4,9.36-1.15-3,.94-2.6,1.66-11.24,32.33C846.59,414.56,849.61,424.07,847.24,428Zm-4.18-3.82c-2.67,0-7.42,5.26-8.14,6.34v.07a16.57,16.57,0,0,0,3.75-.22c3.52-.43,4.82-1.08,5.68-2.59C845,426.52,844.93,424.14,843.06,424.14Z" transform="translate(-315.84 -334.38)"/></svg>