<?xml version="1.0" encoding="utf-8"?>
<!-- Generator: Adobe Illustrator 22.0.1, SVG Export Plug-In . SVG Version: 6.00 Build 0)  -->
<svg version="1.1" id="Layer_1" xmlns="http://www.w3.org/2000/svg" xmlns:xlink="http://www.w3.org/1999/xlink" x="0px" y="0px"
	 viewBox="0 0 350 250" style="enable-background:new 0 0 350 250;" xml:space="preserve">
<style type="text/css">
	.st0{fill:none;stroke:#000000;stroke-width:3;stroke-miterlimit:10;}
	.st1{fill:none;stroke:#00E1FF;stroke-miterlimit:10;}
	.st2{fill:none;}
</style>
<line class="st0" x1="159.5" y1="193.5" x2="257" y2="96"/>
<line class="st0" x1="144.5" y1="163.5" x2="257.5" y2="50.5"/>
<rect x="393" y="-13.5" class="st2" width="258" height="230"/>
<text transform="matrix(1 0 0 1 393 169.2764)" style="font-family:'Elsie-Regular'; font-size:260px;">AI</text>
<g>
	<path d="M471,301.4h-49.7l-8.3,24.4c-2.1,5.7-2.9,11.7-2.9,16.4c0,17.7,17.9,17.9,35.6,17.9h4.4v4.2h-77v-4.2
		c20,0,27-12.7,33.5-31.7l42.4-122.5c3.1-9.1,5.7-15.9,15.3-15.9h0.8l52.5,170h18.5v4.2h-66.6v-4.2H489L471,301.4z M422.9,297.2
		h46.8l-21.3-69.7h-1.6L422.9,297.2z"/>
	<path d="M551.9,199.4v-4.2h67.6v4.2h-21.6v160.7h21.6v4.2h-67.6v-4.2h19V199.4H551.9z"/>
</g>
<line class="st1" x1="384.5" y1="438.5" x2="679.5" y2="143.5"/>
<polygon class="st2" points="137.8,93.5 113.9,163.2 160.7,163.2 139.4,93.5 "/>
<polygon points="161,216.1 141.7,216.1 141.7,220.3 208.3,220.3 208.3,216.1 189.8,216.1 176.9,174.1 154.9,196.1 "/>
<path d="M125.5,16.1c-9.6,0-12.2,6.8-15.3,15.9L67.8,154.4c-6.5,19-13.5,31.7-33.5,31.7v4.2h77v-4.2h-4.4
	c-17.7,0-35.6-0.3-35.6-17.9c0-4.7,0.8-10.7,2.9-16.4l8.3-24.4H132l11.8,38.8l22-22L126.3,16.1H125.5z M83.9,123.2l23.9-69.7h1.6
	l21.3,69.7H83.9z"/>
<polygon points="258.9,92.1 231.9,119.1 231.9,227.1 212.9,227.1 212.9,231.3 280.5,231.3 280.5,227.1 258.9,227.1 "/>
<polygon points="258.9,25.4 280.5,25.4 280.5,21.3 212.9,21.3 212.9,25.4 231.9,25.4 231.9,78.1 258.9,51.1 "/>
</svg>
