<svg xmlns="http://www.w3.org/2000/svg" viewBox="0 0 385.15 483"><defs><style>.cls-1{fill:#6f9645;}.cls-2{fill:#fff;}.cls-3{fill:#140e0b;}.cls-4{fill:#e68939;}.cls-5{fill:#f9bb80;}</style></defs><title>day2coffeelogo</title><g id="Layer_2" data-name="Layer 2"><path class="cls-1" d="M884.71,676S804.62,635.09,786.93,581L770.7,531.46a.88.88,0,0,1,1.51-.83l93.07,114s-92.95-119.45-89-144.94c3.06-19.87,7.83-27.68,9.79-30.16a.87.87,0,0,1,1.46.13L875.59,636s-75.11-151.24-69.77-183.26l4.81-28.85a.87.87,0,0,1,1.68-.17l70.55,182.54a.36.36,0,0,0,0,.09l32,66.43" transform="translate(-743.93 -210.5)"/><path class="cls-2" d="M952.53,688.5H865l-74-339H762.7A13.67,13.67,0,0,1,749,335.83V302.17A19.67,19.67,0,0,1,768.7,282.5H795l29-67h129.5" transform="translate(-743.93 -210.5)"/><path d="M952.53,683.5H865l4.83,3.67-7.34-33.59-17.71-81.16-21.34-97.76L805,390.09l-6.12-28c-1-4.36-1.55-9-2.91-13.3-.06-.19-.08-.39-.12-.58A5.07,5.07,0,0,0,791,344.5H767.32c-3.59,0-7.37.44-10.3-2.11s-3-6.06-3-9.63V305.54c0-9.69,4.58-17.93,15.41-18,8.53-.09,17.06,0,25.59,0a4.9,4.9,0,0,0,4.32-2.48l29-67L824,220.5h129.5c6.44,0,6.45-10,0-10H824a4.89,4.89,0,0,0-4.31,2.48l-29,67L795,277.5c-8.57,0-17.17-.18-25.75,0-14.14.3-24.9,10.79-25.25,25-.23,9.64,0,19.32,0,29,0,4.32,0,8.48,1.9,12.5,3.22,6.62,9.72,10.28,17,10.54,9.36.34,18.79,0,28.15,0l-4.82-3.67,7.33,33.59,17.72,81.16,21.34,97.76,18.46,84.57,6.12,28c1,4.36,1.55,9,2.91,13.3.06.19.08.39.12.58A5.06,5.06,0,0,0,865,693.5h87.5c6.44,0,6.45-10,0-10Z" transform="translate(-743.93 -210.5)"/><path d="M783.53,287.5H954c6.44,0,6.45-10,0-10H783.53c-6.43,0-6.44,10,0,10Z" transform="translate(-743.93 -210.5)"/><path d="M783.53,354.5H954c6.44,0,6.45-10,0-10H783.53c-6.43,0-6.44,10,0,10Z" transform="translate(-743.93 -210.5)"/><path class="cls-2" d="M920.53,688.5H1008l74-339h28.34A13.66,13.66,0,0,0,1124,335.83V302.17a19.67,19.67,0,0,0-19.66-19.67H1078l-29-67H919.53" transform="translate(-743.93 -210.5)"/><path d="M920.53,693.5H1008a5.08,5.08,0,0,0,4.83-3.67l7.33-33.59,17.72-81.17,21.33-97.75,18.46-84.57,6.13-28c.9-4.15,2.81-9,2.9-13.3a2.86,2.86,0,0,1,.13-.58L1082,354.5c8.86,0,17.72.06,26.58,0,12.19-.08,20.33-8.21,20.42-20.4.08-10,0-20,0-30,0-13.73-8.92-25.66-23.32-26.59-9.16-.6-18.5-.05-27.68-.05l4.32,2.48-29-67a4.9,4.9,0,0,0-4.32-2.48H919.53c-6.43,0-6.44,10,0,10H1049l-4.31-2.48,29,67a4.89,4.89,0,0,0,4.31,2.48h23.6c9.81,0,17.31,5.28,17.4,15.76.08,8.79,0,17.57,0,26.36,0,2.73.44,6.06-.36,8.72-1.45,4.82-5.83,6.16-10.31,6.16H1082a5.07,5.07,0,0,0-4.82,3.67l-7.33,33.59-17.72,81.17-21.34,97.75-18.46,84.57-6.12,28c-.9,4.15-2.81,9-2.9,13.3a2.86,2.86,0,0,1-.13.58l4.82-3.67h-87.5c-6.43,0-6.44,10,0,10Z" transform="translate(-743.93 -210.5)"/><path d="M1089.53,277.5H919c-6.43,0-6.44,10,0,10h170.5c6.44,0,6.45-10,0-10Z" transform="translate(-743.93 -210.5)"/><path d="M1089.53,344.5H919c-6.43,0-6.44,10,0,10h170.5c6.44,0,6.45-10,0-10Z" transform="translate(-743.93 -210.5)"/><polygon class="cls-3" points="58.01 229.86 87.11 362 296.11 362 329.27 229.86 58.01 229.86"/><path d="M797.12,441.69l25.44,115.54,3.65,16.6A5.05,5.05,0,0,0,831,577.5h209a5.1,5.1,0,0,0,4.83-3.67L1073.93,458l4.09-16.3a5.05,5.05,0,0,0-4.82-6.33H801.94c-6.44,0-6.45,10,0,10H1073.2l-4.82-6.33-29.07,115.83-4.1,16.31,4.82-3.67H831l4.83,3.67L810.42,455.63,806.76,439C805.38,432.75,795.73,435.4,797.12,441.69Z" transform="translate(-743.93 -210.5)"/><path class="cls-4" d="M1069.39,277.67H803.68a5.51,5.51,0,0,1-5-7.84l23.86-51.15a5.51,5.51,0,0,1,5-3.18h218a5.51,5.51,0,0,1,5,3.18l23.86,51.15A5.51,5.51,0,0,1,1069.39,277.67Z" transform="translate(-743.93 -210.5)"/><polyline class="cls-5" points="77.46 23.25 83.46 9.25 301.71 9.75 307.59 23.25"/><path class="cls-4" d="M1119.19,334.64a9.37,9.37,0,0,1-9.31,9.85H761.43c-3.37-.09-6.76-3.58-7.72-6.82l.39-35c.64-12.11,10.22-16.28,19.06-15.23l333.79-.14a12.47,12.47,0,0,1,12.25,10.58Z" transform="translate(-743.93 -210.5)"/><path class="cls-5" d="M754,308.16V300a2.28,2.28,0,0,1,.18-.89c2.86-6.81,5.16-11.59,18.38-15l335.85,3A10.84,10.84,0,0,1,1119.2,298v10.13" transform="translate(-743.93 -210.5)"/><path class="cls-4" d="M896.57,536.66s1.95-66.06,36.17-70.93c25.59-3.64,34.5,5.39,34.5,5.39l-.33,6.45-42.13,37.71Z" transform="translate(-743.93 -210.5)"/><path class="cls-4" d="M909.18,545.06c36,1.3,58.91-37.22,59.7-38.63,0,0,0-.06,0-.09,7.85-7.93,2-21.72,1.69-23.55s-61,53.84-65.74,58.78A34.9,34.9,0,0,0,909.18,545.06Z" transform="translate(-743.93 -210.5)"/><path d="M903,382a11.41,11.41,0,0,1-5.44,1.15,4.63,4.63,0,0,0-3.67,2,17.51,17.51,0,0,0-2.07,3.95c-1.33,3.33-2.24,6.8-3.74,10.06-1.29,2.82-3.23,5.71-6.39,6.56a6.12,6.12,0,0,1-6-1.53,6.65,6.65,0,0,1-1-6.9,5.67,5.67,0,0,1,5.47-3.67,4.24,4.24,0,0,1,4.12,5.06c-.17,1-1.7.58-1.53-.4a2.53,2.53,0,0,0-1.43-2.79,3.76,3.76,0,0,0-3,0c-2.21.95-3,3.91-2.34,6.09a4,4,0,0,0,4.14,2.75,5.63,5.63,0,0,0,3.64-1.56c2.14-2,3.3-5,4.29-7.79a68,68,0,0,1,3.43-9,9.86,9.86,0,0,1,2.62-3.3c-.62-.14-1.23-.27-1.84-.44-3.81-1.06-10.67-3.67-12.85,1.32-.85,1.94-.31,4.42,1.9,5.14a3.32,3.32,0,0,0,3-.44,3.67,3.67,0,0,0,1.43-2.72.78.78,0,0,1,1.56,0,5.23,5.23,0,0,1-2,3.94,4.79,4.79,0,0,1-4.32.75,5.09,5.09,0,0,1-3.33-6.26,6.27,6.27,0,0,1,4-4.49c3.23-1.12,6.74,0,9.9.89,3.43,1,7.27,1.94,10.64.24C903.07,380.16,903.85,381.52,903,382Z" transform="translate(-743.93 -210.5)"/><path d="M909.12,399.64a18.39,18.39,0,0,1-2.58,3.67,7.87,7.87,0,0,1-3.06,2.21,2.76,2.76,0,0,1-2.83-.61,3,3,0,0,1-.61-2.82,19,19,0,0,1,1.67-4.15,11.15,11.15,0,0,0,1.15-3.6c.11-.82,0-1.94-.91-2.11a3.14,3.14,0,0,0-2.18.92,15.35,15.35,0,0,0-3.88,5.3s0,.07,0,.07c-1,2.24-1.94,4.49-2.92,6.76a.78.78,0,0,1-1.06.28.82.82,0,0,1-.3-1.09c.37-.85.74-1.74,1.12-2.59,3-7,6-14,9.25-20.94.4-.92,1.76-.1,1.36.82-.85,1.8-1.67,3.6-2.49,5.44-.68,1.59-1.39,3.19-2.1,4.79a2.12,2.12,0,0,1,.34-.27,4.37,4.37,0,0,1,2.68-1.05,2.65,2.65,0,0,1,2.42,1.49,5.36,5.36,0,0,1,0,3.64,22,22,0,0,1-1.63,4c-.51,1-1.23,2.28-1.06,3.44a1.07,1.07,0,0,0,1.5.71,5.8,5.8,0,0,0,2.55-1.94,17.71,17.71,0,0,0,2.24-3.19C908.27,398,909.63,398.76,909.12,399.64Z" transform="translate(-743.93 -210.5)"/><path d="M920.51,399.5c-1.67,3.17-4.86,6.6-8.81,6a4.28,4.28,0,0,1-3.33-2.38,7.68,7.68,0,0,1-.37-4.62,14.23,14.23,0,0,1,1.77-4.49,10.89,10.89,0,0,1,3.06-3.64,4.09,4.09,0,0,1,4.11-.44c1.56.82,1.67,2.72,1.09,4.18a6.87,6.87,0,0,1-8.3,3.88,10.57,10.57,0,0,0-.34,2.21,3.91,3.91,0,0,0,.92,3,3.36,3.36,0,0,0,2.86.81c2.75-.44,4.76-3,6-5.27C919.63,397.8,921,398.62,920.51,399.5Zm-10.27-3a5.14,5.14,0,0,0,4.32-.61,4.6,4.6,0,0,0,2.24-3.23c.11-1.09-.74-1.67-1.8-1.5a4.78,4.78,0,0,0-2.75,1.94A14.13,14.13,0,0,0,910.24,396.51Z" transform="translate(-743.93 -210.5)"/><path d="M940.43,388.63a2.59,2.59,0,0,0,.65,2.95,3.23,3.23,0,0,0,3.64-.13,6.13,6.13,0,0,0,2.21-3.13,5.27,5.27,0,0,0-.34-4.39c-1.16-1.9-3.68-2-5.61-1.46a11.49,11.49,0,0,0-4.9,3.1,17.47,17.47,0,0,0-3.74,6.08,16.33,16.33,0,0,0-1.09,6.94,6,6,0,0,0,2,4.21,5.94,5.94,0,0,0,4.52,1.06c4-.68,5.61-5.31,7.41-8.37a.78.78,0,0,1,1.36.78s0,.07,0,.07c-1.53,3.37-3.06,6.73-4.69,10a27.12,27.12,0,0,1-2.08,3.77c-1.53,2.21-3.7,4-6.52,3.51s-3.91-3.57-2.93-6a.82.82,0,0,1,1-.55.78.78,0,0,1,.54,1,3.17,3.17,0,0,0,.31,3.33,3.11,3.11,0,0,0,3.43.51,6.66,6.66,0,0,0,2.89-2.65,30.63,30.63,0,0,0,2-3.64l.81-1.63a7.58,7.58,0,0,1-5.88,1.43,6.51,6.51,0,0,1-4.62-3.1,10.41,10.41,0,0,1-1-6.66c.68-5.34,3.53-10.91,8.36-13.63,2.21-1.26,5-1.94,7.41-.89,2.79,1.16,3.81,4.42,3,7.21s-3,5.54-6.12,5.3a3.86,3.86,0,0,1-3.27-1.94,4.17,4.17,0,0,1-.1-3.84C939.51,386.92,940.87,387.71,940.43,388.63Z" transform="translate(-743.93 -210.5)"/><path d="M961.65,399.44c-1.29,2.31-3.06,5-5.61,6a3.31,3.31,0,0,1-4.49-1.7c-.58-1.77.48-3.77,1.29-5.3.45-.79.92-1.57,1.33-2.35.54-1,1.15-2.28.64-3.43-.37-.82-1.35-1.06-2-1.57a.36.36,0,0,0-.13-.1,55,55,0,0,1-4.28,9.25.78.78,0,0,1-1.36-.78,51.56,51.56,0,0,0,4.69-10.65c0-.1,0-.16.07-.27.37-.91,1.8-.57,1.53.44a.09.09,0,0,1,0,.07c-.13.65.92,1.09,1.43,1.36a3.45,3.45,0,0,1,1.83,2.55c.31,2.08-1,4-2,5.71-.68,1.23-1.73,2.83-1.56,4.25a1.44,1.44,0,0,0,1.15,1.23,2.78,2.78,0,0,0,1.84-.41,13.22,13.22,0,0,0,4.32-5.1C960.76,397.74,962.12,398.55,961.65,399.44Z" transform="translate(-743.93 -210.5)"/><path d="M967.84,399.64a16.17,16.17,0,0,1-3.4,4.62c-1.09,1-2.62,1.74-4,.89s-1.23-2.59-.92-3.91a36.26,36.26,0,0,1,2-5.27c.85-1.94,1.67-3.91,2.58-5.81.44-.92,1.81-.14,1.36.78-.88,1.9-1.73,3.8-2.55,5.74a43.18,43.18,0,0,0-1.73,4.56c-.2.71-.65,2.31.27,2.62s2-.79,2.62-1.4a17.21,17.21,0,0,0,2.45-3.64C967,397.94,968.35,398.76,967.84,399.64Zm-1.09-12.17a1,1,0,0,1-1.56-.51,1.46,1.46,0,0,1,.4-1.43,1.09,1.09,0,0,1,.82-.27.94.94,0,0,1,.85.71A1.49,1.49,0,0,1,966.75,387.47Z" transform="translate(-743.93 -210.5)"/><path d="M981.67,399.64a19.24,19.24,0,0,1-2.58,3.67,7.75,7.75,0,0,1-3.09,2.21,2.79,2.79,0,0,1-2.83-.61,3.13,3.13,0,0,1-.61-2.82,18.26,18.26,0,0,1,1.7-4.12,12.76,12.76,0,0,0,1.16-3.7c.1-.82,0-1.87-.92-2a3.29,3.29,0,0,0-2.21.92,15,15,0,0,0-3.81,5.23c-1,2.28-2,4.59-3,6.9a.81.81,0,0,1-1.09.28.85.85,0,0,1-.27-1.09c.27-.61.51-1.23.78-1.84,1.81-4.15,3.61-8.33,5.51-12.47.41-.92,1.77-.11,1.36.81-.14.31-.31.61-.44.95l.27-.2a4.31,4.31,0,0,1,2.69-1.05,2.6,2.6,0,0,1,2.38,1.46,5.53,5.53,0,0,1,0,3.7,21.48,21.48,0,0,1-1.63,4c-.48,1-1.19,2.28-1,3.44.1.71.82.92,1.46.71a5.64,5.64,0,0,0,2.55-1.94,16.32,16.32,0,0,0,2.24-3.19C980.79,398,982.15,398.76,981.67,399.64Z" transform="translate(-743.93 -210.5)"/><path d="M990.45,399.88c-.31.88-1.64,4.72.64,4a5.66,5.66,0,0,0,2.31-2,21.91,21.91,0,0,0,2-3.06c.47-.88,1.83-.06,1.36.82a23.75,23.75,0,0,1-2.55,3.77,5.35,5.35,0,0,1-3.34,2.08,2.4,2.4,0,0,1-2.51-1.57c0-.2-.1-.37-.14-.57a5.55,5.55,0,0,1-4,2.17,3.52,3.52,0,0,1-3.16-1.7,6.47,6.47,0,0,1-.68-4.15,14.25,14.25,0,0,1,2.24-5.54c1.19-1.94,3-3.8,5.23-4.31a4.25,4.25,0,0,1,3.57.54,3,3,0,0,1,1,1.22c1.67-3.6,3.3-7.17,5-10.74.45-.92,1.81-.14,1.36.78-1.12,2.42-2.21,4.83-3.33,7.24-1,2.08-1.9,4.15-2.82,6.22C991.81,396.65,991.06,398.25,990.45,399.88Zm-1.3-1.09c0-.07.07-.1.07-.17.55-1.33,1.16-2.65,1.77-4a2,2,0,0,1,.17-.41.51.51,0,0,1,0-.3,2.15,2.15,0,0,0-1.5-2.65,4.24,4.24,0,0,0-2.72.54,9.72,9.72,0,0,0-3.56,4,11.16,11.16,0,0,0-1.53,4.49,4.09,4.09,0,0,0,.64,2.89,2.1,2.1,0,0,0,2.25.65C986.91,403.28,988.34,400.73,989.15,398.79Z" transform="translate(-743.93 -210.5)"/></g></svg>