<svg xmlns="http://www.w3.org/2000/svg" viewBox="0 0 385.15 483"><defs><style>.cls-1{fill:#6f9645;}.cls-2{fill:#fff;}.cls-3{fill:#140e0b;}.cls-4{fill:#e68939;}.cls-5{fill:#f9bb80;}</style></defs><title>day2coffeelogo</title><g id="Layer_3" data-name="Layer 3"><path class="cls-1" d="M884.71,676S804.62,635.09,786.93,581L770.7,531.46a.88.88,0,0,1,1.51-.83l93.07,114s-92.95-119.45-89-144.94c3.06-19.87,7.83-27.68,9.79-30.16a.87.87,0,0,1,1.46.13L875.59,636s-75.11-151.24-69.77-183.26l4.81-28.85a.87.87,0,0,1,1.68-.17l70.55,182.54a.36.36,0,0,0,0,.09l32,66.43" transform="translate(-743.93 -210.5)"/></g><g id="Layer_1" data-name="Layer 1"><path class="cls-2" d="M952.53,688.5H865l-74-339H762.7A13.67,13.67,0,0,1,749,335.83V302.17A19.67,19.67,0,0,1,768.7,282.5H795l29-67h129.5" transform="translate(-743.93 -210.5)"/><path d="M952.53,683.5H865l4.83,3.67-7.34-33.59-17.71-81.16-21.34-97.76L805,390.09l-6.12-28c-1-4.36-1.55-9-2.91-13.3-.06-.19-.08-.39-.12-.58A5.07,5.07,0,0,0,791,344.5H767.32c-3.59,0-7.37.44-10.3-2.11s-3-6.06-3-9.63V305.54c0-9.69,4.58-17.93,15.41-18,8.53-.09,17.06,0,25.59,0a4.9,4.9,0,0,0,4.32-2.48l29-67L824,220.5h129.5c6.44,0,6.45-10,0-10H824a4.89,4.89,0,0,0-4.31,2.48l-29,67L795,277.5c-8.57,0-17.17-.18-25.75,0-14.14.3-24.9,10.79-25.25,25-.23,9.64,0,19.32,0,29,0,4.32,0,8.48,1.9,12.5,3.22,6.62,9.72,10.28,17,10.54,9.36.34,18.79,0,28.15,0l-4.82-3.67,7.33,33.59,17.72,81.16,21.34,97.76,18.46,84.57,6.12,28c1,4.36,1.55,9,2.91,13.3.06.19.08.39.12.58A5.06,5.06,0,0,0,865,693.5h87.5c6.44,0,6.45-10,0-10Z" transform="translate(-743.93 -210.5)"/><path d="M783.53,287.5H954c6.44,0,6.45-10,0-10H783.53c-6.43,0-6.44,10,0,10Z" transform="translate(-743.93 -210.5)"/><path d="M783.53,354.5H954c6.44,0,6.45-10,0-10H783.53c-6.43,0-6.44,10,0,10Z" transform="translate(-743.93 -210.5)"/><path class="cls-2" d="M920.53,688.5H1008l74-339h28.34A13.66,13.66,0,0,0,1124,335.83V302.17a19.67,19.67,0,0,0-19.66-19.67H1078l-29-67H919.53" transform="translate(-743.93 -210.5)"/><path d="M920.53,693.5H1008a5.08,5.08,0,0,0,4.83-3.67l7.33-33.59,17.72-81.17,21.33-97.75,18.46-84.57,6.13-28c.9-4.15,2.81-9,2.9-13.3a2.86,2.86,0,0,1,.13-.58L1082,354.5c8.86,0,17.72.06,26.58,0,12.19-.08,20.33-8.21,20.42-20.4.08-10,0-20,0-30,0-13.73-8.92-25.66-23.32-26.59-9.16-.6-18.5-.05-27.68-.05l4.32,2.48-29-67a4.9,4.9,0,0,0-4.32-2.48H919.53c-6.43,0-6.44,10,0,10H1049l-4.31-2.48,29,67a4.89,4.89,0,0,0,4.31,2.48h23.6c9.81,0,17.31,5.28,17.4,15.76.08,8.79,0,17.57,0,26.36,0,2.73.44,6.06-.36,8.72-1.45,4.82-5.83,6.16-10.31,6.16H1082a5.07,5.07,0,0,0-4.82,3.67l-7.33,33.59-17.72,81.17-21.34,97.75-18.46,84.57-6.12,28c-.9,4.15-2.81,9-2.9,13.3a2.86,2.86,0,0,1-.13.58l4.82-3.67h-87.5c-6.43,0-6.44,10,0,10Z" transform="translate(-743.93 -210.5)"/><path d="M1089.53,277.5H919c-6.43,0-6.44,10,0,10h170.5c6.44,0,6.45-10,0-10Z" transform="translate(-743.93 -210.5)"/><path d="M1089.53,344.5H919c-6.43,0-6.44,10,0,10h170.5c6.44,0,6.45-10,0-10Z" transform="translate(-743.93 -210.5)"/><polygon class="cls-3" points="58.01 229.86 87.11 362 296.11 362 329.27 229.86 58.01 229.86"/><path d="M797.12,441.69l25.44,115.54,3.65,16.6A5.05,5.05,0,0,0,831,577.5h209a5.1,5.1,0,0,0,4.83-3.67L1073.93,458l4.09-16.3a5.05,5.05,0,0,0-4.82-6.33H801.94c-6.44,0-6.45,10,0,10H1073.2l-4.82-6.33-29.07,115.83-4.1,16.31,4.82-3.67H831l4.83,3.67L810.42,455.63,806.76,439C805.38,432.75,795.73,435.4,797.12,441.69Z" transform="translate(-743.93 -210.5)"/></g><g id="Layer_2" data-name="Layer 2"><path class="cls-4" d="M1069.39,277.67H803.68a5.51,5.51,0,0,1-5-7.84l23.86-51.15a5.51,5.51,0,0,1,5-3.18h218a5.51,5.51,0,0,1,5,3.18l23.86,51.15A5.51,5.51,0,0,1,1069.39,277.67Z" transform="translate(-743.93 -210.5)"/><polyline class="cls-5" points="77.46 23.25 83.46 9.25 301.71 9.75 307.59 23.25"/><path class="cls-4" d="M1119.19,334.64a9.37,9.37,0,0,1-9.31,9.85H761.43c-3.37-.09-6.76-3.58-7.72-6.82l.39-35c.64-12.11,10.22-16.28,19.06-15.23l333.79-.14a12.47,12.47,0,0,1,12.25,10.58Z" transform="translate(-743.93 -210.5)"/><path class="cls-5" d="M754,308.16V300a2.28,2.28,0,0,1,.18-.89c2.86-6.81,5.16-11.59,18.38-15l335.85,3A10.84,10.84,0,0,1,1119.2,298v10.13" transform="translate(-743.93 -210.5)"/><path class="cls-4" d="M896.57,536.66s1.95-66.06,36.17-70.93c25.59-3.64,34.5,5.39,34.5,5.39l-.33,6.45-42.13,37.71Z" transform="translate(-743.93 -210.5)"/><path class="cls-4" d="M909.18,545.06c36,1.3,58.91-37.22,59.7-38.63,0,0,0-.06,0-.09,7.85-7.93,2-21.72,1.69-23.55s-61,53.84-65.74,58.78A34.9,34.9,0,0,0,909.18,545.06Z" transform="translate(-743.93 -210.5)"/></g></svg>