<svg id="Layer_1" data-name="Layer 1" xmlns="http://www.w3.org/2000/svg" viewBox="0 0 665.04 203.14"><title>day4logo</title><path d="M590.4,388.91c0,36.45-28.29,67.73-74.26,67.73H490v55.21H437.81V321.45h78.33C562.11,321.45,590.4,352.46,590.4,388.91Zm-47.06,0c0-12-6.8-23.39-29.1-23.39H490v47.05h24.21C536.54,412.57,543.34,400.88,543.34,388.91Z" transform="translate(-437.81 -312.79)"/><path d="M678,376V511.85H626V376Z" transform="translate(-437.81 -312.79)"/><path d="M767.74,321.45l66.09,100.91V321.45h52.23v190.4H839.82l-66.1-101.18V511.85H721.5V321.45Z" transform="translate(-437.81 -312.79)"/><path d="M1102.84,394.62v97.65c-19,14.69-51.4,23.66-76.16,23.66-61.74,0-108-41.89-108-99.28,0-57.66,49.23-99.55,111-99.55,24.48,0,45.42,9,64.46,23.94l-25.57,36.17c-11.42-8.16-24.75-13.87-38.89-13.87-32.64,0-60.39,23.66-60.39,53.31C969.29,446,994,470,1026.68,470c9.25,0,17.68-1.36,27.48-3.8V438.68h-42.71V394.62Z" transform="translate(-437.81 -312.79)"/><path d="M683.93,328.73" transform="translate(-437.81 -312.79)"/><path d="M620.08,328.73" transform="translate(-437.81 -312.79)"/><path d="M683.93,331.47a2.73,2.73,0,0,1-1.93-.8,42.47,42.47,0,0,0-60,0,2.74,2.74,0,0,1-3.87-3.87,47.94,47.94,0,0,1,67.73,0,2.73,2.73,0,0,1,0,3.87A2.77,2.77,0,0,1,683.93,331.47Z" transform="translate(-437.81 -312.79)"/><path d="M675.43,337.16" transform="translate(-437.81 -312.79)"/><path d="M628.58,337.16" transform="translate(-437.81 -312.79)"/><path d="M675.43,339.89a2.72,2.72,0,0,1-1.94-.8,30.42,30.42,0,0,0-43,0,2.74,2.74,0,0,1-3.87-3.87,35.9,35.9,0,0,1,50.71,0,2.73,2.73,0,0,1,0,3.87A2.68,2.68,0,0,1,675.43,339.89Z" transform="translate(-437.81 -312.79)"/><path d="M667.41,345.79" transform="translate(-437.81 -312.79)"/><path d="M636.6,345.79" transform="translate(-437.81 -312.79)"/><path d="M667.41,348.52a2.72,2.72,0,0,1-1.94-.8,19.06,19.06,0,0,0-26.93,0,2.74,2.74,0,0,1-3.87-3.87,24.54,24.54,0,0,1,34.67,0,2.73,2.73,0,0,1,0,3.87A2.68,2.68,0,0,1,667.41,348.52Z" transform="translate(-437.81 -312.79)"/><circle cx="214.61" cy="40.94" r="4.31"/></svg>