<svg id="Layer_1" data-name="Layer 1" xmlns="http://www.w3.org/2000/svg" xmlns:xlink="http://www.w3.org/1999/xlink" viewBox="0 0 665.04 203.14"><defs><style>.cls-1{fill:url(#linear-gradient);}.cls-2{fill:url(#linear-gradient-2);}.cls-3{fill:url(#linear-gradient-3);}.cls-4{fill:url(#linear-gradient-4);}.cls-5{fill:url(#linear-gradient-5);}.cls-6{fill:url(#linear-gradient-6);}.cls-7{fill:url(#linear-gradient-7);}.cls-8{fill:url(#linear-gradient-8);}.cls-9{fill:url(#linear-gradient-9);}.cls-10{fill:url(#linear-gradient-11);}.cls-11{fill:url(#linear-gradient-12);}.cls-12{fill:url(#linear-gradient-14);}</style><linearGradient id="linear-gradient" x1="704.1" y1="672.67" x2="704.1" y2="450.97" gradientUnits="userSpaceOnUse"><stop offset="0" stop-color="#3fa6ff"/><stop offset="1" stop-color="#6aff9d"/></linearGradient><linearGradient id="linear-gradient-2" x1="842" y1="672.67" x2="842" y2="450.97" xlink:href="#linear-gradient"/><linearGradient id="linear-gradient-3" x1="993.78" y1="672.67" x2="993.78" y2="450.97" xlink:href="#linear-gradient"/><linearGradient id="linear-gradient-4" x1="1200.77" y1="672.67" x2="1200.77" y2="450.97" xlink:href="#linear-gradient"/><linearGradient id="linear-gradient-5" x1="873.93" y1="456.73" x2="873.93" y2="456.73" xlink:href="#linear-gradient"/><linearGradient id="linear-gradient-6" x1="810.08" y1="456.73" x2="810.08" y2="456.73" xlink:href="#linear-gradient"/><linearGradient id="linear-gradient-7" x1="842" y1="433.33" x2="842" y2="495.33" xlink:href="#linear-gradient"/><linearGradient id="linear-gradient-8" x1="865.43" y1="465.16" x2="865.43" y2="465.16" xlink:href="#linear-gradient"/><linearGradient id="linear-gradient-9" x1="818.58" y1="465.16" x2="818.58" y2="465.16" xlink:href="#linear-gradient"/><linearGradient id="linear-gradient-11" x1="857.41" y1="473.79" x2="857.41" y2="473.79" xlink:href="#linear-gradient"/><linearGradient id="linear-gradient-12" x1="826.6" y1="473.79" x2="826.6" y2="473.79" xlink:href="#linear-gradient"/><linearGradient id="linear-gradient-14" x1="214.61" y1="-7.46" x2="214.61" y2="54.54" xlink:href="#linear-gradient"/></defs><title>day4logo</title><path class="cls-1" d="M780.4,516.91c0,36.45-28.29,67.73-74.26,67.73H680v55.21H627.81V449.45h78.33C752.11,449.45,780.4,480.46,780.4,516.91Zm-47.06,0c0-12-6.8-23.39-29.1-23.39H680v47.05h24.21C726.54,540.57,733.34,528.88,733.34,516.91Z" transform="translate(-627.81 -440.79)"/><path class="cls-2" d="M868,504V639.85H816V504Z" transform="translate(-627.81 -440.79)"/><path class="cls-3" d="M957.74,449.45l66.09,100.91V449.45h52.23v190.4h-46.24l-66.1-101.18V639.85H911.5V449.45Z" transform="translate(-627.81 -440.79)"/><path class="cls-4" d="M1292.84,522.62v97.65c-19,14.69-51.4,23.66-76.16,23.66-61.74,0-108-41.89-108-99.28,0-57.66,49.23-99.55,111-99.55,24.48,0,45.42,9,64.46,23.94l-25.57,36.17c-11.42-8.16-24.75-13.87-38.89-13.87-32.64,0-60.39,23.66-60.39,53.31,0,29.38,24.75,53.31,57.39,53.31,9.25,0,17.68-1.36,27.48-3.8V566.68h-42.71V522.62Z" transform="translate(-627.81 -440.79)"/><path class="cls-5" d="M873.93,456.73" transform="translate(-627.81 -440.79)"/><path class="cls-6" d="M810.08,456.73" transform="translate(-627.81 -440.79)"/><path class="cls-7" d="M873.93,459.47a2.73,2.73,0,0,1-1.93-.8,42.47,42.47,0,0,0-60,0,2.74,2.74,0,0,1-3.87-3.87,47.94,47.94,0,0,1,67.73,0,2.73,2.73,0,0,1,0,3.87A2.77,2.77,0,0,1,873.93,459.47Z" transform="translate(-627.81 -440.79)"/><path class="cls-8" d="M865.43,465.16" transform="translate(-627.81 -440.79)"/><path class="cls-9" d="M818.58,465.16" transform="translate(-627.81 -440.79)"/><path class="cls-7" d="M865.43,467.89a2.72,2.72,0,0,1-1.94-.8,30.42,30.42,0,0,0-43,0,2.74,2.74,0,0,1-3.87-3.87,35.9,35.9,0,0,1,50.71,0,2.73,2.73,0,0,1,0,3.87A2.68,2.68,0,0,1,865.43,467.89Z" transform="translate(-627.81 -440.79)"/><path class="cls-10" d="M857.41,473.79" transform="translate(-627.81 -440.79)"/><path class="cls-11" d="M826.6,473.79" transform="translate(-627.81 -440.79)"/><path class="cls-7" d="M857.41,476.52a2.72,2.72,0,0,1-1.94-.8,19.06,19.06,0,0,0-26.93,0,2.74,2.74,0,0,1-3.87-3.87,24.54,24.54,0,0,1,34.67,0,2.73,2.73,0,0,1,0,3.87A2.68,2.68,0,0,1,857.41,476.52Z" transform="translate(-627.81 -440.79)"/><circle class="cls-12" cx="214.61" cy="40.94" r="4.31"/></svg>