<svg id="Layer_1" data-name="Layer 1" xmlns="http://www.w3.org/2000/svg" xmlns:xlink="http://www.w3.org/1999/xlink" viewBox="0 0 221.27 126.96"><defs><style>.cls-1{fill:#fff;}.cls-2,.cls-3,.cls-4,.cls-5,.cls-6{stroke:#000;stroke-miterlimit:10;}.cls-2,.cls-3{stroke-width:3px;}.cls-2{fill:url(#linear-gradient);}.cls-3{fill:#496572;}.cls-4{fill:#8e824a;}.cls-4,.cls-5{stroke-width:2px;}.cls-5,.cls-6{fill:none;}.cls-6{stroke-width:4px;}</style><linearGradient id="linear-gradient" x1="135.62" y1="-2.88" x2="58.12" y2="135.37" gradientUnits="userSpaceOnUse"><stop offset="0" stop-color="#fff"/><stop offset="1"/></linearGradient></defs><title>eoalogo</title><rect x="622.3" y="245.63" width="6.51" height="6.51" rx="2.25" ry="2.25" transform="translate(52.9 -588.79) rotate(67.42)"/><rect class="cls-1" x="619.97" y="244.73" width="8.67" height="2.29" rx="0.79" ry="0.79" transform="translate(49.36 -589.49) rotate(67.42)"/><rect x="620.37" y="245.03" width="7.87" height="1.69" rx="0.58" ry="0.58" transform="translate(49.36 -589.49) rotate(67.42)"/><rect x="715.83" y="238.11" width="5.84" height="5.84" rx="2.25" ry="2.25" transform="translate(-573.94 279.56) rotate(-34.07)"/><rect class="cls-1" x="717.16" y="238.3" width="8.09" height="2.14" rx="0.79" ry="0.79" transform="translate(-572.58 280.65) rotate(-34.07)"/><rect x="717.53" y="238.58" width="7.34" height="1.57" rx="0.58" ry="0.58" transform="translate(-572.58 280.65) rotate(-34.07)"/><rect x="679.34" y="265.98" width="5.21" height="5.21" rx="2.25" ry="2.25" transform="translate(-367.14 652.01) rotate(-69.88)"/><rect x="677.46" y="271.11" width="5.21" height="5.21" rx="2.25" ry="2.25" transform="translate(-373.19 653.61) rotate(-69.88)"/><rect class="cls-1" x="677.58" y="270.12" width="6.94" height="1.83" rx="0.79" ry="0.79" transform="translate(-370.03 652.77) rotate(-69.88)"/><rect x="677.9" y="270.36" width="6.3" height="1.35" rx="0.58" ry="0.58" transform="translate(-370.03 652.77) rotate(-69.88)"/><rect x="638.78" y="272.17" width="5.82" height="5.82" rx="2.25" ry="2.25" transform="translate(131.17 -585.66) rotate(71.05)"/><rect x="636.79" y="266.39" width="5.82" height="5.82" rx="2.25" ry="2.25" transform="matrix(0.32, 0.95, -0.95, 0.32, 124.36, -587.69)"/><rect class="cls-1" x="636.86" y="271.3" width="7.77" height="2.05" rx="0.79" ry="0.79" transform="translate(127.92 -586.63) rotate(71.05)"/><rect x="637.22" y="271.57" width="7.05" height="1.51" rx="0.58" ry="0.58" transform="translate(127.92 -586.63) rotate(71.05)"/><path d="M597.15,201.92v10.79H562.29V166.06H596v10.8H575V184H594v10.8H575v7.13Z" transform="translate(-562.29 -164.5)"/><path d="M630.27,212.71l-8.73-15.19-8.86,15.19h-14.2l15.26-24.06-14.06-22.59h13.6l8.13,13.53,7.66-13.53h13.6L629.2,188.45,644,212.71Z" transform="translate(-562.29 -164.5)"/><path d="M707.58,201.21v10.6H675.71V166h12.56v35.21Z" transform="translate(-562.29 -164.5)"/><path d="M743.12,201.24v10.57H709V166.14h33v10.57H721.46v7H740v10.57H721.46v7Z" transform="translate(-562.29 -164.5)"/><path d="M783.53,199.63c-1,12.8-13.84,14-21.27,13.18A37.4,37.4,0,0,1,745,206.29l5.69-9.38c5.11,5.82,18.42,7.82,19.46,2.85,1.74-8.15-24-3.82-21.79-21.85.84-6.72,5.75-13.12,19.59-12.35,8.79.52,13.12,3.62,14.09,4.4l-4.4,9.69c-4.13-3.94-15.7-6.2-16.8-.9C759.35,185.73,784.69,183.34,783.53,199.63Z" transform="translate(-562.29 -164.5)"/><path d="M636,224.74v2.71h7.17v4.1H636v6.81h-4.86V220.63h12.81v4.11Z" transform="translate(-562.29 -164.5)"/><path d="M687.53,235.25h-6l-1.16,3.35h-5.75l7.13-18.89h5.53l7.14,18.89h-5.74ZM686,230.88l-1.46-4.15-1.45,4.15Z" transform="translate(-562.29 -164.5)"/><path d="M710.32,227v9.68a13.65,13.65,0,0,1-7.55,2.35c-6.12,0-10.71-4.15-10.71-9.85s4.88-9.87,11-9.87a10.14,10.14,0,0,1,6.39,2.37l-2.54,3.59a6.68,6.68,0,0,0-3.85-1.37c-3.24,0-6,2.34-6,5.28a5.44,5.44,0,0,0,5.69,5.29,10.49,10.49,0,0,0,2.72-.38v-2.72h-4.23V227Z" transform="translate(-562.29 -164.5)"/><path d="M715.85,219.71l6.56,10v-10h5.17V238.6H723l-6.56-10v10h-5.18V219.71Z" transform="translate(-562.29 -164.5)"/><path d="M741.48,235.25h-6l-1.16,3.35h-5.75l7.12-18.89h5.53l7.15,18.89h-5.74Zm-1.54-4.37-1.46-4.15L737,230.88Z" transform="translate(-562.29 -164.5)"/><path d="M756.42,232.53h-1.89v6.07h-5.15V219.71h7.74c4.56,0,7.39,2.81,7.39,6.4a6,6,0,0,1-3,5.34l4.13,7.15h-5.67Zm-1.89-4.37h2.4c2.21,0,2.91-.84,2.91-2s-.7-2-2.91-2h-2.4Z" transform="translate(-562.29 -164.5)"/><path d="M773.57,232.53h-1.88v6.07h-5.16V219.71h7.74c4.56,0,7.4,2.81,7.4,6.4a6,6,0,0,1-3,5.34l4.13,7.15h-5.67Zm-1.88-4.37h2.4c2.21,0,2.91-.84,2.91-2s-.7-2-2.91-2h-2.4Z" transform="translate(-562.29 -164.5)"/><polygon class="cls-2" points="91.11 112.08 97.43 120.19 104.13 111.6 104.13 98.51 108.33 98.51 108.33 26.36 86.54 26.36 86.54 105.1 91.11 112.08"/><path class="cls-3" d="M668.65,190.84l-21.74-.19a2,2,0,0,1-1.65-3l2.8-4.68a2,2,0,0,1,1.68-.95h15.57a5.32,5.32,0,0,1,5.31,5.32v1.51A1.94,1.94,0,0,1,668.65,190.84Z" transform="translate(-562.29 -164.5)"/><rect class="cls-4" x="93.6" y="6.13" width="7.7" height="11.12"/><rect class="cls-4" x="651.62" y="165.5" width="16.25" height="5.13" rx="2.57" ry="2.57" transform="translate(757.2 171.64) rotate(-180)"/><line class="cls-5" x1="101.01" y1="8.48" x2="93.38" y2="14.4"/><path class="cls-6" d="M655.69,181.08" transform="translate(-562.29 -164.5)"/><path class="cls-6" d="M663.31,175.16" transform="translate(-562.29 -164.5)"/><rect x="701.09" y="251.38" width="5.34" height="5.34" rx="2.25" ry="2.25" transform="translate(-592.73 -54.58) rotate(-8.74)"/><rect x="695.55" y="252.23" width="5.34" height="5.34" rx="2.25" ry="2.25" transform="translate(-592.93 -55.41) rotate(-8.74)"/><rect class="cls-1" x="697.56" y="253.52" width="7.13" height="1.88" rx="0.79" ry="0.79" transform="translate(-592.82 -54.98) rotate(-8.74)"/><rect x="697.89" y="253.77" width="6.47" height="1.39" rx="0.58" ry="0.58" transform="matrix(0.99, -0.15, 0.15, 0.99, -592.82, -54.98)"/><rect x="688.8" y="254.78" width="5.34" height="5.34" rx="2.25" ry="2.25" transform="translate(-608.64 99.75) rotate(-20.95)"/><rect x="683.56" y="256.79" width="5.34" height="5.34" rx="2.25" ry="2.25" transform="translate(-609.7 98.01) rotate(-20.95)"/><rect class="cls-1" x="685.41" y="257.47" width="7.13" height="1.88" rx="0.79" ry="0.79" transform="translate(-609.14 98.92) rotate(-20.95)"/><rect x="685.74" y="257.72" width="6.47" height="1.39" rx="0.58" ry="0.58" transform="matrix(0.93, -0.36, 0.36, 0.93, -609.14, 98.92)"/><rect x="678.55" y="285.8" width="5.49" height="5.49" rx="2.25" ry="2.25" transform="translate(9.65 -607.71) rotate(58.55)"/><rect x="675.54" y="280.89" width="5.49" height="5.49" rx="2.25" ry="2.25" transform="translate(4.02 -607.5) rotate(58.55)"/><rect class="cls-1" x="676.2" y="285.24" width="7.32" height="1.93" rx="0.79" ry="0.79" transform="translate(6.97 -607.61) rotate(58.55)"/><rect x="676.54" y="285.49" width="6.64" height="1.42" rx="0.58" ry="0.58" transform="translate(6.97 -607.61) rotate(58.55)"/><rect x="633.6" y="254.8" width="5.68" height="5.68" rx="2.25" ry="2.25" transform="translate(-222.17 -526.24) rotate(42.39)"/><rect x="629.2" y="250.78" width="5.68" height="5.68" rx="2.25" ry="2.25" transform="translate(-226.04 -524.32) rotate(42.39)"/><rect class="cls-1" x="630.56" y="254.73" width="7.58" height="2" rx="0.79" ry="0.79" transform="translate(-224.01 -525.33) rotate(42.39)"/><rect x="630.91" y="254.99" width="6.88" height="1.47" rx="0.58" ry="0.58" transform="translate(-224.01 -525.33) rotate(42.39)"/><path d="M615.05,220.63c-7.22,0-13.48,5.87-13.48,13.09s6.26,13.06,13.48,13.06S628.5,241,628.5,233.72A13.41,13.41,0,0,0,615.05,220.63ZM615,241a7.3,7.3,0,1,1,7.51-7.28A7.48,7.48,0,0,1,615,241Z" transform="translate(-562.29 -164.5)"/><rect x="629.13" y="283.17" width="5.82" height="5.82" rx="2.25" ry="2.25" transform="translate(762.73 88.67) rotate(152.93)"/><rect x="634.57" y="280.39" width="5.82" height="5.82" rx="2.25" ry="2.25" transform="translate(771.76 80.93) rotate(152.93)"/><rect class="cls-1" x="630.75" y="283.74" width="7.77" height="2.05" rx="0.79" ry="0.79" transform="translate(767.03 84.98) rotate(152.93)"/><rect x="631.11" y="284.01" width="7.05" height="1.51" rx="0.58" ry="0.58" transform="translate(767.03 84.98) rotate(152.93)"/><rect x="709.76" y="241.17" width="5.34" height="5.34" rx="2.25" ry="2.25" transform="translate(-546.16 366) rotate(-41.27)"/><rect x="705.54" y="244.87" width="5.34" height="5.34" rx="2.25" ry="2.25" transform="translate(-549.65 364.14) rotate(-41.27)"/><rect class="cls-1" x="706.86" y="244.66" width="7.13" height="1.88" rx="0.79" ry="0.79" transform="translate(-547.83 365.12) rotate(-41.27)"/><rect x="707.19" y="244.91" width="6.47" height="1.39" rx="0.58" ry="0.58" transform="translate(-547.83 365.12) rotate(-41.27)"/></svg>