<svg id="Layer_1" data-name="Layer 1" xmlns="http://www.w3.org/2000/svg" viewBox="0 0 767.25 402.33"><defs><style>.cls-1{stroke:#000;stroke-miterlimit:10;}.cls-2{fill:#fff;}</style></defs><title>explainthatcrypto</title><path d="M764.87,574.68q-50.42,0-80.57-32.32t-30.15-82.07v-8.61q0-51.92,28.54-85.52t76.57-33.39q47.18,0,73.24,28.44t26.07,76.9v34.25H719.41l-.43,1.29q1.72,23.06,15.41,37.91t37.15,14.86q20.9,0,34.68-4.2A159.33,159.33,0,0,0,836.38,509l17,38.77Q839,559.17,816,566.92T764.87,574.68Zm-5.61-193.44q-17.44,0-27.57,13.36T719.2,429.71l.65,1.07H797v-5.6q0-20-9.37-32T759.26,381.24Z" transform="translate(-654.15 -280)"/><path d="M981.13,280v57.08h40.93v44.16H981.13V499.93q0,13.57,5.6,19.39t15.08,5.81a103.52,103.52,0,0,0,11.31-.54q4.85-.54,10.88-1.83l5.38,45.45a150.41,150.41,0,0,1-20.89,4.85,145,145,0,0,1-22.4,1.62q-32.54,0-50.08-17.88t-17.56-56.66V381.24H884.2V337.08h34.25V280Z" transform="translate(-654.15 -280)"/><path d="M1162.29,526.42q16.8,0,26.92-9.8t10.13-26.17h56.87l.64,1.29q.87,35.34-26.49,59.13t-68.07,23.81q-52.14,0-80.35-33t-28.22-84.66V450.6q0-51.48,29-84.65t82.6-33.18q28.23,0,50.63,8.41t37.26,23.69l.86,62.25h-51l-10.34-36.4a39.88,39.88,0,0,0-11.63-6.79,43.12,43.12,0,0,0-15.73-2.69q-26.7,0-37.69,19.39t-11,50v6.46q0,31.24,10.13,50.3T1162.29,526.42Z" transform="translate(-654.15 -280)"/><path d="M681.29,664.9q-9.46,0-15-6.3t-5.6-16.36V640.4q0-9.67,5.76-16.11T680,617.86q9.12,0,13.84,5.53t4.71,14.75v5.15h-29.4l-.13.21a17.94,17.94,0,0,0,3.31,10.74,10.53,10.53,0,0,0,8.92,4.21,20.82,20.82,0,0,0,7.35-1.19,17,17,0,0,0,5.47-3.29l3.23,5.36a19.85,19.85,0,0,1-6.43,4A25.82,25.82,0,0,1,681.29,664.9ZM680,624.36a8.92,8.92,0,0,0-7.08,3.49,16.51,16.51,0,0,0-3.6,8.78l.08.21h20.9v-1.09a12.62,12.62,0,0,0-2.6-8.12Q685.15,624.36,680,624.36Z" transform="translate(-654.15 -280)"/><path d="M705.59,658.74l4.85-1,13.36-16.67L710.86,625,706,624V618.7h17.75V624l-4.1.5,8.46,10.9,8.5-10.94-4.06-.46V618.7h17.88V624l-4.85,1-13,16.12L746,657.78l4.9,1V664H733.1v-5.28l4-.45-8.89-11.4-8.87,11.4,4.06.45V664H705.59Z" transform="translate(-654.15 -280)"/><path d="M755.64,676.13l6.82-1.17V625.2L755.64,624V618.7h13.9l.76,5.53a15.21,15.21,0,0,1,5.51-4.73,16.45,16.45,0,0,1,7.51-1.64,15.06,15.06,0,0,1,13.09,6.68q4.68,6.69,4.67,17.66v.88q0,9.79-4.69,15.81t-12.94,6a18.08,18.08,0,0,1-7.35-1.4,14.28,14.28,0,0,1-5.38-4.17V675l6.82,1.17v5.32h-21.9Zm37.15-33.93q0-7.76-3-12.69a9.84,9.84,0,0,0-9-4.94,11,11,0,0,0-6,1.59,11.85,11.85,0,0,0-4.06,4.36v22.07a10.78,10.78,0,0,0,10.17,5.86q5.86,0,8.88-4.27t3-11.1Z" transform="translate(-654.15 -280)"/><path d="M807,604v-5.32h15.08v58.89l6.83,1.17V664H807v-5.28l6.83-1.17v-52.4Z" transform="translate(-654.15 -280)"/><path d="M864.75,664c-.25-1.23-.45-2.33-.59-3.31s-.24-2-.29-2.93a19.84,19.84,0,0,1-6,5.09,15.31,15.31,0,0,1-7.64,2q-7.08,0-10.77-3.46t-3.69-9.73a11.28,11.28,0,0,1,5.22-10q5.22-3.5,14.3-3.5h8.51V633a8.16,8.16,0,0,0-2.52-6.31,9.88,9.88,0,0,0-7-2.32,17.18,17.18,0,0,0-5.47.79,10.27,10.27,0,0,0-3.83,2.18l-.88,4.78h-6.37v-8.8a24.48,24.48,0,0,1,7.5-4,29.69,29.69,0,0,1,9.55-1.49q7.71,0,12.48,3.94t4.78,11.27v21.82c0,.59,0,1.16,0,1.72s0,1.12.1,1.68l3.35.45V664Zm-13.28-6a14.72,14.72,0,0,0,7.5-2,12.24,12.24,0,0,0,4.86-4.73v-7.46H855a12.57,12.57,0,0,0-8,2.35,7,7,0,0,0-3,5.69,5.64,5.64,0,0,0,1.84,4.55C847.13,657.47,849,658,851.47,658Z" transform="translate(-654.15 -280)"/><path d="M882.42,658.74l6.83-1.17V625.2L882.42,624V618.7H897.5v38.87l6.83,1.17V664H882.42ZM897.5,607.1h-8.25v-8.42h8.25Z" transform="translate(-654.15 -280)"/><path d="M909.4,658.74l6.82-1.17V625.2L909.4,624V618.7h14.2l.58,6.75a16.4,16.4,0,0,1,5.68-5.59,15.08,15.08,0,0,1,7.77-2q7.32,0,11.35,4.3t4,13.26v22.15l6.83,1.17V664H937.92v-5.28l6.83-1.17v-22c0-4-.79-6.83-2.37-8.5s-4-2.51-7.22-2.51a11.6,11.6,0,0,0-6.31,1.72,12.5,12.5,0,0,0-4.38,4.68v26.6l6.83,1.17V664H909.4Z" transform="translate(-654.15 -280)"/><path d="M1001.54,607.77V618.7h8.59v6.12h-8.59v27.52c0,2.12.44,3.61,1.32,4.48a4.8,4.8,0,0,0,3.5,1.3,19.13,19.13,0,0,0,2.45-.19c.91-.13,1.67-.26,2.28-.4l1.13,5.66a10.55,10.55,0,0,1-3.43,1.23,21.8,21.8,0,0,1-4.53.48,10.66,10.66,0,0,1-8-3q-3-3-3-9.52V624.82h-7.16V618.7h7.16V607.77Z" transform="translate(-654.15 -280)"/><path d="M1017.42,658.74l6.82-1.17v-52.4l-6.82-1.17v-5.32h15.07v26.05a16.7,16.7,0,0,1,5.74-5.06,15.73,15.73,0,0,1,7.54-1.81q7.29,0,11.31,4.36t4,13.4v22l6.83,1.17V664H1046v-5.28l6.83-1.17v-22q0-5.61-2.41-8.29c-1.6-1.79-4-2.68-7.18-2.68a12.18,12.18,0,0,0-6.18,1.61,13.44,13.44,0,0,0-4.59,4.38v27l6.83,1.17V664h-21.9Z" transform="translate(-654.15 -280)"/><path d="M1073.92,658.74l6.82-1.17V625.2l-6.82-1.18V618.7H1089v38.87l6.83,1.17V664h-21.9ZM1089,607.1h-8.25v-8.42H1089Z" transform="translate(-654.15 -280)"/><path d="M1136.78,632.94h-6.19l-1.34-5.44a11.35,11.35,0,0,0-3.79-2.29,14.73,14.73,0,0,0-5.18-.85c-2.93,0-5.1.64-6.53,1.93a6,6,0,0,0-2.14,4.64,5.17,5.17,0,0,0,1.89,4.23q1.89,1.56,7.66,2.77c5.73,1.23,10,2.9,12.78,5a10.11,10.11,0,0,1,4.19,8.49,11.71,11.71,0,0,1-4.88,9.75q-4.89,3.74-12.76,3.73a33.3,33.3,0,0,1-9.25-1.19,24.66,24.66,0,0,1-7.33-3.46l-.05-10.34h6.2l1.55,6.07a8.76,8.76,0,0,0,3.88,1.89,22,22,0,0,0,5,.58,11.65,11.65,0,0,0,6.89-1.78,5.5,5.5,0,0,0,2.5-4.67,5.63,5.63,0,0,0-2.08-4.48q-2.07-1.75-7.85-3.06-8.25-1.8-12.44-4.9a9.88,9.88,0,0,1-4.19-8.37,11.84,11.84,0,0,1,4.71-9.43q4.71-3.9,12.25-3.9a29.87,29.87,0,0,1,9.26,1.34,19.45,19.45,0,0,1,6.83,3.73Z" transform="translate(-654.15 -280)"/><path d="M1187.51,658.45a11.15,11.15,0,0,0,7.23-2.53,7.76,7.76,0,0,0,3.12-6.22h7.41l.08.25q.21,5.87-5.21,10.41a19.08,19.08,0,0,1-12.63,4.54q-9.88,0-15.1-6.45t-5.22-16.21v-1.76q0-9.68,5.24-16.14t15.08-6.48a25.11,25.11,0,0,1,9.78,1.81,19.67,19.67,0,0,1,7.18,4.94l.38,10h-6.58l-1.8-7.12a10.7,10.7,0,0,0-3.77-2.3,14.38,14.38,0,0,0-5.19-.88q-6.49,0-9.28,4.67a22,22,0,0,0-2.78,11.45v1.76a22.26,22.26,0,0,0,2.76,11.58C1180.05,656.91,1183.16,658.45,1187.51,658.45Z" transform="translate(-654.15 -280)"/><path d="M1213.39,624V618.7h14.2l.8,6.58a15.89,15.89,0,0,1,4.75-5.45,11.07,11.07,0,0,1,6.47-2,13.74,13.74,0,0,1,2,.15,9.8,9.8,0,0,1,1.57.32l-1.09,7.66-4.69-.25a9.43,9.43,0,0,0-5.48,1.53,9.92,9.92,0,0,0-3.44,4.29v26l6.83,1.17V664h-21.91v-5.28l6.83-1.17V625.2Z" transform="translate(-654.15 -280)"/><path d="M1292.68,624l-4.06.63L1271.36,671a23.24,23.24,0,0,1-4.94,7.95,11.41,11.41,0,0,1-8.67,3.4,17.36,17.36,0,0,1-2.52-.24c-1-.15-1.82-.3-2.38-.43l.84-6.5a13.74,13.74,0,0,1,1.48.09c1.16.08,1.89.12,2.2.12a5,5,0,0,0,4.27-2.28,25.44,25.44,0,0,0,2.85-5.26l2-4.69-15-38.45-4.15-.67V618.7h18.3V624l-5.11.84,7.84,22.36,1.5,5.79h.26l9.42-28.15-5.15-.84V618.7h18.26Z" transform="translate(-654.15 -280)"/><path d="M1297.29,676.13l6.83-1.17V625.2l-6.83-1.18V618.7h13.9l.76,5.53a15.26,15.26,0,0,1,5.5-4.73,16.55,16.55,0,0,1,7.52-1.64,15.06,15.06,0,0,1,13.09,6.68q4.67,6.69,4.67,17.66v.88q0,9.79-4.69,15.81t-12.94,6a18.08,18.08,0,0,1-7.35-1.4,14.39,14.39,0,0,1-5.39-4.17V675l6.84,1.17v5.32h-21.91Zm37.15-33.93q0-7.76-3-12.69a9.83,9.83,0,0,0-9-4.94,11,11,0,0,0-6,1.59,12,12,0,0,0-4.07,4.36v22.07a10.81,10.81,0,0,0,10.18,5.86q5.87,0,8.88-4.27t3-11.1Z" transform="translate(-654.15 -280)"/><path d="M1364.64,607.77V618.7h8.58v6.12h-8.58v27.52c0,2.12.44,3.61,1.32,4.48a4.79,4.79,0,0,0,3.5,1.3,19.13,19.13,0,0,0,2.45-.19c.9-.13,1.66-.26,2.28-.4l1.13,5.66a10.62,10.62,0,0,1-3.44,1.23,21.63,21.63,0,0,1-4.52.48,10.66,10.66,0,0,1-8-3q-3-3-3-9.52V624.82h-7.16V618.7h7.16V607.77Z" transform="translate(-654.15 -280)"/><path d="M1380.85,640.94q0-10.05,5.45-16.56t14.78-6.52q9.39,0,14.85,6.5t5.46,16.58v.93q0,10.13-5.44,16.58t-14.79,6.45q-9.42,0-14.86-6.47t-5.45-16.56Zm8.25.93q0,7.2,3,11.89a10.93,10.93,0,0,0,17.95,0,21.45,21.45,0,0,0,3.06-11.89v-.93a21.51,21.51,0,0,0-3.06-11.85,10,10,0,0,0-9-4.73,9.92,9.92,0,0,0-9,4.73,21.68,21.68,0,0,0-3,11.85Z" transform="translate(-654.15 -280)"/><circle class="cls-1" cx="666.64" cy="257.61" r="36.72"/><path class="cls-2" d="M1316.82,538.81c.8-4,1.26-7,4-9.18s6.21-3.18,10.54-3.18q7,0,11,3.54a12.23,12.23,0,0,1,4,9.63A12.63,12.63,0,0,1,1344,547a20.62,20.62,0,0,1-5.73,5.59l-.19.14a7.29,7.29,0,0,0-2.41,2.88,8.16,8.16,0,0,0-.44,1.74,2.76,2.76,0,0,1-2.75,2.33h-3.49a2.78,2.78,0,0,1-2.76-3.2,8.52,8.52,0,0,1,1.06-3.2,21.31,21.31,0,0,1,5-4.93,16.55,16.55,0,0,0,3.55-3.91,8.57,8.57,0,0,0,1.32-4.68,6.33,6.33,0,0,0-1.51-4.5,5.63,5.63,0,0,0-4.33-1.62,5.83,5.83,0,0,0-3.91,1.37,5.11,5.11,0,0,0-2,3.94m6.87,28.63h-3.6a2.78,2.78,0,0,1-2.79-2.78h0a2.79,2.79,0,0,1,2.79-2.79h3.6a2.79,2.79,0,0,1,2.79,2.79h0A2.78,2.78,0,0,1,1332.3,567.54Z" transform="translate(-654.15 -280)"/><path class="cls-2" d="M1311.21,541.74a5.68,5.68,0,0,0,4.13-1.51,6.55,6.55,0,0,0,1.34-2.08,12.27,12.27,0,0,0,.79-2.47l8.52.82h0a11.88,11.88,0,0,1-4.34,9,15.37,15.37,0,0,1-10.44,3.65c-5.34,0-9.44-1.69-12.33-5.06s-4.33-7.7-4.33-13v-1q0-7.9,4.45-13t12.67-5.09a22,22,0,0,1,7.76,1.29,16.31,16.31,0,0,1,4.28,2.35,3.76,3.76,0,0,1,1.46,3l.06,4a3.8,3.8,0,0,1-3.81,3.85h-1.09a3.82,3.82,0,0,1-3.67-2.76l-.4-1.41a3.66,3.66,0,0,0-2.16-2.44h0a6.52,6.52,0,0,0-2.41-.41q-4.1,0-5.78,3a15.37,15.37,0,0,0-1.69,7.67v1a16.52,16.52,0,0,0,1.55,7.71Q1307.31,541.74,1311.21,541.74Z" transform="translate(-654.15 -280)"/><path class="cls-2" d="M1317.57,538.07c.8-4,1.25-7.06,4-9.18s6.21-3.19,10.54-3.19q7,0,11,3.55a12.22,12.22,0,0,1,4,9.63,12.67,12.67,0,0,1-2.33,7.34,20.75,20.75,0,0,1-5.73,5.59l-.18.13a7.34,7.34,0,0,0-2.41,2.88,7.12,7.12,0,0,0-.44,1.74,2.78,2.78,0,0,1-2.76,2.34h-3.49a2.78,2.78,0,0,1-2.76-3.2,8.64,8.64,0,0,1,1.06-3.2,21.6,21.6,0,0,1,5-4.94,16.46,16.46,0,0,0,3.54-3.9,8.62,8.62,0,0,0,1.33-4.68,6.33,6.33,0,0,0-1.52-4.5,5.63,5.63,0,0,0-4.32-1.63,5.81,5.81,0,0,0-3.92,1.38,6.52,6.52,0,0,0-2.29,3.84m7.2,28.73h-3.61a2.78,2.78,0,0,1-2.78-2.79h0a2.78,2.78,0,0,1,2.78-2.79h3.61a2.79,2.79,0,0,1,2.79,2.79h0A2.79,2.79,0,0,1,1333.05,566.8Z" transform="translate(-654.15 -280)"/><path class="cls-2" d="M1312,541a5.7,5.7,0,0,0,4.13-1.5,6.23,6.23,0,0,0,1.34-2.08,12.22,12.22,0,0,0,.79-2.48l8.52.82h0c-1.09,3.54-1.49,6.37-4.34,9A14.87,14.87,0,0,1,1312,548.4q-8,0-12.33-5.06t-4.32-13v-1q0-7.89,4.44-13t12.67-5.09a22,22,0,0,1,7.77,1.29,15.94,15.94,0,0,1,4.27,2.34,3.83,3.83,0,0,1,1.47,3l0,4a3.81,3.81,0,0,1-3.8,3.86h-1.1a3.8,3.8,0,0,1-3.66-2.77l-.4-1.41a3.68,3.68,0,0,0-2.17-2.44h0a6.48,6.48,0,0,0-2.41-.42q-4.1,0-5.78,3a15.44,15.44,0,0,0-1.69,7.66v1a16.41,16.41,0,0,0,1.56,7.72Q1308,541,1312,541Z" transform="translate(-654.15 -280)"/></svg>