<svg id="Layer_1" data-name="Layer 1" xmlns="http://www.w3.org/2000/svg" xmlns:xlink="http://www.w3.org/1999/xlink" viewBox="0 0 297.13 84.11"><defs><style>.cls-1{fill:url(#linear-gradient);}.cls-2{fill:url(#linear-gradient-2);}.cls-3{fill:none;}.cls-10,.cls-11,.cls-3,.cls-5,.cls-6,.cls-7,.cls-8,.cls-9{stroke:#000;stroke-miterlimit:10;}.cls-3,.cls-5,.cls-6,.cls-7,.cls-8,.cls-9{stroke-width:3px;}.cls-4{fill:url(#linear-gradient-3);}.cls-5{fill:url(#linear-gradient-4);}.cls-6{fill:url(#linear-gradient-5);}.cls-7{fill:url(#linear-gradient-6);}.cls-8{fill:url(#linear-gradient-7);}.cls-9{fill:url(#linear-gradient-8);}.cls-10,.cls-11{stroke-width:2px;}.cls-10{fill:url(#linear-gradient-9);}.cls-11{fill:#7bad7b;}</style><linearGradient id="linear-gradient" x1="899.5" y1="513.43" x2="899.5" y2="562.69" gradientUnits="userSpaceOnUse"><stop offset="0" stop-color="#d5b988"/><stop offset="0.67" stop-color="#e0d39d"/><stop offset="0.99" stop-color="#7caf6b"/></linearGradient><linearGradient id="linear-gradient-2" x1="899.51" y1="521.37" x2="899.51" y2="554.75" xlink:href="#linear-gradient"/><linearGradient id="linear-gradient-3" x1="899.49" y1="529.99" x2="899.49" y2="546.19" xlink:href="#linear-gradient"/><linearGradient id="linear-gradient-4" x1="847.28" y1="512.62" x2="847.28" y2="561.85" xlink:href="#linear-gradient"/><linearGradient id="linear-gradient-5" x1="949.45" y1="513.69" x2="949.45" y2="560.87" xlink:href="#linear-gradient"/><linearGradient id="linear-gradient-6" x1="1004.91" y1="513.69" x2="1004.91" y2="560.84" xlink:href="#linear-gradient"/><linearGradient id="linear-gradient-7" x1="1049.33" y1="513.69" x2="1049.33" y2="560.84" xlink:href="#linear-gradient"/><linearGradient id="linear-gradient-8" x1="1085.21" y1="512.6" x2="1085.21" y2="561.83" xlink:href="#linear-gradient"/><linearGradient id="linear-gradient-9" x1="1054.28" y1="506.48" x2="1072.68" y2="506.48" gradientUnits="userSpaceOnUse"><stop offset="0" stop-color="#d5b988"/><stop offset="0.72" stop-color="#e0d39d"/></linearGradient></defs><title>gormiclogo</title><path class="cls-1" d="M899.5,562.69A24.64,24.64,0,1,1,923,545.43,24.63,24.63,0,0,1,899.5,562.69Z" transform="translate(-811.54 -498.68)"/><path d="M899.48,511.9v3a23.35,23.35,0,0,1,7,1.07,23.11,23.11,0,1,1-7-1.07v-3m0,0a26.18,26.18,0,1,0,7.84,1.21A26.17,26.17,0,0,0,899.48,511.9Z" transform="translate(-811.54 -498.68)"/><path class="cls-2" d="M899.5,554.75a16.69,16.69,0,1,1,7.7-1.88A16.7,16.7,0,0,1,899.5,554.75Z" transform="translate(-811.54 -498.68)"/><path d="M899.49,522.84h0A15.17,15.17,0,1,1,885,533.49a15.21,15.21,0,0,1,14.5-10.65m0-3a18.24,18.24,0,1,0,5.45.85A18,18,0,0,0,899.49,519.84Z" transform="translate(-811.54 -498.68)"/><path class="cls-3" d="M911.61,560.19" transform="translate(-811.54 -498.68)"/><line class="cls-3" x1="80.74" y1="19.22" x2="82.07" y2="23.81"/><line class="cls-3" x1="100.4" y1="49.14" x2="104.16" y2="52.55"/><line class="cls-3" x1="72.32" y1="37.39" x2="66.44" y2="36.29"/><path class="cls-4" d="M899.49,546.19a8.13,8.13,0,1,1,7.72-5.67A8.1,8.1,0,0,1,899.49,546.19Z" transform="translate(-811.54 -498.68)"/><path d="M899.49,531.45h0a6.73,6.73,0,0,1,2,.3,6.6,6.6,0,0,1-2,12.89,6.78,6.78,0,0,1-2-.3,6.6,6.6,0,0,1,2-12.89m0-3a9.59,9.59,0,1,0,2.88.44A9.6,9.6,0,0,0,899.49,528.45Z" transform="translate(-811.54 -498.68)"/><line class="cls-3" x1="94.23" y1="29.77" x2="91.62" y2="33.2"/><line class="cls-3" x1="72.88" y1="52.64" x2="69.36" y2="55.87"/><path class="cls-5" d="M870.08,531.81V556c-4.72,3.64-12.73,5.86-18.86,5.86-15.29,0-26.74-10.37-26.74-24.58s12.19-24.65,27.48-24.65c6.06,0,11.25,2.22,16,5.92l-6.33,9a16.72,16.72,0,0,0-9.63-3.43c-8.08,0-15,5.86-15,13.2s6.13,13.2,14.22,13.2a27.4,27.4,0,0,0,6.8-.94v-6.81H847.44v-11Z" transform="translate(-811.54 -498.68)"/><path class="cls-6" d="M946.79,545.69h-4.72v15.15H929.21V513.69h19.33c11.38,0,18.45,7,18.45,16A15.06,15.06,0,0,1,959.38,543l10.31,17.85H955.54Zm-4.72-10.91h6c5.52,0,7.27-2.09,7.27-5.12s-1.75-5-7.27-5h-6Z" transform="translate(-811.54 -498.68)"/><path class="cls-7" d="M1032.05,513.69v47.15h-12.86V535.31l-11.45,14.35h-5.66l-11.47-14.35v25.53H977.76V513.69h11.46l15.69,20.82,15.7-20.82Z" transform="translate(-811.54 -498.68)"/><path class="cls-8" d="M1055.76,513.69v47.15h-12.87V513.69Z" transform="translate(-811.54 -498.68)"/><path class="cls-9" d="M1100.28,547l6.33,9c-4.72,3.64-9.9,5.86-16,5.86-15.29,0-26.81-11-26.81-24.58s11.52-24.65,26.81-24.65c6.06,0,11.24,2.22,16,5.92l-6.33,9a16,16,0,0,0-9.67-3.33c-8.09,0-14.22,5.73-14.22,13.07s6.22,13.08,14.22,13.08A16.36,16.36,0,0,0,1100.28,547Z" transform="translate(-811.54 -498.68)"/><line class="cls-3" x1="293.63" y1="54.18" x2="283.34" y2="54.18"/><line class="cls-3" x1="272.59" y1="27.05" x2="263.24" y2="27.05"/><line class="cls-3" x1="258.56" y1="46.46" x2="252.95" y2="46.46"/><line class="cls-3" x1="244.32" y1="52.72" x2="234.96" y2="52.72"/><line class="cls-3" x1="239.77" y1="44.59" x2="230.41" y2="44.59"/><line class="cls-3" x1="244.33" y1="21.16" x2="234.97" y2="21.16"/><line class="cls-3" x1="220.51" y1="21.16" x2="211.16" y2="21.16"/><line class="cls-3" x1="221.43" y1="56.28" x2="212.08" y2="56.28"/><line class="cls-3" x1="175.57" y1="22.84" x2="166.22" y2="22.84"/><line class="cls-3" x1="188.71" y1="38.58" x2="179.35" y2="38.58"/><line class="cls-3" x1="152.21" y1="21.16" x2="142.86" y2="21.16"/><line class="cls-3" x1="127.02" y1="41.55" x2="117.66" y2="41.55"/><line class="cls-3" x1="152.2" y1="50.84" x2="142.85" y2="50.84"/><line class="cls-3" x1="55.16" y1="46.46" x2="45.81" y2="46.46"/><line class="cls-3" x1="21.35" y1="42.95" x2="12" y2="42.95"/><path d="M891.34,578.72v3.73H880.12V566.33h4.43v12.39Z" transform="translate(-811.54 -498.68)"/><path d="M924.44,566.33v9.53c0,4.63-3.23,6.93-7.12,6.93s-7.09-2.3-7.09-6.93v-9.53h4.38V576a2.7,2.7,0,0,0,5.38.47,1.85,1.85,0,0,0,0-.47v-9.67Z" transform="translate(-811.54 -498.68)"/><path d="M962.81,566.33v16.12h-4.4v-8.73l-3.92,4.91h-1.88l-4-4.91v8.73h-4.4V566.33h3.91l5.37,7.11,5.36-7.11Z" transform="translate(-811.54 -498.68)"/><path d="M995.61,577.66c0,2.81-1.87,4.79-6.13,4.79h-6.87V566.33h6.59c3.47,0,5.34,1.77,5.34,4.44a3.88,3.88,0,0,1-1.5,3.09A3.9,3.9,0,0,1,995.61,577.66Zm-8.57-7.6v2.21h2.21c1,0,1.45-.48,1.45-1.11s-.46-1.1-1.45-1.1Zm4.6,7.3c0-.76-.62-1.36-1.75-1.36H987v2.72h2.85c1.11,0,1.72-.62,1.72-1.36Z" transform="translate(-811.54 -498.68)"/><path d="M1026.29,578.72v3.73h-12V566.33h11.65v3.73h-7.33v2.46h6.54v3.73h-6.54v2.47Z" transform="translate(-811.54 -498.68)"/><path d="M1051.42,577.27h-1.61v5.18h-4.4V566.33H1052c3.89,0,6.31,2.39,6.31,5.46a5.16,5.16,0,0,1-2.6,4.56l3.52,6.1h-4.84Zm-1.61-3.73h2c1.88,0,2.48-.72,2.48-1.75s-.6-1.73-2.48-1.73h-2Z" transform="translate(-811.54 -498.68)"/><path class="cls-10" d="M1055.77,513c.93-1.92,1.27-2,1.27-2a8.9,8.9,0,0,0,8.29-.7c3.14-2.1,2.8-6.87,7.28-9.12,1-.52-9-3.11-14-.11a7.74,7.74,0,0,0-3.78,7.14,5.39,5.39,0,0,0,.68,1.87,8.55,8.55,0,0,0-1.21,2.27C1054.07,512.94,1055.45,513.68,1055.77,513Zm1-3.75c3.21-4.83,10-7.12,10-7.12a24.35,24.35,0,0,0-9.15,7.79,1.48,1.48,0,0,1-.88-.67Z" transform="translate(-811.54 -498.68)"/><path class="cls-11" d="M833.13,556.8c-1.76,1.22-2.09,1.11-2.09,1.11a8.87,8.87,0,0,0-7.56-3.47c-3.77.29-5.81,4.61-10.82,4.36-1.17-.06,6.26,7.12,12.11,7a7.74,7.74,0,0,0,6.81-4.36,5.06,5.06,0,0,0,.32-2,8.59,8.59,0,0,0,2.18-1.39C834.61,557.72,833.72,556.39,833.13,556.8Zm-2.69,2.79c-5.17,2.63-12.18,1.3-12.18,1.3a24.12,24.12,0,0,0,11.8-2.28,1.44,1.44,0,0,1,.38,1Z" transform="translate(-811.54 -498.68)"/></svg>