<svg id="Layer_1" data-name="Layer 1" xmlns="http://www.w3.org/2000/svg" viewBox="0 0 285.69 71.68"><defs><style>.cls-1,.cls-3{fill:#fff;}.cls-2{fill:none;}.cls-2,.cls-3{stroke:#000;stroke-miterlimit:10;stroke-width:3px;}</style></defs><title>gormiclogo</title><path class="cls-1" d="M572.89,529.5a24.63,24.63,0,1,1,23.5-17.26A24.46,24.46,0,0,1,572.89,529.5Z" transform="translate(-496.37 -477.93)"/><path d="M572.87,478.71v3a23.22,23.22,0,0,1,7,1.07,23.11,23.11,0,1,1-7-1.07v-3m0,0a26.17,26.17,0,1,0,7.84,1.21,26.16,26.16,0,0,0-7.84-1.21Z" transform="translate(-496.37 -477.93)"/><path class="cls-1" d="M572.89,521.56a16.71,16.71,0,0,1-14.81-9,16.69,16.69,0,1,1,14.81,9Z" transform="translate(-496.37 -477.93)"/><path d="M572.88,489.65h0a15.2,15.2,0,1,1-14.5,10.65,15.13,15.13,0,0,1,14.5-10.65m0-3a18.24,18.24,0,1,0,5.45.85,17.85,17.85,0,0,0-5.45-.85Z" transform="translate(-496.37 -477.93)"/><path class="cls-2" d="M585,527" transform="translate(-496.37 -477.93)"/><line class="cls-2" x1="69.31" y1="6.79" x2="70.64" y2="11.37"/><line class="cls-2" x1="88.97" y1="36.71" x2="92.72" y2="40.12"/><line class="cls-2" x1="60.89" y1="24.96" x2="55" y2="23.86"/><path class="cls-1" d="M572.88,513a8.1,8.1,0,1,1,7.72-5.67A8.1,8.1,0,0,1,572.88,513Z" transform="translate(-496.37 -477.93)"/><path d="M572.88,498.26h0a6.7,6.7,0,0,1,2,.3,6.6,6.6,0,0,1-2,12.89,6.75,6.75,0,0,1-2-.3,6.6,6.6,0,0,1,2-12.89m0-3a9.59,9.59,0,1,0,2.88.44,9.59,9.59,0,0,0-2.88-.44Z" transform="translate(-496.37 -477.93)"/><line class="cls-2" x1="82.8" y1="17.34" x2="80.18" y2="20.77"/><line class="cls-2" x1="61.45" y1="40.21" x2="57.93" y2="43.44"/><path class="cls-3" d="M543.47,498.62V522.8c-4.72,3.64-12.73,5.86-18.86,5.86-15.29,0-26.74-10.37-26.74-24.58s12.19-24.65,27.48-24.65c6.06,0,11.25,2.22,16,5.92l-6.33,9a16.77,16.77,0,0,0-9.63-3.43c-8.08,0-15,5.86-15,13.2s6.13,13.2,14.22,13.2a27.4,27.4,0,0,0,6.8-.94v-6.81H520.83V498.62Z" transform="translate(-496.37 -477.93)"/><path class="cls-3" d="M620.18,512.5h-4.72v15.15H602.6V480.5h19.33c11.38,0,18.45,7,18.45,16a15.05,15.05,0,0,1-7.61,13.33l10.31,17.85H628.93Zm-4.72-10.91h6c5.52,0,7.27-2.09,7.27-5.12s-1.75-5.05-7.27-5.05h-6Z" transform="translate(-496.37 -477.93)"/><path class="cls-3" d="M705.44,480.5v47.15H692.58V502.12l-11.45,14.35h-5.66L664,502.12v25.53H651.15V480.5h11.46l15.69,20.82L694,480.5Z" transform="translate(-496.37 -477.93)"/><path class="cls-3" d="M729.15,480.5v47.15H716.28V480.5Z" transform="translate(-496.37 -477.93)"/><path class="cls-3" d="M773.67,513.78l6.33,9c-4.72,3.64-9.9,5.86-16,5.86-15.29,0-26.81-11-26.81-24.58s11.52-24.65,26.81-24.65c6.06,0,11.24,2.22,16,5.92l-6.33,9A15.92,15.92,0,0,0,764,491c-8.09,0-14.22,5.73-14.22,13.07S756,517.15,764,517.15A16.39,16.39,0,0,0,773.67,513.78Z" transform="translate(-496.37 -477.93)"/><line class="cls-2" x1="282.19" y1="41.75" x2="271.9" y2="41.75"/><line class="cls-2" x1="261.16" y1="14.62" x2="251.8" y2="14.62"/><line class="cls-2" x1="247.13" y1="34.03" x2="241.51" y2="34.03"/><line class="cls-2" x1="232.88" y1="40.28" x2="223.53" y2="40.28"/><line class="cls-2" x1="228.34" y1="32.16" x2="218.98" y2="32.16"/><line class="cls-2" x1="232.9" y1="8.73" x2="223.54" y2="8.73"/><line class="cls-2" x1="209.08" y1="8.73" x2="199.72" y2="8.73"/><line class="cls-2" x1="210" y1="43.85" x2="200.65" y2="43.85"/><line class="cls-2" x1="164.14" y1="10.41" x2="154.79" y2="10.41"/><line class="cls-2" x1="177.27" y1="26.15" x2="167.92" y2="26.15"/><line class="cls-2" x1="140.78" y1="8.73" x2="131.43" y2="8.73"/><line class="cls-2" x1="115.58" y1="29.12" x2="106.23" y2="29.12"/><line class="cls-2" x1="140.77" y1="38.41" x2="131.42" y2="38.41"/><line class="cls-2" x1="43.73" y1="34.03" x2="34.38" y2="34.03"/><line class="cls-2" x1="9.92" y1="30.52" x2="0.56" y2="30.52"/><path d="M564.73,545.53v3.73H553.51V533.14h4.43v12.39Z" transform="translate(-496.37 -477.93)"/><path d="M597.83,533.14v9.53c0,4.63-3.23,6.93-7.12,6.93s-7.09-2.3-7.09-6.93v-9.53H588v9.67a2.7,2.7,0,1,0,5.38,0v-9.67Z" transform="translate(-496.37 -477.93)"/><path d="M636.2,533.14v16.12h-4.4v-8.73l-3.92,4.91H626L622,540.53v8.73h-4.4V533.14h3.91l5.37,7.11,5.36-7.11Z" transform="translate(-496.37 -477.93)"/><path d="M669,544.47c0,2.81-1.87,4.79-6.13,4.79H656V533.14h6.59c3.47,0,5.34,1.77,5.34,4.44a3.9,3.9,0,0,1-1.5,3.09A3.9,3.9,0,0,1,669,544.47Zm-8.57-7.6v2.21h2.21c1,0,1.45-.48,1.45-1.11s-.46-1.1-1.45-1.1Zm4.6,7.3c0-.76-.62-1.36-1.75-1.36h-2.85v2.72h2.85C664.39,545.53,665,544.91,665,544.17Z" transform="translate(-496.37 -477.93)"/><path d="M699.68,545.53v3.73h-12V533.14h11.65v3.73H692v2.46h6.54v3.73H692v2.47Z" transform="translate(-496.37 -477.93)"/><path d="M724.81,544.08H723.2v5.18h-4.4V533.14h6.61c3.89,0,6.31,2.39,6.31,5.46a5.17,5.17,0,0,1-2.6,4.56l3.52,6.1H727.8Zm-1.61-3.73h2c1.88,0,2.48-.72,2.48-1.75s-.6-1.73-2.48-1.73h-2Z" transform="translate(-496.37 -477.93)"/></svg>