<svg id="Layer_1" data-name="Layer 1" xmlns="http://www.w3.org/2000/svg" viewBox="0 0 275.88 606.43"><defs><style>.cls-1{fill:aqua;}.cls-2{fill:#233868;}.cls-3{fill:#c9c8ad;}.cls-4{fill:#5ca6cc;}.cls-5{fill:#e5e2c3;}</style></defs><title>icecream</title><path class="cls-1" d="M1045,490.15s36.25-3.06,12-31c-.43-.49-.58-.46-1-1,7.5,9.5,65.43-111.25-60.5-172.5C867,223.15,816,368.15,816,368.15s-16.65,32.28,24.5,95.5C879.55,523.61,1039.32,509.23,1045,490.15Z" transform="translate(-806.71 -253.68)"/><path class="cls-2" d="M1045,496.15c7.24-.64,15.08-2.82,20.59-7.76,11.4-10.21,3.29-25.52-5.35-34.48-5.43-5.63-13.44,2.68-8.49,8.48,5.35,6.26,12.48-.75,15.55-5.29,4.71-7,7.66-15.35,9.88-23.39,7-25.29,6.21-53.22-3.39-77.73-14.43-36.85-46.31-62.9-81.82-78.55-32.1-14.15-67.79-18.67-100.66-4.45-24.42,10.56-44,29.81-58.91,51.46-8.76,12.68-16.54,26.62-21.83,41.15-1,2.71,1.3-3.34-.69,1.71a38.81,38.81,0,0,0-2,7.34c-2.44,13.29-.74,27.08,2.84,40a165.82,165.82,0,0,0,12,30.14c5,9.89,10.5,20,17.63,28.51,9.42,11.27,22.55,18.89,36,24.43,30.2,12.48,64.46,15.62,96.86,14.91a274.65,274.65,0,0,0,43.87-4.22c9-1.67,19.17-3.7,27-8.74,3.06-1.95,5.61-4.41,6.78-7.93,2.43-7.35-9.15-10.5-11.57-3.19.23-.71-.28-.25.56-.88-.39.29-.64.79-1,1.09-1.27,1,1-.57-.47.34-.69.44-1.39.86-2.12,1.25a17.51,17.51,0,0,1-3.78,1.68c-2.18.78-4.37,1.49-6.61,2.1a184.35,184.35,0,0,1-33.84,5.53c-30,2.49-61.06,1.19-90.33-6.24C887.89,490,874.38,485,862.55,477.1c-14-9.34-22.08-23.62-29.53-38.37-7.63-15.11-13.77-31.89-14.29-49-.23-7.47.22-12.3,2.75-19.25-.93,2.55.2-.46.59-1.46.22-.54.42-1.08.63-1.62s.33-.84.5-1.25.86-2.08.44-1.08c-.24.59,1-2.22,1.32-3q1-2.26,2.1-4.5,2.66-5.52,5.65-10.87c10.59-19,24.27-36.87,41.74-50,22.35-16.82,49.88-23.93,77.57-19.23,19.16,3.26,37.38,10.87,54.11,20.63,16,9.35,30.89,21.24,42.05,36.17,16.31,21.79,23.48,48.56,21.2,75.59a112.44,112.44,0,0,1-6.19,28.42,52.74,52.74,0,0,1-4.17,9.38c-.64,1.16-1.35,2.27-2,3.39-.53.85-1.1,1.42-.33.52a13.73,13.73,0,0,0-1.19,1.34c-.58.94-1.31.17.2-.06-.3.05-2.27.49.52-.09-1.23.25,1.18-.05.8-.07a6.86,6.86,0,0,1,3.3,1.23l-8.49,8.48c3.24,3.36,7.44,8.3,7.6,13.21.07,2.09-1.11,3.6-3.09,4.88a21.72,21.72,0,0,1-7.71,3c-1.16.28-2.33.48-3.51.68-.84.14,1.54-.15,0,0C1037.39,484.83,1037.32,496.83,1045,496.15Z" transform="translate(-806.71 -253.68)"/><path class="cls-1" d="M854,492.15s-34.5-20.5-16.5-38.5,70.5,28.5,119,12" transform="translate(-806.71 -253.68)"/><path class="cls-2" d="M857.05,487a53.38,53.38,0,0,1-14.71-12.67c-2.12-2.75-4.39-6.46-4-10.1a10.42,10.42,0,0,1,6.46-8.14c8-2.73,19.17,2,27,4.61,12.54,4.2,24.94,8.87,37.89,11.71,16,3.51,32.71,4.23,48.49-.94,7.31-2.4,4.18-14-3.19-11.58-30.33,9.95-59.4-4.95-88.08-13.32-9.42-2.75-21.24-5.52-30.17.16-10.85,6.9-12.8,20.39-6.5,31C835,485.78,843,492.53,851,497.33c6.64,4,12.68-6.39,6-10.36Z" transform="translate(-806.71 -253.68)"/><path class="cls-3" d="M1058,487.15l-107,5h0l-92-7c-15-1-18-3-15-1l104.1,366.18a5.65,5.65,0,0,0,10.79,0L1058,487.15Z" transform="translate(-806.71 -253.68)"/><path class="cls-2" d="M1058,484.15l-93.69,4.38c-26.36,1.23-52.8-2.38-79.08-4.38l-23.8-1.81c-3.07-.24-6.14-.44-9.2-.78-2.62-.28-10-2.93-11.87.29a3,3,0,0,0,0,3,7.44,7.44,0,0,0,1,1c1.39,1.44-.27-.58-.22-1,0,.07.1.18.07.24-.11.23.35,1.18.4,1.41.51,2.21,1.25,4.39,1.87,6.56l7.39,26L876,607.61l30.69,107.95L933,807.94c4,14.25,7.43,28.92,12.21,42.95,2.1,6.19,10.17,8.89,14.84,3.51a12.32,12.32,0,0,0,2.35-5.26l5-18.5,21.79-79.87,29.25-107.19,26.84-98.34,14.92-54.7.71-2.59c1-3.73-4.77-5.32-5.79-1.6L1045,523.51l-24.24,88.83L991.67,718.91,967,809.26l-7.77,28.49c-1,3.5-1.39,8.51-3.2,11.7-4,7-6.43-4.84-7-6.93l-6.92-24.33-24.16-85L888,627.81l-26.71-93.93c-4.64-16.33-9-32.77-13.93-49a11.38,11.38,0,0,0-.37-1.3c-.39-.87-2.62-3.53-1.41-1.72v3c-1.9,3.33-3.31.65-1.29,1.59a11.93,11.93,0,0,0,2.91.45c3.62.52,7.25.88,10.89,1.16l3.93.3,20.57,1.56L939,494.23c25.37,1.93,51-.9,76.43-2.09l42.61-2C1061.87,490,1061.89,484,1058,484.15Z" transform="translate(-806.71 -253.68)"/><path class="cls-1" d="M1037,461.15s18-1,24.5-6.5" transform="translate(-806.71 -253.68)"/><path class="cls-2" d="M1037,467.15c9.81-.58,20.79-2.09,28.74-8.26,2.58-2,2.06-6.37,0-8.48-2.5-2.56-5.94-2-8.49,0-5,3.91-14.07,4.38-20.25,4.74-7.68.45-7.73,12.46,0,12Z" transform="translate(-806.71 -253.68)"/><line class="cls-1" x1="58.81" y1="104.97" x2="76.81" y2="123.97"/><path class="cls-2" d="M862.34,361.83l18,19c4,4.22,10.35-2.16,6.37-6.36l-18-19c-4-4.22-10.35,2.16-6.37,6.36Z" transform="translate(-806.71 -253.68)"/><line class="cls-1" x1="116.31" y1="58.47" x2="96.31" y2="68.47"/><path class="cls-2" d="M920.75,308.26l-20,10c-5.18,2.6-.62,10.36,4.55,7.78l20-10c5.18-2.59.62-10.36-4.55-7.78Z" transform="translate(-806.71 -253.68)"/><line class="cls-1" x1="157.56" y1="134.62" x2="148.07" y2="116.32"/><path class="cls-2" d="M968.16,386l-9.49-18.3c-2.67-5.15-10.44-.6-7.78,4.54l9.49,18.3c2.67,5.15,10.44.6,7.78-4.54Z" transform="translate(-806.71 -253.68)"/><line class="cls-1" x1="226.31" y1="137.47" x2="236.21" y2="122.82"/><path class="cls-2" d="M1036.91,393.42l9.9-14.65c3.26-4.81-4.54-9.32-7.77-4.54l-9.9,14.65c-3.25,4.81,4.54,9.32,7.77,4.54Z" transform="translate(-806.71 -253.68)"/><line class="cls-1" x1="155.81" y1="181.47" x2="173.81" y2="181.47"/><path class="cls-2" d="M962.53,439.65h18c5.79,0,5.8-9,0-9h-18c-5.8,0-5.81,9,0,9Z" transform="translate(-806.71 -253.68)"/><line class="cls-1" x1="29.31" y1="168.47" x2="48.31" y2="180.47"/><path class="cls-2" d="M833.75,426l19,12c4.92,3.1,9.44-4.69,4.55-7.78l-19-12c-4.91-3.1-9.44,4.69-4.55,7.78Z" transform="translate(-806.71 -253.68)"/><polygon class="cls-4" points="272.81 25.47 255.14 53.44 268.17 83.85 236.11 75.69 211.21 97.48 209.06 64.47 180.65 47.52 211.38 35.27 218.72 3.01 239.86 28.46 272.81 25.47"/><path class="cls-2" d="M1076.93,277.64l-9.36,14.82-6.11,9.68c-.87,1.38-2.58,3.25-2.6,5s1.41,3.86,2,5.29l4.51,10.52,6.91,16.12,3.38-4.41-17-4.32-11.1-2.82c-1.55-.4-3.93-1.46-5.57-1s-3.22,2.44-4.4,3.48L1029,337.5,1015.8,349l5.12,2.13-1.13-17.5-.75-11.43c-.1-1.56.17-4.18-.67-5.6s-3.23-2.36-4.6-3.18l-9.84-5.87-15.06-9-.71,5.49,16.29-6.49,10.63-4.24c1.43-.57,4-1.12,5.14-2.29s1.32-3.73,1.68-5.32l2.54-11.17,3.88-17.1-5,1.33,11.21,13.48,7.31,8.81c1,1.18,2.1,3.15,3.59,3.77s3.68,0,5.24-.11l11.4-1,17.47-1.59c3.81-.35,3.85-6.35,0-6l-16.48,1.5-11,1c-1.24.11-2.54.13-3.77.34-.9.16-2.64-.22-.69.59s.52,0,.07-.73a25,25,0,0,0-2.56-3.08l-7-8.46-10.57-12.73c-1.43-1.72-4.54-.75-5,1.33l-7.34,32.26,2.1-2.1-30.74,12.25c-2.31.92-3.1,4.06-.71,5.48l28.41,16.95-1.48-2.59,2.14,33a3,3,0,0,0,5.13,2.12l24.89-21.79-2.92.77,32.07,8.16c2.76.7,4.38-2.09,3.39-4.41l-13-30.41v3l17.67-28C1084.18,277.39,1079,274.38,1076.93,277.64Z" transform="translate(-806.71 -253.68)"/><path class="cls-3" d="M1058,487.15l-107,5h0l-92-7c-15-1-18-3-15-1l104.1,366.18a5.65,5.65,0,0,0,10.79,0L1058,487.15Z" transform="translate(-806.71 -253.68)"/><path class="cls-2" d="M1058,481.15l-93.69,4.38c-26.36,1.23-52.8-2.38-79.08-4.38l-23.8-1.81c-3.07-.24-6.14-.44-9.2-.78-4.49-.48-11.58-3.26-14.46,1.77a6,6,0,0,0,0,6.06,10.58,10.58,0,0,0,3.2,2.94l-2.76-3.58,10.67,37.53,25.37,89.25,30.58,107.54,25.93,91.22c3.82,13.43,7,27.33,11.52,40.54,3.5,10.1,17.68,11.53,22,1.15a29.25,29.25,0,0,0,1.12-3.55l5.24-19.2,21.94-80.41,29-106.39,26.78-98.12,14.75-54.07.68-2.49c2-7.46-9.54-10.65-11.57-3.19l-10.14,37.15-24.24,88.84L988.78,718.11l-24.65,90.36L956.35,837c-.92,3.39-3.25,8.14-3.19,11.7,0-.28.73-.32.73,0,0-.36-.27-.74-.31-1.1a39.74,39.74,0,0,0-1.66-5.82L945,817.39l-24.15-85-30-105.4-26.7-93.94c-4.65-16.32-9-32.77-13.94-49-.13-.43-.21-.88-.37-1.3a1.66,1.66,0,0,0-.06-.21,7.75,7.75,0,0,0-1.54-2.65c-1.56-1.64-2.1-2.54-.11.42v6.06l0-.05-3.59,2.76c-1,.16-3.13-.09-1.11.26,1,.17,1.93.31,2.9.45,3.88.56,7.78,1,11.69,1.27l3.93.3,20.57,1.56L939,497.23c25.37,1.93,51-.9,76.43-2.09l42.61-2C1065.71,492.79,1065.76,480.79,1058,481.15Z" transform="translate(-806.71 -253.68)"/><path class="cls-5" d="M871.42,500.43s50.32,3.28,65.93,4.52c13.87,1.09,99.46-4.5,103.1-2.67,2.74,1.37-12.43,47-12.43,46.72" transform="translate(-806.71 -253.68)"/><path class="cls-5" d="M862.88,507.3l72,23.26c29.6,9.56,86.94,25,90.83,26.91L959.92,786" transform="translate(-806.71 -253.68)"/></svg>