<svg id="Layer_1" data-name="Layer 1" xmlns="http://www.w3.org/2000/svg" viewBox="0 0 428.34 336.56"><defs><style>.cls-1{fill:#fff;}.cls-2{fill:#2a3944;}.cls-3{fill:#6591aa;}</style></defs><title>logoday3rabbitmail</title><path d="M306.64,280.81" transform="translate(-34.53 -281.19)"/><path class="cls-1" d="M299.84,281.75" transform="translate(-34.53 -281.19)"/><path d="M190.76,280.81" transform="translate(-34.53 -281.19)"/><path class="cls-1" d="M197.56,281.75" transform="translate(-34.53 -281.19)"/><g id="g2991"><path id="path2993" class="cls-2" d="M432.28,579.51V395.93a139.81,139.81,0,0,1-16.5,15.78q-64,49.23-101.82,80.79-12.19,10.28-19.84,16a112,112,0,0,1-20.68,11.6q-13,5.85-24.5,5.85h-.48Q237,526,224,520.1a110.41,110.41,0,0,1-20.68-11.6q-7.64-5.73-19.83-16-37.77-31.56-101.83-80.75A139.72,139.72,0,0,1,65.13,396V579.51a7.76,7.76,0,0,0,7.64,7.64H424.63A7.75,7.75,0,0,0,432.28,579.51Zm0-251.23v-5.85l-.12-3.11c-.08-2.07.08-3.15-.32-3.07s0-2,.14-3.53c.06-.75-2.06-.84-4.41-.93a3.75,3.75,0,0,1-2.94,0H72.77a7.75,7.75,0,0,0-7.64,7.65q0,40.15,35.13,67.88,46.14,36.35,95.85,75.78,1.44,1.18,8.37,7t11,9q4.05,3.11,10.63,7.53a63.54,63.54,0,0,0,12.07,6.57,28.16,28.16,0,0,0,10.28,2.16h.48a28.16,28.16,0,0,0,10.28-2.16,63.54,63.54,0,0,0,12.07-6.57q6.57-4.42,10.64-7.53t11-9q6.93-5.87,8.37-7,49.71-39.45,95.85-75.78,12.9-10.27,24-27.6T432.28,328.28Zm30.59-8.84V579.51a38.33,38.33,0,0,1-38.24,38.24H72.77a38.33,38.33,0,0,1-38.24-38.24V319.44a38.36,38.36,0,0,1,38.24-38.25H424.63A38.36,38.36,0,0,1,462.87,319.44Z" transform="translate(-34.53 -281.19)"/></g><path class="cls-2" d="M264.55,388.33s12.3-7.71,13.54-11.28,3.92-7.21,2.81-2.55-9.44,10.13-11.21,11.51c-1.32,1-1.72,1.18-.15.62.52-.18.27,0,1.17-.78,3.58-3.27,7.14-5.49,8.4-7.19s8.34-5.09,2.56.87-16.5,10.21-16.5,10.21" transform="translate(-34.53 -281.19)"/><path class="cls-2" d="M263.8,390.34s12.64-16.14,18.67-18.54,18.82-15,10.92-12.7-23.72,19.12-26,22.26c-1.68,2.37-1.9,3.05-1.08.32.29-.92-.08-.48,1.26-2.08,5.35-6.43,8.88-12.66,11.7-15s8.09-14.73-1.65-4.33-16.26,29.15-16.26,29.15" transform="translate(-34.53 -281.19)"/><path class="cls-2" d="M276.7,392.73a7.76,7.76,0,0,0-1.76-3.25h0l-.08-.1-.2-.25a14.87,14.87,0,0,0-2-1.68,63.88,63.88,0,0,0-7.19-2.65h0l-.24,0h0l-.65-.11h0a72.51,72.51,0,0,0-7.62-.29h-.15c-1,.05-2.11.12-3.26.25-21.65,2.28-35.7,44.83-35.7,44.83s-3,3.56,30.8-7.95S276.7,392.73,276.7,392.73Z" transform="translate(-34.53 -281.19)"/><path class="cls-3" d="M247.45,392.19s19.1,6.91,20.31,12.52" transform="translate(-34.53 -281.19)"/><path class="cls-3" d="M242.66,397.41s15,5.15,14.37,8.86" transform="translate(-34.53 -281.19)"/></svg>