<svg id="Layer_1" data-name="Layer 1" xmlns="http://www.w3.org/2000/svg" viewBox="0 0 497.4 703.3"><defs><style>.cls-1,.cls-6{fill:#0a3666;}.cls-2{fill:#fff;}.cls-3{fill:#39b54d;}.cls-4{fill:#e55c00;}.cls-5{fill:#8e3900;}.cls-6{font-size:60px;font-family:RobotoSlab-Bold, Roboto Slab;font-weight:700;}</style></defs><title>logoday3rabbitmail</title><path class="cls-1" d="M1011.24,512.06c22.6-45.21,43.76-201.69,57.86-246.77a63.1,63.1,0,0,1,17.37-27.7c18.12-16.66,110.83-1.84,121.71,60.76,15.56,89.42-183.33,233.15-183.33,233.15" transform="translate(-711.65 -231.25)"/><path class="cls-2" d="M1018,513c19.08-38.17,40.83-192.36,52.74-230.42a53.25,53.25,0,0,1,14.66-23.38c15.3-14.06,42.19-29.57,51.38,23.27C1150,358,1023.87,520.8,1023.87,520.8" transform="translate(-711.65 -231.25)"/><path d="M1018.29,512.06" transform="translate(-711.65 -231.25)"/><path class="cls-2" d="M1011.49,513" transform="translate(-711.65 -231.25)"/><path class="cls-1" d="M909.46,512.06c-22.6-45.21-43.76-201.69-57.86-246.77a63,63,0,0,0-17.36-27.7c-18.13-16.66-110.83-1.84-121.72,60.76C697,387.77,895.86,531.5,895.86,531.5" transform="translate(-711.65 -231.25)"/><path class="cls-2" d="M902.66,513c-19.08-38.17-40.83-192.36-52.74-230.42a53.25,53.25,0,0,0-14.66-23.38c-15.3-14.06-42.19-29.57-51.38,23.27-13.13,75.5,113,238.3,113,238.3" transform="translate(-711.65 -231.25)"/><path d="M902.41,512.06" transform="translate(-711.65 -231.25)"/><path class="cls-2" d="M909.21,513" transform="translate(-711.65 -231.25)"/><g id="g2991"><path id="path2993" class="cls-1" d="M1143.93,810.76V627.18a140.41,140.41,0,0,1-16.5,15.78q-64,49.23-101.82,80.79-12.19,10.28-19.84,16t-20.68,11.6q-13,5.85-24.5,5.85h-.48q-11.48,0-24.5-5.85t-20.68-11.6q-7.63-5.73-19.83-16Q857.33,692.19,793.27,643a139.55,139.55,0,0,1-16.49-15.78V810.76a7.75,7.75,0,0,0,7.64,7.64h351.86a7.75,7.75,0,0,0,7.65-7.64Zm0-251.23v-5.85l-.12-3.11c-.08-2.07.08-3.15-.32-3.07s0-2,.14-3.53c.06-.75-2.06-.84-4.41-.93a3.75,3.75,0,0,1-2.94,0H784.42a7.75,7.75,0,0,0-7.64,7.65q0,40.15,35.13,67.88,46.14,36.34,95.85,75.78,1.44,1.18,8.37,7t11,9q4.05,3.1,10.63,7.53a63.37,63.37,0,0,0,12.07,6.57,28.23,28.23,0,0,0,10.28,2.16h.48a28.23,28.23,0,0,0,10.28-2.16,63.37,63.37,0,0,0,12.07-6.57q6.57-4.42,10.64-7.53t11-9q6.93-5.86,8.37-7,49.71-39.45,95.85-75.78,12.9-10.27,24-27.6T1143.93,559.53Zm30.59-8.84V810.76A38.34,38.34,0,0,1,1136.28,849H784.42a38.34,38.34,0,0,1-38.24-38.24V550.69a38.36,38.36,0,0,1,38.24-38.25h351.86a38.36,38.36,0,0,1,38.24,38.25Z" transform="translate(-711.65 -231.25)"/></g><path class="cls-3" d="M965.5,642.27s-4.24-31.15-10.18-36.78-10.73-14.18-2.53-7.84,11.57,27.69,12.71,32.41c.86,3.53.81,4.44,1.11.85.1-1.19.32-.5-.5-3-3.26-10-4.48-19-6.71-23s-2.6-21,4-4.29,5.44,41.7,5.44,41.7" transform="translate(-711.65 -231.25)"/><path class="cls-3" d="M966.9,640.6s-8.06-15.4-7.81-20.9-5-19.77-6-12.87,6.49,25,8.13,27.85c1.24,2.12,1.69,2.53-.13.94-.61-.54-.4-.1-1.17-1.7-3.1-6.38-6.68-11.28-7.48-14.27s-8.55-11.39-3.92-.23,16.84,22.74,16.84,22.74" transform="translate(-711.65 -231.25)"/><path class="cls-4" d="M972.37,632.5a7.7,7.7,0,0,0-3.63-.66l0,0-.13,0-.32,0a14.68,14.68,0,0,0-2.54.47,65,65,0,0,0-6.57,3.95l0,0-.18.16h0l0,0-.49.44a.06.06,0,0,1,0,0c-1.75,1.68-4.68,5.33-5,5.76h0a.5.5,0,0,1-.08.12l0,0h0c-.61.84-1.23,1.72-1.85,2.7-11.78,18.31,12.6,55.91,12.6,55.91s.91,4.55,13.09-29S972.37,632.5,972.37,632.5Z" transform="translate(-711.65 -231.25)"/><path class="cls-5" d="M948.64,660s17.35-10.57,22.48-8" transform="translate(-711.65 -231.25)"/><path class="cls-5" d="M949.71,667s13.38-8.43,15.91-5.66" transform="translate(-711.65 -231.25)"/><text class="cls-6" transform="translate(111.88 685.31)">MAILHOP</text></svg>