<svg id="Layer_1" data-name="Layer 1" xmlns="http://www.w3.org/2000/svg" xmlns:xlink="http://www.w3.org/1999/xlink" viewBox="0 0 647.69 499.8"><defs><style>.cls-1{fill:#0a3666;}.cls-2{fill:#8de8f7;}.cls-3{fill:#fff;}.cls-4{fill:url(#linear-gradient);}.cls-5{fill:#39b54d;}.cls-6{fill:#e55c00;}.cls-7{fill:#8e3900;}.cls-8{font-size:72px;font-family:MADEGoodTimeScript, MADE GoodTime Script;}.cls-9{letter-spacing:-0.02em;}.cls-10{letter-spacing:-0.04em;}.cls-11{letter-spacing:-0.03em;}.cls-12{letter-spacing:-0.09em;}.cls-13{letter-spacing:-0.03em;}.cls-14{letter-spacing:-0.23em;}.cls-15{letter-spacing:-0.23em;}.cls-16{letter-spacing:-0.02em;}</style><linearGradient id="linear-gradient" x1="703.34" y1="512.94" x2="867.84" y2="512.94" gradientUnits="userSpaceOnUse"><stop offset="0" stop-color="#ad5012"/><stop offset="0.22" stop-color="#b9530f"/><stop offset="0.61" stop-color="#d95c08"/><stop offset="1" stop-color="#ff6700"/></linearGradient></defs><title>logoday3rabbitmail</title><path class="cls-1" d="M724.81,690.23C694.93,630.46,667,423.59,648.32,364a83.35,83.35,0,0,0-23-36.62c-24-22-146.52-2.44-160.91,80.32C443.89,525.92,706.82,715.93,706.82,715.93" transform="translate(-463.31 -216.13)"/><path class="cls-2" d="M715.82,691.51c-25.23-50.46-54-254.3-69.72-304.61A70.5,70.5,0,0,0,626.72,356c-20.23-18.59-55.78-39.09-67.93,30.78-17.35,99.81,149.32,315,149.32,315" transform="translate(-463.31 -216.13)"/><path d="M715.49,690.23" transform="translate(-463.31 -216.13)"/><path class="cls-3" d="M724.48,691.51" transform="translate(-463.31 -216.13)"/><path class="cls-1" d="M849.49,690.23C879.37,630.46,907.34,423.59,926,364a83.53,83.53,0,0,1,23-36.62c24-22,146.52-2.44,160.91,80.32,20.56,118.22-242.37,308.23-242.37,308.23" transform="translate(-463.31 -216.13)"/><path class="cls-2" d="M858.49,691.51c25.22-50.46,54-254.3,69.71-304.61A70.52,70.52,0,0,1,947.59,356c20.23-18.59,55.77-39.09,67.92,30.78,17.36,99.81-149.31,315-149.31,315" transform="translate(-463.31 -216.13)"/><path d="M858.82,690.23" transform="translate(-463.31 -216.13)"/><path class="cls-3" d="M849.82,691.51" transform="translate(-463.31 -216.13)"/><g id="g2991"><path id="path2993" class="cls-4" d="M856.09,562.88v-70.5a54.13,54.13,0,0,1-6.34,6.06q-24.6,18.92-39.1,31-4.68,3.94-7.62,6.15a42.6,42.6,0,0,1-7.94,4.45,23,23,0,0,1-9.41,2.25h-.19a23,23,0,0,1-9.4-2.25,42,42,0,0,1-7.94-4.45q-2.94-2.21-7.62-6.15-14.5-12.12-39.11-31a54,54,0,0,1-6.33-6.06v70.5a3,3,0,0,0,2.93,2.94H853.15a3,3,0,0,0,2.94-2.94Zm0-96.48v-2.25L856,463c0-.8-.12-1.18-.27-1.15s-.32-.24-.51-.82-.46-.82-.82-.69a1.63,1.63,0,0,1-1.29-.23H718a3,3,0,0,0-2.93,2.93q0,15.44,13.49,26.08,17.71,13.95,36.81,29.1.55.45,3.21,2.7t4.23,3.45c1,.79,2.4,1.76,4.08,2.89a24.35,24.35,0,0,0,4.64,2.52,10.89,10.89,0,0,0,3.94.83h.19a10.94,10.94,0,0,0,4-.83,24.6,24.6,0,0,0,4.63-2.52c1.68-1.13,3-2.1,4.09-2.89s2.44-2,4.22-3.45,2.85-2.4,3.21-2.7q19.1-15.15,36.81-29.1a43.28,43.28,0,0,0,9.23-10.61Q856.08,471.83,856.09,466.4Zm11.75-3.4v99.88a14.75,14.75,0,0,1-14.69,14.69H718a14.73,14.73,0,0,1-14.68-14.69V463A14.72,14.72,0,0,1,718,448.32H853.15A14.73,14.73,0,0,1,867.84,463Z" transform="translate(-463.31 -216.13)"/></g><path class="cls-5" d="M787.57,498.17s-1.63-12-3.92-14.12-4.11-5.44-1-3,4.45,10.63,4.88,12.45c.33,1.35.31,1.7.43.32,0-.45.12-.19-.19-1.15-1.25-3.85-1.72-7.28-2.58-8.83s-1-8.07,1.52-1.65,2.09,16,2.09,16" transform="translate(-463.31 -216.13)"/><path class="cls-5" d="M788.1,497.53s-3.09-5.91-3-8-1.92-7.59-2.31-4.95,2.49,9.62,3.12,10.7c.48.81.65,1,0,.36-.23-.2-.15,0-.45-.65-1.19-2.45-2.56-4.33-2.87-5.48s-3.28-4.38-1.51-.09,6.47,8.74,6.47,8.74" transform="translate(-463.31 -216.13)"/><path class="cls-6" d="M790.2,494.42a2.93,2.93,0,0,0-1.39-.25h-.16a5.74,5.74,0,0,0-1,.18,26.06,26.06,0,0,0-2.53,1.52h0l-.07.06h0l-.19.17h0c-.67.65-1.79,2.05-1.92,2.21h0l0,.05,0,0h0c-.24.32-.47.66-.71,1-4.53,7,4.84,21.47,4.84,21.47s.35,1.74,5-11.15S790.2,494.42,790.2,494.42Z" transform="translate(-463.31 -216.13)"/><path class="cls-7" d="M781.09,505s6.66-4.06,8.63-3.06" transform="translate(-463.31 -216.13)"/><path class="cls-7" d="M781.5,507.68s5.14-3.24,6.11-2.17" transform="translate(-463.31 -216.13)"/><text class="cls-8" transform="translate(173.02 64.15)"><tspan class="cls-9">M</tspan><tspan class="cls-10" x="69.05" y="0">a</tspan><tspan class="cls-11" x="98.14" y="0">i</tspan><tspan class="cls-12" x="111.89" y="0">l</tspan><tspan class="cls-13" x="123.34" y="0">h</tspan><tspan class="cls-14" x="157.17" y="0">o</tspan><tspan class="cls-15" x="172.94" y="0">p</tspan><tspan class="cls-16" x="203.4" y="0">p</tspan><tspan class="cls-13" x="249.34" y="0">e</tspan><tspan x="272.3" y="0">r</tspan></text></svg>