<svg id="Layer_1" data-name="Layer 1" xmlns="http://www.w3.org/2000/svg" viewBox="0 0 397.03 407.03"><defs><style>.cls-1{fill:#ff5757;}.cls-2{fill:#3b69b6;}</style></defs><title>mylogo</title><path d="M1021.23,516.32V684.84a7.66,7.66,0,0,1-7.67,7.66H932.8a7.66,7.66,0,0,1-7.67-7.66h0A7.67,7.67,0,0,0,912.47,679c-17,14.34-40.22,22.06-68,22.06-16,0-80.65-10.29-82.94-80.65-1.72-59.49,38.32-86.37,78.36-93.24,22.49-4,55.89-6.25,77-7.13a7.66,7.66,0,0,0,7.13-9.43c-3-12-12.61-26.91-38.89-26.91-31.65,0-60.81,11.19-76.9,18.75a7.67,7.67,0,0,1-10.35-3.94L777.19,449.6a7.65,7.65,0,0,1,3-9.51c22.88-13.91,67.46-31.3,116.87-31.3C958.31,408.79,1021.23,431.67,1021.23,516.32Zm-96.1,83.52V577.7a7.66,7.66,0,0,0-7.78-7.67c-12.08.19-35.21,1.73-47.13,10.36C849.63,594.69,856.49,629,889.67,629,917.12,629,925.13,611.28,925.13,599.84Z" transform="translate(-761.48 -294.05)"/><path d="M1127.43,425.73V685a7.66,7.66,0,0,1-7.66,7.66H1039a7.66,7.66,0,0,1-7.66-7.66V425.73a7.66,7.66,0,0,1,7.66-7.67h80.77A7.66,7.66,0,0,1,1127.43,425.73Z" transform="translate(-761.48 -294.05)"/><rect x="164.09" y="225.95" width="201.86" height="50" rx="7.67" ry="7.67"/><path d="M1083.89,350.17a7.11,7.11,0,0,0,4.55,6.56,24.29,24.29,0,0,1,14.65,27.85,7.09,7.09,0,0,0,3.23,7.57,52.18,52.18,0,0,1,9.81,7.71h0a7.24,7.24,0,0,0,10.23,0l28.93-28.93a11.07,11.07,0,0,0,0-15.62l-59.13-59.14a7.19,7.19,0,0,0-12.27,5.08Z" transform="translate(-761.48 -294.05)"/><path d="M1003.48,370.93l28.93,28.93a7.25,7.25,0,0,0,10.24,0h0a51.54,51.54,0,0,1,9.81-7.71,7.07,7.07,0,0,0,3.22-7.57,24.29,24.29,0,0,1,14.65-27.85,7.11,7.11,0,0,0,4.55-6.56V301.25a7.19,7.19,0,0,0-12.27-5.08l-59.13,59.14A11.07,11.07,0,0,0,1003.48,370.93Z" transform="translate(-761.48 -294.05)"/><polygon class="cls-1" points="244.43 398.45 259.74 384.03 259.74 368.62 229.21 398.57 244.43 398.45"/><polygon class="cls-2" points="217.03 398.45 259.71 356.67 259.74 341.25 201.82 398.57 217.03 398.45"/><path class="cls-1" d="M1079.58,389a12,12,0,0,1,0-24" transform="translate(-761.48 -294.05)"/><path class="cls-2" d="M1079.58,389a12,12,0,0,0,0-24" transform="translate(-761.48 -294.05)"/></svg>