<svg id="Layer_1" data-name="Layer 1" xmlns="http://www.w3.org/2000/svg" viewBox="0 0 209.5 209.5"><defs><style>.cls-1{fill:#fff;stroke:#0056a0;stroke-miterlimit:10;stroke-width:12px;}.cls-2{fill:#1c3f59;}.cls-3{fill:#0056a0;}</style></defs><title>revisedctoe</title><circle class="cls-1" cx="104.75" cy="104.75" r="98.75"/><path class="cls-2" d="M949.6,543.49c2.15-10.73,3.37-19,10.63-24.7s16.69-8.56,28.34-8.56q18.81,0,29.52,9.53t10.71,25.91a34.08,34.08,0,0,1-6.26,19.74,55.85,55.85,0,0,1-15.41,15,5.6,5.6,0,0,0-.49.36q-4.92,3.86-6.48,7.74a21,21,0,0,0-1.19,4.68,7.44,7.44,0,0,1-7.4,6.28h-9.39a7.48,7.48,0,0,1-7.42-8.61,23.25,23.25,0,0,1,2.85-8.6q3.4-5.46,13.56-13.27a44.35,44.35,0,0,0,9.54-10.5,23,23,0,0,0,3.57-12.6q0-7.73-4.08-12.09t-11.63-4.37a15.64,15.64,0,0,0-10.54,3.7,13.77,13.77,0,0,0-5.28,10.6m18.48,77h-9.69a7.5,7.5,0,0,1-7.5-7.5h0a7.5,7.5,0,0,1,7.5-7.5h9.69a7.5,7.5,0,0,1,7.5,7.5h0A7.5,7.5,0,0,1,991.23,620.76Z" transform="translate(-855.5 -435.5)"/><path class="cls-2" d="M934.49,551.35q6.93,0,11.11-4a17.32,17.32,0,0,0,3.62-5.6,33.19,33.19,0,0,0,2.12-6.65l22.91,2.2h0c-.76,10.71-4.16,17.63-11.68,24.18s-16.88,9.82-28.08,9.82q-21.51,0-33.15-13.6T889.7,522.74v-2.67q0-21.24,11.95-34.93t34.08-13.68a59.2,59.2,0,0,1,20.89,3.46,43.75,43.75,0,0,1,11.49,6.31,10.22,10.22,0,0,1,3.94,7.94L972.2,500c.08,5.71-51,15.25-56.7,15.25l43.76-6.2c-4.58,0-8.84-1.7-10.09-6.11l-1.07-3.79a9.92,9.92,0,0,0-5.82-6.56l-.06,0a17.77,17.77,0,0,0-6.49-1.11q-11,0-15.55,8t-4.53,20.62v2.67q0,12.88,4.18,20.75T934.49,551.35Z" transform="translate(-855.5 -435.5)"/><path class="cls-3" d="M951.6,541.49c2.15-10.73,3.37-19,10.63-24.7s16.69-8.56,28.34-8.56q18.81,0,29.52,9.53t10.71,25.91a34.08,34.08,0,0,1-6.26,19.74,55.85,55.85,0,0,1-15.41,15,5.6,5.6,0,0,0-.49.36q-4.92,3.86-6.48,7.74a21,21,0,0,0-1.19,4.68,7.44,7.44,0,0,1-7.4,6.28h-9.39a7.48,7.48,0,0,1-7.42-8.61,23.25,23.25,0,0,1,2.85-8.6q3.4-5.46,13.56-13.27a44.35,44.35,0,0,0,9.54-10.5,23,23,0,0,0,3.57-12.6q0-7.73-4.08-12.09t-11.63-4.37a15.64,15.64,0,0,0-10.54,3.7,17.5,17.5,0,0,0-6.15,10.34m19.35,77.26h-9.69a7.5,7.5,0,0,1-7.5-7.5h0a7.5,7.5,0,0,1,7.5-7.5h9.69a7.5,7.5,0,0,1,7.5,7.5h0A7.5,7.5,0,0,1,993.23,618.76Z" transform="translate(-855.5 -435.5)"/><path class="cls-3" d="M936.49,549.35q6.93,0,11.11-4a17.32,17.32,0,0,0,3.62-5.6,33.19,33.19,0,0,0,2.12-6.65l22.91,2.2h0c-2.93,9.51-4,17.13-11.68,24.18-7.34,6.75-16.88,9.82-28.08,9.82q-21.51,0-33.15-13.6T891.7,520.74v-2.67q0-21.24,11.95-34.93t34.08-13.68a59.2,59.2,0,0,1,20.89,3.46,43.75,43.75,0,0,1,11.49,6.31,10.22,10.22,0,0,1,3.94,7.94L974.2,498A10.23,10.23,0,0,1,964,508.38L916,518c-4-5,36.42-12.65,35.17-17.06l-1.07-3.79a9.92,9.92,0,0,0-5.82-6.56l-.06,0a17.77,17.77,0,0,0-6.49-1.11q-11,0-15.55,8t-4.53,20.62v2.67q0,12.88,4.18,20.75T936.49,549.35Z" transform="translate(-855.5 -435.5)"/></svg>