<svg xmlns="http://www.w3.org/2000/svg" viewBox="0 0 238.5 238.5"><defs><style>.cls-1{fill:#2b2b2b;stroke:#fff;stroke-miterlimit:10;stroke-width:6px;}.cls-2{fill:#606060;}.cls-3{fill:#fff;}</style></defs><title>Layer 1</title><g id="Layer_2" data-name="Layer 2"><g id="Layer_1-2" data-name="Layer 1"><g id="Layer_2-2" data-name="Layer 2"><circle class="cls-1" cx="119.25" cy="119.25" r="116.25"/><g id="layer1"><g id="g4290"><path id="path4221" class="cls-2" d="M159.06,126c-32.88,0-59.56-.44-59.56-1s26.68-1,59.56-1,59.56.43,59.56,1S191.94,126,159.06,126Z"/><g id="g4989"><ellipse id="ellipse4991" class="cls-2" cx="117.03" cy="120" rx="10.18" ry="9.96"/><circle id="circle4993" class="cls-2" cx="117.03" cy="120" r="6.62"/></g><g id="g5011"><ellipse id="ellipse5013" class="cls-2" cx="196.14" cy="120.54" rx="10.18" ry="9.96"/><circle id="circle5015" class="cls-2" cx="196.14" cy="120.54" r="6.62"/></g><path id="path5033" class="cls-2" d="M223.29,100c-.14-.18-2.93,4.11-11.11,5.32h0a31.17,31.17,0,0,1-12.48-1c-4-1-7.43-2.41-11.72-4-3-1.08-6.15-2.17-9.38-3a56.34,56.34,0,0,0-8.75-1.68c-7-.73-13.18.28-18.1,2.67-1.69.82-8.23,4.9-9,5.31-4.67,2.54-7.76,3-7.79,2.86-.09-.29,2.86-1.08,7.23-3.81,1.27-.79,6.35-4.42,8.85-5.74a33.77,33.77,0,0,1,19-3.18,56.69,56.69,0,0,1,9.06,1.69c3.32.89,6.54,2,9.54,3.14,4.34,1.62,7.65,3,11.51,4.11A31.64,31.64,0,0,0,212,104h0a24.07,24.07,0,0,0,8.38-2.51,25.14,25.14,0,0,1,2.89-1.52Z"/><path id="path5039" class="cls-2" d="M221.73,125.05a9.32,9.32,0,0,1,.45-1.61,13.87,13.87,0,0,0,.46-4.64,12.83,12.83,0,0,0-1.93-5.85h0a15.48,15.48,0,0,0-7.86-6A31.71,31.71,0,0,0,202,105.41h0a129.63,129.63,0,0,0-14.92,1c-4.61.51-10,1.2-15,1.53-3.58.24-7.19.31-10.9.29-6.48,0-17.37-.51-23-.6h0a146.21,146.21,0,0,0-22.39,1.07h0a49,49,0,0,0-10,2.26,19.23,19.23,0,0,0-6.24,3.46h0a9.68,9.68,0,0,0-3.24,5.08,7.86,7.86,0,0,0,.22,4.11,12.41,12.41,0,0,1,.5,1.42s-.43-.35-.86-1.28a7.62,7.62,0,0,1-.59-4.39,10.23,10.23,0,0,1,3.26-5.72h0a19.76,19.76,0,0,1,6.5-3.9,47.54,47.54,0,0,1,10.17-2.56h0a136.79,136.79,0,0,1,22.65-1.4h0c.62,0,21.69.51,23,.51,3.68,0,7.25,0,10.77-.26,5-.31,10.35-1,15-1.43a123.87,123.87,0,0,1,15.13-.84h0a32.36,32.36,0,0,1,11.28,1.86,16.4,16.4,0,0,1,8.29,6.75h0a13.11,13.11,0,0,1,1.79,6.38,12.38,12.38,0,0,1-.86,4.8,3.9,3.9,0,0,1-.83,1.48Z"/></g></g><path class="cls-3" d="M50.86,101.74c-4,1.23-7.88,2.37-11.82,3.39q-1.38-7.55-2.71-14.86c-2.53,1.29-5,2.57-7.52,3.81q1.1,6.33,2.27,12.93c-4,.84-7.95,1.54-12,2.06-1.24-9-2.22-17.32-2.89-24.83a207.11,207.11,0,0,1,19-21.61c4.78-4.74,7.78-5.73,8.38-2.27q1.49,8.28,3,16.78c.4,2.26-1,4.21-3.57,6.16l0,.17c2.58-1.26,4.46-1.13,4.86,1.15Q49.36,93.1,50.86,101.74ZM35.27,84.49q-1.2-6.6-2.36-13c-2.36,2.12-4.65,4.27-6.88,6.42q.93,5.47,1.91,11.16C30.35,87.57,32.79,86,35.27,84.49Z"/><path class="cls-3" d="M68.11,96c-4,1.39-8,2.75-12,4Q51.94,75,47.78,51.23,53.66,46.39,60,42,64.13,68.47,68.11,96Z"/><path class="cls-3" d="M106.62,76.8c.24,4.31-2.71,7.28-8.26,9-8.51,2.66-16.83,5.55-25,8.38Q69.61,65.78,65.6,38.3a158.71,158.71,0,0,1,27.6-14c6.07-2.34,9.93-1.66,10.24,3Q105.17,52,106.62,76.8ZM93.39,78.08q-1.9-21.57-4-42.92-4.71,1.94-9.29,4.15Q82.52,60,84.79,81.09C87.63,80.06,90.5,79.05,93.39,78.08Z"/><path class="cls-3" d="M140.94,75.82a223.13,223.13,0,0,0-28.3,5.83q-1.4-31.28-3.23-62.53a120.43,120.43,0,0,1,14.9-2.78q.78,26.58,1.27,53c5.15-1,10.33-1.8,15.47-2.32C141,70,141,72.89,140.94,75.82Z"/><path class="cls-3" d="M173.13,75.28a121.59,121.59,0,0,0-27.57,0Q146.18,46,146.5,16a74.06,74.06,0,0,1,29.21,9c-.13,2.54-.26,5.08-.39,7.6a70.47,70.47,0,0,0-15-5.51q-.27,8.07-.56,16.06a77,77,0,0,1,13.85,3.63c-.12,2.47-.25,4.92-.37,7.37a82.19,82.19,0,0,0-13.78-2.89q-.28,7.6-.58,15.12A95.36,95.36,0,0,1,173.51,68Q173.32,71.67,173.13,75.28Z"/><path class="cls-3" d="M204.86,74.87c.12,2.13-1.52,0-5.53-4.17-.41-.42-.83-.84-1.25-1.24Q198,76.33,198,82.89a60.08,60.08,0,0,0-10.72-4.56q.33-8.1.73-16.49c-.58-.34-1.17-.68-1.76-1-5-2.66-7.85-4.81-7.63-8.57q.63-12.14,1.3-24.63a60.79,60.79,0,0,1,10.92,9.51q-.5,10-.93,19.64a55.59,55.59,0,0,1,6.69,5.91q.19-8.46.5-17.33a69.4,69.4,0,0,1,7.08,14.85Q204.44,67.83,204.86,74.87Z"/><path class="cls-3" d="M41.7,172.49q-6-5.38-11.43-11.05,1.49-7.51,3.05-15.39-3.93-2.85-7.72-5.66-1.3,6.84-2.5,13.3c-3.4-3.83-6.63-7.71-9.7-11.57.91-7.58,2.18-16.07,3.74-25.41.38-2.33,3.72-2.95,9.41-1.8a197.64,197.64,0,0,1,24.73,7.19Q46.43,148.34,41.7,172.49Zm-7.13-32.76q1.45-7.33,3-14.95c-2.77-1.07-5.54-2.09-8.31-3-.87,4.48-1.73,8.86-2.55,13.13C29.27,136.46,31.9,138.09,34.57,139.73Z"/><path class="cls-3" d="M84.46,194.79c-.59,4.84-4.38,5-10.82,1.24a188.25,188.25,0,0,1-17.78-11.87c-5.88-4.48-8.47-8.49-7.74-12.38q4.34-23.06,8.69-47.67c4.17,1.54,8.37,3.17,12.62,4.84q-3.9,25.43-8,49.82,4.49,3,9.14,5.71,3.89-25.64,7.49-52.14c4.31,1.69,8.68,3.4,13.1,5.06Q88,166.38,84.46,194.79Z"/><path class="cls-3" d="M133.31,160.09q-6.23-1.22-12.43-2.86-1.38,28.17-3.2,56.52a136.78,136.78,0,0,1-15.58-4.44q2.59-28,4.76-56.26-6-2-12-4.25c.32-3.22.65-6.44,1-9.66a288,288,0,0,0,37.71,11.35Q133.45,155.29,133.31,160.09Z"/><path class="cls-3" d="M175.85,202.88c.07,4-2.6,7.42-8.91,9.6a77.94,77.94,0,0,1-19.66,3.74c-6.54.4-10.31-1.82-10.15-6.63q.78-26,1.21-51.51c.08-4.46,3.21-5.94,9.44-5.08A127.48,127.48,0,0,0,166,154.15c5.82-.07,8.78,1,8.87,5Q175.37,180.39,175.85,202.88Zm-13.76,2q-.17-21.42-.46-42.11c-3.06.07-6.15,0-9.27-.19q.06,21.62-.05,43.84A83,83,0,0,0,162.09,204.87Z"/><path class="cls-3" d="M205.8,170.44c-.17,2.62-1.43,8-5,14.46a58.91,58.91,0,0,1-19.16,20.54c-.07-2.7-.13-5.38-.2-8A56.76,56.76,0,0,0,198,182.76q0-6-.05-11.85a53.72,53.72,0,0,1-9.19,7.65c-5.35,3.45-7.72,2.13-7.78-1.71q-.21-9.43-.42-18.59c-.1-3.95,2.93-5.82,8.29-7.37a52,52,0,0,0,17.92-9.29c-.16,1.57-.3,3.16-.43,4.78a49,49,0,0,1-13.81,9.75q0,6.33.11,12.85a51.6,51.6,0,0,0,8.75-7.61c4.22-4.7,5.24-5.76,5.11-3.22Q206.07,164.09,205.8,170.44Z"/></g></g></g></svg>