<svg id="Layer_1" data-name="Layer 1" xmlns="http://www.w3.org/2000/svg" xmlns:xlink="http://www.w3.org/1999/xlink" viewBox="0 0 350 250"><defs><style>.cls-1{fill:none;}.cls-2{isolation:isolate;}.cls-3{fill:#203b63;}.cls-4{fill:#bbd7ff;}.cls-5{clip-path:url(#clip-path);}.cls-6{fill:#8fbcff;}.cls-7{fill:#8fbdff;}.cls-8{fill:#90bdff;}.cls-9{fill:#90beff;}.cls-10{fill:#91beff;}.cls-11{clip-path:url(#clip-path-2);}.cls-12{fill:#80b4ff;}.cls-13{fill:#81b4ff;}.cls-14{fill:#81b5ff;}.cls-15{fill:#82b5ff;}.cls-16{fill:#83b5ff;}.cls-17{fill:#83b6ff;}.cls-18{fill:#84b6ff;}.cls-19{fill:#85b7ff;}.cls-20{fill:#86b7ff;}.cls-21{fill:#87b8ff;}.cls-22{fill:#88b8ff;}.cls-23{fill:#88b9ff;}.cls-24{fill:#89b9ff;}.cls-25{fill:#8abaff;}.cls-26{fill:#8bbaff;}.cls-27{fill:#8cbbff;}.cls-28{fill:#8dbbff;}.cls-29{fill:#8dbcff;}.cls-30{fill:#8ebcff;}.cls-31{clip-path:url(#clip-path-3);}.cls-32{fill:#184688;}.cls-33{fill:#184687;}.cls-34{fill:#184587;}.cls-35{clip-path:url(#clip-path-4);}.cls-36{fill:#164995;}.cls-37{clip-path:url(#clip-path-5);}.cls-38{clip-path:url(#clip-path-6);}.cls-39{fill:#164994;}.cls-40{fill:#164993;}.cls-41{fill:#164992;}.cls-42{fill:#164891;}.cls-43{fill:#164890;}.cls-44{fill:#174890;}.cls-45{fill:#17488f;}.cls-46{fill:#17488e;}.cls-47{fill:#17478e;}.cls-48{fill:#17478d;}.cls-49{fill:#17478c;}.cls-50{fill:#17478b;}.cls-51{fill:#18478b;}.cls-52{fill:#18468a;}.cls-53{fill:#184689;}.cls-54{clip-path:url(#clip-path-7);}.cls-55{clip-path:url(#clip-path-8);}.cls-56{clip-path:url(#clip-path-9);}.cls-57{clip-path:url(#clip-path-10);}.cls-58{clip-path:url(#clip-path-11);}.cls-59{clip-path:url(#clip-path-12);}.cls-60,.cls-62,.cls-63,.cls-64,.cls-65,.cls-66,.cls-67{fill:#fff;}.cls-61{fill:url(#linear-gradient);}.cls-62{stroke:url(#linear-gradient-6);}.cls-63{stroke:url(#linear-gradient-7);}.cls-64{stroke:url(#linear-gradient-8);}.cls-65{stroke:url(#linear-gradient-9);}.cls-66{stroke:url(#linear-gradient-10);}.cls-67{stroke:url(#linear-gradient-11);}.cls-68{fill:url(#linear-gradient-12);}</style><clipPath id="clip-path"><path class="cls-1" d="M285.49,65a72.65,72.65,0,0,0-31.9-24.33L236.31,17a72.7,72.7,0,0,1,31.9,24.32Z"/></clipPath><clipPath id="clip-path-2"><path class="cls-1" d="M76,182.55c-20.13-27.46-19-68.79,6.65-106.73C118.06,23.48,187-2.89,236.31,17l17.28,23.58C204.27,20.69,135.34,47.06,99.94,99.4c-25.67,37.94-26.78,79.27-6.65,106.74Z"/></clipPath><clipPath id="clip-path-3"><path class="cls-1" d="M250.36,45.4,233.08,21.82a68.94,68.94,0,0,1,30.28,23.09l17.28,23.58A68.94,68.94,0,0,0,250.36,45.4Z"/></clipPath><clipPath id="clip-path-4"><path class="cls-1" d="M98.05,202.48,80.77,178.9c-19-26.07-17.95-65.28,6.39-101.26l17.28,23.58C80.1,137.21,79,176.41,98.05,202.48Z"/></clipPath><clipPath id="clip-path-5"><path class="cls-1" d="M263.37,44.92,280.65,68.5a69,69,0,0,0-30.29-23.1c-46.84-18.92-112.3,6.12-145.92,55.82-24.37,36-25.42,75.28-6.31,101.36L80.85,179c-19.11-26.08-18.06-65.33,6.31-101.36,33.62-49.7,99.08-74.74,145.92-55.82A69,69,0,0,1,263.37,44.92Z"/></clipPath><clipPath id="clip-path-6"><path class="cls-1" d="M104.44,101.22,87.16,77.64c33.62-49.7,99.08-74.74,145.92-55.82L250.36,45.4C203.52,26.48,138.06,51.52,104.44,101.22Z"/></clipPath><clipPath id="clip-path-7"><path class="cls-1" d="M98.13,202.59,80.85,179l-.08-.11,17.28,23.58Z"/></clipPath><clipPath id="clip-path-8"><path class="cls-1" d="M280.64,68.49q1.49,2,2.8,4.13L266.16,49q-1.32-2.11-2.8-4.13C268.55,52,275.46,61.42,280.64,68.49Z"/></clipPath><clipPath id="clip-path-9"><path class="cls-1" d="M128.41,225.68a68.94,68.94,0,0,1-30.28-23.09L80.85,179a69,69,0,0,0,30.28,23.09C158,221,223.44,196,257.06,146.28,280.18,112.1,282.32,75,266.16,49l17.28,23.58c16.16,26,14,63.06-9.1,97.24C240.72,219.57,175.26,244.61,128.41,225.68Z"/></clipPath><clipPath id="clip-path-10"><path class="cls-1" d="M80.85,179a69,69,0,0,0,30.28,23.1l17.28,23.58a68.88,68.88,0,0,1-30.28-23.1C92.94,195.51,86,186.08,80.85,179Z"/></clipPath><clipPath id="clip-path-11"><path class="cls-1" d="M280.65,68.5c19.11,26.08,18.06,65.34-6.31,101.36-33.62,49.71-99.08,74.75-145.93,55.82L111.13,202.1C158,221,223.44,196,257.06,146.28c24.37-36,25.42-75.28,6.31-101.36Z"/></clipPath><clipPath id="clip-path-12"><path class="cls-1" d="M268.21,41.36,285.49,65c20.12,27.46,19,68.79-6.65,106.73C243.43,224,174.5,250.39,125.18,230.46a72.61,72.61,0,0,1-31.89-24.32L76,182.55a72.56,72.56,0,0,0,31.89,24.33c49.32,19.93,118.25-6.44,153.66-58.78C287.22,110.16,288.33,68.83,268.21,41.36Z"/></clipPath><linearGradient id="linear-gradient" x1="74.99" y1="166.31" x2="254.95" y2="166.31" gradientUnits="userSpaceOnUse"><stop offset="0.4" stop-color="#fff"/><stop offset="0.75" stop-color="#7fceff"/></linearGradient><linearGradient id="linear-gradient-6" x1="76.38" y1="89.64" x2="112.3" y2="89.64" gradientUnits="userSpaceOnUse"><stop offset="0" stop-color="#fff"/><stop offset="1"/></linearGradient><linearGradient id="linear-gradient-7" x1="114.8" y1="80.05" x2="133.23" y2="80.05" xlink:href="#linear-gradient-6"/><linearGradient id="linear-gradient-8" x1="133.1" y1="72.12" x2="179.42" y2="72.12" xlink:href="#linear-gradient-6"/><linearGradient id="linear-gradient-9" x1="171.57" y1="70.46" x2="203.2" y2="70.46" xlink:href="#linear-gradient-6"/><linearGradient id="linear-gradient-10" x1="202.69" y1="72.49" x2="250.09" y2="72.49" xlink:href="#linear-gradient-6"/><linearGradient id="linear-gradient-11" x1="242.83" y1="82.28" x2="271.78" y2="82.28" xlink:href="#linear-gradient-6"/><linearGradient id="linear-gradient-12" x1="76.72" y1="68.17" x2="267.28" y2="68.17" gradientUnits="userSpaceOnUse"><stop offset="0.25" stop-color="#fff"/><stop offset="0.86" stop-color="#7fceff"/></linearGradient></defs><title>Artboard 1</title><g id="Layer_2" data-name="Layer 2"><g class="cls-2"><path class="cls-3" d="M250.36,45.4c46.85,18.93,57.6,74.76,24,124.46s-99.08,74.75-145.93,55.82-57.59-74.76-24-124.46S203.52,26.48,250.36,45.4Z"/><path class="cls-4" d="M253.59,40.62c49.32,19.93,60.65,78.72,25.25,131.06S174.5,250.39,125.18,230.46,64.53,151.74,99.94,99.4,204.27,20.69,253.59,40.62ZM128.41,225.68c46.85,18.93,112.31-6.11,145.93-55.82s22.87-105.53-24-124.46-112.3,6.12-145.92,55.82-22.86,105.54,24,124.46"/><g class="cls-2"><g class="cls-5"><g class="cls-2"><path class="cls-6" d="M236.31,17l17.28,23.58c1.08.44,2.13.89,3.17,1.36L239.48,18.4c-1-.47-2.09-.92-3.17-1.36"/><path class="cls-7" d="M239.48,18.4,256.76,42c1.27.58,2.52,1.18,3.74,1.81L243.22,20.21c-1.22-.63-2.47-1.24-3.74-1.81"/><path class="cls-8" d="M243.22,20.21,260.5,43.79q2.34,1.22,4.55,2.55L247.77,22.76q-2.21-1.34-4.55-2.55"/><path class="cls-8" d="M247.77,22.76l17.28,23.58c1.84,1.12,3.62,2.3,5.32,3.54L253.09,26.3c-1.7-1.24-3.48-2.42-5.32-3.54"/><path class="cls-9" d="M253.09,26.3l17.28,23.58a70.09,70.09,0,0,1,11.86,11L265,37.26a70.09,70.09,0,0,0-11.86-11"/><path class="cls-10" d="M265,37.26l17.28,23.58c.39.46.78.92,1.16,1.39L266.11,38.64,265,37.26"/><path class="cls-9" d="M266.11,38.64l17.28,23.59c.72.89,1.42,1.79,2.1,2.72L268.21,41.36c-.68-.92-1.38-1.82-2.1-2.72"/></g></g></g><g class="cls-2"><g class="cls-11"><g class="cls-2"><path class="cls-12" d="M76,182.55l17.28,23.59c-20.13-27.47-19-68.8,6.65-106.74a151.73,151.73,0,0,1,44-42.54L126.65,33.28a151.73,151.73,0,0,0-44,42.54C57,113.76,55.88,155.09,76,182.55"/><path class="cls-12" d="M126.65,33.28l17.28,23.58q3.52-2.23,7.13-4.29L133.78,29c-2.4,1.36-4.78,2.8-7.13,4.29"/><path class="cls-13" d="M133.78,29l17.28,23.58q2.85-1.6,5.74-3.09L139.52,25.9q-2.9,1.49-5.74,3.09"/><path class="cls-14" d="M139.52,25.9,156.8,49.48q2.43-1.23,4.9-2.39L144.42,23.51c-1.64.77-3.28,1.56-4.9,2.39"/><path class="cls-15" d="M144.42,23.51,161.7,47.09q2.18-1,4.37-2L148.79,21.55q-2.19.94-4.37,2"/><path class="cls-15" d="M148.79,21.55l17.28,23.58c1.38-.59,2.76-1.16,4.15-1.7L152.94,19.84c-1.39.55-2.77,1.12-4.15,1.71"/><path class="cls-16" d="M152.94,19.84l17.28,23.59q1.91-.75,3.81-1.44L156.75,18.41c-1.27.46-2.54.94-3.81,1.43"/><path class="cls-17" d="M156.75,18.41,174,42c1.22-.44,2.43-.87,3.66-1.27L160.41,17.14c-1.23.4-2.44.83-3.66,1.27"/><path class="cls-18" d="M160.41,17.14l17.28,23.58c1.17-.39,2.35-.77,3.53-1.12L163.94,16c-1.18.35-2.36.73-3.53,1.12"/><path class="cls-18" d="M163.94,16,181.22,39.6c1.1-.34,2.21-.66,3.32-1L167.26,15.05c-1.11.31-2.22.63-3.32,1"/><path class="cls-18" d="M167.26,15.05l17.28,23.59c1.11-.31,2.22-.6,3.33-.88L170.59,14.18q-1.67.42-3.33.87"/><path class="cls-19" d="M170.59,14.18l17.28,23.58c1-.26,2.09-.51,3.13-.74L173.72,13.44c-1,.23-2.09.48-3.13.74"/><path class="cls-19" d="M173.72,13.44,191,37q1.55-.35,3.09-.66L176.81,12.78l-3.09.66"/><path class="cls-20" d="M176.81,12.78l17.28,23.58,3.08-.57L179.89,12.21l-3.08.57"/><path class="cls-20" d="M179.89,12.21l17.28,23.58q1.47-.26,2.94-.48L182.83,11.73q-1.47.23-2.94.48"/><path class="cls-21" d="M182.83,11.73l17.28,23.58c1-.15,2-.28,2.94-.4L185.77,11.32c-1,.13-2,.26-2.94.41"/><path class="cls-21" d="M185.77,11.32l17.28,23.59c1-.13,1.94-.24,2.91-.34L188.68,11q-1.45.15-2.91.33"/><path class="cls-22" d="M188.68,11,206,34.57c.95-.09,1.9-.18,2.85-.25L191.53,10.74c-.95.07-1.9.16-2.85.25"/><path class="cls-23" d="M191.53,10.74l17.28,23.58c.94-.07,1.89-.14,2.83-.19L194.36,10.55c-.94,0-1.89.11-2.83.19"/><path class="cls-23" d="M194.36,10.55l17.28,23.58c1-.05,1.89-.09,2.83-.11L197.19,10.44c-.94,0-1.88.06-2.83.11"/><path class="cls-24" d="M197.19,10.44,214.47,34c.94,0,1.87-.05,2.8-.05L200,10.39c-.93,0-1.86,0-2.8,0"/><path class="cls-24" d="M200,10.39,217.27,34c.94,0,1.87,0,2.8,0L202.79,10.42c-.93,0-1.86,0-2.8,0"/><path class="cls-25" d="M202.79,10.42,220.07,34q1.4,0,2.79.09L205.58,10.51l-2.79-.09"/><path class="cls-25" d="M205.58,10.51l17.28,23.58c.95,0,1.89.11,2.83.18L208.41,10.69c-.94-.07-1.88-.13-2.83-.18"/><path class="cls-26" d="M208.41,10.69l17.28,23.58c.93.07,1.87.15,2.8.25L211.21,10.93c-.93-.09-1.87-.17-2.8-.24"/><path class="cls-26" d="M211.21,10.93l17.28,23.59c.95.09,1.9.2,2.84.33L214.05,11.27c-.94-.13-1.89-.24-2.84-.34"/><path class="cls-27" d="M214.05,11.27l17.28,23.58c1,.12,1.94.27,2.91.42L217,11.69c-1-.15-1.94-.3-2.91-.42"/><path class="cls-27" d="M217,11.69l17.28,23.58,2.88.51L219.84,12.2,217,11.69"/><path class="cls-27" d="M219.84,12.2l17.28,23.58c1,.2,2,.41,3,.64L222.84,12.84c-1-.23-2-.44-3-.64"/><path class="cls-28" d="M222.84,12.84l17.28,23.58c1,.23,2,.48,3.07.75L225.91,13.59c-1-.27-2-.52-3.07-.75"/><path class="cls-29" d="M225.91,13.59l17.28,23.58c1,.27,2,.56,3.06.87L229,14.46q-1.51-.46-3.06-.87"/><path class="cls-30" d="M229,14.46,246.25,38c1.14.34,2.27.71,3.39,1.1L232.36,15.56c-1.12-.39-2.25-.76-3.39-1.1"/><path class="cls-30" d="M232.36,15.56l17.28,23.58c1.12.39,2.23.8,3.34,1.24L235.7,16.8c-1.11-.44-2.22-.85-3.34-1.24"/><path class="cls-6" d="M235.7,16.8,253,40.38l.61.24L236.31,17l-.61-.24"/></g></g></g><g class="cls-2"><g class="cls-31"><g class="cls-2"><path class="cls-32" d="M233.08,21.82,250.36,45.4c1,.41,2,.84,3,1.29L236.09,23.11c-1-.45-2-.88-3-1.29"/><path class="cls-32" d="M236.09,23.11l17.28,23.58c1.21.55,2.39,1.12,3.55,1.72L239.64,24.83c-1.16-.6-2.34-1.17-3.55-1.72"/><path class="cls-32" d="M239.64,24.83l17.28,23.58q2.24,1.16,4.32,2.42L244,27.25c-1.39-.85-2.83-1.65-4.32-2.42"/><path class="cls-33" d="M244,27.25l17.28,23.58c1.75,1.06,3.44,2.19,5.05,3.37L249,30.62c-1.61-1.18-3.3-2.31-5-3.37"/><path class="cls-34" d="M249,30.62,266.29,54.2a66.11,66.11,0,0,1,11.26,10.39L260.27,41A66.11,66.11,0,0,0,249,30.62"/><path class="cls-34" d="M260.27,41l17.28,23.58c.38.44.75.88,1.11,1.33L261.38,42.34c-.36-.45-.73-.89-1.11-1.33"/><path class="cls-34" d="M261.38,42.34l17.28,23.58c.69.85,1.35,1.71,2,2.58L263.37,44.92c-.64-.87-1.3-1.74-2-2.58"/></g></g></g><g class="cls-2"><g class="cls-35"><g class="cls-2"><path class="cls-36" d="M80.85,179l17.28,23.58C79,176.5,80.07,137.25,104.44,101.22a144.06,144.06,0,0,1,41.78-40.39L128.94,37.25A144.06,144.06,0,0,0,87.16,77.64c-24.37,36-25.42,75.28-6.31,101.36"/></g></g></g><g class="cls-2"><g class="cls-37"><g class="cls-2"><path class="cls-9" d="M263.37,44.92,280.65,68.5c-.64-.87-1.3-1.74-2-2.58L261.38,42.34c.69.84,1.35,1.71,2,2.58"/><path class="cls-10" d="M261.38,42.34l17.28,23.58c-.36-.45-.73-.89-1.11-1.33L260.27,41c.38.44.75.88,1.11,1.33"/><path class="cls-9" d="M260.27,41l17.28,23.58A66.11,66.11,0,0,0,266.29,54.2L249,30.62A66.11,66.11,0,0,1,260.27,41"/><path class="cls-8" d="M249,30.62,266.29,54.2c-1.61-1.18-3.3-2.31-5.05-3.37L244,27.25c1.75,1.06,3.44,2.19,5,3.37"/><path class="cls-8" d="M244,27.25l17.28,23.58q-2.08-1.26-4.32-2.42L239.64,24.83c1.49.77,2.93,1.57,4.32,2.42"/><path class="cls-7" d="M239.64,24.83l17.28,23.58c-1.16-.6-2.34-1.17-3.55-1.72L236.09,23.11c1.21.55,2.39,1.12,3.55,1.72"/><path class="cls-6" d="M236.09,23.11l17.28,23.58c-1-.45-2-.88-3-1.29l-.58-.23L232.5,21.59l.58.23c1,.41,2,.84,3,1.29"/><path class="cls-30" d="M232.5,21.59l17.28,23.58c-1.05-.42-2.11-.81-3.17-1.18L229.33,20.41c1.06.37,2.12.76,3.17,1.18"/><path class="cls-30" d="M229.33,20.41,246.61,44c-1.07-.37-2.14-.72-3.22-1.05L226.11,19.36c1.08.33,2.15.68,3.22,1.05"/><path class="cls-29" d="M226.11,19.36l17.28,23.58c-1-.29-1.93-.56-2.91-.82L223.2,18.54c1,.26,1.94.53,2.91.82"/><path class="cls-28" d="M223.2,18.54l17.28,23.58c-1-.25-1.93-.49-2.91-.71L220.29,17.83c1,.22,2,.46,2.91.71"/><path class="cls-27" d="M220.29,17.83l17.28,23.58q-1.42-.33-2.85-.6L217.44,17.23q1.42.27,2.85.6"/><path class="cls-27" d="M217.44,17.23l17.28,23.58c-.91-.18-1.82-.34-2.74-.49L214.7,16.74c.92.15,1.83.31,2.74.49"/><path class="cls-27" d="M214.7,16.74,232,40.32c-.92-.15-1.84-.28-2.76-.4L211.94,16.34c.92.12,1.84.25,2.76.4"/><path class="cls-26" d="M211.94,16.34l17.28,23.58c-.89-.12-1.79-.23-2.7-.32L209.25,16c.9.09,1.8.2,2.69.32"/><path class="cls-26" d="M209.25,16,226.52,39.6c-.88-.09-1.77-.17-2.66-.23L206.58,15.78l2.67.24"/><path class="cls-25" d="M206.58,15.78l17.28,23.59c-.89-.07-1.78-.13-2.68-.17L203.9,15.62c.9,0,1.79.1,2.68.16"/><path class="cls-25" d="M203.9,15.62,221.18,39.2c-.88,0-1.77-.07-2.66-.09L201.24,15.53c.89,0,1.78.05,2.66.09"/><path class="cls-24" d="M201.24,15.53l17.28,23.58c-.88,0-1.76,0-2.65,0L198.59,15.5c.89,0,1.77,0,2.65,0"/><path class="cls-24" d="M198.59,15.5l17.28,23.58c-.88,0-1.77,0-2.66.05L195.93,15.55c.89,0,1.78,0,2.66-.05"/><path class="cls-23" d="M195.93,15.55l17.28,23.58c-.89,0-1.79.06-2.68.11L193.25,15.66c.89-.05,1.79-.09,2.68-.11"/><path class="cls-23" d="M193.25,15.66l17.28,23.58c-.9,0-1.8.1-2.7.17L190.55,15.83c.9-.07,1.8-.13,2.7-.17"/><path class="cls-22" d="M190.55,15.83l17.28,23.58c-.9.07-1.8.16-2.7.25L187.85,16.08c.9-.1,1.8-.18,2.7-.25"/><path class="cls-21" d="M187.85,16.08l17.28,23.58c-.92.09-1.84.2-2.77.31L185.08,16.39c.93-.12,1.85-.22,2.77-.31"/><path class="cls-21" d="M185.08,16.39,202.36,40l-2.79.39L182.29,16.78q1.4-.21,2.79-.39"/><path class="cls-20" d="M182.29,16.78l17.28,23.58q-1.4.21-2.79.45L179.5,17.23l2.79-.45"/><path class="cls-20" d="M179.5,17.23l17.28,23.58c-1,.17-1.95.35-2.92.55L176.58,17.78c1-.2,1.95-.38,2.92-.55"/><path class="cls-19" d="M176.58,17.78l17.28,23.58c-1,.19-2,.4-2.94.62L173.64,18.4c1-.22,2-.43,2.94-.62"/><path class="cls-19" d="M173.64,18.4,190.92,42c-1,.22-2,.46-3,.7L170.67,19.1c1-.25,2-.48,3-.7"/><path class="cls-18" d="M170.67,19.1,188,42.68c-1.06.27-2.11.54-3.16.83L167.51,19.93c1.05-.29,2.1-.57,3.16-.83"/><path class="cls-18" d="M167.51,19.93l17.28,23.58c-1.06.29-2.11.6-3.16.92L164.35,20.85c1.05-.32,2.1-.63,3.16-.92"/><path class="cls-18" d="M164.35,20.85l17.28,23.58c-1.12.34-2.24.69-3.35,1.06L161,21.91c1.11-.37,2.23-.72,3.35-1.06"/><path class="cls-17" d="M161,21.91l17.28,23.58c-1.16.39-2.32.79-3.48,1.21L157.52,23.12c1.16-.42,2.32-.82,3.48-1.21"/><path class="cls-16" d="M157.52,23.12,174.8,46.7c-1.21.43-2.41.89-3.61,1.36L153.91,24.48c1.2-.47,2.4-.93,3.61-1.36"/><path class="cls-15" d="M153.91,24.48l17.28,23.58c-1.32.52-2.64,1.06-3.94,1.62L150,26.1c1.3-.56,2.62-1.1,3.94-1.62"/><path class="cls-15" d="M150,26.1l17.28,23.58c-1.4.6-2.78,1.22-4.16,1.86L145.81,28q2.07-1,4.16-1.86"/><path class="cls-14" d="M145.81,28l17.28,23.58q-2.34,1.1-4.65,2.28L141.16,30.24q2.31-1.18,4.65-2.28"/><path class="cls-13" d="M141.16,30.24l17.28,23.58q-2.74,1.4-5.45,2.93L135.71,33.17q2.7-1.53,5.45-2.93"/><path class="cls-12" d="M135.71,33.17,153,56.75c-2.29,1.29-4.54,2.65-6.77,4.08L128.94,37.25q3.34-2.14,6.77-4.08"/><path class="cls-12" d="M128.94,37.25l17.28,23.58a144.06,144.06,0,0,0-41.78,40.39c-24.37,36-25.42,75.28-6.31,101.36L80.85,179c-19.11-26.08-18.06-65.33,6.31-101.36a144.06,144.06,0,0,1,41.78-40.39"/></g></g></g><g class="cls-2"><g class="cls-38"><g class="cls-2"><path class="cls-36" d="M80.85,179l17.28,23.58C79,176.5,80.07,137.25,104.44,101.22a144.06,144.06,0,0,1,41.78-40.39L128.94,37.25A144.06,144.06,0,0,0,87.16,77.64c-24.37,36-25.42,75.28-6.31,101.36"/><path class="cls-39" d="M128.94,37.25l17.28,23.58q3.33-2.14,6.77-4.08L135.71,33.17c-2.29,1.29-4.54,2.65-6.77,4.08"/><path class="cls-39" d="M135.71,33.17,153,56.75q2.7-1.53,5.45-2.93L141.16,30.24q-2.74,1.4-5.45,2.93"/><path class="cls-39" d="M141.16,30.24l17.28,23.58q2.31-1.18,4.65-2.28L145.81,28q-2.34,1.09-4.65,2.28"/><path class="cls-40" d="M145.81,28l17.28,23.58c1.38-.64,2.76-1.26,4.16-1.86L150,26.1c-1.4.6-2.78,1.22-4.16,1.86"/><path class="cls-40" d="M150,26.1l17.28,23.58c1.3-.56,2.62-1.1,3.94-1.62L153.91,24.48c-1.32.52-2.64,1.06-3.94,1.62"/><path class="cls-41" d="M153.91,24.48l17.28,23.58c1.2-.47,2.4-.93,3.61-1.36L157.52,23.12c-1.21.43-2.41.89-3.61,1.36"/><path class="cls-41" d="M157.52,23.12,174.8,46.7c1.16-.42,2.32-.82,3.48-1.21L161,21.91c-1.16.39-2.32.79-3.48,1.21"/><path class="cls-41" d="M161,21.91l17.28,23.58c1.11-.37,2.23-.72,3.35-1.06L164.35,20.85c-1.12.34-2.24.69-3.35,1.06"/><path class="cls-42" d="M164.35,20.85l17.28,23.58c1.05-.32,2.1-.63,3.16-.92L167.51,19.93c-1.06.29-2.11.6-3.16.92"/><path class="cls-42" d="M167.51,19.93l17.28,23.58c1.05-.29,2.1-.56,3.16-.83L170.67,19.1c-1.06.26-2.11.54-3.16.83"/><path class="cls-42" d="M170.67,19.1,188,42.68c1-.24,2-.48,3-.7L173.64,18.4c-1,.22-2,.45-3,.7"/><path class="cls-43" d="M173.64,18.4,190.92,42c1-.22,2-.43,2.94-.62L176.58,17.78c-1,.19-2,.4-2.94.62"/><path class="cls-44" d="M176.58,17.78l17.28,23.58c1-.2,1.95-.38,2.92-.55L179.5,17.23c-1,.17-1.95.35-2.92.55"/><path class="cls-45" d="M179.5,17.23l17.28,23.58q1.4-.24,2.79-.45L182.29,16.78l-2.79.45"/><path class="cls-45" d="M182.29,16.78l17.28,23.58,2.79-.39L185.08,16.39q-1.4.18-2.79.39"/><path class="cls-45" d="M185.08,16.39,202.36,40c.93-.11,1.85-.22,2.77-.31L187.85,16.08c-.92.09-1.84.19-2.77.31"/><path class="cls-46" d="M187.85,16.08l17.28,23.58c.9-.09,1.8-.18,2.7-.25L190.55,15.83c-.9.07-1.8.15-2.7.25"/><path class="cls-47" d="M190.55,15.83l17.28,23.58c.9-.07,1.8-.12,2.7-.17L193.25,15.66c-.9,0-1.8.1-2.7.17"/><path class="cls-47" d="M193.25,15.66l17.28,23.58c.89-.05,1.79-.09,2.68-.11L195.93,15.55c-.89,0-1.79.06-2.68.11"/><path class="cls-48" d="M195.93,15.55l17.28,23.58c.89,0,1.78,0,2.66-.05L198.59,15.5c-.88,0-1.77,0-2.66.05"/><path class="cls-48" d="M198.59,15.5l17.28,23.58c.89,0,1.77,0,2.65,0L201.24,15.53c-.88,0-1.76,0-2.65,0"/><path class="cls-49" d="M201.24,15.53l17.28,23.58c.89,0,1.78,0,2.66.09L203.9,15.62c-.88,0-1.77-.07-2.66-.09"/><path class="cls-49" d="M203.9,15.62,221.18,39.2c.9,0,1.79.1,2.68.17L206.58,15.78c-.89-.06-1.78-.12-2.68-.16"/><path class="cls-49" d="M206.58,15.78l17.28,23.59c.89.06,1.78.14,2.66.23L209.25,16l-2.67-.24"/><path class="cls-50" d="M209.25,16,226.52,39.6c.91.09,1.81.2,2.7.32L211.94,16.34c-.89-.12-1.79-.23-2.69-.32"/><path class="cls-51" d="M211.94,16.34l17.28,23.58c.92.12,1.84.25,2.76.4L214.7,16.74c-.92-.15-1.84-.28-2.76-.4"/><path class="cls-51" d="M214.7,16.74,232,40.32c.92.15,1.83.31,2.74.49L217.44,17.23c-.91-.18-1.82-.34-2.74-.49"/><path class="cls-52" d="M217.44,17.23l17.28,23.58q1.42.27,2.85.6L220.29,17.83q-1.42-.33-2.85-.6"/><path class="cls-52" d="M220.29,17.83l17.28,23.58c1,.22,2,.46,2.91.71L223.2,18.54c-1-.25-1.93-.49-2.91-.71"/><path class="cls-53" d="M223.2,18.54l17.28,23.58c1,.26,1.94.53,2.91.82L226.11,19.36c-1-.29-1.93-.56-2.91-.82"/><path class="cls-53" d="M226.11,19.36l17.28,23.58c1.08.33,2.15.68,3.22,1.05L229.33,20.41c-1.07-.37-2.14-.72-3.22-1.05"/><path class="cls-53" d="M229.33,20.41,246.61,44c1.06.37,2.12.76,3.17,1.18L232.5,21.59c-1.05-.42-2.11-.81-3.17-1.18"/><path class="cls-32" d="M232.5,21.59l17.28,23.58.58.23L233.08,21.82l-.58-.23"/></g></g></g><g class="cls-2"><g class="cls-54"><g class="cls-2"><path class="cls-36" d="M80.85,179l17.28,23.58C79,176.5,80.07,137.25,104.44,101.22a144.06,144.06,0,0,1,41.78-40.39L128.94,37.25A144.06,144.06,0,0,0,87.16,77.64c-24.37,36-25.42,75.28-6.31,101.36"/></g></g></g><g class="cls-2"><g class="cls-55"><g class="cls-2"><path class="cls-36" d="M263.37,44.92,280.65,68.5c19.11,26.08,18.06,65.34-6.31,101.36a144.19,144.19,0,0,1-41.77,40.4l-17.28-23.58a144.19,144.19,0,0,0,41.77-40.4c24.37-36,25.42-75.28,6.31-101.36"/></g></g></g><g class="cls-2"><g class="cls-56"><g class="cls-2"><path class="cls-36" d="M263.37,44.92,280.65,68.5c19.11,26.08,18.06,65.34-6.31,101.36a144.19,144.19,0,0,1-41.77,40.4l-17.28-23.58a144.19,144.19,0,0,0,41.77-40.4c24.37-36,25.42-75.28,6.31-101.36"/><path class="cls-39" d="M215.29,186.68l17.28,23.58q-3.34,2.13-6.78,4.07l-17.28-23.58q3.44-1.94,6.78-4.07"/><path class="cls-39" d="M208.51,190.75l17.28,23.58q-2.7,1.53-5.45,2.94l-17.28-23.59q2.74-1.4,5.45-2.93"/><path class="cls-39" d="M203.06,193.68l17.28,23.59q-2.31,1.17-4.65,2.27L198.41,196q2.34-1.1,4.65-2.28"/><path class="cls-40" d="M198.41,196l17.28,23.58q-2.07,1-4.15,1.86l-17.28-23.58q2.09-.9,4.15-1.86"/><path class="cls-40" d="M194.26,197.82l17.28,23.58c-1.31.56-2.63,1.1-3.94,1.62l-17.28-23.58c1.32-.52,2.63-1.06,3.94-1.62"/><path class="cls-41" d="M190.32,199.44,207.6,223c-1.21.47-2.41.93-3.62,1.37L186.7,200.8c1.21-.43,2.42-.89,3.62-1.36"/><path class="cls-41" d="M186.7,200.8,204,224.39c-1.16.41-2.31.81-3.47,1.2L183.23,202c1.16-.39,2.31-.79,3.47-1.21"/><path class="cls-41" d="M183.23,202l17.28,23.58c-1.12.37-2.24.73-3.36,1.06l-17.28-23.58c1.12-.34,2.24-.69,3.36-1.06"/><path class="cls-42" d="M179.87,203.07l17.28,23.58c-1.05.32-2.1.63-3.15.92L176.72,204c1.05-.29,2.1-.6,3.15-.92"/><path class="cls-42" d="M176.72,204,194,227.57c-1.06.29-2.11.57-3.16.83l-17.28-23.58c1.05-.26,2.1-.54,3.16-.83"/><path class="cls-42" d="M173.56,204.82l17.28,23.58c-1,.25-2,.48-3,.7l-17.28-23.58c1-.22,2-.45,3-.7"/><path class="cls-43" d="M170.58,205.52l17.28,23.58q-1.47.33-2.94.63l-17.28-23.59c1-.19,2-.4,2.94-.62"/><path class="cls-44" d="M167.64,206.14l17.28,23.59c-1,.19-1.95.37-2.92.54l-17.28-23.58c1-.17,1.95-.35,2.92-.55"/><path class="cls-45" d="M164.72,206.69,182,230.27c-.93.16-1.86.32-2.79.46l-17.28-23.59q1.4-.21,2.79-.45"/><path class="cls-45" d="M161.93,207.14l17.28,23.59-2.79.38-17.28-23.58q1.4-.18,2.79-.39"/><path class="cls-45" d="M159.14,207.53l17.28,23.58c-.92.12-1.85.22-2.77.32l-17.28-23.59c.92-.09,1.85-.19,2.77-.31"/><path class="cls-46" d="M156.37,207.84l17.28,23.59q-1.35.13-2.7.24l-17.28-23.58c.9-.07,1.8-.15,2.7-.25"/><path class="cls-47" d="M153.67,208.09,171,231.67c-.9.07-1.8.13-2.69.17L151,208.26c.89,0,1.79-.1,2.69-.17"/><path class="cls-47" d="M151,208.26l17.28,23.58c-.9,0-1.79.09-2.69.11l-17.28-23.58c.9,0,1.79-.06,2.69-.11"/><path class="cls-48" d="M148.29,208.37,165.57,232c-.89,0-1.78,0-2.66.05l-17.28-23.58c.89,0,1.77,0,2.66,0"/><path class="cls-48" d="M145.63,208.42,162.91,232c-.89,0-1.77,0-2.65,0L143,208.39c.88,0,1.76,0,2.65,0"/><path class="cls-49" d="M143,208.39,160.26,232c-.89,0-1.78-.05-2.66-.09L140.32,208.3c.88,0,1.77.07,2.66.09"/><path class="cls-49" d="M140.32,208.3l17.28,23.58c-.9,0-1.79-.1-2.68-.16l-17.28-23.58c.89.06,1.78.12,2.68.16"/><path class="cls-49" d="M137.64,208.14l17.28,23.58q-1.33-.1-2.67-.24L135,207.9q1.34.14,2.67.24"/><path class="cls-50" d="M135,207.9l17.28,23.58c-.9-.09-1.8-.2-2.69-.31l-17.28-23.58c.89.11,1.79.22,2.69.31"/><path class="cls-51" d="M132.28,207.59l17.28,23.58c-.93-.13-1.85-.26-2.76-.41l-17.28-23.58c.91.15,1.83.28,2.76.41"/><path class="cls-51" d="M129.52,207.18l17.28,23.58c-.92-.15-1.83-.31-2.74-.48l-17.28-23.59c.91.18,1.82.34,2.74.49"/><path class="cls-52" d="M126.78,206.69l17.28,23.59c-.95-.19-1.91-.39-2.85-.6l-17.28-23.59c.94.22,1.9.42,2.85.6"/><path class="cls-52" d="M123.93,206.09l17.28,23.59c-1-.23-2-.47-2.92-.72L121,205.38c1,.25,1.94.49,2.92.71"/><path class="cls-53" d="M121,205.38,138.29,229c-1-.26-1.94-.53-2.9-.82l-17.28-23.58c1,.29,1.93.56,2.9.82"/><path class="cls-53" d="M118.11,204.56l17.28,23.58c-1.08-.33-2.16-.68-3.22-1l-17.28-23.58c1.06.37,2.14.72,3.22,1.05"/><path class="cls-53" d="M114.89,203.51l17.28,23.58c-1.07-.37-2.12-.76-3.17-1.18l-17.28-23.58c1,.42,2.1.81,3.17,1.18"/><path class="cls-32" d="M111.72,202.33,129,225.91l-.59-.23q-1.53-.62-3-1.29l-17.28-23.58q1.47.67,3,1.29l.59.23"/><path class="cls-32" d="M108.13,200.81l17.28,23.58c-1.21-.55-2.4-1.12-3.56-1.72l-17.28-23.58c1.16.6,2.35,1.17,3.56,1.72"/><path class="cls-32" d="M104.57,199.09l17.28,23.58c-1.48-.77-2.92-1.57-4.32-2.42l-17.28-23.58c1.4.85,2.84,1.65,4.32,2.42"/><path class="cls-33" d="M100.25,196.67l17.28,23.58q-2.62-1.59-5-3.36L95.2,193.3c1.62,1.18,3.3,2.31,5,3.37"/><path class="cls-34" d="M95.2,193.3l17.28,23.59a67.39,67.39,0,0,1-11.26-10.41L83.94,182.9A66.92,66.92,0,0,0,95.2,193.3"/><path class="cls-34" d="M83.94,182.9l17.28,23.58c-.38-.43-.74-.87-1.1-1.32L82.84,181.58c.36.45.72.88,1.1,1.32"/><path class="cls-34" d="M82.84,181.58l17.28,23.58c-.69-.84-1.35-1.7-2-2.58L80.85,179c.64.88,1.3,1.74,2,2.58"/></g></g></g><g class="cls-2"><g class="cls-57"><g class="cls-2"><path class="cls-9" d="M80.85,179l17.28,23.58c.64.88,1.3,1.74,2,2.58L82.84,181.58c-.69-.84-1.35-1.7-2-2.58"/><path class="cls-10" d="M82.84,181.58l17.28,23.58c.36.45.72.89,1.1,1.32L83.94,182.9c-.38-.44-.74-.87-1.1-1.32"/><path class="cls-9" d="M83.94,182.9l17.28,23.58a67.39,67.39,0,0,0,11.26,10.41L95.2,193.3a66.92,66.92,0,0,1-11.26-10.4"/><path class="cls-8" d="M95.2,193.3l17.28,23.59q2.43,1.77,5,3.36l-17.28-23.58c-1.75-1.06-3.43-2.19-5-3.37"/><path class="cls-8" d="M100.25,196.67l17.28,23.58c1.4.85,2.84,1.65,4.32,2.42l-17.28-23.58c-1.48-.77-2.92-1.57-4.32-2.42"/><path class="cls-7" d="M104.57,199.09l17.28,23.58c1.16.6,2.35,1.17,3.56,1.72l-17.28-23.58c-1.21-.55-2.4-1.12-3.56-1.72"/><path class="cls-6" d="M108.13,200.81l17.28,23.58q1.47.68,3,1.29L111.13,202.1q-1.53-.61-3-1.29"/></g></g></g><g class="cls-2"><g class="cls-58"><g class="cls-2"><path class="cls-6" d="M111.13,202.1l17.28,23.58.59.23-17.28-23.58-.59-.23"/><path class="cls-30" d="M111.72,202.33,129,225.91c1.05.42,2.1.81,3.17,1.18l-17.28-23.58c-1.07-.37-2.12-.76-3.17-1.18"/><path class="cls-30" d="M114.89,203.51l17.28,23.58c1.06.37,2.14.72,3.22,1l-17.28-23.58c-1.08-.33-2.16-.68-3.22-1.05"/><path class="cls-29" d="M118.11,204.56l17.28,23.58c1,.29,1.93.56,2.9.82L121,205.38c-1-.26-1.94-.53-2.9-.82"/><path class="cls-28" d="M121,205.38,138.29,229c1,.25,1.94.49,2.92.72l-17.28-23.59c-1-.22-2-.46-2.92-.71"/><path class="cls-27" d="M123.93,206.09l17.28,23.59c.94.21,1.9.41,2.85.6l-17.28-23.59c-1-.18-1.91-.38-2.85-.6"/><path class="cls-27" d="M126.78,206.69l17.28,23.59c.91.17,1.82.33,2.74.48l-17.28-23.58c-.92-.15-1.83-.31-2.74-.49"/><path class="cls-27" d="M129.52,207.18l17.28,23.58c.91.15,1.83.28,2.76.41l-17.28-23.59c-.93-.12-1.85-.25-2.76-.4"/><path class="cls-26" d="M132.28,207.58l17.28,23.59c.89.11,1.79.22,2.69.31L135,207.9c-.9-.09-1.8-.2-2.69-.32"/><path class="cls-26" d="M135,207.9l17.28,23.58q1.33.14,2.67.24l-17.28-23.58q-1.33-.1-2.67-.24"/><path class="cls-25" d="M137.64,208.14l17.28,23.58c.89.06,1.78.12,2.68.16L140.32,208.3c-.9,0-1.79-.1-2.68-.16"/><path class="cls-25" d="M140.32,208.3l17.28,23.58c.88,0,1.77.07,2.66.09L143,208.39c-.89,0-1.78,0-2.66-.09"/><path class="cls-24" d="M143,208.39,160.26,232c.88,0,1.76,0,2.65,0l-17.28-23.58c-.89,0-1.77,0-2.65,0"/><path class="cls-24" d="M145.63,208.42,162.91,232c.88,0,1.77,0,2.66-.05l-17.28-23.58c-.89,0-1.78,0-2.66,0"/><path class="cls-23" d="M148.29,208.37,165.57,232c.9,0,1.79-.06,2.69-.11L151,208.26c-.9.05-1.79.09-2.69.11"/><path class="cls-23" d="M151,208.26l17.28,23.58c.89,0,1.79-.1,2.69-.17l-17.28-23.58c-.9.07-1.8.13-2.69.17"/><path class="cls-22" d="M153.67,208.09,171,231.67q1.35-.1,2.7-.24l-17.28-23.59c-.9.1-1.8.18-2.7.25"/><path class="cls-21" d="M156.37,207.84l17.28,23.59c.92-.1,1.85-.2,2.77-.32l-17.28-23.58c-.92.12-1.85.22-2.77.31"/><path class="cls-21" d="M159.14,207.53l17.28,23.58q1.4-.18,2.79-.39l-17.28-23.58q-1.4.21-2.79.39"/><path class="cls-20" d="M161.93,207.14l17.28,23.58c.93-.13,1.86-.29,2.79-.45l-17.28-23.58q-1.4.24-2.79.45"/><path class="cls-20" d="M164.72,206.69,182,230.27c1-.17,1.95-.35,2.92-.54l-17.28-23.59c-1,.2-1.95.38-2.92.55"/><path class="cls-19" d="M167.64,206.14l17.28,23.59q1.47-.3,2.94-.63l-17.28-23.58c-1,.22-2,.43-2.94.62"/><path class="cls-19" d="M170.58,205.52l17.28,23.58c1-.22,2-.45,3-.7l-17.28-23.58c-1,.25-2,.48-3,.7"/><path class="cls-18" d="M173.56,204.82l17.28,23.58c1-.26,2.1-.54,3.16-.83L176.72,204c-1.06.29-2.11.57-3.16.83"/><path class="cls-18" d="M176.72,204,194,227.57c1.05-.29,2.1-.6,3.15-.92l-17.28-23.58c-1.05.32-2.1.63-3.15.92"/><path class="cls-18" d="M179.87,203.07l17.28,23.58c1.12-.34,2.24-.69,3.36-1.06L183.23,202c-1.12.37-2.24.72-3.36,1.06"/><path class="cls-17" d="M183.23,202l17.28,23.58c1.16-.39,2.31-.79,3.47-1.21L186.7,200.8c-1.15.42-2.31.82-3.47,1.21"/><path class="cls-16" d="M186.7,200.8,204,224.38c1.21-.43,2.41-.89,3.62-1.36l-17.28-23.58c-1.2.47-2.41.93-3.62,1.36"/><path class="cls-15" d="M190.32,199.44,207.6,223c1.31-.52,2.63-1.06,3.94-1.62l-17.28-23.58c-1.31.56-2.62,1.1-3.94,1.62"/><path class="cls-15" d="M194.26,197.82l17.28,23.58q2.09-.9,4.15-1.86L198.41,196q-2.07,1-4.15,1.86"/><path class="cls-14" d="M198.41,196l17.28,23.58q2.34-1.09,4.65-2.28l-17.28-23.58q-2.31,1.19-4.65,2.28"/><path class="cls-13" d="M203.06,193.68l17.28,23.58q2.74-1.39,5.45-2.93l-17.28-23.58q-2.7,1.53-5.45,2.93"/><path class="cls-12" d="M208.51,190.75l17.28,23.58q3.44-1.94,6.78-4.07l-17.28-23.59q-3.34,2.15-6.78,4.08"/><path class="cls-12" d="M215.29,186.67l17.28,23.59a144.19,144.19,0,0,0,41.77-40.4c24.37-36,25.42-75.28,6.31-101.36L263.37,44.92c19.11,26.08,18.06,65.33-6.31,101.36a144,144,0,0,1-41.77,40.39"/></g></g></g><path class="cls-3" d="M233.08,21.82c46.85,18.93,57.6,74.76,24,124.46S158,221,111.13,202.1s-57.59-74.76-24-124.46S186.24,2.9,233.08,21.82Z"/><path class="cls-4" d="M236.31,17C285.63,37,297,95.76,261.56,148.1S157.22,226.81,107.9,206.88,47.25,128.16,82.66,75.82,187-2.89,236.31,17ZM111.13,202.1C158,221,223.44,196,257.06,146.28s22.87-105.53-24-124.46S120.78,27.94,87.16,77.64s-22.86,105.54,24,124.46"/><g class="cls-2"><g class="cls-59"><g class="cls-2"><path class="cls-12" d="M268.21,41.36,285.49,65c20.12,27.46,19,68.79-6.65,106.73a151.76,151.76,0,0,1-44,42.54l-17.28-23.58a151.76,151.76,0,0,0,44-42.54c25.66-37.94,26.77-79.27,6.65-106.74"/><path class="cls-12" d="M217.56,190.64l17.28,23.58c-2.34,1.49-4.72,2.93-7.13,4.29l-17.28-23.58q3.62-2.06,7.13-4.29"/><path class="cls-13" d="M210.43,194.93l17.28,23.58q-2.85,1.61-5.74,3.09L204.69,198q2.9-1.49,5.74-3.09"/><path class="cls-14" d="M204.69,198,222,221.6c-1.62.83-3.25,1.62-4.89,2.39L199.8,200.41q2.46-1.16,4.89-2.39"/><path class="cls-15" d="M199.8,200.41,217.08,224q-2.18,1-4.38,2l-17.28-23.58q2.21-.94,4.38-2"/><path class="cls-15" d="M195.42,202.37,212.7,226c-1.38.59-2.76,1.16-4.15,1.71l-17.28-23.59c1.39-.54,2.77-1.11,4.15-1.7"/><path class="cls-16" d="M191.27,204.07l17.28,23.59c-1.26.49-2.53,1-3.81,1.43l-17.28-23.58q1.92-.69,3.81-1.44"/><path class="cls-17" d="M187.46,205.51l17.28,23.58c-1.21.44-2.43.87-3.65,1.27l-17.28-23.58c1.22-.4,2.44-.83,3.65-1.27"/><path class="cls-18" d="M183.81,206.78l17.28,23.58c-1.18.39-2.36.77-3.54,1.12L180.28,207.9c1.17-.35,2.35-.73,3.53-1.12"/><path class="cls-18" d="M180.28,207.9l17.27,23.58c-1.1.34-2.21.66-3.32,1L177,208.86q1.67-.45,3.33-1"/><path class="cls-18" d="M177,208.86l17.28,23.59q-1.66.45-3.33.87l-17.28-23.58c1.11-.28,2.22-.57,3.33-.88"/><path class="cls-19" d="M173.62,209.74l17.28,23.58c-1,.26-2.08.51-3.13.74l-17.28-23.58c1-.23,2.09-.48,3.13-.74"/><path class="cls-19" d="M170.49,210.48l17.28,23.58-3.09.66L167.4,211.14q1.54-.31,3.09-.66"/><path class="cls-20" d="M167.4,211.14l17.28,23.58c-1,.2-2.05.39-3.08.57l-17.28-23.58c1-.18,2.05-.37,3.08-.57"/><path class="cls-20" d="M164.32,211.71l17.28,23.58q-1.47.26-2.94.48l-17.28-23.58,2.94-.48"/><path class="cls-21" d="M161.38,212.19l17.28,23.58c-1,.15-2,.28-2.93.41l-17.28-23.59c1-.12,2-.25,2.93-.4"/><path class="cls-21" d="M158.45,212.59l17.28,23.59-2.92.33-17.28-23.58c1-.1,1.94-.21,2.92-.34"/><path class="cls-22" d="M155.53,212.93l17.28,23.58c-.95.09-1.9.18-2.84.25l-17.28-23.58c.94-.07,1.89-.16,2.84-.25"/><path class="cls-23" d="M152.69,213.18,170,236.76c-.95.08-1.9.14-2.84.19l-17.28-23.58c.94-.05,1.89-.12,2.84-.19"/><path class="cls-23" d="M149.85,213.37,167.13,237c-.94.05-1.89.09-2.83.11L147,213.48c.93,0,1.88-.06,2.82-.11"/><path class="cls-24" d="M147,213.48l17.27,23.58c-.93,0-1.87.05-2.8.05l-17.28-23.58c.93,0,1.87,0,2.81-.05"/><path class="cls-24" d="M144.22,213.53l17.28,23.58c-.93,0-1.87,0-2.79,0L141.43,213.5q1.4,0,2.79,0"/><path class="cls-25" d="M141.43,213.5l17.28,23.58c-.94,0-1.87-.05-2.8-.09l-17.28-23.58c.93,0,1.86.07,2.8.09"/><path class="cls-25" d="M138.63,213.41,155.91,237l-2.82-.18-17.28-23.58q1.41.11,2.82.18"/><path class="cls-26" d="M135.81,213.23l17.28,23.58c-.94-.07-1.88-.15-2.81-.24L133,213c.93.1,1.87.18,2.81.25"/><path class="cls-26" d="M133,213l17.28,23.59c-.95-.1-1.89-.21-2.84-.34l-17.28-23.58c1,.13,1.89.24,2.84.33"/><path class="cls-27" d="M130.16,212.65l17.28,23.58c-1-.12-1.94-.27-2.9-.42l-17.28-23.58c1,.15,1.93.3,2.9.42"/><path class="cls-27" d="M127.26,212.23l17.28,23.58q-1.46-.24-2.88-.51l-17.28-23.58q1.43.27,2.88.51"/><path class="cls-27" d="M124.38,211.72l17.28,23.58c-1-.2-2-.41-3-.64l-17.28-23.58c1,.23,2,.44,3,.64"/><path class="cls-28" d="M121.37,211.08l17.28,23.58c-1-.23-2.05-.48-3.07-.75L118.3,210.33c1,.27,2,.52,3.07.75"/><path class="cls-29" d="M118.3,210.33l17.28,23.58c-1-.27-2-.56-3.05-.87l-17.28-23.58c1,.31,2,.6,3,.87"/><path class="cls-30" d="M115.25,209.46,132.53,233c-1.14-.34-2.27-.71-3.4-1.1l-17.28-23.58c1.13.39,2.26.76,3.4,1.1"/><path class="cls-30" d="M111.85,208.36l17.28,23.58c-1.12-.39-2.23-.8-3.33-1.24l-17.28-23.58c1.1.44,2.21.85,3.33,1.24"/><path class="cls-6" d="M108.52,207.12,125.8,230.7l-.62-.24c-1.07-.44-2.13-.89-3.16-1.36l-17.28-23.58c1,.47,2.09.92,3.16,1.36l.62.24"/><path class="cls-7" d="M104.74,205.52,122,229.1c-1.28-.57-2.53-1.18-3.75-1.81L101,203.71c1.22.63,2.47,1.23,3.75,1.81"/><path class="cls-8" d="M101,203.71l17.28,23.58q-2.34-1.22-4.55-2.55L96.44,201.16q2.2,1.34,4.55,2.55"/><path class="cls-8" d="M96.44,201.16l17.28,23.58q-2.76-1.68-5.31-3.54L91.13,197.62q2.55,1.86,5.31,3.54"/><path class="cls-9" d="M91.13,197.62l17.28,23.58a70.54,70.54,0,0,1-11.87-11L79.26,186.66a70.54,70.54,0,0,0,11.87,11"/><path class="cls-10" d="M79.26,186.66l17.28,23.58-1.15-1.38L78.11,185.27c.38.47.76.93,1.15,1.39"/><path class="cls-9" d="M78.11,185.27l17.28,23.59c-.73-.9-1.43-1.8-2.1-2.72L76,182.55c.67.93,1.37,1.83,2.1,2.72"/></g></g></g></g><path class="cls-60" d="M92.44,180.53A70.43,70.43,0,0,1,83.67,169Q85.82,161,88,153.11a72.07,72.07,0,0,1-6.36-6.48l-3,12a87.92,87.92,0,0,1-5.17-16.68q.69-7.49,1.37-15c.08-1.18,3-1.61,8.42-1.54q11.83.32,23.77.45Q99.7,153.07,92.44,180.53Zm-2.53-34q1.94-7.11,3.88-14.19c-2.69-.53-5.35-1.1-8-1.71-.94,3.64-1.87,7.3-2.8,11A81.12,81.12,0,0,0,89.91,146.57Z"/><path class="cls-60" d="M133.45,194.58c-1,5.93-4.95,7.67-11.37,5.56a74.37,74.37,0,0,1-16.66-7.95c-5.52-3.69-7.6-7.93-6.47-12.4q6.81-26.72,13.63-53.21c3.83.07,7.67.11,11.52.15q-6.54,28.36-13.07,56.93a80,80,0,0,0,9,3.73q6.43-31.2,12.87-62.2l12.4-.07Q139.34,159.77,133.45,194.58Z"/><path class="cls-60" d="M182,135.12q-5.38.27-10.77.44-2.76,33.28-5.5,66.51A105.34,105.34,0,0,1,150,203.19q4.06-32.88,8.14-65.74c-3.52,0-7,0-10.54-.08q1-5.91,1.91-11.81c10.93.25,21.9.48,32.9.63C182.26,129.17,182.1,132.14,182,135.12Z"/><path class="cls-60" d="M221.72,173.35c.21,3.67-2.35,7.66-8.51,11.72a119.54,119.54,0,0,1-19.13,10.11c-6.37,2.67-10.06,1.63-9.84-3.7q1-28.71,2-57.55c.18-5,2.95-7.53,8.4-7.61l16.17-.32c5.26-.07,8.12,1.41,8.36,5.3Q220.44,152.41,221.72,173.35ZM209,178.07q-.66-21.12-1.34-42.4-4.32.53-8.69,1,.13,23,.27,46Q204.17,180.54,209,178.07Z"/><path class="cls-60" d="M253.33,138c-.2,1-1.82,5.24-5.66,11.58A105.45,105.45,0,0,1,228,172.9l-.54-7.61a107.26,107.26,0,0,0,16.79-15.65l-.48-7.78q-4.58,3.44-9.55,6.45c-5.34,3.28-7.67,2.43-7.9-1.11q-.63-8.58-1.25-17.17c-.26-3.72,2.45-5.18,7.83-5.17q10.23-.08,20.46-.1c-.07.89-.13,1.78-.2,2.67q-7.75,1.69-15.83,3.14l.75,9.52q4.91-2.35,9.5-5c4.92-2.75,6.52-3.38,6.38-2.33C253.76,134.51,253.54,136.27,253.33,138Z"/><path class="cls-61" d="M92.44,180.53A70.43,70.43,0,0,1,83.67,169Q85.82,161,88,153.11a72.07,72.07,0,0,1-6.36-6.48l-3,12a87.92,87.92,0,0,1-5.17-16.68q.69-7.49,1.37-15c.08-1.18,3-1.61,8.42-1.54q11.83.32,23.77.45Q99.7,153.07,92.44,180.53Zm-2.53-34q1.94-7.11,3.88-14.19c-2.69-.53-5.35-1.1-8-1.71-.94,3.64-1.87,7.3-2.8,11A81.12,81.12,0,0,0,89.91,146.57Z"/><path class="cls-61" d="M133.45,194.58c-1,5.93-4.95,7.67-11.37,5.56a74.37,74.37,0,0,1-16.66-7.95c-5.52-3.69-7.6-7.93-6.47-12.4q6.81-26.72,13.63-53.21c3.83.07,7.67.11,11.52.15q-6.54,28.36-13.07,56.93a80,80,0,0,0,9,3.73q6.43-31.2,12.87-62.2l12.4-.07Q139.34,159.77,133.45,194.58Z"/><path class="cls-61" d="M182,135.12q-5.38.27-10.77.44-2.76,33.28-5.5,66.51A105.34,105.34,0,0,1,150,203.19q4.06-32.88,8.14-65.74c-3.52,0-7,0-10.54-.08q1-5.91,1.91-11.81c10.93.25,21.9.48,32.9.63C182.26,129.17,182.1,132.14,182,135.12Z"/><path class="cls-61" d="M221.72,173.35c.21,3.67-2.35,7.66-8.51,11.72a119.54,119.54,0,0,1-19.13,10.11c-6.37,2.67-10.06,1.63-9.84-3.7q1-28.71,2-57.55c.18-5,2.95-7.53,8.4-7.61l16.17-.32c5.26-.07,8.12,1.41,8.36,5.3Q220.44,152.41,221.72,173.35ZM209,178.07q-.66-21.12-1.34-42.4-4.32.53-8.69,1,.13,23,.27,46Q204.17,180.54,209,178.07Z"/><path class="cls-61" d="M253.33,138c-.2,1-1.82,5.24-5.66,11.58A105.45,105.45,0,0,1,228,172.9l-.54-7.61a107.26,107.26,0,0,0,16.79-15.65l-.48-7.78q-4.58,3.44-9.55,6.45c-5.34,3.28-7.67,2.43-7.9-1.11q-.63-8.58-1.25-17.17c-.26-3.72,2.45-5.18,7.83-5.17q10.23-.08,20.46-.1c-.07.89-.13,1.78-.2,2.67q-7.75,1.69-15.83,3.14l.75,9.52q4.91-2.35,9.5-5c4.92-2.75,6.52-3.38,6.38-2.33C253.76,134.51,253.54,136.27,253.33,138Z"/><path class="cls-62" d="M109.82,119.46,98,119.62q.36-9.59.73-19.13c-2.7,1.06-5.35,2.18-8,3.34q-.49,8-1,15.94-6.37.09-12.74.22,2.74-14.31,5.5-28.61A121.58,121.58,0,0,1,103.26,64c5.57-5.64,8.75-6.26,8.53-1.41q-.44,11.64-.85,23.35c-.11,3.13-1.94,5.29-4.84,7.19v.19c2.78-1,4.6-.25,4.49,2.89Q110.2,107.79,109.82,119.46ZM99,92.56q.36-8.72.72-17.4-4,3.61-7.61,7.56-.47,7.25-.94,14.51C93.69,95.61,96.31,94.05,99,92.56Z"/><path class="cls-63" d="M128.12,119.25l-12.8.13Q116.6,84.93,118,51a144.25,144.25,0,0,1,14.65-9.85Q130.32,79.92,128.12,119.25Z"/><path class="cls-64" d="M168,109.18c-1,6.61-4.33,9.85-9.68,9.85q-12.36,0-24.71.13,2.73-41.11,5.61-81.72A138.41,138.41,0,0,1,169.77,25.6c6.5-1.66,10,.46,9,7.62Q173.37,71.17,168,109.18Zm-12.67-4.1Q158.91,73,162.52,41c-3.34.88-6.67,1.9-10,3q-2.91,30.69-5.76,61.59Q151,105.33,155.35,105.08Z"/><path class="cls-65" d="M198.73,119.05q-13.28-.09-26.57-.1Q179.57,70.69,187,22.43A100,100,0,0,1,202.61,22q-7.46,41.25-15,82.34,7.08.12,14.09.46Q200.24,111.93,198.73,119.05Z"/><path class="cls-66" d="M229.79,119.32q-13.22-.19-26.48-.29,10.24-46.38,20.35-93.23a67.34,67.34,0,0,1,25.87,15.62q-1.47,5.94-2.95,11.87a71,71,0,0,0-13.64-8.63q-2.83,12.06-5.68,24.09a93.37,93.37,0,0,1,13.12,5.47q-1.5,6-3,11.9a122.28,122.28,0,0,0-13.26-4.07q-2.87,12-5.73,23.89,7.31.7,14.43,1.68C231.8,111.53,230.8,115.42,229.79,119.32Z"/><path class="cls-67" d="M269.12,102.64c-.29,2.58-2.54,1.57-7-1.48l-.89-.62q-2.09,9.63-4.18,19.23-6.33-.13-12.69-.25,3.21-12.54,6.4-25.14c-.55-.27-1.09-.55-1.65-.81-4.66-2.18-6.79-5.08-5.31-10.81q4.75-18.66,9.47-37.42a72.29,72.29,0,0,1,8.4,12.07q-3.5,14.2-7,28.36a78.12,78.12,0,0,1,6.23,5.41q2.72-11.93,5.42-23.9a97.19,97.19,0,0,1,5,17.8Q270.21,93.86,269.12,102.64Z"/><path class="cls-68" d="M109.82,119.46,98,119.62q.36-9.59.73-19.13c-2.7,1.06-5.35,2.18-8,3.34q-.49,8-1,15.94-6.37.09-12.74.22,2.74-14.31,5.5-28.61A121.58,121.58,0,0,1,103.26,64c5.57-5.64,8.75-6.26,8.53-1.41q-.44,11.64-.85,23.35c-.11,3.13-1.94,5.29-4.84,7.19v.19c2.78-1,4.6-.25,4.49,2.89Q110.2,107.79,109.82,119.46ZM99,92.56q.36-8.72.72-17.4-4,3.61-7.61,7.56-.47,7.25-.94,14.51C93.69,95.61,96.31,94.05,99,92.56Z"/><path class="cls-68" d="M128.12,119.25l-12.8.13Q116.6,84.93,118,51a144.25,144.25,0,0,1,14.65-9.85Q130.32,79.92,128.12,119.25Z"/><path class="cls-68" d="M168,109.18c-1,6.61-4.33,9.85-9.68,9.85q-12.36,0-24.71.13,2.73-41.11,5.61-81.72A138.41,138.41,0,0,1,169.77,25.6c6.5-1.66,10,.46,9,7.62Q173.37,71.17,168,109.18Zm-12.67-4.1Q158.91,73,162.52,41c-3.34.88-6.67,1.9-10,3q-2.91,30.69-5.76,61.59Q151,105.33,155.35,105.08Z"/><path class="cls-68" d="M198.73,119.05q-13.28-.09-26.57-.1Q179.57,70.69,187,22.43A100,100,0,0,1,202.61,22q-7.46,41.25-15,82.34,7.08.12,14.09.46Q200.24,111.93,198.73,119.05Z"/><path class="cls-68" d="M229.79,119.32q-13.22-.19-26.48-.29,10.24-46.38,20.35-93.23a67.34,67.34,0,0,1,25.87,15.62q-1.47,5.94-2.95,11.87a71,71,0,0,0-13.64-8.63q-2.83,12.06-5.68,24.09a93.37,93.37,0,0,1,13.12,5.47q-1.5,6-3,11.9a122.28,122.28,0,0,0-13.26-4.07q-2.87,12-5.73,23.89,7.31.7,14.43,1.68C231.8,111.53,230.8,115.42,229.79,119.32Z"/><path class="cls-68" d="M269.12,102.64c-.29,2.58-2.54,1.57-7-1.48l-.89-.62q-2.09,9.63-4.18,19.23-6.33-.13-12.69-.25,3.21-12.54,6.4-25.14c-.55-.27-1.09-.55-1.65-.81-4.66-2.18-6.79-5.08-5.31-10.81q4.75-18.66,9.47-37.42a72.29,72.29,0,0,1,8.4,12.07q-3.5,14.2-7,28.36a78.12,78.12,0,0,1,6.23,5.41q2.72-11.93,5.42-23.9a97.19,97.19,0,0,1,5,17.8Q270.21,93.86,269.12,102.64Z"/></g></svg>