<svg id="Layer_1" data-name="Layer 1" xmlns="http://www.w3.org/2000/svg" xmlns:xlink="http://www.w3.org/1999/xlink" viewBox="0 0 344.78 345.91"><defs><style>.cls-1{fill:url(#linear-gradient);}.cls-2{fill:url(#linear-gradient-2);}.cls-3{fill:url(#linear-gradient-3);}</style><linearGradient id="linear-gradient" x1="272.27" y1="-1.88" x2="112.64" y2="274.59" gradientTransform="matrix(1, 0, 0, -1, 0, 352)" gradientUnits="userSpaceOnUse"><stop offset="0" stop-color="#55fff7"/><stop offset="1" stop-color="#0089bf"/></linearGradient><linearGradient id="linear-gradient-2" x1="178.77" y1="46.33" x2="19.14" y2="322.81" gradientTransform="matrix(0, 1, 1, 0, 31.79, 9.59)" xlink:href="#linear-gradient"/><linearGradient id="linear-gradient-3" x1="93.32" y1="107.31" x2="-66.51" y2="384.16" gradientTransform="matrix(-0.71, -0.71, -0.71, 0.71, 516.18, 26.61)" xlink:href="#linear-gradient"/></defs><title>shadedcircle</title><path class="cls-1" d="M148.2,174.4a172.75,172.75,0,0,1,56.9-128,173.52,173.52,0,0,0-89.7,30A172.71,172.71,0,0,0,289.2,344.1C209,329.2,148.2,258.9,148.2,174.4Z" transform="translate(-85 -1.09)"/><path class="cls-2" d="M257.6,64.29a172.75,172.75,0,0,1,128,56.9,173.52,173.52,0,0,0-30-89.7A172.71,172.71,0,0,0,87.9,205.29C102.8,125.09,173.1,64.29,257.6,64.29Z" transform="translate(-85 -1.09)"/><path class="cls-3" d="M334.55,251.43c-35.85,35.85-82.9,52.89-129.85,50.63a170.05,170.05,0,0,0,83.74,41.86,172.76,172.76,0,0,0,90.8-47.8c67.38-67.39,67.38-176.71,0-244.1-7.64-7.63-15.08-14.66-23.64-20.53C401.77,98.73,394.3,191.68,334.55,251.43Z" transform="translate(-85 -1.09)"/></svg>