<?xml version="1.0" encoding="utf-8"?>
<!-- Generator: Adobe Illustrator 22.0.1, SVG Export Plug-In . SVG Version: 6.00 Build 0)  -->
<svg version="1.1" id="Layer_1" xmlns="http://www.w3.org/2000/svg" xmlns:xlink="http://www.w3.org/1999/xlink" x="0px" y="0px"
	 viewBox="0 0 500 350" style="enable-background:new 0 0 500 350;" xml:space="preserve">
<style type="text/css">
	.st0{fill:url(#SVGID_1_);}
	.st1{fill:url(#SVGID_2_);}
	.st2{fill:url(#SVGID_3_);}
</style>
<g>
	<linearGradient id="SVGID_1_" gradientUnits="userSpaceOnUse" x1="272.2126" y1="353.9458" x2="112.5828" y2="77.4588">
		<stop  offset="0" style="stop-color:#55FFF7"/>
		<stop  offset="1" style="stop-color:#0089BF"/>
	</linearGradient>
	<path class="st0" d="M148.2,174.4c0-50.7,21.9-96.3,56.7-127.9c-31.4,1.5-62.5,11.4-89.5,29.9C96.3,104.2,85,138,85,174.4
		C85,269.7,162.3,347,257.6,347c10.8,0,21.4-1,31.6-2.9C209,329.2,148.2,258.9,148.2,174.4z"/>
</g>
<g>
	<linearGradient id="SVGID_2_" gradientUnits="userSpaceOnUse" x1="429" y1="188.5394" x2="204.016" y2="188.5394">
		<stop  offset="0" style="stop-color:#55FFF7"/>
		<stop  offset="1" style="stop-color:#0089BF"/>
	</linearGradient>
	<path class="st1" d="M378.4,52.9c-7.6-7.6-15.8-14.4-24.4-20.3c46.3,67.3,39.5,160.1-20.3,220C298,288.2,250.7,305,204,303
		c23.1,20.8,51.9,35.4,83.8,41.3c0,0,0,0-0.1,0c0.1,0,0.1,0,0.1,0c0.1,0,0.3,0.1,0.4,0.1c0.1,0,0.1,0,0.2,0c0,0,0.1,0,0.1,0
		c0.1,0,0.3,0,0.4,0c0.2,0,0.4,0,0.6,0c0,0,0,0,0.1,0c0.1,0,0.2,0,0.4,0c0,0,0.1,0,0.1,0c32.3-6.4,63.2-22.2,88.3-47.2
		C445.9,229.8,445.9,120.4,378.4,52.9z"/>
</g>
<g>
	<linearGradient id="SVGID_3_" gradientUnits="userSpaceOnUse" x1="114.7298" y1="90.1942" x2="385.37" y2="90.1942">
		<stop  offset="0" style="stop-color:#55FFF7"/>
		<stop  offset="1" style="stop-color:#0089BF"/>
	</linearGradient>
	<path class="st2" d="M355.2,34L355.2,34C355.2,34,355.2,34,355.2,34C287.9-12.5,194.9-5.7,135.1,54.2c-7.6,7.6-14.4,15.8-20.3,24.4
		c67.3-46.3,160.1-39.5,220,20.3c22.4,22.4,37.3,49.4,44.9,77.9C392.2,129,384.2,76.1,355.2,34z"/>
</g>
</svg>
