<svg xmlns="http://www.w3.org/2000/svg" xmlns:xlink="http://www.w3.org/1999/xlink" viewBox="0 0 266 108.5"><defs><style>.cls-1{fill:url(#linear-gradient);}.cls-2{fill:url(#linear-gradient-2);}.cls-3{fill:url(#linear-gradient-3);}.cls-4{fill:url(#linear-gradient-5);}.cls-5{fill:url(#Instagram_Linear);}.cls-6{fill:none;stroke:url(#Instagram_Linear-2);}.cls-6,.cls-7,.cls-8{stroke-miterlimit:10;stroke-width:2px;}.cls-7{fill:url(#Instagram_Linear-3);stroke:url(#Instagram_Linear-4);}.cls-8{fill:url(#Instagram_Linear-5);stroke:url(#Instagram_Linear-6);}.cls-9{font-size:34px;fill:#fff;font-family:Libertinage, Libertinage;}</style><linearGradient id="linear-gradient" x1="20" y1="54.5" x2="249.04" y2="54.5" gradientUnits="userSpaceOnUse"><stop offset="0" stop-color="#ff6a00"/><stop offset="0.08" stop-color="#fd6102"/><stop offset="0.2" stop-color="#f84709"/><stop offset="0.36" stop-color="#ef1e13"/><stop offset="0.46" stop-color="#e9001a"/><stop offset="0.98" stop-color="#410094"/></linearGradient><linearGradient id="linear-gradient-2" x1="12.5" y1="54.51" x2="242.24" y2="54.51" xlink:href="#linear-gradient"/><linearGradient id="linear-gradient-3" x1="12.5" y1="46.5" x2="242.24" y2="46.5" xlink:href="#linear-gradient"/><linearGradient id="linear-gradient-5" x1="259.5" y1="62.5" x2="13.3" y2="62.5" xlink:href="#linear-gradient"/><linearGradient id="Instagram_Linear" x1="23.5" y1="54.5" x2="86.5" y2="54.5" xlink:href="#linear-gradient"/><linearGradient id="Instagram_Linear-2" x1="22.5" y1="54.5" x2="87.5" y2="54.5" xlink:href="#linear-gradient"/><linearGradient id="Instagram_Linear-3" x1="102.5" y1="54.5" x2="165.5" y2="54.5" xlink:href="#linear-gradient"/><linearGradient id="Instagram_Linear-4" x1="101.5" y1="54.5" x2="166.5" y2="54.5" xlink:href="#linear-gradient"/><linearGradient id="Instagram_Linear-5" x1="181.5" y1="54.5" x2="244.5" y2="54.5" xlink:href="#linear-gradient"/><linearGradient id="Instagram_Linear-6" x1="180.5" y1="54.5" x2="245.5" y2="54.5" xlink:href="#linear-gradient"/></defs><title>Artboard 1</title><g id="Layer_3" data-name="Layer 3"><circle cx="55" cy="54.5" r="49.5"/><circle cx="134" cy="54.5" r="49.5"/><circle cx="213" cy="54.5" r="49.5"/></g><g id="Layer_2" data-name="Layer 2"><path class="cls-1" d="M55,102A47.49,47.49,0,0,1,7.5,54.5c0-.17,0-.33,0-.5a47.49,47.49,0,0,1,95,0h-16c0,.16,0,.33,0,.5A31.49,31.49,0,0,1,55.5,86v0a47.15,47.15,0,0,1,25.89,8,47.15,47.15,0,0,1-25.89,8Z"/><path class="cls-2" d="M102.5,54.5A47.49,47.49,0,0,1,55,102h-.5a47.49,47.49,0,0,1,0-95V23H55A31.49,31.49,0,0,1,86.49,54h0a47.15,47.15,0,0,1,8-25.89,47.15,47.15,0,0,1,8,25.89C102.5,54.17,102.5,54.33,102.5,54.5Z"/><path class="cls-3" d="M181.5,54.5a47.29,47.29,0,0,1-8,26.39,47.29,47.29,0,0,1-8-26.39,31.5,31.5,0,0,1-63,0,47.29,47.29,0,0,1-8,26.39,47.29,47.29,0,0,1-8-26.39c0-.17,0-.33,0-.5a47.49,47.49,0,0,1,95,0C181.5,54.17,181.5,54.33,181.5,54.5Z"/><path class="cls-3" d="M260.5,54.5a47.29,47.29,0,0,1-8,26.39,47.29,47.29,0,0,1-8-26.39,31.5,31.5,0,0,1-63,0,47.29,47.29,0,0,1-8,26.39,47.29,47.29,0,0,1-8-26.39c0-.17,0-.33,0-.5a47.49,47.49,0,0,1,95,0C260.5,54.17,260.5,54.33,260.5,54.5Z"/><path class="cls-4" d="M181.5,54.5a47.5,47.5,0,1,1-95,0c0-.17,0-.33,0-.5a47.15,47.15,0,0,1,8-25.89,47.15,47.15,0,0,1,8,25.89h0a31.49,31.49,0,0,1,63,0h16C181.5,54.17,181.5,54.33,181.5,54.5Z"/><path class="cls-4" d="M102.5,54.5a47.5,47.5,0,1,1-95,0c0-.17,0-.33,0-.5a47.15,47.15,0,0,1,8-25.89,47.15,47.15,0,0,1,8,25.89h0a31.49,31.49,0,0,1,63,0h16C102.5,54.17,102.5,54.33,102.5,54.5Z"/><path class="cls-4" d="M260.5,54.5a47.5,47.5,0,1,1-95,0c0-.17,0-.33,0-.5a47.15,47.15,0,0,1,8-25.89,47.15,47.15,0,0,1,8,25.89h0a31.49,31.49,0,0,1,63,0h16C260.5,54.17,260.5,54.33,260.5,54.5Z"/></g><g id="Layer_1" data-name="Layer 1"><path class="cls-5" d="M86.5,54.5A31.5,31.5,0,0,1,55,86h-.5a31.49,31.49,0,0,1,0-63H55A31.49,31.49,0,0,1,86.49,54C86.5,54.16,86.5,54.33,86.5,54.5Z"/><path class="cls-6" d="M86.5,54.5A31.5,31.5,0,0,1,55,86h-.5a31.49,31.49,0,0,1,0-63H55A31.49,31.49,0,0,1,86.49,54C86.5,54.16,86.5,54.33,86.5,54.5Z"/><path class="cls-7" d="M165.5,54.5a31.5,31.5,0,0,1-63,0c0-.17,0-.34,0-.5a31.49,31.49,0,0,1,63,0C165.5,54.16,165.5,54.33,165.5,54.5Z"/><path class="cls-8" d="M244.5,54.5a31.5,31.5,0,0,1-63,0c0-.17,0-.34,0-.5a31.49,31.49,0,0,1,63,0C244.5,54.16,244.5,54.33,244.5,54.5Z"/></g><g id="Layer_4" data-name="Layer 4"><text class="cls-9" transform="translate(33.5 56.82)">aigfx</text></g></svg>