<?xml version="1.0" encoding="utf-8"?>
<!-- Generator: Adobe Illustrator 22.0.1, SVG Export Plug-In . SVG Version: 6.00 Build 0)  -->
<svg version="1.1" xmlns="http://www.w3.org/2000/svg" xmlns:xlink="http://www.w3.org/1999/xlink" x="0px" y="0px"
	 viewBox="0 0 1009.6 407" style="enable-background:new 0 0 1009.6 407;" xml:space="preserve">
<style type="text/css">
	.st0{fill:#00FFFF;}
	.st1{fill:#ED1C24;}
</style>
<g id="Layer_3">
</g>
<g id="Layer_1">
	<g>
		<path d="M986.1,212.6v0.5c-0.1,29-7.3,56.4-20,80.4c-12.7-24-19.9-51.4-20-80.4c0,73.5-59.5,133-133,133s-133-59.5-133-133h-1
			c-0.1,29-7.3,56.4-20,80.4c-12.7-24-19.9-51.4-20-80.4v-0.5c0-29.2,7.2-56.8,20-80.9c29.1-55,86.9-92.6,153.5-92.6
			S937,76.6,966.1,131.7C978.9,155.8,986.1,183.4,986.1,212.6z"/>
		<path d="M372.1,211.6v0.5c-0.1,29-7.3,56.4-20,80.4c-29.1,55-86.9,92.6-153.5,92.6c-95.8,0-173.5-77.7-173.5-173.5
			c0-95.7,77.4-173.2,173-173.5v174h134v-0.5c0-29.2,7.2-56.8,20-80.9C364.9,154.8,372.1,182.4,372.1,211.6z"/>
		<path class="st0" d="M332.1,212.1c0,73.5-59.5,133-133,133s-133-59.5-133-133c0-73.1,59-132.5,132-133v133H332.1z"/>
		<path class="st1" d="M659.1,292.5c-29.1,55-86.9,92.6-153.5,92.6s-124.4-37.5-153.5-92.6c12.7-24,19.9-51.4,20-80.4h1
			c0,73.5,59.5,133,133,133s133-59.5,133-133C639.2,241.2,646.4,268.5,659.1,292.5z"/>
		<path d="M679.1,211.6v0.5c-0.1,29-7.3,56.4-20,80.4c-12.7-24-19.9-51.4-20-80.4c0,73.5-59.5,133-133,133s-133-59.5-133-133h-1
			c-0.1,29-7.3,56.4-20,80.4c-12.7-24-19.9-51.4-20-80.4v-0.5c0-29.2,7.2-56.8,20-80.9c29.1-55,86.9-92.6,153.5-92.6
			S630,75.6,659.1,130.7C671.9,154.8,679.1,182.4,679.1,211.6z"/>
		<path class="st0" d="M639.1,211.6v0.5c0,73.5-59.5,133-133,133s-133-59.5-133-133s59.5-133,133-133
			C579.4,79.1,638.9,138.4,639.1,211.6z"/>
		<path d="M986.1,212.1c-0.3,95.6-77.8,173-173.5,173c-66.6,0-124.4-37.5-153.5-92.6c-12.7-24-19.9-51.4-20-80.4v-0.5
			c0-29.2,7.2-56.8,20-80.9c12.8,24.2,20,51.7,20,80.9v0.5h1c0-73.5,59.5-133,133-133s133,59.5,133,133H986.1z"/>
		<circle class="st0" cx="813.1" cy="212.1" r="133"/>
		<circle class="st0" cx="198.1" cy="211.1" r="133"/>
		<path class="st1" d="M45.1,130.7c29.1-55,86.9-92.6,153.5-92.6S323,75.6,352.1,130.7c-12.7,24-19.9,51.4-20,80.4h-1
			c0-73.5-59.5-133-133-133s-133,59.5-133,133C65,182.1,57.8,154.7,45.1,130.7z"/>
		<path class="st1" d="M660.1,130.7c29.1-55,86.9-92.6,153.5-92.6S938,75.6,967.1,130.7c-12.7,24-19.9,51.4-20,80.4h-1
			c0-73.5-59.5-133-133-133s-133,59.5-133,133C680,182.1,672.8,154.7,660.1,130.7z"/>
	</g>
</g>
<g id="Layer_2">
</g>
</svg>
