<?xml version="1.0" encoding="utf-8"?>
<!-- Generator: Adobe Illustrator 22.0.1, SVG Export Plug-In . SVG Version: 6.00 Build 0)  -->
<svg version="1.1" xmlns="http://www.w3.org/2000/svg" xmlns:xlink="http://www.w3.org/1999/xlink" x="0px" y="0px"
	 viewBox="0 0 350 250" style="enable-background:new 0 0 350 250;" xml:space="preserve">
<style type="text/css">
	.st0{fill:#C7CE84;stroke:#FFFFFF;}
	.st1{fill:#2F3B5B;}
	.st2{fill:none;stroke:#FFFFFF;}
</style>
<g id="Layer_2">
	<rect x="-3.5" y="-5.5" class="st0" width="356" height="258"/>
</g>
<g id="Layer_3">
	<path d="M222.8,66.3l-0.4-1.5c0,0-2.4-1.9-2.8-2.7c-0.5-0.8-0.6-1.3-0.6-1.3l0.5-0.4c0,0-0.5-1.3-2-3.6c-1.5-2.2-5.8-7-7.8-8.2
		c-2-1.2-2-1.2-2-1.2l-0.2-4.6c0,0-1.1,0-3.1,0.3s-6.6,1-7.7,0.9c-1.1-0.1-1.4,0-1.8,0.3c-0.4,0.3-1.6,2-1.2,2.9
		c0.2,0.3,0.3,0.6,0.4,0.8c-0.1,0-0.4-0.1-0.8-0.1c-1.3,0.1-2.8,0.8-5.2,1.5c-2.4,0.7-3.9,1-4.8,0.8c-0.9-0.2-4-1.4-4.4-1.5
		c-0.5-0.1-0.9,0.3-0.9,0.3s-1.3-1.9-3.4-3.3c-0.9-0.6-2.3-1.4-4-2.2l-2.1-1.7l-3.7-0.9l-0.6,0.6c-0.1,0-0.3,0-0.4-0.1
		c-1.8-0.2-3.2,0-4.3,0.4l1.2-1.4L159,39l-0.8,0.7c-0.1-0.3-0.2-0.6-0.3-0.7c-0.3-0.2-0.7-0.2-1.1-0.1c0-0.3,0.1-0.5,0.1-0.5
		s1.4-2.3,2-2.7c0.6-0.4,0.7,0,1.4,0c0.1,0,0.4,0,0.7,0v0.5h1.2v-0.5c1.3-0.1,2.7-0.1,2.7-0.1s1-0.8,0-0.9c-0.7-0.1-1.7-0.1-2.7-0.1
		v-0.4h-1.2v0.5c-0.1,0-0.3,0-0.5,0l1.3-4.9l0.9,0c0.3,0.6,0.8,0.6,0.8,0.6l-0.3-4.4c0,0-0.7,0.9-0.7,2.2c0,0.6,0.1,1,0.2,1.3h-1
		l-1.1,4.2h-2.4v0.4c-0.9,0-3.2,0.1-4.4,1.7c-0.6,0.8-0.3,3.5-0.1,5.2l-0.4,0.4l0.8,1.3c0,0,0,0,0,0.1l0,0l0,0.2l0,0l-0.4,0.6
		l-0.6-0.2c0.2-0.6,0.2-1.1-0.1-1.6c-2.8-3.8-6-2.8-6.4-2.4c-0.3,0.4-0.9,2.2-0.7,4.2c0,0,0.4,2.1,1.7,3.4c1,0.9,2.3,0.6,3.4-0.7
		c0.5-0.5,1-1.1,1.4-1.8l0.4,0.2l-5.9,9.2c-4-2.6-8.9-1.7-11.9-0.5c-3.7,1.4-5.3,5.1-5.9,6.5c-0.5,1.4,0.3,0.9,1.4,0.6l0,0
		c-0.8,1.5-1.2,3.2-1.2,5c0,5.9,4.8,10.7,10.7,10.7c5.2,0,9.6-3.8,10.5-8.8c1,0.3,2.9,0.4,2.9,0.4s0.8-0.7-0.4-1.3
		c-1.2-0.6-1-0.8-1.1-2.7c-0.1-1.8,0-4.4-2.3-7.3c-0.3-0.3-0.5-0.6-0.8-0.9l4.6-6.1l-0.1,1h-0.6v1.1l-0.8,0.5l4.2,15.7l1.5,0.1
		l0.8,0.6c0,0,0.6,2.3,1.9,2.5c1.3,0.2,10.7,1.1,13.5,1.3c2.8,0.1,15.5,0.3,15.5,0.3v-0.9l-0.8-0.1l-0.1-1.6c0,0,0.9-0.2,2.3-0.6
		c2,4,6.2,6.8,11.1,6.8c6.8,0,12.4-5.5,12.4-12.4c0-0.3,0-0.5,0-0.8c0.2,0.3,0.4,0.5,0.7,0.8C215.4,64.5,222.8,66.3,222.8,66.3z
		 M140,72.1c-3.8,0-6.9-3.1-6.9-6.9c0-3.8,3.1-6.9,6.9-6.9c1.3,0,2.5,0.4,3.5,1l-2.4,3.8c-0.3-0.2-0.7-0.3-1.1-0.3
		c-1.4,0-2.5,1.1-2.5,2.5c0,1.4,1.1,2.5,2.5,2.5s2.5-1.1,2.5-2.5c0-0.2,0-0.5-0.1-0.7l2.7-4c1.1,1.2,1.8,2.8,1.8,4.6
		C146.8,69,143.8,72.1,140,72.1z M154.5,39.9l-0.7,0.7c-0.3-1.5-0.3-3.6,0.3-4.8c0.6-1.3,2.8-1.5,4-1.6v0.8c-0.7,0.7-2,2.8-2.2,3.4
		c-0.1,0.4-0.2,1-0.1,1.5c-0.1,0.5-0.2,1-0.2,1.2L154.5,39.9z M175,57.5c-0.1,0.9,0.4,1.2-0.6,1.6c-1,0.4-1.7,0-1.7,0l-0.1-0.6
		l-1.9-0.1c0,0-0.6,0.4-1.1,0.7l4.1-5.3c0,0,0.3-0.1-1.8-1.1c-0.8-0.4-1.4-0.7-1.9-1c1.4,0.1,2.3,0.1,2.3,0.1l4.7,3.1
		C177.1,54.8,175.1,56.6,175,57.5z M188.3,68.9l0-1.7l1.2-0.8c0.1,0.6,0.3,1.3,0.6,1.9L188.3,68.9z M194.8,63.6
		c0-0.6,0.1-1.3,0.3-1.9l2.1,0.8h-0.6l-0.1,0.8l-0.9-0.1l-0.1,0.3L194.8,63.6L194.8,63.6z M194.9,65.1l2.6,0.4
		c0.1,0.1,0.1,0.2,0.2,0.4l-2.2,0.7C195.2,66.2,195,65.7,194.9,65.1z M201.6,70.5c-2.3,0-4.4-1.1-5.6-2.9c0.8-0.3,1.6-0.5,2.3-0.8
		c0.8,0.9,2,1.4,3.3,1.4c2.5,0,4.5-2,4.5-4.5c0-2.5-2-4.5-4.5-4.5c-1.7,0-3.2,1-4,2.4l-2.1-1c1.1-2.2,3.4-3.8,6.1-3.8
		c3.8,0,6.9,3.1,6.9,6.9C208.5,67.4,205.4,70.5,201.6,70.5z"/>
</g>
<g id="Layer_4">
	<g>
		<path d="M95,186h3.5c2.3,0,3.9,0.1,4.7,0.3s1.5,0.6,2,1.4s0.8,1.9,0.8,3.5c0,1.5-0.2,2.5-0.6,3s-1.1,0.8-2.2,0.9
			c1,0.2,1.6,0.6,2,1s0.5,0.8,0.6,1.1s0.1,1.3,0.1,2.8v5h-4.6v-6.3c0-1-0.1-1.6-0.2-1.9s-0.6-0.4-1.3-0.4v8.6H95V186z M99.9,189.3
			v4.2c0.6,0,0.9-0.1,1.2-0.2s0.3-0.6,0.3-1.5v-1c0-0.6-0.1-1-0.3-1.2S100.5,189.3,99.9,189.3z"/>
		<path d="M135.6,186l2.8,19h-5l-0.3-3.4h-1.8l-0.3,3.4H126l2.5-19H135.6z M133,198.2c-0.2-2.1-0.5-4.8-0.8-8
			c-0.5,3.6-0.8,6.3-0.9,8H133z"/>
		<path d="M170,194.3h-4.9V191c0-1-0.1-1.6-0.2-1.8c-0.1-0.2-0.3-0.4-0.7-0.4c-0.4,0-0.7,0.1-0.8,0.4s-0.2,0.9-0.2,1.9v8.8
			c0,0.9,0.1,1.5,0.2,1.8s0.4,0.4,0.7,0.4c0.4,0,0.6-0.1,0.7-0.4s0.2-0.9,0.2-2v-2.4h4.9v0.7c0,2-0.1,3.4-0.4,4.2
			c-0.3,0.8-0.9,1.5-1.8,2.2s-2.1,0.9-3.5,0.9c-1.4,0-2.6-0.3-3.6-0.8s-1.6-1.2-1.9-2.2s-0.5-2.3-0.5-4.2v-5.5c0-1.4,0-2.4,0.1-3.1
			s0.4-1.3,0.8-2s1.1-1.1,1.9-1.5s1.8-0.5,2.8-0.5c1.5,0,2.7,0.3,3.6,0.8s1.6,1.3,1.9,2.1s0.4,2.1,0.4,3.9V194.3z"/>
		<path d="M195.9,186v19H191v-19H195.9z"/>
		<path d="M228.1,186v19h-4.3l-2.6-8.6v8.6h-4.1v-19h4.1l2.8,8.5V186H228.1z"/>
		<path d="M260.6,193h-4.9v-1.7c0-1.1,0-1.8-0.1-2s-0.3-0.4-0.7-0.4c-0.3,0-0.5,0.1-0.6,0.4s-0.2,0.8-0.2,1.8v9.1
			c0,0.9,0.1,1.4,0.2,1.7s0.3,0.4,0.7,0.4c0.4,0,0.6-0.2,0.7-0.5s0.2-0.9,0.2-1.8v-2.3h-1v-2.9h5.8V205h-3.1l-0.5-1.4
			c-0.3,0.6-0.8,1-1.3,1.3s-1.1,0.4-1.8,0.4c-0.8,0-1.6-0.2-2.3-0.6c-0.7-0.4-1.3-0.9-1.6-1.5c-0.4-0.6-0.6-1.2-0.7-1.9
			s-0.1-1.6-0.1-2.9v-5.6c0-1.8,0.1-3.1,0.3-3.9s0.8-1.6,1.7-2.3s2.1-1,3.6-1c1.4,0,2.6,0.3,3.6,0.9s1.6,1.3,1.9,2.1s0.4,2,0.4,3.6
			V193z"/>
	</g>
</g>
<g id="Layer_1">
	<g>
		<g>
			<path d="M17.1,78.8h44.9V92H46.8v79.2H32.2V92H17.1V78.8z"/>
			<path d="M81.9,140.5L63.5,78.8h15.2l11,42.1h0.3l11-42.1h13.9l-18.3,61.8v30.6H81.9V140.5z"/>
			<path d="M160.7,136.7V149c0,14.8-7.4,23.2-21.6,23.2s-21.6-8.4-21.6-23.2v-48c0-14.8,7.4-23.2,21.6-23.2s21.6,8.4,21.6,23.2v9
				h-13.7V100c0-6.6-2.9-9.1-7.5-9.1s-7.5,2.5-7.5,9.1v49.9c0,6.6,2.9,9,7.5,9s7.5-2.4,7.5-9v-13.2H160.7z"/>
			<path d="M184,171.2h-14.5V78.8H184v39.6h16.5V78.8h14.8v92.4h-14.8v-39.6H184V171.2z"/>
			<path d="M239.7,78.8V150c0,6.6,2.9,9,7.5,9s7.5-2.4,7.5-9V78.8h13.7v70.4c0,14.8-7.4,23.2-21.6,23.2c-14.3,0-21.6-8.4-21.6-23.2
				V78.8H239.7z"/>
			<path d="M297.9,77.7c14.1,0,21.4,8.4,21.4,23.2v2.9h-13.7V100c0-6.6-2.6-9.1-7.3-9.1s-7.3,2.5-7.3,9.1c0,6.7,2.9,11.7,12.4,20.1
				c12.1,10.7,16,18.3,16,28.9c0,14.8-7.4,23.2-21.6,23.2c-14.3,0-21.6-8.4-21.6-23.2v-5.7h13.7v6.6c0,6.6,2.9,9,7.5,9
				s7.5-2.4,7.5-9c0-6.7-2.9-11.7-12.4-20.1c-12.1-10.7-16-18.3-16-28.9C276.6,86.2,283.8,77.7,297.9,77.7z"/>
		</g>
	</g>
	<g>
		<g>
			<g>
				<path d="M24.6,86.3h44.9v13.2H54.3v79.2H39.7V99.5H24.6V86.3z"/>
				<path d="M89.4,148L71,86.3h15.2l11,42.1h0.3l11-42.1h13.9L103.9,148v30.6H89.4V148z"/>
				<path d="M168.2,144.2v12.3c0,14.8-7.4,23.2-21.6,23.2s-21.6-8.4-21.6-23.2v-48c0-14.8,7.4-23.2,21.6-23.2s21.6,8.4,21.6,23.2v9
					h-13.7v-9.9c0-6.6-2.9-9.1-7.5-9.1s-7.5,2.5-7.5,9.1v49.9c0,6.6,2.9,9,7.5,9s7.5-2.4,7.5-9v-13.2H168.2z"/>
				<path d="M191.5,178.7H177V86.3h14.5v39.6H208V86.3h14.8v92.4H208v-39.6h-16.5V178.7z"/>
				<path d="M247.2,86.3v71.3c0,6.6,2.9,9,7.5,9s7.5-2.4,7.5-9V86.3H276v70.4c0,14.8-7.4,23.2-21.6,23.2c-14.3,0-21.6-8.4-21.6-23.2
					V86.3H247.2z"/>
				<path d="M305.4,85.2c14.1,0,21.4,8.4,21.4,23.2v2.9h-13.7v-3.8c0-6.6-2.6-9.1-7.3-9.1s-7.3,2.5-7.3,9.1
					c0,6.7,2.9,11.7,12.4,20.1c12.1,10.7,16,18.3,16,28.9c0,14.8-7.4,23.2-21.6,23.2c-14.3,0-21.6-8.4-21.6-23.2v-5.7h13.7v6.6
					c0,6.6,2.9,9,7.5,9s7.5-2.4,7.5-9c0-6.7-2.9-11.7-12.4-20.1c-12.1-10.7-16-18.3-16-28.9C284.1,93.7,291.3,85.2,305.4,85.2z"/>
			</g>
		</g>
		<g>
			<g>
				<path d="M24.1,85.8h44.9V99H53.8v79.2H39.2V99H24.1V85.8z"/>
				<path d="M88.9,147.5L70.5,85.8h15.2l11,42.1h0.3l11-42.1h13.9l-18.3,61.8v30.6H88.9V147.5z"/>
				<path d="M167.7,143.7V156c0,14.8-7.4,23.2-21.6,23.2s-21.6-8.4-21.6-23.2v-48c0-14.8,7.4-23.2,21.6-23.2s21.6,8.4,21.6,23.2v9
					h-13.7V107c0-6.6-2.9-9.1-7.5-9.1s-7.5,2.5-7.5,9.1v49.9c0,6.6,2.9,9,7.5,9s7.5-2.4,7.5-9v-13.2H167.7z"/>
				<path d="M191,178.2h-14.5V85.8H191v39.6h16.5V85.8h14.8v92.4h-14.8v-39.6H191V178.2z"/>
				<path d="M246.7,85.8V157c0,6.6,2.9,9,7.5,9s7.5-2.4,7.5-9V85.8h13.7v70.4c0,14.8-7.4,23.2-21.6,23.2c-14.3,0-21.6-8.4-21.6-23.2
					V85.8H246.7z"/>
				<path d="M304.9,84.7c14.1,0,21.4,8.4,21.4,23.2v2.9h-13.7V107c0-6.6-2.6-9.1-7.3-9.1s-7.3,2.5-7.3,9.1c0,6.7,2.9,11.7,12.4,20.1
					c12.1,10.7,16,18.3,16,28.9c0,14.8-7.4,23.2-21.6,23.2c-14.3,0-21.6-8.4-21.6-23.2v-5.7h13.7v6.6c0,6.6,2.9,9,7.5,9
					s7.5-2.4,7.5-9c0-6.7-2.9-11.7-12.4-20.1c-12.1-10.7-16-18.3-16-28.9C283.6,93.2,290.8,84.7,304.9,84.7z"/>
			</g>
		</g>
		<g>
			<g>
				<path d="M23.6,85.3h44.9v13.2H53.3v79.2H38.7V98.5H23.6V85.3z"/>
				<path d="M88.4,147L70,85.3h15.2l11,42.1h0.3l11-42.1h13.9L102.9,147v30.6H88.4V147z"/>
				<path d="M167.2,143.2v12.3c0,14.8-7.4,23.2-21.6,23.2s-21.6-8.4-21.6-23.2v-48c0-14.8,7.4-23.2,21.6-23.2s21.6,8.4,21.6,23.2v9
					h-13.7v-9.9c0-6.6-2.9-9.1-7.5-9.1s-7.5,2.5-7.5,9.1v49.9c0,6.6,2.9,9,7.5,9s7.5-2.4,7.5-9v-13.2H167.2z"/>
				<path d="M190.5,177.7H176V85.3h14.5v39.6H207V85.3h14.8v92.4H207v-39.6h-16.5V177.7z"/>
				<path d="M246.2,85.3v71.3c0,6.6,2.9,9,7.5,9s7.5-2.4,7.5-9V85.3H275v70.4c0,14.8-7.4,23.2-21.6,23.2c-14.3,0-21.6-8.4-21.6-23.2
					V85.3H246.2z"/>
				<path d="M304.4,84.2c14.1,0,21.4,8.4,21.4,23.2v2.9h-13.7v-3.8c0-6.6-2.6-9.1-7.3-9.1s-7.3,2.5-7.3,9.1
					c0,6.7,2.9,11.7,12.4,20.1c12.1,10.7,16,18.3,16,28.9c0,14.8-7.4,23.2-21.6,23.2c-14.3,0-21.6-8.4-21.6-23.2v-5.7h13.7v6.6
					c0,6.6,2.9,9,7.5,9s7.5-2.4,7.5-9c0-6.7-2.9-11.7-12.4-20.1c-12.1-10.7-16-18.3-16-28.9C283.1,92.7,290.3,84.2,304.4,84.2z"/>
			</g>
		</g>
		<g>
			<g>
				<path d="M23.1,84.8h44.9V98H52.8v79.2H38.2V98H23.1V84.8z"/>
				<path d="M87.9,146.5L69.5,84.8h15.2l11,42.1h0.3l11-42.1h13.9l-18.3,61.8v30.6H87.9V146.5z"/>
				<path d="M166.7,142.7V155c0,14.8-7.4,23.2-21.6,23.2s-21.6-8.4-21.6-23.2v-48c0-14.8,7.4-23.2,21.6-23.2s21.6,8.4,21.6,23.2v9
					h-13.7V106c0-6.6-2.9-9.1-7.5-9.1s-7.5,2.5-7.5,9.1v49.9c0,6.6,2.9,9,7.5,9s7.5-2.4,7.5-9v-13.2H166.7z"/>
				<path d="M190,177.2h-14.5V84.8H190v39.6h16.5V84.8h14.8v92.4h-14.8v-39.6H190V177.2z"/>
				<path d="M245.7,84.8V156c0,6.6,2.9,9,7.5,9s7.5-2.4,7.5-9V84.8h13.7v70.4c0,14.8-7.4,23.2-21.6,23.2c-14.3,0-21.6-8.4-21.6-23.2
					V84.8H245.7z"/>
				<path d="M303.9,83.7c14.1,0,21.4,8.4,21.4,23.2v2.9h-13.7V106c0-6.6-2.6-9.1-7.3-9.1s-7.3,2.5-7.3,9.1c0,6.7,2.9,11.7,12.4,20.1
					c12.1,10.7,16,18.3,16,28.9c0,14.8-7.4,23.2-21.6,23.2c-14.3,0-21.6-8.4-21.6-23.2v-5.7h13.7v6.6c0,6.6,2.9,9,7.5,9
					s7.5-2.4,7.5-9c0-6.7-2.9-11.7-12.4-20.1c-12.1-10.7-16-18.3-16-28.9C282.6,92.2,289.8,83.7,303.9,83.7z"/>
			</g>
		</g>
		<g>
			<g>
				<path d="M22.6,84.3h44.9v13.2H52.3v79.2H37.7V97.5H22.6V84.3z"/>
				<path d="M87.4,146L69,84.3h15.2l11,42.1h0.3l11-42.1h13.9L101.9,146v30.6H87.4V146z"/>
				<path d="M166.2,142.2v12.3c0,14.8-7.4,23.2-21.6,23.2s-21.6-8.4-21.6-23.2v-48c0-14.8,7.4-23.2,21.6-23.2s21.6,8.4,21.6,23.2v9
					h-13.7v-9.9c0-6.6-2.9-9.1-7.5-9.1s-7.5,2.5-7.5,9.1v49.9c0,6.6,2.9,9,7.5,9s7.5-2.4,7.5-9v-13.2H166.2z"/>
				<path d="M189.5,176.7H175V84.3h14.5v39.6H206V84.3h14.8v92.4H206v-39.6h-16.5V176.7z"/>
				<path d="M245.2,84.3v71.3c0,6.6,2.9,9,7.5,9s7.5-2.4,7.5-9V84.3H274v70.4c0,14.8-7.4,23.2-21.6,23.2c-14.3,0-21.6-8.4-21.6-23.2
					V84.3H245.2z"/>
				<path d="M303.4,83.2c14.1,0,21.4,8.4,21.4,23.2v2.9h-13.7v-3.8c0-6.6-2.6-9.1-7.3-9.1s-7.3,2.5-7.3,9.1
					c0,6.7,2.9,11.7,12.4,20.1c12.1,10.7,16,18.3,16,28.9c0,14.8-7.4,23.2-21.6,23.2c-14.3,0-21.6-8.4-21.6-23.2v-5.7h13.7v6.6
					c0,6.6,2.9,9,7.5,9s7.5-2.4,7.5-9c0-6.7-2.9-11.7-12.4-20.1c-12.1-10.7-16-18.3-16-28.9C282.1,91.7,289.3,83.2,303.4,83.2z"/>
			</g>
		</g>
		<g>
			<g>
				<path d="M22.1,83.8h44.9V97H51.8v79.2H37.2V97H22.1V83.8z"/>
				<path d="M86.9,145.5L68.5,83.8h15.2l11,42.1h0.3l11-42.1h13.9l-18.3,61.8v30.6H86.9V145.5z"/>
				<path d="M165.7,141.7V154c0,14.8-7.4,23.2-21.6,23.2s-21.6-8.4-21.6-23.2v-48c0-14.8,7.4-23.2,21.6-23.2s21.6,8.4,21.6,23.2v9
					h-13.7V105c0-6.6-2.9-9.1-7.5-9.1s-7.5,2.5-7.5,9.1v49.9c0,6.6,2.9,9,7.5,9s7.5-2.4,7.5-9v-13.2H165.7z"/>
				<path d="M189,176.2h-14.5V83.8H189v39.6h16.5V83.8h14.8v92.4h-14.8v-39.6H189V176.2z"/>
				<path d="M244.7,83.8V155c0,6.6,2.9,9,7.5,9s7.5-2.4,7.5-9V83.8h13.7v70.4c0,14.8-7.4,23.2-21.6,23.2c-14.3,0-21.6-8.4-21.6-23.2
					V83.8H244.7z"/>
				<path d="M302.9,82.7c14.1,0,21.4,8.4,21.4,23.2v2.9h-13.7V105c0-6.6-2.6-9.1-7.3-9.1s-7.3,2.5-7.3,9.1c0,6.7,2.9,11.7,12.4,20.1
					c12.1,10.7,16,18.3,16,28.9c0,14.8-7.4,23.2-21.6,23.2c-14.3,0-21.6-8.4-21.6-23.2v-5.7h13.7v6.6c0,6.6,2.9,9,7.5,9
					s7.5-2.4,7.5-9c0-6.7-2.9-11.7-12.4-20.1c-12.1-10.7-16-18.3-16-28.9C281.6,91.2,288.8,82.7,302.9,82.7z"/>
			</g>
		</g>
		<g>
			<g>
				<path d="M21.6,83.3h44.9v13.2H51.3v79.2H36.7V96.5H21.6V83.3z"/>
				<path d="M86.4,145L68,83.3h15.2l11,42.1h0.3l11-42.1h13.9L100.9,145v30.6H86.4V145z"/>
				<path d="M165.2,141.2v12.3c0,14.8-7.4,23.2-21.6,23.2s-21.6-8.4-21.6-23.2v-48c0-14.8,7.4-23.2,21.6-23.2s21.6,8.4,21.6,23.2v9
					h-13.7v-9.9c0-6.6-2.9-9.1-7.5-9.1s-7.5,2.5-7.5,9.1v49.9c0,6.6,2.9,9,7.5,9s7.5-2.4,7.5-9v-13.2H165.2z"/>
				<path d="M188.5,175.7H174V83.3h14.5v39.6H205V83.3h14.8v92.4H205v-39.6h-16.5V175.7z"/>
				<path d="M244.2,83.3v71.3c0,6.6,2.9,9,7.5,9s7.5-2.4,7.5-9V83.3H273v70.4c0,14.8-7.4,23.2-21.6,23.2c-14.3,0-21.6-8.4-21.6-23.2
					V83.3H244.2z"/>
				<path d="M302.4,82.2c14.1,0,21.4,8.4,21.4,23.2v2.9h-13.7v-3.8c0-6.6-2.6-9.1-7.3-9.1s-7.3,2.5-7.3,9.1
					c0,6.7,2.9,11.7,12.4,20.1c12.1,10.7,16,18.3,16,28.9c0,14.8-7.4,23.2-21.6,23.2c-14.3,0-21.6-8.4-21.6-23.2v-5.7h13.7v6.6
					c0,6.6,2.9,9,7.5,9s7.5-2.4,7.5-9c0-6.7-2.9-11.7-12.4-20.1c-12.1-10.7-16-18.3-16-28.9C281.1,90.7,288.3,82.2,302.4,82.2z"/>
			</g>
		</g>
		<g>
			<g>
				<path d="M21.1,82.8h44.9V96H50.8v79.2H36.2V96H21.1V82.8z"/>
				<path d="M85.9,144.5L67.5,82.8h15.2l11,42.1h0.3l11-42.1h13.9l-18.3,61.8v30.6H85.9V144.5z"/>
				<path d="M164.7,140.7V153c0,14.8-7.4,23.2-21.6,23.2s-21.6-8.4-21.6-23.2v-48c0-14.8,7.4-23.2,21.6-23.2s21.6,8.4,21.6,23.2v9
					h-13.7V104c0-6.6-2.9-9.1-7.5-9.1s-7.5,2.5-7.5,9.1v49.9c0,6.6,2.9,9,7.5,9s7.5-2.4,7.5-9v-13.2H164.7z"/>
				<path d="M188,175.2h-14.5V82.8H188v39.6h16.5V82.8h14.8v92.4h-14.8v-39.6H188V175.2z"/>
				<path d="M243.7,82.8V154c0,6.6,2.9,9,7.5,9s7.5-2.4,7.5-9V82.8h13.7v70.4c0,14.8-7.4,23.2-21.6,23.2c-14.3,0-21.6-8.4-21.6-23.2
					V82.8H243.7z"/>
				<path d="M301.9,81.7c14.1,0,21.4,8.4,21.4,23.2v2.9h-13.7V104c0-6.6-2.6-9.1-7.3-9.1s-7.3,2.5-7.3,9.1c0,6.7,2.9,11.7,12.4,20.1
					c12.1,10.7,16,18.3,16,28.9c0,14.8-7.4,23.2-21.6,23.2c-14.3,0-21.6-8.4-21.6-23.2v-5.7h13.7v6.6c0,6.6,2.9,9,7.5,9
					s7.5-2.4,7.5-9c0-6.7-2.9-11.7-12.4-20.1c-12.1-10.7-16-18.3-16-28.9C280.6,90.2,287.8,81.7,301.9,81.7z"/>
			</g>
		</g>
		<g>
			<g>
				<path d="M20.6,82.3h44.9v13.2H50.3v79.2H35.7V95.5H20.6V82.3z"/>
				<path d="M85.4,144L67,82.3h15.2l11,42.1h0.3l11-42.1h13.9L99.9,144v30.6H85.4V144z"/>
				<path d="M164.2,140.2v12.3c0,14.8-7.4,23.2-21.6,23.2s-21.6-8.4-21.6-23.2v-48c0-14.8,7.4-23.2,21.6-23.2s21.6,8.4,21.6,23.2v9
					h-13.7v-9.9c0-6.6-2.9-9.1-7.5-9.1s-7.5,2.5-7.5,9.1v49.9c0,6.6,2.9,9,7.5,9s7.5-2.4,7.5-9v-13.2H164.2z"/>
				<path d="M187.5,174.7H173V82.3h14.5v39.6H204V82.3h14.8v92.4H204v-39.6h-16.5V174.7z"/>
				<path d="M243.2,82.3v71.3c0,6.6,2.9,9,7.5,9s7.5-2.4,7.5-9V82.3H272v70.4c0,14.8-7.4,23.2-21.6,23.2c-14.3,0-21.6-8.4-21.6-23.2
					V82.3H243.2z"/>
				<path d="M301.4,81.2c14.1,0,21.4,8.4,21.4,23.2v2.9h-13.7v-3.8c0-6.6-2.6-9.1-7.3-9.1s-7.3,2.5-7.3,9.1
					c0,6.7,2.9,11.7,12.4,20.1c12.1,10.7,16,18.3,16,28.9c0,14.8-7.4,23.2-21.6,23.2c-14.3,0-21.6-8.4-21.6-23.2v-5.7h13.7v6.6
					c0,6.6,2.9,9,7.5,9s7.5-2.4,7.5-9c0-6.7-2.9-11.7-12.4-20.1c-12.1-10.7-16-18.3-16-28.9C280.1,89.7,287.3,81.2,301.4,81.2z"/>
			</g>
		</g>
		<g>
			<g>
				<path d="M20.1,81.8h44.9V95H49.8v79.2H35.2V95H20.1V81.8z"/>
				<path d="M84.9,143.5L66.5,81.8h15.2l11,42.1h0.3l11-42.1h13.9l-18.3,61.8v30.6H84.9V143.5z"/>
				<path d="M163.7,139.7V152c0,14.8-7.4,23.2-21.6,23.2s-21.6-8.4-21.6-23.2v-48c0-14.8,7.4-23.2,21.6-23.2s21.6,8.4,21.6,23.2v9
					h-13.7V103c0-6.6-2.9-9.1-7.5-9.1s-7.5,2.5-7.5,9.1v49.9c0,6.6,2.9,9,7.5,9s7.5-2.4,7.5-9v-13.2H163.7z"/>
				<path d="M187,174.2h-14.5V81.8H187v39.6h16.5V81.8h14.8v92.4h-14.8v-39.6H187V174.2z"/>
				<path d="M242.7,81.8V153c0,6.6,2.9,9,7.5,9s7.5-2.4,7.5-9V81.8h13.7v70.4c0,14.8-7.4,23.2-21.6,23.2c-14.3,0-21.6-8.4-21.6-23.2
					V81.8H242.7z"/>
				<path d="M300.9,80.7c14.1,0,21.4,8.4,21.4,23.2v2.9h-13.7V103c0-6.6-2.6-9.1-7.3-9.1s-7.3,2.5-7.3,9.1c0,6.7,2.9,11.7,12.4,20.1
					c12.1,10.7,16,18.3,16,28.9c0,14.8-7.4,23.2-21.6,23.2c-14.3,0-21.6-8.4-21.6-23.2v-5.7h13.7v6.6c0,6.6,2.9,9,7.5,9
					s7.5-2.4,7.5-9c0-6.7-2.9-11.7-12.4-20.1c-12.1-10.7-16-18.3-16-28.9C279.6,89.2,286.8,80.7,300.9,80.7z"/>
			</g>
		</g>
		<g>
			<g>
				<path d="M19.6,81.3h44.9v13.2H49.3v79.2H34.7V94.5H19.6V81.3z"/>
				<path d="M84.4,143L66,81.3h15.2l11,42.1h0.3l11-42.1h13.9L98.9,143v30.6H84.4V143z"/>
				<path d="M163.2,139.2v12.3c0,14.8-7.4,23.2-21.6,23.2s-21.6-8.4-21.6-23.2v-48c0-14.8,7.4-23.2,21.6-23.2s21.6,8.4,21.6,23.2v9
					h-13.7v-9.9c0-6.6-2.9-9.1-7.5-9.1s-7.5,2.5-7.5,9.1v49.9c0,6.6,2.9,9,7.5,9s7.5-2.4,7.5-9v-13.2H163.2z"/>
				<path d="M186.5,173.7H172V81.3h14.5v39.6H203V81.3h14.8v92.4H203v-39.6h-16.5V173.7z"/>
				<path d="M242.2,81.3v71.3c0,6.6,2.9,9,7.5,9s7.5-2.4,7.5-9V81.3H271v70.4c0,14.8-7.4,23.2-21.6,23.2c-14.3,0-21.6-8.4-21.6-23.2
					V81.3H242.2z"/>
				<path d="M300.4,80.2c14.1,0,21.4,8.4,21.4,23.2v2.9h-13.7v-3.8c0-6.6-2.6-9.1-7.3-9.1s-7.3,2.5-7.3,9.1
					c0,6.7,2.9,11.7,12.4,20.1c12.1,10.7,16,18.3,16,28.9c0,14.8-7.4,23.2-21.6,23.2c-14.3,0-21.6-8.4-21.6-23.2v-5.7h13.7v6.6
					c0,6.6,2.9,9,7.5,9s7.5-2.4,7.5-9c0-6.7-2.9-11.7-12.4-20.1c-12.1-10.7-16-18.3-16-28.9C279.1,88.7,286.3,80.2,300.4,80.2z"/>
			</g>
		</g>
		<g>
			<g>
				<path d="M19.1,80.8h44.9V94H48.8v79.2H34.2V94H19.1V80.8z"/>
				<path d="M83.9,142.5L65.5,80.8h15.2l11,42.1h0.3l11-42.1h13.9l-18.3,61.8v30.6H83.9V142.5z"/>
				<path d="M162.7,138.7V151c0,14.8-7.4,23.2-21.6,23.2s-21.6-8.4-21.6-23.2v-48c0-14.8,7.4-23.2,21.6-23.2s21.6,8.4,21.6,23.2v9
					h-13.7V102c0-6.6-2.9-9.1-7.5-9.1s-7.5,2.5-7.5,9.1v49.9c0,6.6,2.9,9,7.5,9s7.5-2.4,7.5-9v-13.2H162.7z"/>
				<path d="M186,173.2h-14.5V80.8H186v39.6h16.5V80.8h14.8v92.4h-14.8v-39.6H186V173.2z"/>
				<path d="M241.7,80.8V152c0,6.6,2.9,9,7.5,9s7.5-2.4,7.5-9V80.8h13.7v70.4c0,14.8-7.4,23.2-21.6,23.2c-14.3,0-21.6-8.4-21.6-23.2
					V80.8H241.7z"/>
				<path d="M299.9,79.7c14.1,0,21.4,8.4,21.4,23.2v2.9h-13.7V102c0-6.6-2.6-9.1-7.3-9.1s-7.3,2.5-7.3,9.1c0,6.7,2.9,11.7,12.4,20.1
					c12.1,10.7,16,18.3,16,28.9c0,14.8-7.4,23.2-21.6,23.2c-14.3,0-21.6-8.4-21.6-23.2v-5.7h13.7v6.6c0,6.6,2.9,9,7.5,9
					s7.5-2.4,7.5-9c0-6.7-2.9-11.7-12.4-20.1c-12.1-10.7-16-18.3-16-28.9C278.6,88.2,285.8,79.7,299.9,79.7z"/>
			</g>
		</g>
		<g>
			<g>
				<path d="M18.6,80.3h44.9v13.2H48.3v79.2H33.7V93.5H18.6V80.3z"/>
				<path d="M83.4,142L65,80.3h15.2l11,42.1h0.3l11-42.1h13.9L97.9,142v30.6H83.4V142z"/>
				<path d="M162.2,138.2v12.3c0,14.8-7.4,23.2-21.6,23.2s-21.6-8.4-21.6-23.2v-48c0-14.8,7.4-23.2,21.6-23.2s21.6,8.4,21.6,23.2v9
					h-13.7v-9.9c0-6.6-2.9-9.1-7.5-9.1s-7.5,2.5-7.5,9.1v49.9c0,6.6,2.9,9,7.5,9s7.5-2.4,7.5-9v-13.2H162.2z"/>
				<path d="M185.5,172.7H171V80.3h14.5v39.6H202V80.3h14.8v92.4H202v-39.6h-16.5V172.7z"/>
				<path d="M241.2,80.3v71.3c0,6.6,2.9,9,7.5,9s7.5-2.4,7.5-9V80.3H270v70.4c0,14.8-7.4,23.2-21.6,23.2c-14.3,0-21.6-8.4-21.6-23.2
					V80.3H241.2z"/>
				<path d="M299.4,79.2c14.1,0,21.4,8.4,21.4,23.2v2.9h-13.7v-3.8c0-6.6-2.6-9.1-7.3-9.1s-7.3,2.5-7.3,9.1
					c0,6.7,2.9,11.7,12.4,20.1c12.1,10.7,16,18.3,16,28.9c0,14.8-7.4,23.2-21.6,23.2c-14.3,0-21.6-8.4-21.6-23.2v-5.7h13.7v6.6
					c0,6.6,2.9,9,7.5,9s7.5-2.4,7.5-9c0-6.7-2.9-11.7-12.4-20.1c-12.1-10.7-16-18.3-16-28.9C278.1,87.7,285.3,79.2,299.4,79.2z"/>
			</g>
		</g>
		<g>
			<g>
				<path d="M18.1,79.8h44.9V93H47.8v79.2H33.2V93H18.1V79.8z"/>
				<path d="M82.9,141.5L64.5,79.8h15.2l11,42.1h0.3l11-42.1h13.9l-18.3,61.8v30.6H82.9V141.5z"/>
				<path d="M161.7,137.7V150c0,14.8-7.4,23.2-21.6,23.2s-21.6-8.4-21.6-23.2v-48c0-14.8,7.4-23.2,21.6-23.2s21.6,8.4,21.6,23.2v9
					h-13.7V101c0-6.6-2.9-9.1-7.5-9.1s-7.5,2.5-7.5,9.1v49.9c0,6.6,2.9,9,7.5,9s7.5-2.4,7.5-9v-13.2H161.7z"/>
				<path d="M185,172.2h-14.5V79.8H185v39.6h16.5V79.8h14.8v92.4h-14.8v-39.6H185V172.2z"/>
				<path d="M240.7,79.8V151c0,6.6,2.9,9,7.5,9s7.5-2.4,7.5-9V79.8h13.7v70.4c0,14.8-7.4,23.2-21.6,23.2c-14.3,0-21.6-8.4-21.6-23.2
					V79.8H240.7z"/>
				<path d="M298.9,78.7c14.1,0,21.4,8.4,21.4,23.2v2.9h-13.7V101c0-6.6-2.6-9.1-7.3-9.1s-7.3,2.5-7.3,9.1c0,6.7,2.9,11.7,12.4,20.1
					c12.1,10.7,16,18.3,16,28.9c0,14.8-7.4,23.2-21.6,23.2c-14.3,0-21.6-8.4-21.6-23.2v-5.7h13.7v6.6c0,6.6,2.9,9,7.5,9
					s7.5-2.4,7.5-9c0-6.7-2.9-11.7-12.4-20.1c-12.1-10.7-16-18.3-16-28.9C277.6,87.2,284.8,78.7,298.9,78.7z"/>
			</g>
		</g>
		<g>
			<g>
				<path d="M17.6,79.3h44.9v13.2H47.3v79.2H32.7V92.5H17.6V79.3z"/>
				<path d="M82.4,141L64,79.3h15.2l11,42.1h0.3l11-42.1h13.9L96.9,141v30.6H82.4V141z"/>
				<path d="M161.2,137.2v12.3c0,14.8-7.4,23.2-21.6,23.2s-21.6-8.4-21.6-23.2v-48c0-14.8,7.4-23.2,21.6-23.2s21.6,8.4,21.6,23.2v9
					h-13.7v-9.9c0-6.6-2.9-9.1-7.5-9.1s-7.5,2.5-7.5,9.1v49.9c0,6.6,2.9,9,7.5,9s7.5-2.4,7.5-9v-13.2H161.2z"/>
				<path d="M184.5,171.7H170V79.3h14.5v39.6H201V79.3h14.8v92.4H201v-39.6h-16.5V171.7z"/>
				<path d="M240.2,79.3v71.3c0,6.6,2.9,9,7.5,9s7.5-2.4,7.5-9V79.3H269v70.4c0,14.8-7.4,23.2-21.6,23.2c-14.3,0-21.6-8.4-21.6-23.2
					V79.3H240.2z"/>
				<path d="M298.4,78.2c14.1,0,21.4,8.4,21.4,23.2v2.9h-13.7v-3.8c0-6.6-2.6-9.1-7.3-9.1s-7.3,2.5-7.3,9.1
					c0,6.7,2.9,11.7,12.4,20.1c12.1,10.7,16,18.3,16,28.9c0,14.8-7.4,23.2-21.6,23.2c-14.3,0-21.6-8.4-21.6-23.2v-5.7h13.7v6.6
					c0,6.6,2.9,9,7.5,9s7.5-2.4,7.5-9c0-6.7-2.9-11.7-12.4-20.1c-12.1-10.7-16-18.3-16-28.9C277.1,86.7,284.3,78.2,298.4,78.2z"/>
			</g>
		</g>
		<g>
			<g>
				<path d="M17.1,78.8h44.9V92H46.8v79.2H32.2V92H17.1V78.8z"/>
				<path d="M81.9,140.5L63.5,78.8h15.2l11,42.1h0.3l11-42.1h13.9l-18.3,61.8v30.6H81.9V140.5z"/>
				<path d="M160.7,136.7V149c0,14.8-7.4,23.2-21.6,23.2s-21.6-8.4-21.6-23.2v-48c0-14.8,7.4-23.2,21.6-23.2s21.6,8.4,21.6,23.2v9
					h-13.7V100c0-6.6-2.9-9.1-7.5-9.1s-7.5,2.5-7.5,9.1v49.9c0,6.6,2.9,9,7.5,9s7.5-2.4,7.5-9v-13.2H160.7z"/>
				<path d="M184,171.2h-14.5V78.8H184v39.6h16.5V78.8h14.8v92.4h-14.8v-39.6H184V171.2z"/>
				<path d="M239.7,78.8V150c0,6.6,2.9,9,7.5,9s7.5-2.4,7.5-9V78.8h13.7v70.4c0,14.8-7.4,23.2-21.6,23.2c-14.3,0-21.6-8.4-21.6-23.2
					V78.8H239.7z"/>
				<path d="M297.9,77.7c14.1,0,21.4,8.4,21.4,23.2v2.9h-13.7V100c0-6.6-2.6-9.1-7.3-9.1s-7.3,2.5-7.3,9.1c0,6.7,2.9,11.7,12.4,20.1
					c12.1,10.7,16,18.3,16,28.9c0,14.8-7.4,23.2-21.6,23.2c-14.3,0-21.6-8.4-21.6-23.2v-5.7h13.7v6.6c0,6.6,2.9,9,7.5,9
					s7.5-2.4,7.5-9c0-6.7-2.9-11.7-12.4-20.1c-12.1-10.7-16-18.3-16-28.9C276.6,86.2,283.8,77.7,297.9,77.7z"/>
			</g>
		</g>
	</g>
	<g>
		<g>
			<path class="st1" d="M17.1,78.8h44.9V92H46.8v79.2H32.2V92H17.1V78.8z"/>
			<path class="st1" d="M81.9,140.5L63.5,78.8h15.2l11,42.1h0.3l11-42.1h13.9l-18.3,61.8v30.6H81.9V140.5z"/>
			<path class="st1" d="M160.7,136.7V149c0,14.8-7.4,23.2-21.6,23.2s-21.6-8.4-21.6-23.2v-48c0-14.8,7.4-23.2,21.6-23.2
				s21.6,8.4,21.6,23.2v9h-13.7V100c0-6.6-2.9-9.1-7.5-9.1s-7.5,2.5-7.5,9.1v49.9c0,6.6,2.9,9,7.5,9s7.5-2.4,7.5-9v-13.2H160.7z"/>
			<path class="st1" d="M184,171.2h-14.5V78.8H184v39.6h16.5V78.8h14.8v92.4h-14.8v-39.6H184V171.2z"/>
			<path class="st1" d="M239.7,78.8V150c0,6.6,2.9,9,7.5,9s7.5-2.4,7.5-9V78.8h13.7v70.4c0,14.8-7.4,23.2-21.6,23.2
				c-14.3,0-21.6-8.4-21.6-23.2V78.8H239.7z"/>
			<path class="st1" d="M297.9,77.7c14.1,0,21.4,8.4,21.4,23.2v2.9h-13.7V100c0-6.6-2.6-9.1-7.3-9.1s-7.3,2.5-7.3,9.1
				c0,6.7,2.9,11.7,12.4,20.1c12.1,10.7,16,18.3,16,28.9c0,14.8-7.4,23.2-21.6,23.2c-14.3,0-21.6-8.4-21.6-23.2v-5.7h13.7v6.6
				c0,6.6,2.9,9,7.5,9s7.5-2.4,7.5-9c0-6.7-2.9-11.7-12.4-20.1c-12.1-10.7-16-18.3-16-28.9C276.6,86.2,283.8,77.7,297.9,77.7z"/>
		</g>
	</g>
	<g>
		<g>
			<path class="st2" d="M17.1,78.8h44.9V92H46.8v79.2H32.2V92H17.1V78.8z"/>
			<path class="st2" d="M81.9,140.5L63.5,78.8h15.2l11,42.1h0.3l11-42.1h13.9l-18.3,61.8v30.6H81.9V140.5z"/>
			<path class="st2" d="M160.7,136.7V149c0,14.8-7.4,23.2-21.6,23.2s-21.6-8.4-21.6-23.2v-48c0-14.8,7.4-23.2,21.6-23.2
				s21.6,8.4,21.6,23.2v9h-13.7V100c0-6.6-2.9-9.1-7.5-9.1s-7.5,2.5-7.5,9.1v49.9c0,6.6,2.9,9,7.5,9s7.5-2.4,7.5-9v-13.2H160.7z"/>
			<path class="st2" d="M184,171.2h-14.5V78.8H184v39.6h16.5V78.8h14.8v92.4h-14.8v-39.6H184V171.2z"/>
			<path class="st2" d="M239.7,78.8V150c0,6.6,2.9,9,7.5,9s7.5-2.4,7.5-9V78.8h13.7v70.4c0,14.8-7.4,23.2-21.6,23.2
				c-14.3,0-21.6-8.4-21.6-23.2V78.8H239.7z"/>
			<path class="st2" d="M297.9,77.7c14.1,0,21.4,8.4,21.4,23.2v2.9h-13.7V100c0-6.6-2.6-9.1-7.3-9.1s-7.3,2.5-7.3,9.1
				c0,6.7,2.9,11.7,12.4,20.1c12.1,10.7,16,18.3,16,28.9c0,14.8-7.4,23.2-21.6,23.2c-14.3,0-21.6-8.4-21.6-23.2v-5.7h13.7v6.6
				c0,6.6,2.9,9,7.5,9s7.5-2.4,7.5-9c0-6.7-2.9-11.7-12.4-20.1c-12.1-10.7-16-18.3-16-28.9C276.6,86.2,283.8,77.7,297.9,77.7z"/>
		</g>
	</g>
</g>
</svg>
