<svg id="Layer_2" data-name="Layer 2" xmlns="http://www.w3.org/2000/svg" xmlns:xlink="http://www.w3.org/1999/xlink" viewBox="0 0 544.96 540.31"><defs><style>.cls-1{fill:url(#linear-gradient);}.cls-2{fill:url(#linear-gradient-2);}.cls-3{fill:url(#linear-gradient-3);}.cls-4{fill:url(#linear-gradient-4);}.cls-5{fill:url(#linear-gradient-5);}.cls-6{fill:url(#linear-gradient-6);}.cls-7{fill:url(#linear-gradient-7);}.cls-8{fill:url(#linear-gradient-8);}.cls-9{fill:url(#linear-gradient-9);}.cls-10{fill:url(#linear-gradient-10);}.cls-11{fill:url(#linear-gradient-11);}.cls-12{fill:url(#linear-gradient-12);}</style><linearGradient id="linear-gradient" x1="589.46" y1="336.42" x2="588.12" y2="607.08" gradientTransform="translate(1504.69 173.41) rotate(135)" gradientUnits="userSpaceOnUse"><stop offset="0"/><stop offset="0.34" stop-color="#00d0ff"/><stop offset="0.66" stop-color="#00d0ff"/><stop offset="1" stop-color="#020202"/></linearGradient><linearGradient id="linear-gradient-2" x1="566.59" y1="321.16" x2="731.93" y2="679.16" gradientTransform="translate(1504.69 173.41) rotate(135)" gradientUnits="userSpaceOnUse"><stop offset="0"/><stop offset="0.51" stop-color="#559dff"/><stop offset="1" stop-color="#020202"/></linearGradient><linearGradient id="linear-gradient-3" x1="432.09" y1="327.92" x2="791.73" y2="327.92" xlink:href="#linear-gradient"/><linearGradient id="linear-gradient-4" x1="730.1" y1="243.89" x2="399.11" y2="445.6" xlink:href="#linear-gradient-2"/><linearGradient id="linear-gradient-5" x1="894.8" y1="-186.96" x2="893.47" y2="83.7" gradientTransform="translate(858.89 1407.24) rotate(-90)" gradientUnits="userSpaceOnUse"><stop offset="0"/><stop offset="0.34" stop-color="#15d4ff"/><stop offset="0.66" stop-color="#15d4ff"/><stop offset="1" stop-color="#020202"/></linearGradient><linearGradient id="linear-gradient-6" x1="871.94" y1="-202.22" x2="1037.27" y2="155.78" gradientTransform="translate(858.89 1407.24) rotate(-90)" gradientUnits="userSpaceOnUse"><stop offset="0"/><stop offset="0.51" stop-color="#6aaeff"/><stop offset="1" stop-color="#020202"/></linearGradient><linearGradient id="linear-gradient-7" x1="737.43" y1="-195.46" x2="1097.07" y2="-195.46" xlink:href="#linear-gradient-5"/><linearGradient id="linear-gradient-8" x1="1035.44" y1="-279.49" x2="704.46" y2="-77.78" xlink:href="#linear-gradient-6"/><linearGradient id="linear-gradient-9" x1="1122.85" y1="-85.3" x2="904.85" y2="-394.63" xlink:href="#linear-gradient-5"/><linearGradient id="linear-gradient-10" x1="1069.78" y1="-170.43" x2="815.11" y2="-397.76" xlink:href="#linear-gradient-6"/><linearGradient id="linear-gradient-11" x1="1181.17" y1="-374.65" x2="1079.84" y2="-13.99" xlink:href="#linear-gradient-5"/><linearGradient id="linear-gradient-12" x1="1000.67" y1="-4.88" x2="1170" y2="-372.88" xlink:href="#linear-gradient-6"/></defs><title>superkruller</title><path class="cls-1" d="M832.71,212.05c61.06,77.3,50.35,188.31-22.69,252.67q4-2.85,8-5.93c80-63.15,93.59-179.18,30.44-259.14s-179.18-93.59-259.14-30.43q-3.91,3.09-7.61,6.36C661.19,119.44,771.66,134.74,832.71,212.05Z" transform="translate(-443.45 -129.5)"/><path class="cls-2" d="M759.64,248.69a184.55,184.55,0,0,1,39.19,224.73,185,185,0,0,0,32.91-28.91c68.1-75.8,61.84-192.45-14-260.54s-192.46-61.84-260.55,14A185.06,185.06,0,0,0,532,233.75C600.62,186.63,695,190.61,759.64,248.69Z" transform="translate(-443.45 -129.5)"/><path class="cls-3" d="M949.42,405.13c-39.36,90.3-142.29,133.22-233.49,99.19,2.94,1.47,5.92,2.88,9,4.21,93.41,40.71,202.14-2,242.85-95.41s-2-202.14-95.41-242.85q-4.58-2-9.2-3.71A184.5,184.5,0,0,1,949.42,405.13Z" transform="translate(-443.45 -129.5)"/><path class="cls-4" d="M882.64,358A184.55,184.55,0,0,1,703,498.55a184.88,184.88,0,0,0,41,15.39c99,24.28,198.86-36.27,223.14-135.23S930.87,179.84,831.91,155.57a184.56,184.56,0,0,0-43.48-5.35C862.34,188.49,903.35,273.58,882.64,358Z" transform="translate(-443.45 -129.5)"/><path class="cls-5" d="M783.36,599.42c-97.84-11.49-168.75-97.56-162.62-194.71q-.84,4.86-1.43,9.81C607.42,515.72,679.83,607.4,781,619.28S973.9,558.76,985.79,457.56c.39-3.3.67-6.59.88-9.87C970.13,543.61,881.2,610.91,783.36,599.42Z" transform="translate(-443.45 -129.5)"/><path class="cls-6" d="M809.12,521.84A184.57,184.57,0,0,1,622.5,390.64a184.52,184.52,0,0,0-2.83,43.71C625.12,536.1,712,614.17,813.78,608.71S993.59,516.35,988.14,414.6a185.07,185.07,0,0,0-7.5-43.16A184.54,184.54,0,0,1,809.12,521.84Z" transform="translate(-443.45 -129.5)"/><path class="cls-7" d="M564.31,545.41a184.51,184.51,0,0,1,95-235.24c-3.12,1-6.23,2.15-9.32,3.37C555.11,350.8,508.43,457.89,545.69,552.73A184.5,184.5,0,0,0,784.88,657c3.1-1.22,6.13-2.52,9.13-3.88C701.62,683.77,600.33,637.1,564.31,545.41Z" transform="translate(-443.45 -129.5)"/><path class="cls-8" d="M644.86,531.53a184.57,184.57,0,0,1,27.65-226.44,184.5,184.5,0,0,0-39.88,18.12c-87.14,52.81-115,166.26-62.17,253.41s166.27,115,253.41,62.16a184.55,184.55,0,0,0,34.52-27A184.58,184.58,0,0,1,644.86,531.53Z" transform="translate(-443.45 -129.5)"/><path class="cls-9" d="M487,364.09c50.77-84.42,158.4-113.59,244.4-68q-4.08-2.78-8.35-5.35c-87.32-52.51-200.68-24.3-253.19,63s-24.3,200.68,63,253.19c2.85,1.72,5.74,3.33,8.64,4.87C460.93,557.27,436.24,448.51,487,364.09Z" transform="translate(-443.45 -129.5)"/><path class="cls-10" d="M547.09,419.52c31.5-81,113.93-127.12,196.42-116a184.78,184.78,0,0,0-38.67-20.59C609.88,246,503,293,466,388s10.1,201.9,105.06,238.84a185.35,185.35,0,0,0,42.42,10.95C545.18,590.21,515.58,500.52,547.09,419.52Z" transform="translate(-443.45 -129.5)"/><path class="cls-11" d="M707.15,200.61c92.05,35.08,139.75,135.88,110,228.58,1.34-3,2.61-6.05,3.79-9.16a184.5,184.5,0,0,0-106.7-238.11c-95.21-36.29-201.82,11.48-238.11,106.7-1.18,3.11-2.26,6.23-3.27,9.36C512.41,209,615.1,165.53,707.15,200.61Z" transform="translate(-443.45 -129.5)"/><path class="cls-12" d="M663.19,269.52A184.57,184.57,0,0,1,812,442.4a184.83,184.83,0,0,0,13.45-41.69c19.61-100-45.56-196.95-145.55-216.56S483,229.71,463.38,329.7a184.28,184.28,0,0,0-3.3,43.68A184.57,184.57,0,0,1,663.19,269.52Z" transform="translate(-443.45 -129.5)"/></svg>