<?xml version="1.0" encoding="utf-8"?>
<!-- Generator: Adobe Illustrator 22.0.1, SVG Export Plug-In . SVG Version: 6.00 Build 0)  -->
<svg version="1.1" xmlns="http://www.w3.org/2000/svg" xmlns:xlink="http://www.w3.org/1999/xlink" x="0px" y="0px"
	 viewBox="0 0 1322.9 872.9" style="enable-background:new 0 0 1322.9 872.9;" xml:space="preserve">
<style type="text/css">
	.st0{opacity:0.8;}
	.st1{fill:#FF8282;}
	.st2{fill:#FF4D4D;}
	.st3{fill:#FF2929;}
	.st4{fill:#FF2222;}
	.st5{fill:#FF9595;}
	.st6{fill:#FF3939;}
	.st7{fill:#FF4040;}
	.st8{fill:#FF6E6E;}
	.st9{fill:#FF2A2A;}
	.st10{fill:#FF3030;}
	.st11{opacity:0.8;fill:#FF8282;}
	.st12{fill:#FF4545;}
	.st13{fill:#FF3434;}
	.st14{fill:#FF5050;}
	.st15{fill:#FF3636;}
	.st16{fill:#FF2E2E;}
	.st17{fill:#FF2626;}
	.st18{fill:#FF5959;}
	.st19{fill:#FF2727;}
	.st20{fill:#82FFFF;}
	.st21{fill:#4DFFFF;}
	.st22{fill:#29FFFF;}
	.st23{fill:#22FFFF;}
	.st24{fill:#95FFFF;}
	.st25{fill:#39FFFF;}
	.st26{fill:#40FFFF;}
	.st27{fill:#6EFFFF;}
	.st28{fill:#2AFFFF;}
	.st29{fill:#30FFFF;}
	.st30{opacity:0.8;fill:#82FFFF;}
	.st31{fill:#45FFFF;}
	.st32{fill:#34FFFF;}
	.st33{fill:#50FFFF;}
	.st34{fill:#36FFFF;}
	.st35{fill:#2EFFFF;}
	.st36{fill:#26FFFF;}
	.st37{fill:#59FFFF;}
	.st38{fill:#27FFFF;}
	.st39{fill:#BCA3BF;}
	.st40{fill:url(#SVGID_1_);}
	.st41{fill:url(#SVGID_2_);}
	.st42{fill:#727FAF;}
	.st43{fill:#313F7A;}
</style>
<g id="Layer_2">
	<g>
		<g>
			<g>
				<g class="st0">
					<path class="st1" d="M635.6,397.2c-4.9-39.5-8.5-80.9-11-124.1l-7.8-26.9l16.6,21.4c7.5,6.2,15.5,11.5,23.7,16.6
						c4.1,2.5,8.3,5.1,12.4,7.6c4.2,2.5,8.3,5.2,12.5,7.8c16.6,10.5,32.6,23.1,45.8,43.4c-7.5-3.4-16.2-3.6-24.6-3.3
						c-2.8,0.1-5.5,0.2-8.1,0.3c-5.2,0.2-10,0.1-13.8-1l2.2-3.7c-5.4,8.6-10.9,17-16.5,25.5l-17.1-1.6l17.1,1.6
						C656.7,372.9,646.2,385,635.6,397.2"/>
					<path class="st1" d="M1119.3,252l-0.8-0.8l2.5-10.1c6.9-6.5,13.7-13,20.2-20.2c3.3-3.6,6.5-7.3,9.6-11.3
						c3.1-4,6.1-8.3,8.9-12.9c14.6-17.8,31.1-28.2,49.5-31.5c3.7-0.7,7.5-1.1,11.3-1.3c-5.7,10.9-11.5,21.8-17.4,32.5
						c-0.8,0.1-1.5,0.2-2.2,0.3c-16.1,2.8-29.1,14.4-41.8,26.5c-3.2,3.1-6.4,6-9.5,8.9c-3.2,2.9-6.4,5.7-9.7,8.2
						C1133.2,245.6,1126.5,249.8,1119.3,252"/>
					<path class="st2" d="M1203.5,84.8c7.2-7.8,14.8-14.8,22.5-21.3c3.9-3.3,7.8-6.4,11.7-9.5c2-1.5,3.9-3.1,5.9-4.6l5.9-4.7
						l3.2,15.9c-2.3,1.2-4.6,2.8-6.9,4.4c-2.3,1.7-4.6,3.4-6.9,5.1c-4.7,3.4-9.6,6.4-14.9,7.5c-2.9,0.6-6,0.5-9.2-0.5l2.8,3.1
						L1203.5,84.8"/>
					<path class="st2" d="M1243.5,89.9l6.8-6.8l6.8-6.9l2.8,3.1l-8.2,5.4C1249,86.4,1246.3,88.2,1243.5,89.9"/>
					<polyline class="st2" points="1162.3,568 1156.7,563.4 1163.3,566.1 1162.3,568 					"/>
					<path class="st2" d="M1375.5,676.6c-3.5-2.3-7-4.6-10.4-7.1C1368.5,672,1372,674.3,1375.5,676.6"/>
					<polyline class="st2" points="1365.1,669.6 1363.8,669.8 1365.1,669.6 					"/>
					<polyline class="st2" points="1370.3,149 1362.9,141.5 1370.3,149 					"/>
					<polyline class="st2" points="1404.4,630.1 1401.2,627.1 1404.4,630.1 					"/>
					<polyline class="st2" points="899.2,186.1 885.2,165.9 899.2,186.1 					"/>
					<polyline class="st2" points="1156.7,563.4 1145,550.7 1156.7,563.4 					"/>
					<polyline class="st2" points="1347.6,113.6 1339,110 1346.1,112.1 1347.6,113.6 					"/>
					<polyline class="st2" points="1382.4,157.3 1370.3,149 1378,152.8 1382.4,157.3 					"/>
					<polyline class="st2" points="1300.2,109.4 1309.9,98.2 1312.3,99.5 1309.9,98.2 1312.3,99.5 1312.7,101.3 1300.2,109.4 					
						"/>
					<path class="st2" d="M1365.4,128l-17.8-14.4l-8.6-3.6l7.1,2.1c-17.3-12.7-35.1-23.2-52.7-28.9l-0.2,9.2l11.1,0.4
						c3.7,0.1,7.4,0.3,11.1,0.4c-1.8,1.7-3.7,3.3-5.5,4.9l2.5,1.3l4.6,0.8l-4.2,1l24.9,12.8l-11.2-10.4l13.3,9.9l-2.1,0.5l12.7,11.9
						L1365.4,128 M1339.8,113.5l2.1-0.5L1339.8,113.5"/>
					<polyline class="st3" points="1346.1,112.1 1339,110 1346.1,112.1 					"/>
					<polyline class="st3" points="1312.3,99.5 1309.9,98.2 1312.3,99.5 					"/>
					<path class="st2" d="M1399.3,156.9l-6.2-2.2l-8.7-3.4c-9.4-6.5-18.8-12.9-28.1-19.4l-5.9-6l15,2.1l16.9,14.6L1399.3,156.9"/>
					<polyline class="st2" points="1316.9,100.3 1312.7,101.3 1312.3,99.5 1316.9,100.3 					"/>
					<polyline class="st3" points="1316.9,100.3 1312.7,101.3 1316.9,100.3 					"/>
					<polyline class="st2" points="1401.8,158.2 1397.3,158 1393.1,154.8 1399.3,156.9 1401.8,158.2 					"/>
					<polyline class="st2" points="1398.6,159 1397.3,158 1398.6,159 					"/>
					<path class="st2" d="M1395.3,157.9c-4.3-0.2-8.6-0.3-12.9-0.6c2.1-0.5,4.3-1,6.4-1.5L1395.3,157.9"/>
					<polyline class="st3" points="1312.3,99.5 1309.9,98.2 1312.3,99.5 					"/>
					<polyline class="st2" points="1398.6,159 1395.3,157.9 1398.6,159 					"/>
					<polyline class="st2" points="1397.3,158 1395.3,157.9 1388.8,155.8 1384.4,151.3 1393.1,154.8 1384.4,151.3 1393.1,154.8 
						1397.3,158 					"/>
					<polyline class="st3" points="1398.6,159 1395.3,157.9 1397.3,158 1398.6,159 					"/>
					<polyline class="st3" points="1395.3,157.9 1388.8,155.8 1395.3,157.9 					"/>
					<polyline class="st3" points="1393.1,154.8 1384.4,151.3 1393.1,154.8 					"/>
					<path class="st2" d="M1388.8,155.8c-2.1,0.5-4.3,1-6.4,1.5l-4.5-4.5C1381.6,153.8,1385.2,154.9,1388.8,155.8"/>
					<polyline class="st3" points="1382.4,157.3 1378,152.8 1382.4,157.3 					"/>
					<path class="st3" d="M1388.8,155.8c-2.1,0.5-4.3,1-6.4,1.5C1384.5,156.8,1386.7,156.4,1388.8,155.8"/>
					<path class="st2" d="M1388.8,155.8c-3.6-0.9-7.3-2-10.9-3l-7.8-9.3l13.2,8.1l1.1-0.2L1388.8,155.8"/>
					<path class="st3" d="M1388.8,155.8c-3.6-0.9-7.3-2-10.9-3C1381.6,153.8,1385.2,154.9,1388.8,155.8"/>
					<polyline class="st3" points="1341.9,113 1339.8,113.5 1341.9,113 					"/>
					<polyline class="st2" points="1339.8,113.5 1337.7,114 1326.5,103.6 1339.8,113.5 					"/>
					<polyline class="st3" points="1339.8,113.5 1337.7,114 1339.8,113.5 					"/>
					<polyline class="st3" points="1337.7,114 1326.5,103.6 1337.7,114 					"/>
					<polyline class="st2" points="1356.2,131.9 1348.7,128.1 1350.4,125.9 1356.2,131.9 					"/>
					<path class="st2" d="M1384.4,151.3l-1.1,0.2c-9.1-6.5-18.1-13.1-27.1-19.7C1365.6,138.4,1374.9,144.9,1384.4,151.3"/>
					<polyline class="st3" points="1384.4,151.3 1383.3,151.6 1384.4,151.3 1383.3,151.6 1384.4,151.3 					"/>
					<polyline class="st4" points="1384.4,151.3 1383.3,151.6 1384.4,151.3 					"/>
					<polyline class="st2" points="1369.7,519.7 1348.3,505.8 1371.7,517.4 1369.7,519.7 					"/>
					<polyline class="st2" points="1362.9,528.5 1340.5,503.7 1366.9,524 1362.9,528.5 					"/>
					<path class="st2" d="M1360.9,585.9c-8.6,0.9-17,1.6-25.2,0.4c-8.2-1.2-16.4-4.2-24.5-10.9l24.3,2.7l-1.2,0.2l13.3,3.9
						C1352,583.5,1356.4,584.7,1360.9,585.9"/>
					<path class="st2" d="M1360.9,585.9c-4.4-1.2-8.9-2.4-13.3-3.7l-13.3-3.9l1.2-0.2l12.7,4
						C1352.4,583.4,1356.7,584.6,1360.9,585.9"/>
					<path class="st3" d="M1360.9,585.9c-4.4-1.2-8.9-2.4-13.3-3.7l-13.3-3.9l13.3,3.9C1352,583.5,1356.4,584.7,1360.9,585.9"/>
					<polyline class="st2" points="1358.5,531.2 1350.7,523.7 1362.9,528.5 1358.5,531.2 					"/>
					<path class="st2" d="M1405.7,513.9c-2.6-0.6-5.3-1.3-7.9-2C1400.5,512.6,1403.1,513.3,1405.7,513.9"/>
					<path class="st5" d="M1629.1,395.5l4.2-6.8l4-16.1c-15.6-6.8-31.1-13.6-46.9-12.8l6.5,5.6c-8.2,1.4-16.2-1-24.1-3.9
						c-2-0.7-3.9-1.5-5.8-2.2c-1.9-0.8-3.9-1.5-5.8-2.2c-3.8-1.4-7.6-2.4-11.4-2.8c6.2,3.9,12.7,7.1,19.2,10
						c6.5,2.8,13.2,5.4,19.9,8.1C1602.3,377.9,1615.9,384.3,1629.1,395.5"/>
					<polyline class="st2" points="1530.1,376.3 1525.1,375.8 1530.1,376.3 					"/>
					<polyline class="st2" points="1590.4,359.8 1583.1,360 1590.4,359.8 					"/>
					<polyline class="st2" points="1538.3,379.7 1530.1,376.3 1538.3,379.7 					"/>
					<polyline class="st2" points="1392.9,467 1385.1,464.9 1375.8,455.8 1392.2,463.5 1392.9,467 					"/>
					<polyline class="st2" points="1393.7,470.5 1385.1,464.9 1392.9,467 1393.7,470.5 					"/>
					<path class="st2" d="M1401.1,492.8c-2.5-1.9-5-3.8-7.4-5.8l-18.3-16.4l20.3,8.6L1401.1,492.8"/>
					<path class="st2" d="M1401.5,494.6l-7.8-7.5c2.5,1.9,5,3.9,7.4,5.8L1401.5,494.6"/>
					<path class="st2" d="M1403.8,499.6c-6.9-5.2-13.9-10.5-20.7-15.8l10.6,3.3l7.8,7.5L1403.8,499.6"/>
					<path class="st5" d="M1392.2,463.5l-16.3-7.6l9.3,9.1c-14-2.6-29.6-1.1-44.3-7.3c6.2-4.7,12.8-7.2,19.7-8.6
						c5.9-1.2,12-1.7,18-2l9.2-0.4c3-0.2,6.1-0.5,9.1-0.9L1392.2,463.5"/>
					<polyline class="st6" points="1392.2,463.5 1375.8,455.8 1392.2,463.5 					"/>
					<path class="st2" d="M1401.9,440.9c-4.9-1.6-9.9-2.9-14.9-4.2c-5-1.4-10-2.8-15-4.6c-9.9-3.7-19.5-9-28.2-19.1
						c1.2-0.4,2.5-0.8,3.7-1c11.9-2.5,23.6,2.9,35.5,8.3c11.8,5.2,23.8,10.4,35.9,7.6c0.6-0.1,1.3-0.3,1.9-0.5
						c-7.6-6.6-16.7-11.9-25.8-17.2c-4.5-2.7-9-5.3-13.4-8.1c-4.3-2.8-8.4-5.9-12.2-9.2c2.7,1.3,5.4,2.6,8,4c2.7,1.4,5.3,2.7,8,4.2
						c5.3,2.9,10.7,5.9,16,9.1c10.7,6.3,21.3,13.1,32.1,19.9L1401.9,440.9"/>
					<path class="st2" d="M1363,396c-10.4-9.5-20.8-18.9-31.1-28.4l11.7,4.9L1363,396"/>
					<polyline class="st2" points="1295.4,351.2 1291.7,350.1 1290.2,348.5 1295.4,351.2 					"/>
					<path class="st2" d="M1319.4,364.7l-6.8-4.1l-8.6-4.6l-8.6-4.8l-3.7-1.1l13.9,7.4L1319.4,364.7 M1312.7,360.6l-8.6-4.6
						l-8.6-4.8l8.6,4.8L1312.7,360.6"/>
					<path class="st2" d="M1343.6,372.5l-11.7-4.9l-19.2-7l-8.6-4.6l-8.6-4.8l-5.2-2.7l1.5,1.6c-9.2-8.6-18.3-17.3-27.3-25.9
						l25.8,0.6c4.1,4.7,8.5,9.1,12.9,13.1c4.4,4,8.9,7.9,13.4,11.6C1325.5,357,1334.7,364.3,1343.6,372.5"/>
					<polyline class="st3" points="1343.6,372.5 1331.9,367.6 1343.6,372.5 					"/>
					<polyline class="st3" points="1295.4,351.2 1290.2,348.5 1295.4,351.2 					"/>
					<polyline class="st3" points="1312.7,360.6 1304,356 1295.4,351.2 1304,356 1312.7,360.6 					"/>
					<polyline class="st3" points="1312.7,360.6 1304,356 1295.4,351.2 1304,356 1312.7,360.6 					"/>
					<path class="st2" d="M1281,313.7c-13.4-2.9-25.9-7.9-37.5-20.3l25.7-10.4l-1.3,11.2L1281,313.7"/>
					<polyline class="st2" points="1063.9,666.7 1051.1,653.8 1054.4,649.7 1063.9,666.7 					"/>
					<path class="st7" d="M724.4,710.5c-13.4-28.4-25.3-57.3-35.8-87.2c-5.3-14.9-10.3-30.2-14.9-45.7c-4.7-15.5-9.1-31.3-13.2-47.5
						l17.9,2.5c3,0.4,6,0.8,9,1.2l9,1.1c19.5,5.7,39.2,19.1,54.6,38.5c15.3,19.2,26.3,44.8,27.4,75.4c0.3,8.7-0.2,17.9-1.6,27.4
						c-4.6,1.6-9.2,3.7-13.7,6.2c-4.5,2.5-9,5.5-13.4,8.5C740.9,696.9,732.4,703.9,724.4,710.5"/>
					<path class="st2" d="M871.5,679.7l-5.5-6.9c8.2-7.8,8.1-25.7,22.7-28.6C887.7,662.4,879.5,670.1,871.5,679.7"/>
					<path class="st8" d="M825.6,704.3c-11.4-23.9-24.9-30.5-38.7-29.9c-3.4,0.2-6.8,0.7-10.1,1.6c1.4-9.5,1.9-18.7,1.6-27.4
						c-1.1-30.6-12.1-56.1-27.4-75.4c-15.4-19.4-35.1-32.8-54.6-38.5c14.8,1.1,29.7,2.1,44.5,2.8c7.4,0.4,14.8,0.5,22.2,0.6
						c7.4,0.1,14.8,0.1,22.2,0c9.9-0.1,19.8-0.4,29.6-0.9c14.3-0.9,28.6-2.3,42.8-4c7.1-0.9,14.2-1.9,21.3-3.1
						c7.1-1.3,14.1-2.7,21.2-4.2l-4.9-15.8c-6.9-1-13.8-1.2-20.7-1c-6.7,0-13.3,0.4-19.9,0.8c-2.1,0.1-4.1,0.3-6.1,0.4
						c-12.2,0.8-24.3,1.4-35.9-0.2c-11.6-1.8-22.9-5.9-33.4-14.2c7.7-4.3,15.6-7.6,23.6-9.9c2-0.6,4-1.1,6-1.5c2-0.5,4-0.9,6.1-1.3
						c4-0.7,8.1-1.2,12.2-1.5c10.8-0.7,21.8,0.2,32.7,2.6c4.1,0.9,8.2,2,12.3,3.3c4.1,1.3,8.2,2.7,12.3,4.4
						c8.2,3.3,16.3,7.3,24.4,12.1c8,4.8,16,10.3,23.8,16.5c3.9,3.1,7.8,6.4,11.6,9.8c3.8,3.4,7.6,6.9,11.3,10.6
						c10.6,9.8,25.5,13.7,40.3,15.8l-20.8-1.5l-0.8,16.4c10.5,11.6,21.1,23.2,31.7,34.8l-7.7-2.8l-27.8-8
						c-8.4-2.2-16.7-4.3-25.1-6.6c-5.2-1.7-10.3-2.2-15.3-1.8l0,0c-15.7,1.3-31,11.5-48,19.7l21.4,7.3c3.9,5.1,6,10.4,6.7,15.7
						c1.6,11.5-3.2,23.1-10.5,32.7c-3.7,4.8-8,9.1-12.4,12.7c-4.4,3.5-9,6.2-13.2,8l-2.7-3.4c8-9.6,16.2-17.2,17.3-35.5
						c-14.6,2.9-14.6,20.8-22.7,28.6l-6.4-21.2l-18.4-16.8c6.7-29.3-22.1-20.2-21.1-45.5c-5-2.6-10-5.5-15-8.2l-15-8.3l-14.4,27.7
						c11.6,13.9,23.6,28.2,33,44.8c4.7,8.3,8.7,17.3,11.6,27C823.4,682,825.2,692.6,825.6,704.3"/>
					<path class="st9" d="M778.4,648.7c-1.1-30.6-12.1-56.1-27.4-75.4c-15.4-19.4-35.1-32.8-54.6-38.5c19.5,5.7,39.2,19.1,54.6,38.5
						C766.3,592.6,777.2,618.1,778.4,648.7"/>
					<path class="st10" d="M866,672.8c8.2-7.8,8.1-25.7,22.7-28.6C874.2,647.1,874.2,665.1,866,672.8"/>
					<path class="st2" d="M1025.5,626l-9.7-9.7l-9.7-9.9l-7.7-2.8l-27.8-8l-0.9,3.7l24.5,12l-25.7,0.8c11,11.6,23.4,12.1,36,14.5
						C1011.6,626.3,1018.6,626.3,1025.5,626 M998.4,603.5l-27.8-8L998.4,603.5"/>
					<polyline class="st3" points="998.4,603.5 970.6,595.5 998.4,603.5 					"/>
					<polyline class="st2" points="868,683.5 866,672.8 871.5,679.7 868,683.5 					"/>
					<polyline class="st2" points="739.1,369.7 737.4,357.1 739.1,369.7 					"/>
					<path class="st11" d="M894.7,862.2c-18.7-24-23.2-53.9-24.2-85.2c-1-31.3,1.5-63.9-2.4-93.4l3.5-3.8l2.7,3.4
						c4.2-1.7,8.8-4.5,13.2-8c4.4-3.5,8.8-7.9,12.4-12.7c7.4-9.6,12.2-21.2,10.5-32.7c-0.8-5.3-2.9-10.6-6.7-15.7l-21.4-7.3
						c17-8.2,32.3-18.4,48-19.7c5-0.4,10.1,0.1,15.3,1.8c8.3,2.3,16.7,4.4,25.1,6.6l-0.9,3.7l-22.5-5c13.8,16.7,31,16.8,47.1,17
						l-25.7,0.8c11,11.6,23.4,12.1,36,14.5l-2.7,9.3c6.2,11.4,12.4,22.9,18.6,34.3c-10.4-7.4-20.8-14.8-31-22.2l-8.1,18.9
						c12.9,29.5,29.2,65.8,52.3,88.8c-14.9-12.9-28.5-30.1-42.9-44.9c-7.2-7.4-14.6-14.2-22.6-19.7c-4-2.7-8.1-5.1-12.3-7
						c-4.3-2-8.7-3.5-13.3-4.5l-1.1,16.4l-8.4-10.1c5.7,14.9,13.5,25.5,21.3,36.1c7.8,10.7,15.4,21.1,20.6,36l-12.7-13.2l-12.6-13.4
						c3,19.6,15.7,33,21,48.7c-5.3-5.7-9.7-13.7-13.8-22.5c-4.1-8.8-7.7-18.3-11.3-27.1c-7.3-17.5-14.6-31.9-25.4-31
						c-0.3,0-0.7,0.1-1,0.1c-0.5,0-1,0.1-1.5,0.1c-19.2,1.6-27.4,19.2-28.6,42.3c-0.5,11.6,0.7,24.6,3.4,37.8
						c2.7,13.2,6.8,26.4,11.8,38.5c-2.8-2.8-5.6-5.5-8.4-8.4C882.7,821.5,897.4,845.7,894.7,862.2"/>
					<path class="st12" d="M910.4,629.8c-0.8-5.3-2.9-10.6-6.7-15.7l-21.4-7.3l21.4,7.3C907.5,619.2,909.6,624.5,910.4,629.8"/>
					<path class="st12" d="M882.3,606.8c17-8.2,32.3-18.4,48-19.7C914.6,588.4,899.3,598.6,882.3,606.8"/>
					<polyline class="st13" points="994.3,611.2 968.6,612 994.3,611.2 					"/>
					<polyline class="st13" points="969.8,599.2 970.6,595.5 969.8,599.2 					"/>
					<path class="st11" d="M1036.3,559.4l4.4-4.1l4.7-11.4l-7.6-2.7l7.6,2.7l-0.5-14.4l-19-17.7l10.1,4.2l-16.5-18l19.2,10.4
						l-1.1-8.9l-6.7-6.4c-7.5-2.7-15.1-3.6-22.5-5c-1.9-0.3-3.7-0.7-5.6-1.2c-1.9-0.5-3.7-1-5.5-1.6c-3.7-1.3-7.3-2.9-10.8-5.3
						c5.8-2.9,11.7-4.3,17.8-5c12.8-1.5,26.2,0.6,39.9,0.2l4.3-4.1c-9.5-4.3-19.3-7.2-28.7-11.8c-4.7-2.3-9.3-5-13.7-8.4
						c-4.4-3.5-8.5-7.7-12.4-13.2c1.3-0.3,2.5-0.5,3.7-0.6c12-1.4,23,5,34.2,11.5c11.2,6.4,22.5,12.9,34.8,11.4
						c0.6-0.1,1.3-0.2,1.9-0.3c-3.4-3.6-7.3-7-11.3-10.3c-4-3.3-8.3-6.4-12.5-9.5c-8.4-6.2-16.8-12.5-23.5-19.9
						c10.1,6.1,20,13,30,20.5c5,3.7,9.9,7.6,14.9,11.4c5,3.9,9.9,7.7,14.9,11.5l2.3-0.3c12.2,2,23.8,4.5,35.3,7
						c2.9,0.6,5.7,1.3,8.5,1.9c1.4,0.3,2.8,0.6,4.2,0.9c1.4,0.3,2.8,0.6,4.2,0.9c5.6,1.1,11.2,2.2,16.7,3.2l-15.2-9.5l-7.6-4.7
						l-7.6-4.9l7.6,4.9l7.6,4.7l15.2,9.5c9,2.2,18,4.5,26.8,6.8c4.4,1.2,8.9,2.4,13.3,3.6c2.2,0.6,4.4,1.3,6.6,1.9
						c2.2,0.6,4.4,1.2,6.6,1.8c17.6,4.9,35.3,10.6,53.7,17.4c-10.7-9.7-21.3-19.4-31.9-29.2c13.3-20.6,33-18.4,46.8-28.5
						c-6.7-1.9-13.2-4.4-19.7-7.2c-6.5-2.8-12.8-5.9-19.1-8.8c-12.5-5.8-24.8-11-36.9-12.6c12.1,1.5,24.3,6.7,36.9,12.6
						c6.3,2.9,12.6,6,19.1,8.8c6.5,2.8,13,5.3,19.7,7.2l4.3-2.7c-25-24.3-52.4-30.8-75.5-48.6c14.7,2.9,29,16.9,45.5,15.9l-5.9-6.3
						l-7.2-0.6l7.2,0.6c7.8,0.5,15.4,2.7,22.8,5.8c7.4,3.2,14.8,7.2,22.2,11.3c9.5-25.7,20.9-51.5,36.4-56.8l8-1.7l-19.2-7l6.8,4.1
						l-13.9-7.2l-13.9-7.4c-9.2-8.6-18.3-17.3-27.3-25.9l25.8,0.6l-9.2-11.1c-13.4-2.9-25.9-7.9-37.5-20.3l25.7-10.4l11-25.9
						l-8.2-29.6c-14-21.5-31.6-32.6-49.6-29.1c-1.1,0.2-2.1,0.5-3.2,0.8l6,26.3l-8.7-16.7c-2.1,7.1-4.2,14.1-6.3,21.2l-10.5-1.9
						c-2.6,16.9-9,22.6-16.7,23.9c-7.7,1.3-16.7-1.6-24.7-2.1c2.7,2.6,5.4,5.2,8.1,7.8c-0.8,6-2.1,10.1-3.8,12.8
						c-1.7,2.7-3.7,3.9-6,4.3c-6.7,1-15.2-6.2-21.7-8.5l-15.7-14.3c-0.4,0.1-0.8,0.4-1.1,0.5l0.3-1.3l-0.6-0.5l-19.5-2.4l-11.4-9.3
						l-6.8-8.2l6.8,8.2l7.4,4.4l-7-9.9c4.1,2.5,8.2,5,12.3,7.4c-8.4-6.6-16.9-13.4-25.2-20.1l-8.4-4.3l1.9-2.1l-11.7-12.9
						l-23.1-16.8c-4.4,2.5-8.9,4.7-13.4,7.1c3.7-2.9,7.3-5.7,11-8.6l6-4.5c-7.4-0.7-14.8-1.7-22.2-2.7l0-9.1
						c-9.3-4.3-20.4-6.6-31.3-7.2l-1.1,0.1l-8.7,4.7c-2.9,1.6-5.8,3.1-8.7,4.6c2.5-2,5-4.1,7.5-6.3l7.4-6.3l-2.9-16
						c-5,1.3-10,4.8-15.2,7.8c-5.1,3.1-10.4,6-16,6.6c-2.7,0.3-5.5,0-8.4-1.1l2.5,3.4l-15.9,3.4c-4.2,4-8.3,8.1-12.4,12.4
						c-4.1,4.3-8.1,8.6-12.1,13.1l8.5,12.2l-8.5-12.2c-14.3,16.1-27.7,34.3-39.8,54.8c-3,5.2-6,10.3-8.8,15.7
						c-2.8,5.4-5.6,10.9-8.3,16.5c-5.3,11.3-10.2,23.3-14.7,35.9c7.5-5.9,14.9-11.8,22-18.3c3.5-3.3,7-6.7,10.3-10.4
						c3.3-3.7,6.5-7.7,9.5-12.1c9.3-8.9,18.8-15.6,28.4-20.3c4.8-2.4,9.7-4.2,14.7-5.6c2.5-0.7,5-1.3,7.5-1.8
						c2.5-0.5,5.1-0.9,7.6-1.1c2.3-0.2,4.5-0.4,6.8-0.4l-10.2,15.5c-3.4,5.2-6.8,10.4-10.3,15.4l1.1-0.1l-4.6,11.2l3.5-11.1
						c-17.7,1.5-32.4,12.6-46.8,24c-7.2,5.7-14.3,11.3-21.7,15.7c-7.4,4.5-15,7.8-23.1,8.7l5-9.4c-9.2,6-18.4,12-27.6,18l-27.9,17.5
						c-6.4,15.9-12.9,31.9-19.5,47.8l18.5,2.7l-9.9,9.5c-1.4,3.2-7.1,8.4-7.5,12.9c-0.5,5.8,7.8,10.5,45.6,8.7
						c6.5-1.5,13-3.1,19.4-4.8c-2.6,2-5.2,4-7.8,6c-2.6,2.1-5.1,4.1-7.6,6.2c-5,4.2-9.8,8.7-14.4,13.5c-9.3,9.7-17.8,20.9-25.5,34.8
						l16,13.7c7.7-4.3,15.6-7.6,23.6-9.9c2-0.6,4-1.1,6-1.5c2-0.5,4-0.9,6.1-1.3c4-0.7,8.1-1.2,12.2-1.5c10.8-0.7,21.8,0.2,32.7,2.6
						c4.1,0.9,8.2,2,12.3,3.3c4.1,1.3,8.2,2.7,12.3,4.4c8.2,3.3,16.3,7.3,24.4,12.1c8,4.8,16,10.3,23.8,16.5
						c3.9,3.1,7.8,6.4,11.6,9.8c3.8,3.4,7.6,6.9,11.3,10.6c10.6,9.8,25.5,13.7,40.3,15.8l2.4-0.2l-8.1-8.2l11.5,6.1l-19.8-27
						l24.2,22.9l3.2-4l-19.9-16.1c7.3,4.7,14.7,9.4,22,14l4-7.7L1036.3,559.4 M1189.1,423.6c19.4,9.4,38.1,28.1,61.6,31.3
						C1227.3,451.7,1208.5,433,1189.1,423.6l-7.8-4.2l-4.9-1.1l4.9,1.1L1189.1,423.6l-0.3,5.5l-19.4-2.5l19.4,2.5L1189.1,423.6
						 M1093.9,445.1c8.3-0.2,15.9,6,23.5,12.2c3.8,3.1,7.6,6.2,11.4,8.6c3.8,2.3,7.6,3.7,11.5,3.6c-3.9,0.1-7.7-1.3-11.5-3.6
						c-3.8-2.3-7.6-5.4-11.4-8.6C1109.8,451.1,1102.2,444.9,1093.9,445.1 M1079.9,447l-1.2,0.2l-12.1-2l12.1,2L1079.9,447
						c14.9,5.2,27.4,18.1,42.2,21.5C1107.3,465,1094.8,452.2,1079.9,447 M1177.8,434.5l-6.1,6.4L1177.8,434.5 M847.5,401.7
						l-28.8,19.9L847.5,401.7 M847.5,401.7l-28.8,19.9L847.5,401.7 M847.5,401.7l4.5-2.1l4.3-3.9l4.5-2.1l4.1-3.7
						c0.1-0.1,0.3-0.2,0.4-0.3c1.4-0.6,2.8-1.4,4.2-2l4.3-4l4.4-2.2l4.3-4l4.3-4l3.3-2.1l4.3-4l4.3-4l4.2-4l3.1-3.9l4.2-4l2.9-5.7
						c-17,6.2-30.9,20.3-44.7,35l-1.5,1.4l-1.1,1.4c-1.7,1.7-3.4,3.5-5.1,5.2l-1.2,1.1L855,394l-2.4,2.8
						C850.9,398.4,849.2,400.1,847.5,401.7 M771,395.2c2,0.2,4,0.2,6.1,0.1c1.4-0.1,2.8-0.4,4.2-0.6l4.6-0.2l4.5-2l5.6-2.1l2.6-2.3
						c2.4-1.5,4.8-3.3,7.2-5.4l0.1-0.1l4.4-3.9l-4.4,3.9l4.4-3.9l-4.4,3.9l0,0c1.5-1.3,2.9-2.4,4.4-3.9c-1.7,1.9-3.7,3.3-5.7,4.5
						c-1,0.5-2.1,1-3.2,1.4l-5.6,2.1l-1.8,0.8c-1.7,0.5-3.5,0.9-5.3,1.3l-3.1,0.1l-3.2,1.4C778.5,391.7,774.6,393,771,395.2
						 M1225.2,225.4l1,5.3l5.4,4.5L1225.2,225.4"/>
					<path class="st1" d="M847.5,401.7c5.8-3.9,11.6-7.8,17.4-11.8l-4.1,3.7l-4.5,2.1l-4.3,3.9L847.5,401.7"/>
					<path class="st1" d="M852.6,396.8l2.4-2.8l4.3-3.9l1.2-1.1C857.9,391.6,855.3,394.2,852.6,396.8"/>
					<path class="st1" d="M865.3,389.6c17.3-12.1,34.2-25,47.8-43.6l-2.9,5.7l-4.2,4l-3.1,3.9l-4.2,4l-4.3,4l-4.3,4l-3.3,2.1l-4.3,4
						l-4.3,4l-4.4,2.2l-4.3,4C868.1,388.2,866.7,388.9,865.3,389.6"/>
					<path class="st1" d="M865.7,383.7l1.1-1.4l1.5-1.4C867.4,381.9,866.6,382.8,865.7,383.7"/>
					<path class="st14" d="M1118.1,252.5l0.3-1.3l0.8,0.8C1118.9,252.1,1118.5,252.4,1118.1,252.5"/>
					<polyline class="st13" points="907.6,198.3 899.2,186.1 907.6,198.3 					"/>
					<polyline class="st13" points="1319.4,364.7 1312.7,360.6 1319.4,364.7 					"/>
					<polyline class="st13" points="1290.2,324.7 1264.4,324.2 1290.2,324.7 					"/>
					<polyline class="st13" points="1243.5,293.3 1269.2,282.9 1243.5,293.3 					"/>
					<polyline class="st15" points="847.5,401.7 851.9,399.6 856.3,395.7 860.7,393.6 864.8,389.9 860.7,393.6 856.3,395.7 
						851.9,399.6 847.5,401.7 					"/>
					<polyline class="st15" points="852.6,396.8 855,394 859.3,390.1 860.5,389 859.3,390.1 855,394 852.6,396.8 					"/>
					<path class="st15" d="M865.3,389.6c1.4-0.6,2.8-1.4,4.2-2l4.3-4l4.4-2.2l4.3-4l4.3-4l3.3-2.1l4.3-4l4.3-4l4.2-4l3.1-3.9l4.2-4
						l2.9-5.7l-2.9,5.7l-4.2,4l-3.1,3.9l-4.2,4l-4.3,4l-4.3,4l-3.3,2.1l-4.3,4l-4.3,4l-4.4,2.2l-4.3,4
						C868.1,388.2,866.7,388.9,865.3,389.6"/>
					<polyline class="st15" points="865.7,383.7 866.8,382.4 868.3,381 866.8,382.4 865.7,383.7 					"/>
					<polyline class="st15" points="818.6,421.6 847.5,401.7 818.6,421.6 					"/>
					<polyline class="st15" points="818.6,421.6 847.5,401.7 818.6,421.6 					"/>
					<path class="st12" d="M995.9,556.7c-14.8-2.1-29.7-6-40.3-15.8c-3.7-3.7-7.5-7.2-11.3-10.6c-3.8-3.4-7.7-6.7-11.6-9.8
						c-7.8-6.2-15.8-11.7-23.8-16.5c-8-4.8-16.2-8.9-24.4-12.1c-4.1-1.7-8.2-3.1-12.3-4.4c-4.1-1.3-8.2-2.4-12.3-3.3
						c4.1,0.9,8.2,2,12.3,3.3c4.1,1.3,8.2,2.7,12.3,4.4c8.2,3.3,16.3,7.3,24.4,12.1c8,4.8,16,10.3,23.8,16.5
						c3.9,3.1,7.8,6.4,11.6,9.8c3.8,3.4,7.6,6.9,11.3,10.6C966.2,550.7,981.1,554.6,995.9,556.7"/>
					<path class="st12" d="M779.3,495.8c7.7-4.3,15.6-7.6,23.6-9.9c2-0.6,4-1.1,6-1.5c2-0.5,4-0.9,6.1-1.3c4-0.7,8.1-1.2,12.2-1.5
						c-4.1,0.3-8.2,0.8-12.2,1.5c-2,0.4-4,0.8-6.1,1.3c-2,0.5-4,1-6,1.5C794.9,488.2,787,491.4,779.3,495.8"/>
					<path class="st1" d="M786,394.5l-4.6,0.2c5.7-0.9,11.6-3,17.4-6.6l-2.6,2.3l-5.6,2.1L786,394.5"/>
					<path class="st1" d="M782.5,390.6l3.2-1.4l3.1-0.1C786.7,389.5,784.6,390,782.5,390.6"/>
					<path class="st1" d="M794.1,387.6l1.8-0.8l5.6-2.1c1.1-0.5,2.1-0.9,3.2-1.4C801.4,385.3,797.8,386.6,794.1,387.6"/>
					<path class="st1" d="M805.9,382.8C805.9,382.8,805.9,382.8,805.9,382.8L805.9,382.8L805.9,382.8"/>
					<polyline class="st2" points="742.5,371.4 744.7,369.5 742.5,371.4 					"/>
					<path class="st7" d="M752.5,392.5c-3.6-0.7-7.2-1.7-10.8-2.8c-3.6-1.2-7.2-2.5-10.8-4c-7.2-2.9-14.3-6.2-21.4-9.5
						c-7.1-3.3-14.2-6.5-21.2-9.2c-3.5-1.4-7.1-2.5-10.6-3.6c-3.5-1.1-7.1-2-10.7-2.6c5.5-8.5,11-16.9,16.5-25.5l-2.2,3.7
						c3.8,1.1,8.6,1.2,13.8,1c2.6-0.1,5.3-0.2,8.1-0.3c8.3-0.2,17.1-0.1,24.6,3.3l9.6,14.1l0.1,1.8l1.5,10.8l-6.5,11
						c3.3-3.1,6.6-6.2,9.9-9.3l2.2-1.9l27.3-24.7C765.7,360.6,759.2,376.6,752.5,392.5"/>
					<path class="st16" d="M695.2,340c-5.2,0.2-10,0.1-13.8-1C685.2,340.1,690,340.1,695.2,340c2.6-0.1,5.3-0.2,8.1-0.3
						C700.5,339.8,697.8,339.9,695.2,340"/>
					<polyline class="st16" points="681.4,339 683.6,335.3 681.4,339 					"/>
					<polyline class="st17" points="739.1,369.7 737.5,358.9 737.4,357.1 739.1,369.7 					"/>
					<path class="st16" d="M752.5,392.5c6.6-15.9,13.1-31.9,19.5-47.8C765.7,360.6,759.2,376.6,752.5,392.5"/>
					<path class="st7" d="M752.3,508.8c-2.2,0.1-4.5,0-6.9-0.2c-2.4-0.3-4.8-0.7-7.2-1.3c-4.9-1.2-10-2.9-15.2-4.9
						c-10.3-4-20.7-9.4-30.2-14.3c7.2-18.2,17.3-34.3,28-49.7c10.7-15.4,22-30,31.7-45.9l18.5,2.7l-9.9,9.5
						c-1.4,3.2-7.1,8.4-7.5,12.9c-0.5,5.8,7.8,10.5,45.6,8.7c6.5-1.5,13-3.1,19.4-4.8c-2.6,2-5.2,4-7.8,6c-2.6,2.1-5.1,4.1-7.6,6.2
						c-5,4.2-9.8,8.7-14.4,13.5c-9.3,9.7-17.8,20.9-25.5,34.8l16,13.7l-9.2,5.8c-3.6,3.6-7.9,5.7-12.8,6.6
						C755.7,508.5,754.1,508.8,752.3,508.8"/>
					<path class="st16" d="M763.3,482.1c7.6-13.9,16.2-25.1,25.5-34.8c4.6-4.8,9.5-9.3,14.4-13.5c2.5-2.1,5-4.2,7.6-6.2
						c2.6-2,5.2-4,7.8-6c-2.6,2-5.2,4-7.8,6c-2.6,2.1-5.1,4.1-7.6,6.2c-5,4.2-9.8,8.7-14.4,13.5C779.5,457,771,468.2,763.3,482.1"/>
					<path class="st16" d="M753.6,417.6c0.4-4.5,6.1-9.6,7.5-12.9l9.9-9.5l-9.9,9.5C759.7,407.9,754,413.1,753.6,417.6"/>
					<path class="st18" d="M815,537.2c-9.9,0.6-19.7,0.8-29.6,0.9c-7.4,0.1-14.8,0.1-22.2,0c-7.4-0.1-14.8-0.1-22.2-0.6
						c-14.8-0.7-29.7-1.6-44.5-2.8c-4.5-1.9-9-3.3-13.5-4.2c-4.5-0.9-9-1.4-13.4-1.4c-3,0-6,0.3-8.9,0.8
						c-10.2-43.1-18.8-86.2-24.9-132.9c10.6-12.1,21.1-24.3,31.5-36.4c3.6,0.6,7.1,1.5,10.7,2.6c3.5,1.1,7.1,2.2,10.6,3.6
						c7.1,2.7,14.1,5.9,21.2,9.2c7.1,3.3,14.2,6.6,21.4,9.5c3.6,1.5,7.2,2.8,10.8,4c3.6,1.1,7.2,2.1,10.8,2.8
						c-9.7,15.9-21,30.5-31.7,45.9c-10.7,15.4-20.8,31.5-28,49.7c9.4,4.9,19.9,10.3,30.2,14.3c5.1,2,10.3,3.7,15.2,4.9
						c2.5,0.6,4.9,1,7.2,1.3c2.4,0.3,4.7,0.3,6.9,0.2l0,0c1.7-0.1,3.4-0.3,5-0.6c4.9-0.9,9.2-3.1,12.8-6.6l9.2-5.8
						c10.6,8.4,21.8,12.5,33.4,14.2c11.6,1.7,23.7,1,35.9,0.2c2-0.1,4.1-0.3,6.1-0.4c6.6-0.4,13.2-0.8,19.9-0.8
						c6.9-0.1,13.7,0.1,20.7,1l4.9,15.8c-7,1.5-14.1,2.9-21.2,4.2c-7.1,1.2-14.2,2.2-21.3,3.1C843.5,534.9,829.3,536.3,815,537.2"/>
					<path class="st13" d="M815,537.2c14.3-0.9,28.6-2.2,42.8-4c7.1-0.9,14.2-1.9,21.3-3.1c7.1-1.3,14.1-2.7,21.2-4.2
						c-7,1.5-14.1,2.9-21.2,4.2c-7.1,1.2-14.2,2.2-21.3,3.1C843.5,534.9,829.3,536.3,815,537.2"/>
					<path class="st13" d="M785.3,538.1c-7.4,0.1-14.8,0.1-22.2,0c-7.4-0.1-14.8-0.1-22.2-0.6c-14.8-0.7-29.7-1.6-44.5-2.8
						c14.8,1.1,29.7,2.1,44.5,2.8c7.4,0.4,14.8,0.5,22.2,0.6C770.5,538.2,777.9,538.2,785.3,538.1"/>
					<path class="st13" d="M874.7,509c-6.7,0-13.3,0.4-19.9,0.8c-2,0.1-4.1,0.3-6.1,0.4c-12.2,0.8-24.3,1.4-35.9-0.2
						c11.6,1.7,23.7,1,35.9,0.2c2-0.1,4.1-0.3,6.1-0.4C861.4,509.4,868,509,874.7,509"/>
					<path class="st19" d="M752.3,508.8L752.3,508.8c1.7-0.1,3.4-0.3,5-0.6C755.7,508.5,754.1,508.8,752.3,508.8"/>
					<path class="st19" d="M692.9,488.1c7.2-18.2,17.3-34.3,28-49.7c10.7-15.4,22-30,31.7-45.9c-9.7,15.9-21,30.5-31.7,45.9
						C710.2,453.8,700.1,469.9,692.9,488.1"/>
					<path class="st2" d="M696.4,534.8l-9-1.1c-3-0.4-6-0.7-9-1.2l-17.9-2.5c3-0.5,5.9-0.7,8.9-0.8c4.5-0.1,8.9,0.4,13.4,1.4
						C687.3,531.5,691.8,532.9,696.4,534.8"/>
					<path class="st17" d="M696.4,534.8l-9-1.1c-3-0.4-6-0.7-9-1.2l-17.9-2.5l17.9,2.5c3,0.4,6,0.8,9,1.2L696.4,534.8"/>
				</g>
			</g>
		</g>
	</g>
	<g>
		<g>
			<g>
				<g class="st0">
					<path class="st20" d="M544.2,643.7C521,676,495.9,709,468.8,742.6l-13,24.4l4-25.2c-1-17.5-5.6-33.5-8.7-50.7
						c-3.1-17-4.6-35.3,0.9-57.8c2.3,6.7,7.5,11.6,12.8,16.1c1.7,1.5,3.5,2.9,5.1,4.3c3.3,2.8,6.2,5.4,7.7,8.4l-3.8,1.5
						c9-3.4,18-6.7,27-10l9.4,10.5l-9.4-10.5C515.2,650.3,529.7,647,544.2,643.7"/>
					<path class="st20" d="M158,478.4l0,1.1l-8.1,6.1c-8.3,0.8-16.6,1.7-25.2,3.2c-8.6,1.5-17.4,3.6-26.8,7.1
						c-20.3,4.6-36.7,2.6-49.7-5.9c-2.6-1.7-5.1-3.6-7.4-5.8c10.5-4.7,21.1-9.3,31.6-13.8c0.5,0.4,1,0.7,1.5,1.1
						c11.2,7.4,26.4,6.5,41.9,5.1C131.1,475.1,146.5,473.3,158,478.4"/>
					<path class="st21" d="M-1.9,553.1c-9.3,1.5-18.3,2.1-27.1,2.3c-4.4,0.1-8.8,0.1-13.1,0.1c-4.3-0.1-8.7-0.1-13-0.2l8.6-13.7
						c2.1,0.5,4.5,0.7,6.9,0.8c2.4,0.1,4.9,0.2,7.4,0.4c5,0.3,9.8,0.9,13.5,3.3c2.1,1.3,3.8,3.2,5,5.8l0.5-4L-1.9,553.1"/>
					<path class="st21" d="M-21.6,525.3l-8.4,1l-8.5,1.1l0.4-4C-32.6,524-27.1,524.6-21.6,525.3"/>
					<polyline class="st21" points="342.1,218 342.3,224.8 340.3,219 342.1,218 					"/>
					<polyline class="st21" points="290.5,11.4 291.9,22.9 290.5,11.4 					"/>
					<polyline class="st21" points="291.9,22.9 292.7,23.4 291.9,22.9 					"/>
					<polyline class="st21" points="-55.3,405.2 -56.1,415.2 -55.3,405.2 					"/>
					<polyline class="st21" points="243.2,28.6 243.1,32.7 243.2,28.6 					"/>
					<polyline class="st21" points="244.5,654.6 239.4,677.6 244.5,654.6 					"/>
					<polyline class="st21" points="342.3,224.8 340.7,241.1 342.3,224.8 					"/>
					<polyline class="st21" points="-65.8,445.1 -63.2,453 -65.9,447.1 -65.8,445.1 					"/>
					<polyline class="st21" points="-56.8,391.7 -55.3,405.2 -57.2,397.7 -56.8,391.7 					"/>
					<polyline class="st21" points="-41.4,476.9 -54.4,479.4 -54.9,476.9 -54.4,479.4 -54.9,476.9 -54,475.4 -41.4,476.9 					"/>
					<path class="st21" d="M-66.4,423.7l0.7,21.4l2.5,7.8l-2.7-5.8c1.5,19.9,4.7,38.5,11.1,53.2l6.2-6.7c-4.1-4.6-8.1-9.3-12.2-13.9
						c2.1-0.1,4.3-0.2,6.4-0.3l-0.6-2.5l-2.1-3.4l3,1.8l-5.8-24.6l-0.5,14.4l-1.1-15.4l1.5,0.9l0.6-16.5L-66.4,423.7 M-61.3,449.9
						l-1.5-0.9L-61.3,449.9"/>
					<polyline class="st22" points="-65.9,447.1 -63.2,453 -65.9,447.1 					"/>
					<polyline class="st22" points="-54.9,476.9 -54.4,479.4 -54.9,476.9 					"/>
					<polyline class="st21" points="-66.6,381.7 -64.6,387.1 -61.8,394.9 -58.6,426.3 -59.2,434.3 -66.4,423.7 -66.4,402.6 
						-66.6,381.7 					"/>
					<polyline class="st21" points="-57,473.5 -54,475.4 -54.9,476.9 -57,473.5 					"/>
					<polyline class="st22" points="-57,473.5 -54,475.4 -57,473.5 					"/>
					<polyline class="st21" points="-67.3,379.2 -64.8,382.1 -64.6,387.1 -66.6,381.7 -67.3,379.2 					"/>
					<polyline class="st21" points="-64.9,380.6 -64.8,382.1 -64.9,380.6 					"/>
					<path class="st21" d="M-63.8,383.4c2.3,2.8,4.7,5.5,7,8.3c-1.6-0.9-3.1-1.9-4.7-2.8L-63.8,383.4"/>
					<polyline class="st22" points="-54.9,476.9 -54.4,479.4 -54.9,476.9 					"/>
					<polyline class="st21" points="-64.9,380.6 -63.8,383.4 -64.9,380.6 					"/>
					<polyline class="st21" points="-64.8,382.1 -63.8,383.4 -61.4,388.9 -61.8,394.9 -64.6,387.1 -61.8,394.9 -64.6,387.1 
						-64.8,382.1 					"/>
					<polyline class="st22" points="-64.9,380.6 -63.8,383.4 -64.8,382.1 -64.9,380.6 					"/>
					<polyline class="st22" points="-63.8,383.4 -61.4,388.9 -63.8,383.4 					"/>
					<polyline class="st22" points="-64.6,387.1 -61.8,394.9 -64.6,387.1 					"/>
					<path class="st21" d="M-61.4,388.9c1.6,0.9,3.1,1.8,4.7,2.8l-0.4,6C-58.6,394.8-60,391.8-61.4,388.9"/>
					<polyline class="st22" points="-56.8,391.7 -57.2,397.7 -56.8,391.7 					"/>
					<path class="st22" d="M-61.4,388.9c1.6,0.9,3.1,1.8,4.7,2.8C-58.3,390.7-59.9,389.8-61.4,388.9"/>
					<path class="st21" d="M-61.4,388.9c1.4,2.9,2.8,5.9,4.2,8.8l-1.7,11.6l-2.2-13.9l-0.8-0.5L-61.4,388.9"/>
					<path class="st22" d="M-61.4,388.9c1.4,2.9,2.8,5.9,4.2,8.8C-58.6,394.8-60,391.8-61.4,388.9"/>
					<polyline class="st22" points="-62.9,449 -61.3,449.9 -62.9,449 					"/>
					<polyline class="st21" points="-61.3,449.9 -59.8,450.8 -60.3,465.3 -61.3,449.9 					"/>
					<polyline class="st22" points="-61.3,449.9 -59.8,450.8 -61.3,449.9 					"/>
					<polyline class="st22" points="-59.8,450.8 -60.3,465.3 -59.8,450.8 					"/>
					<polyline class="st21" points="-58.6,426.3 -56.8,433.7 -59.2,434.3 -58.6,426.3 					"/>
					<polyline class="st21" points="-61.8,394.9 -61.1,395.4 -58.6,426.3 -61.8,394.9 					"/>
					<polyline class="st22" points="-61.8,394.9 -61.1,395.4 -61.8,394.9 -61.1,395.4 -61.8,394.9 					"/>
					<polyline class="st23" points="-61.8,394.9 -61.1,395.4 -61.8,394.9 					"/>
					<polyline class="st21" points="190.1,131.2 193.2,154.3 187.4,131.7 190.1,131.2 					"/>
					<polyline class="st21" points="199.8,128.8 196.3,160.5 194.5,129.7 199.8,128.8 					"/>
					<path class="st21" d="M238.9,87.4c5.6,4.5,10.8,9,14.8,14.7c4,5.8,6.7,12.8,6.9,22.7l-12.3-16.4l0.9,0.5
						C245.8,101.7,242.4,94.5,238.9,87.4"/>
					<path class="st21" d="M238.9,87.4c3.5,7.1,6.9,14.3,10.3,21.5l-0.9-0.5l-4.7-10.5C242.1,94.3,240.5,90.9,238.9,87.4"/>
					<path class="st22" d="M238.9,87.4c3.5,7.1,6.9,14.3,10.3,21.5C245.8,101.7,242.4,94.5,238.9,87.4"/>
					<polyline class="st21" points="204.2,129.4 203.6,139.6 199.8,128.8 204.2,129.4 					"/>
					<path class="st21" d="M165.6,113.8c1.1,2,2.1,4.1,3.2,6.2C167.8,118,166.7,115.9,165.6,113.8"/>
					<path class="st24" d="M-39,64.4l-6.9,2.4l-12.8,9.4c4.3,14.7,8.5,29.3,17.9,38.5l0.1-8.2c11.1,8.1,11.8,26.9,19.2,37.4
						c-0.9-6.7-2.5-13-4.3-19.2c-1.8-6.1-3.9-12.1-5.8-18.3C-35.6,94-39,80.8-39,64.4"/>
					<polyline class="st21" points="4,139.8 6.5,143.2 4,139.8 					"/>
					<polyline class="st21" points="-40.9,114.7 -36.6,119.1 -40.9,114.7 					"/>
					<polyline class="st21" points="1.6,132.2 4,139.8 1.6,132.2 					"/>
					<polyline class="st21" points="141.9,156.3 145,162.5 144.4,174.8 140,159.4 141.9,156.3 					"/>
					<polyline class="st21" points="143.8,153.2 145,162.5 141.9,156.3 143.8,153.2 					"/>
					<polyline class="st21" points="154.3,132.3 154.8,141 154.4,164.1 148.5,145.6 154.3,132.3 					"/>
					<polyline class="st21" points="155.3,130.7 154.8,141 154.3,132.3 155.3,130.7 					"/>
					<path class="st21" d="M157.2,125.6c0.5,8,1,16.1,1.4,24.2l-3.9-8.8l0.5-10.3L157.2,125.6"/>
					<path class="st24" d="M140,159.4l4.3,15.4l0.7-12.3c6.3,10.3,16.2,18.6,20.6,32c-6.6-0.3-12.1-2.4-17-5.4
						c-4.2-2.6-8-5.9-11.7-9.4c-3.7-3.4-7.3-7-11.3-10L140,159.4"/>
					<polyline class="st25" points="140,159.4 144.4,174.8 140,159.4 					"/>
					<path class="st21" d="M119.6,170.2c1.7,4.2,3.7,8.2,5.7,12.2c2,4,3.9,8.1,5.5,12.4c3.2,8.7,5.2,18.4,3.6,31.1
						c-1-0.4-1.9-0.9-2.8-1.5c-8.5-5.3-11.6-16.4-14.9-27.5c-3.3-11-6.7-22.1-15.5-27.4c-0.5-0.3-0.9-0.6-1.4-0.8
						c0,9.5,1.7,18.9,3.3,28.3c1.7,9.4,3.3,18.8,3.1,28.3c-2.7-10.3-5-21-6.9-32.1c-1.9-11.1-3.5-22.6-5.2-34.1L119.6,170.2"/>
					<path class="st21" d="M112.2,226.9c-0.3,13.3-0.6,26.5-1,39.7l-3.5-10.7L112.2,226.9"/>
					<polyline class="st21" points="121.3,300.6 122.8,303.6 122.6,305.7 121.3,300.6 					"/>
					<path class="st21" d="M116.5,276.2l1.2,7.1l1.9,8.6l1.8,8.7l1.4,3.1l-3.1-13.8L116.5,276.2 M117.6,283.3l1.9,8.6l1.8,8.7
						l-1.8-8.7L117.6,283.3"/>
					<path class="st21" d="M107.7,255.9l3.5,10.7l6.4,16.7l1.9,8.6l1.8,8.7l1.2,5.1l0.2-2c-0.4,11.9-0.9,23.7-1.4,35.5l-14.5-15.8
						c1.5-12,1.5-23.1,1.2-34.1C107.9,278.3,107.4,267.3,107.7,255.9"/>
					<polyline class="st22" points="107.7,255.9 111.2,266.6 107.7,255.9 					"/>
					<polyline class="st22" points="121.3,300.6 122.6,305.7 121.3,300.6 					"/>
					<polyline class="st22" points="117.6,283.3 119.5,291.9 121.3,300.6 119.5,291.9 117.6,283.3 					"/>
					<polyline class="st22" points="117.6,283.3 119.5,291.9 121.3,300.6 119.5,291.9 117.6,283.3 					"/>
					<path class="st21" d="M104.8,337c5.8,10.1,9.8,21.3,8.2,37.4l-21.7-7.6l8.2-7.6L104.8,337"/>
					<polyline class="st21" points="465.3,201.6 464.2,218.6 459.6,219.7 465.3,201.6 					"/>
					<path class="st26" d="M697.5,360.3c-10.7,28.7-22.6,56.8-35.9,85c-13.3,28.2-28.2,56.5-44.5,85.2l-9.3-11.7
						c-3.1-3.9-6.3-7.7-9.5-11.6c-8.1-15-11.3-35.9-7.7-59c3.5-22.9,13.8-48.1,33.4-71.6c5.6-6.7,12-13.3,19.1-19.6
						c7.6,2.8,16.7,3.8,26.1,4C678.5,361.3,688.4,360.8,697.5,360.3"/>
					<path class="st21" d="M588.3,301.4l-1.3,8.2c-10.1,1.2-22,14.7-32.6,8.6C567.1,305.2,577.1,304,588.3,301.4"/>
					<path class="st27" d="M632.2,308.7c-9,24.3-5.2,36.7,3.6,43.9c2.1,1.8,4.6,3.2,7.2,4.4c-7.2,6.3-13.5,12.9-19.1,19.6
						c-19.6,23.5-29.9,48.7-33.4,71.6c-3.5,23-0.3,43.9,7.7,59c-8.3-9-16.7-17.9-25.3-26.6c-4.3-4.4-8.7-8.6-13.1-12.8
						c-4.4-4.2-8.9-8.3-13.5-12.4c-6.1-5.4-12.2-10.7-18.5-15.8c-9.2-7.3-18.7-14.3-28.4-21c-4.9-3.3-9.8-6.6-14.8-9.7
						c-5.1-3.1-10.2-6-15.4-8.9l-7.6,14.6c3.5,4.6,7.5,8.7,11.7,12.5c4,3.7,8.3,7.2,12.5,10.6c1.3,1.1,2.7,2.1,4,3.1
						c7.9,6.3,15.5,12.6,21.5,20.3c5.8,7.8,10,17.1,10.8,29.3c-15.1-2.1-27.7-7.8-38.3-16.1c-7-5.6-13-12.4-18-20.3
						c-1.9-3-3.6-6.1-5.2-9.4c-1.6-3.3-3.1-6.7-4.5-10.2c-2.7-7.1-4.9-14.7-6.5-22.9c-3.3-16.3-4.3-34.6-3.4-54.1
						c0.2-13.3-6.1-24.8-13.5-34.8l11.3,13l11.3-11.8c1.5-14.6,2.9-29.3,4.2-44.1l2.7,6.5l11.2,21.9c3.5,6.4,7.1,12.8,10.5,19.2
						c1.9,4.2,4.7,7.5,7.9,10l0,0c10.2,7.9,26.1,8.9,41.7,12.4l-8-17.5c1.1-6,3.3-11.1,6.4-15.6c6.7-9.5,17.2-15.5,28-18.5
						c5.4-1.5,10.8-2.3,15.8-2.4c5-0.1,9.5,0.4,13.2,1.5l-0.6,4.1c-11.2,2.6-21.2,3.8-33.9,16.8c10.7,6.1,22.6-7.4,32.6-8.6
						L576.8,329l-0.1,22.9c-23.5,18.1-0.1,27.5-17.5,45.9c2.5,9.6,4.8,19.4,7.2,29.1l27.1-12.7c2.2-16.8,4.4-34.2,9.8-51.9
						c2.7-8.8,6.2-17.8,10.9-26.7C618.8,326.6,624.7,317.7,632.2,308.7"/>
					<path class="st28" d="M623.9,376.6c-19.6,23.5-29.9,48.7-33.4,71.6c-3.5,23-0.3,43.9,7.7,59c-8.1-15-11.3-35.9-7.7-59
						C594,425.4,604.3,400.2,623.9,376.6"/>
					<path class="st29" d="M587,309.6c-10.1,1.2-22,14.7-32.6,8.6C565.1,324.3,577,310.8,587,309.6"/>
					<path class="st21" d="M460.9,254c-0.4,8.6-1,17.2-1.5,25.8l2.7,6.5l11.2,21.9l3-2.3l-6.6-23l15.8,14.1
						c1.1-14.9-5.9-22.4-11.8-31.3C469.4,261.8,465.2,257.9,460.9,254 M462.1,286.3l11.2,21.9L462.1,286.3"/>
					<polyline class="st22" points="462.1,286.3 473.3,308.2 462.1,286.3 					"/>
					<polyline class="st21" points="592.9,300.5 587,309.6 588.3,301.4 592.9,300.5 					"/>
					<polyline class="st21" points="462.7,607.3 455.4,617.6 462.7,607.3 					"/>
					<path class="st30" d="M695.3,151.9c-4.7,28.5-21.8,53.4-41.9,77.3c-20.1,23.9-43.3,47-60.5,71.2l-4.6,0.9l0.6-4.1
						c-3.7-1-8.2-1.6-13.2-1.5c-5,0.1-10.4,0.9-15.8,2.4c-10.8,3-21.3,8.9-28,18.5c-3.1,4.4-5.3,9.6-6.4,15.6l8,17.5
						c-15.6-3.5-31.5-4.5-41.7-12.4c-3.3-2.5-6-5.8-7.9-10c-3.5-6.4-7-12.8-10.5-19.2l3-2.3l10.1,16.6c2.9-20.3-7.3-30.2-16.7-39.5
						l15.8,14.1c1.1-14.9-5.9-22.4-11.8-31.3l7.8-5.4l11.7-36.2l3.7,34.3l17.3-9.5c11.9-29.3,26.3-65.8,27.8-96.1
						c0.2,18.1-3.1,38.7-4.3,58c-0.6,9.7-0.7,19,0.4,27.6c0.6,4.3,1.4,8.4,2.7,12.2c1.2,3.9,2.9,7.5,5,10.9l11.5-11.6l-1.7,12.3
						c13-28.6,9.4-49.6,22.9-77.7l-1.2,17.1l-1.3,17.2c11.2-16.3,12.5-33.6,19.8-48.3c-2.6,29.2-37.3,78-23.3,88.8
						c0.2,0.2,0.4,0.3,0.7,0.5c0.3,0.3,0.7,0.5,1,0.8c12.5,9.7,29.1,1.2,45.1-15.5c16-16.7,31.5-41.8,41.4-65.6l-0.5,11
						C675.5,189.1,682.8,162.7,695.3,151.9"/>
					<path class="st31" d="M531.9,316.7c-3.1,4.4-5.3,9.6-6.4,15.6l8,17.5l-8-17.5C526.6,326.3,528.8,321.1,531.9,316.7"/>
					<path class="st31" d="M533.5,349.8c-15.6-3.5-31.5-4.5-41.7-12.4C502,345.3,517.9,346.3,533.5,349.8"/>
					<polyline class="st32" points="469.6,282.9 485.4,297 469.6,282.9 					"/>
					<polyline class="st32" points="476.2,305.9 473.3,308.2 476.2,305.9 					"/>
					<path class="st30" d="M410.4,297.5l-5.3,0.6l-10.4,5.8l2.7,6.4l-2.7-6.4l-9.3,11.1L385,339l-3.2-9l-2.2,22.9l-4.4-18.8
						l-5.3,7.3l-0.3,8.7c2.6,6.4,6.5,11.4,10,16.7c3.5,5.3,6.5,11,7.6,18.6c-5.4-1.1-9.8-3.5-13.9-6.5c-8.6-6.2-15.1-15.6-23.5-23.2
						l-5.3,0.6c5.4,17.3,15.6,31.3,10.2,56.4c-0.9-0.5-1.8-1-2.6-1.6c-8-5.8-10.3-17-12.6-28.3c-2.3-11.2-4.7-22.6-13-28.5
						c-0.4-0.3-0.9-0.6-1.4-0.9c-1.5,18.8,3.5,38.1,1.7,56.8c-1.9-10.3-3.2-21.3-4.1-32.5c-0.5-5.6-0.8-11.4-1.2-17.1
						c-0.4-5.8-0.7-11.5-1.1-17.2l-1.6-1.1c-11.7-17-20.8-34.6-31.2-50.4l2.6,16l1.3,8l1.2,8l-1.2-8l-1.3-8l-2.6-16
						c-3.8-7-7.5-13.9-11.1-20.8c-1.8-3.5-3.6-7-5.4-10.5c-1.8-3.5-3.5-7-5.2-10.5c-7-14.1-13.5-28.7-19.6-44.6
						c-0.2,13.5-0.5,27.1-0.8,40.5c-21.4,7.4-31.3-5.8-46-6.6c2.6,5.4,4.7,11.2,6.6,17.1c1.9,5.9,3.5,12,5.2,17.8
						c3.4,11.7,7.1,22.8,13.1,31.1c-6-8.3-9.7-19.4-13.1-31.1c-1.7-5.9-3.4-11.9-5.2-17.8c-1.9-5.9-4-11.7-6.6-17.1l-4.2-0.6
						c-1.7,33,10,53.9,11.6,80.9c-6.6-10.8-5.6-29.7-15.9-38.6l-0.7,8.1l3.8,4.7l-3.8-4.7c-4.2-5-7.1-11.1-9.3-17.9
						c-2.2-6.8-3.8-14.2-5.3-21.6c-22.5,13.4-46.2,25.8-58.6,20.3l-5.7-3.5l6.4,16.7l-1.2-7.1l3.2,13.7l3.1,13.8
						c-0.4,11.9-0.9,23.7-1.4,35.5l-14.5-15.8l-2,13.7c5.8,10.1,9.8,21.3,8.2,37.4l-21.7-7.6l-23.5,12.7l-14.9,26.8
						c-6.2,24.3-3.3,43,9.4,51.2c0.8,0.5,1.5,0.9,2.4,1.4l14-23.1l-6,17.5l17.7-12.1l4.9,7.6c12.7-11,20.2-11.4,25.6-7.9
						c5.4,3.6,8.6,11.1,12.9,16.2l0.4-10.5c8.9-7.9,13.9-9.1,17-6.9c4.6,3.2,4.8,13.5,7.1,19l-0.3,19.8c0.3,0.1,0.7,0.2,1,0.3
						l-1,0.8l0,0.7l9.8,13.2l0.5,13.6l-1.4,10l1.4-10l-1.4-7.6l-2.5,11.5c-0.8-4.2-1.5-8.4-2.3-12.6c0.6,9.9,1,19.8,1.5,29.7
						l2.1,8.1l-2.5,0.4l-1.7,16.4l2.5,26c4.2,0.8,8.4,1.6,12.6,2.4l-12.2,0.1l-6.5-0.2c3.8,4.9,7.6,9.9,11.4,14.8l-6,6.8
						c2.6,8.6,7.7,16.7,13.8,23.4l0.7,0.5c5.5,1,11,2,16.5,3.1c-5.7,0.2-11.5,0.5-17.2,0.8l-8.9,13.6c7.7,3.8,20.7,1.6,28.1,7.1
						c1.8,1.4,3.3,3.2,4.3,5.7l0.7-3.9l11.7,6.5c5.1-0.6,10.4-1.3,15.6-2.2c5.3-0.9,10.6-1.8,15.9-2.9l3-13.9l-3,13.9
						c19.3-4,39.3-9.9,60.2-18.4c20.8-8.4,42.2-19.2,64.3-33.1c-8.4,0.2-16.8,0.4-25.4,1.3c-4.3,0.5-8.7,1.1-13.1,2
						c-4.5,0.9-9,2.1-13.7,3.6c-11.5,1.4-21.6,1-30.5-0.9c-4.5-1-8.6-2.4-12.5-4.2c-3.9-1.8-7.6-3.9-11-6.5
						c-1.5-1.1-2.9-2.3-4.3-3.6c10.8-3.8,21.8-7.7,32.7-11.4l-0.7-0.6l10.2-5.8l-9.5,6.3c11.6,8.9,27.7,8.9,43.9,8.6
						c8.1-0.2,16.1-0.3,23.5,0.5c7.4,0.8,14.2,2.6,19.7,6.4l-9.2,4.2c9.5,0.7,19.1,1.4,28.6,2l28.6,2.4c14.4-8.3,29-16.6,43.5-24.9
						l-9.4-12.3l12.3-1.6c3-1.7,9.8-2.3,13.1-5.5c4.1-4,2.3-12.2-21.8-31.9c-4.9-2.5-9.9-4.9-14.9-7.3c5.8,0,11.6-0.2,17.4-0.5
						c5.8-0.4,11.7-1,17.7-2c12-2.1,24.7-5.7,38.5-11.8l-0.6-19.1c-15.1-2.1-27.7-7.8-38.3-16.1c-7-5.6-13-12.4-18-20.3
						c-1.9-3-3.6-6.1-5.2-9.4c-1.6-3.3-3.1-6.7-4.5-10.2c-2.7-7.1-4.9-14.7-6.5-22.9c-3.3-16.3-4.3-34.6-3.4-54.1
						c0.2-13.3-6.1-24.8-13.5-34.8l-1.6-1.2l-0.6,10.8l-2.8-11.1l-6.1,31.4l0.8-30.9l-4.5,1.1l1.1,23.3c-1.2-7.7-2.5-15.4-3.8-23.1
						l-7.5,3.5L410.4,297.5 M230.8,309.8c-5-18.4-3.5-43.4-15-59.7C227.3,266.4,225.8,291.4,230.8,309.8l1.8,7.7l2.2,3.7l-2.2-3.7
						L230.8,309.8l3.8-3.9l9.7,13.2l-9.7-13.2L230.8,309.8 M300.7,349.5c-5-4.6-5.4-13.7-5.7-22.8c-0.2-4.5-0.3-9-1-13
						c-0.7-3.9-2-7.2-4.3-9.4c2.4,2.2,3.6,5.5,4.3,9.4c0.7,3.9,0.8,8.4,1,13C295.4,335.7,295.8,344.8,300.7,349.5 M310.2,356.1
						l0.8,0.6l5.8,8.5l-5.8-8.5L310.2,356.1c-5.3-12.6-4.1-29.4-10.6-40.5C306.1,326.8,304.9,343.6,310.2,356.1 M244.6,308.4
						l7.8-1.2L244.6,308.4 M418.4,522.8l30.6,1.3L418.4,522.8 M418.4,522.8l30.6,1.3L418.4,522.8 M418.4,522.8l-4.1-0.9l-5.2,0.5
						l-4.1-0.9l-4.9,0.5c-0.2,0-0.3,0-0.5,0l-3.9-0.9l-5.2,0.5l-4.1-0.9l-5.2,0.5l-5.2,0.5l-3.3-0.3l-5.2,0.6l-5.2,0.5l-5.2,0.6
						l-4.4,1.1l-5.2,0.6l-5.5,2.6c14.3,5,32,2.3,49.9-0.8l1.8-0.2l1.6-0.4c2.2-0.3,4.4-0.7,6.6-1l1.5-0.1l5.2-0.5l3.3-0.8
						C414.2,523.2,416.3,522.9,418.4,522.8 M460.3,570.4c-1.1-1.3-2.3-2.4-3.6-3.5c-0.9-0.7-2-1.3-3-1.9l-2.9-2.4l-4.1-1l-4.8-1.6
						l-3.1,0.2c-2.5-0.2-5.1-0.2-7.9,0l-0.1,0l-5.2,0.5l5.2-0.5l-5.2,0.5l5.2-0.5l0,0c-1.7,0.1-3.4,0.1-5.2,0.5
						c2.3-0.4,4.4-0.4,6.4-0.2l2.9,0.7l4.8,1.6l1.6,0.4c1.4,0.6,2.7,1.3,4.1,1.9l2,1.6l2.9,0.7C453.4,568.9,456.6,570.1,460.3,570.4
						 M78.7,435.8l2.9-4.5l-0.1-6.5L78.7,435.8"/>
					<path class="st20" d="M418.4,522.8c-6.1-0.3-12.2-0.6-18.3-1l4.9-0.5l4.1,0.9l5.2-0.5L418.4,522.8"/>
					<path class="st20" d="M412.1,523.5l-3.3,0.8l-5.2,0.5l-1.5,0.1C405.4,524.4,408.8,523.9,412.1,523.5"/>
					<path class="st20" d="M399.7,521.8c-18.3-0.8-37-0.7-57.5,5.5l5.5-2.6l5.2-0.6l4.4-1.1l5.2-0.6l5.2-0.5l5.2-0.6l3.3,0.3
						l5.2-0.5l5.2-0.5l4.1,0.9l5.2-0.5L399.7,521.8"/>
					<path class="st20" d="M395.5,525.9l-1.6,0.4l-1.8,0.2C393.3,526.3,394.4,526.1,395.5,525.9"/>
					<path class="st33" d="M158.9,478.8l-1,0.8l0-1.1C158.3,478.6,158.7,478.6,158.9,478.8"/>
					<polyline class="st32" points="247.5,640.7 244.5,654.6 247.5,640.7 					"/>
					<polyline class="st32" points="116.5,276.2 117.6,283.3 116.5,276.2 					"/>
					<polyline class="st32" points="106.9,323.3 121.4,339.1 106.9,323.3 					"/>
					<polyline class="st32" points="113,374.4 91.3,366.9 113,374.4 					"/>
					<polyline class="st34" points="418.4,522.8 414.3,521.8 409.1,522.3 405.1,521.3 400.1,521.8 405.1,521.3 409.1,522.3 
						414.3,521.8 418.4,522.8 					"/>
					<polyline class="st34" points="412.1,523.5 408.8,524.3 403.6,524.8 402.1,524.9 403.6,524.8 408.8,524.3 412.1,523.5 					"/>
					<polyline class="st34" points="399.7,521.8 395.8,520.9 390.6,521.4 386.5,520.6 381.3,521.1 376.1,521.6 372.8,521.3 
						367.6,521.9 362.4,522.4 357.3,523 352.8,524.1 347.7,524.7 342.2,527.3 347.7,524.7 352.8,524.1 357.3,523 362.4,522.4 
						367.6,521.9 372.8,521.3 376.1,521.6 381.3,521.1 386.5,520.6 390.6,521.4 395.8,520.9 399.7,521.8 					"/>
					<polyline class="st34" points="395.5,525.9 394,526.3 392.1,526.5 394,526.3 395.5,525.9 					"/>
					<polyline class="st34" points="449,524.1 418.4,522.8 449,524.1 					"/>
					<polyline class="st34" points="449,524.1 418.4,522.8 449,524.1 					"/>
					<path class="st31" d="M432.6,322.7c7.4,10,13.6,21.5,13.5,34.8c-0.9,19.5,0.1,37.8,3.4,54.1c1.6,8.1,3.8,15.8,6.5,22.9
						c1.4,3.6,2.9,6.9,4.5,10.2c1.6,3.3,3.3,6.4,5.2,9.4c-1.9-3-3.6-6.1-5.2-9.4c-1.6-3.3-3.1-6.7-4.5-10.2
						c-2.7-7.1-4.9-14.7-6.5-22.9c-3.3-16.3-4.3-34.6-3.4-54.1C446.2,344.1,439.9,332.7,432.6,322.7"/>
					<path class="st31" d="M521.9,490.5c-15.1-2.1-27.7-7.8-38.3-16.1C494.2,482.7,506.8,488.4,521.9,490.5"/>
					<path class="st20" d="M450.8,562.6l2.9,2.4c-4-2.6-9-4.2-14.9-4.8l3.1-0.2l4.8,1.6L450.8,562.6"/>
					<path class="st20" d="M450.3,567.5l-2.9-0.7l-2-1.6C447,565.9,448.6,566.7,450.3,567.5"/>
					<path class="st20" d="M441.3,563.2l-1.6-0.4l-4.8-1.6l-2.9-0.7C435.4,560.9,438.4,561.9,441.3,563.2"/>
					<path class="st20" d="M430.9,560.2C430.9,560.2,430.9,560.2,430.9,560.2l-0.1,0L430.9,560.2"/>
					<polyline class="st21" points="461.7,604.1 459.1,604.3 461.7,604.1 					"/>
					<path class="st26" d="M469.7,582.7c1.7,2.6,3.3,5.3,4.7,8.1c1.4,2.9,2.7,5.9,3.9,8.9c2.4,6.1,4.6,12.6,6.7,18.9
						c2.2,6.4,4.3,12.7,6.9,18.6c1.3,3,2.6,5.8,4.1,8.6c1.5,2.8,3.1,5.4,4.8,7.8c-9,3.3-18,6.6-27,10l3.8-1.5
						c-1.6-2.9-4.5-5.6-7.7-8.4c-1.7-1.4-3.4-2.8-5.1-4.3c-5.2-4.4-10.5-9.4-12.8-16.1l3.5-15.9l1.1-1.4l6.2-8.9l11.2-4.7l-12.2,1.5
						l-2.6,0.2l-33,3.3C440.6,599.2,455.1,590.9,469.7,582.7"/>
					<path class="st35" d="M469.8,653.8c3.3,2.8,6.2,5.5,7.7,8.4C476,659.2,473.1,656.6,469.8,653.8c-1.7-1.4-3.4-2.8-5.1-4.3
						C466.4,651,468.2,652.4,469.8,653.8"/>
					<polyline class="st35" points="477.6,662.1 473.8,663.7 477.6,662.1 					"/>
					<polyline class="st36" points="462.7,607.3 456.6,616.2 455.4,617.6 462.7,607.3 					"/>
					<path class="st35" d="M469.7,582.7c-14.6,8.2-29.1,16.5-43.5,24.9C440.6,599.2,455.1,590.9,469.7,582.7"/>
					<path class="st26" d="M546.9,495.8c2.8,2.3,5.3,5.4,7.6,9c2.2,3.6,4.2,7.7,6,12c3.6,8.7,6.4,18.5,8.9,27.4
						c-16.5,9.7-33.3,16.1-50,21.7c-16.7,5.6-33.3,10.4-49.7,16.8l-9.4-12.3l12.3-1.6c3-1.7,9.8-2.3,13.1-5.5
						c4.1-4,2.3-12.2-21.8-31.9c-4.9-2.5-9.9-4.9-14.9-7.3c5.8,0,11.6-0.2,17.4-0.5c5.8-0.4,11.7-1,17.7-2
						c12-2.1,24.7-5.7,38.5-11.8l-0.6-19.1l9.4,0.8c4.5-0.7,8.6,0.1,12.1,2.1C544.7,494.1,545.8,494.9,546.9,495.8"/>
					<path class="st35" d="M522.5,509.7c-13.8,6.1-26.4,9.8-38.5,11.8c-6,1-11.9,1.7-17.7,2c-5.8,0.4-11.6,0.5-17.4,0.5
						c5.8,0,11.6-0.2,17.4-0.5c5.8-0.4,11.7-1,17.7-2C496.1,519.4,508.7,515.8,522.5,509.7"/>
					<path class="st35" d="M485.7,563.3c-3.2,3.1-10.1,3.8-13.1,5.5l-12.3,1.6l12.3-1.6C475.6,567.1,482.4,566.5,485.7,563.3"/>
					<path class="st37" d="M527.8,439.7c6.3,5.1,12.5,10.4,18.5,15.8c4.5,4.1,9,8.2,13.5,12.4c4.4,4.2,8.9,8.4,13.1,12.8
						c8.6,8.7,17,17.6,25.3,26.6c1.5,3.9,3.3,7.4,5.5,10.6c2.1,3.2,4.6,6,7.3,8.4c1.9,1.6,3.8,3,6,4.3
						c-22.3,37.8-45.6,74.8-72.8,113.2c-14.5,3.3-29,6.6-43.4,10c-1.8-2.4-3.4-5-4.8-7.8c-1.5-2.7-2.8-5.6-4.1-8.6
						c-2.5-5.9-4.7-12.2-6.9-18.6c-2.2-6.4-4.3-12.8-6.7-18.9c-1.2-3.1-2.5-6.1-3.9-8.9c-1.4-2.8-3-5.6-4.7-8.1
						c16.4-6.5,33-11.2,49.7-16.8c16.7-5.6,33.5-12.1,50-21.7c-2.5-8.9-5.3-18.6-8.9-27.4c-1.8-4.4-3.8-8.5-6-12
						c-2.2-3.6-4.7-6.7-7.6-9l0,0c-1.1-0.9-2.2-1.7-3.4-2.3c-3.6-2-7.6-2.8-12.1-2.1l-9.4-0.8c-0.9-12.2-5-21.5-10.8-29.3
						c-5.9-7.8-13.6-14.1-21.4-20.4c-1.3-1-2.6-2.1-4-3.1c-4.2-3.4-8.5-6.8-12.5-10.5c-4.2-3.8-8.2-7.9-11.7-12.5l7.6-14.6
						c5.2,2.8,10.4,5.8,15.5,8.9c5,3.1,10,6.3,14.8,9.7C509.1,425.3,518.6,432.3,527.8,439.7"/>
					<path class="st32" d="M527.8,439.7c-9.2-7.3-18.7-14.4-28.4-21c-4.9-3.3-9.8-6.6-14.8-9.7c-5.1-3.1-10.2-6-15.5-8.9
						c5.2,2.8,10.4,5.8,15.4,8.9c5,3.1,10,6.3,14.8,9.7C509.1,425.3,518.6,432.3,527.8,439.7"/>
					<path class="st32" d="M546.4,455.5c4.5,4.1,9,8.2,13.5,12.4c4.4,4.2,8.9,8.4,13.1,12.8c8.6,8.7,17,17.6,25.3,26.6
						c-8.3-9-16.7-17.9-25.3-26.6c-4.3-4.4-8.7-8.6-13.1-12.8C555.4,463.7,550.9,459.5,546.4,455.5"/>
					<path class="st32" d="M473.2,427.2c4,3.7,8.3,7.2,12.5,10.5c1.3,1,2.7,2.1,4,3.1c7.9,6.3,15.5,12.6,21.4,20.4
						c-5.9-7.8-13.6-14.1-21.5-20.3c-1.3-1-2.6-2.1-4-3.1C481.4,434.4,477.2,431,473.2,427.2"/>
					<path class="st38" d="M546.9,495.8L546.9,495.8c-1.1-0.9-2.2-1.7-3.4-2.3C544.7,494.1,545.8,494.9,546.9,495.8"/>
					<path class="st38" d="M569.4,544.2c-16.5,9.7-33.3,16.1-50,21.7c-16.7,5.6-33.3,10.4-49.7,16.8c16.4-6.5,33-11.2,49.7-16.8
						C536.1,560.3,552.9,553.8,569.4,544.2"/>
					<path class="st21" d="M598.2,507.3c3.2,3.9,6.4,7.7,9.5,11.6l9.3,11.7c-2.1-1.3-4.1-2.7-6-4.3c-2.8-2.4-5.2-5.2-7.3-8.4
						C601.5,514.7,599.7,511.2,598.2,507.3"/>
					<path class="st36" d="M598.2,507.3c3.2,3.9,6.4,7.7,9.5,11.6l9.3,11.7l-9.3-11.7C604.6,514.9,601.4,511.1,598.2,507.3"/>
				</g>
			</g>
		</g>
	</g>
</g>
<g id="Layer_1">
	<g>
		<rect x="396" y="468.4" class="st39" width="563" height="217"/>
		<g>
			<path d="M958.5,468.9v216h-562v-216H958.5 M959.5,467.9h-564v218h564V467.9L959.5,467.9z"/>
		</g>
	</g>
	<g>
		<linearGradient id="SVGID_1_" gradientUnits="userSpaceOnUse" x1="827.437" y1="381.8866" x2="544.6605" y2="664.663">
			<stop  offset="0" style="stop-color:#FFFFFF"/>
			<stop  offset="1" style="stop-color:#000000"/>
		</linearGradient>
		<polygon class="st40" points="523.4,249.9 675.5,97.8 1113.4,532 959.3,686.1 		"/>
	</g>
	<g>
		<linearGradient id="SVGID_2_" gradientUnits="userSpaceOnUse" x1="686.4958" y1="240.9455" x2="403.7195" y2="523.7219">
			<stop  offset="0" style="stop-color:#FFFFFF"/>
			<stop  offset="1" style="stop-color:#000000"/>
		</linearGradient>
		<polygon class="st41" points="395.5,686.1 241.3,532 675.5,97.8 829.1,250.4 		"/>
	</g>
	<g>
		<polygon class="st42" points="526,251.7 675.5,98.5 1112.7,532 959.5,685.2 		"/>
		<g>
			<path d="M675.5,99.2L1112,532L959.5,684.5L526.7,251.7L675.5,99.2 M675.5,97.8l-150.2,154l434.2,434.2L1113.4,532L675.5,97.8
				L675.5,97.8z"/>
		</g>
	</g>
	<g>
		<polygon class="st43" points="242,532 675.5,98.5 828.4,250.4 395.5,685.4 		"/>
		<g>
			<path d="M675.5,99.2l152.2,151.2L395.5,684.7L242.8,532L675.5,99.2 M675.5,97.8L241.3,532l154.1,154.1l433.6-435.7L675.5,97.8
				L675.5,97.8z"/>
		</g>
	</g>
	<g>
		<g>
			<path d="M-1209.5-62c1.9,0,1.9-3,0-3C-1211.4-65-1211.4-62-1209.5-62L-1209.5-62z"/>
		</g>
	</g>
</g>
<g id="Layer_3">
</g>
</svg>
