<svg id="Layer_1" data-name="Layer 1" xmlns="http://www.w3.org/2000/svg" xmlns:xlink="http://www.w3.org/1999/xlink" viewBox="0 0 869.6 168.19"><defs><style>.cls-1{fill:url(#radial-gradient);}.cls-2{fill:url(#radial-gradient-2);}.cls-3{fill:url(#radial-gradient-3);}.cls-4{opacity:0.3;fill:url(#radial-gradient-4);}.cls-5{clip-path:url(#clip-path);}.cls-6{isolation:isolate;}.cls-7{fill:url(#radial-gradient-7);}.cls-8{clip-path:url(#clip-path-2);}.cls-9{fill:url(#radial-gradient-10);}</style><radialGradient id="radial-gradient" cx="686.68" cy="780.9" r="46.87" gradientTransform="translate(606.49 -501.76) rotate(45)" gradientUnits="userSpaceOnUse"><stop offset="0" stop-color="#fff"/><stop offset="0.54" stop-color="#e5b24c"/><stop offset="1" stop-color="#eaa51c"/></radialGradient><radialGradient id="radial-gradient-2" cx="1488.02" cy="749.99" r="46.87" gradientTransform="translate(1107.4 2126.76) rotate(-135)" gradientUnits="userSpaceOnUse"><stop offset="0" stop-color="#fff"/><stop offset="0.54" stop-color="#5f9bc9"/><stop offset="1" stop-color="#228bd1"/></radialGradient><radialGradient id="radial-gradient-3" cx="609.18" cy="426.92" r="70.04" gradientTransform="translate(-618.51 -167.12) rotate(-15.21)" gradientUnits="userSpaceOnUse"><stop offset="0" stop-color="#ccc"/><stop offset="1" stop-color="#575757"/></radialGradient><radialGradient id="radial-gradient-4" cx="81.47" cy="86.37" r="74.32" gradientUnits="userSpaceOnUse"><stop offset="0" stop-opacity="0"/><stop offset="0.86" stop-opacity="0.47"/><stop offset="1"/></radialGradient><clipPath id="clip-path" transform="translate(-480.4 -456.02)"><path class="cls-1" d="M588.45,569l4.48,6.15a35.83,35.83,0,0,0-5.9-6.24,58.66,58.66,0,0,0-8.08-5.66,111.33,111.33,0,0,0-10.36-5.35c-3.84-1.77-8.08-3.52-12.72-5.32A155.29,155.29,0,0,1,532,541.23a75,75,0,0,1-17.15-13.65,50.83,50.83,0,0,1-10.34-16.94A61.31,61.31,0,0,1,501,489.43q0-.92,0-1.83c0-.61,0-1.21.08-1.81s.07-1.21.12-1.81.11-1.2.18-1.79l10.83,9.41c0,.5-.1,1-.14,1.5s-.08,1-.11,1.5-.05,1-.06,1.51,0,1,0,1.52a51,51,0,0,0,2.88,17.67,42.43,42.43,0,0,0,8.6,14.1,62.92,62.92,0,0,0,14.29,11.37,129.08,129.08,0,0,0,19.91,9.44c3.86,1.5,7.38,3,10.58,4.43a92.89,92.89,0,0,1,8.63,4.46,49.31,49.31,0,0,1,6.73,4.71A30.12,30.12,0,0,1,588.45,569Z"/></clipPath><radialGradient id="radial-gradient-7" cx="566.75" cy="531.03" r="199.2" gradientTransform="matrix(1, 0, 0, 1, 0, 0)" xlink:href="#radial-gradient"/><clipPath id="clip-path-2" transform="translate(-480.4 -456.02)"><path class="cls-2" d="M537,511.22l-4.48-6.15a36.14,36.14,0,0,0,5.89,6.24,59.4,59.4,0,0,0,8.09,5.66,111.33,111.33,0,0,0,10.36,5.35c3.84,1.77,8.07,3.52,12.71,5.32A154.85,154.85,0,0,1,593.43,539a75.08,75.08,0,0,1,17.16,13.65,50.81,50.81,0,0,1,10.33,16.94,61.08,61.08,0,0,1,3.46,21.21c0,.61,0,1.22,0,1.83s-.05,1.21-.08,1.81-.08,1.21-.13,1.81-.1,1.2-.17,1.79l-10.84-9.41q.09-.75.15-1.5c0-.49.08-1,.1-1.5s.05-1,.07-1.51,0-1,0-1.52a51,51,0,0,0-2.88-17.67,42.46,42.46,0,0,0-8.61-14.1,62.64,62.64,0,0,0-14.28-11.37A129.08,129.08,0,0,0,567.8,530c-3.86-1.5-7.39-3-10.59-4.43a92.65,92.65,0,0,1-8.62-4.46,48.1,48.1,0,0,1-6.73-4.71A30.12,30.12,0,0,1,537,511.22Z"/></clipPath><radialGradient id="radial-gradient-10" cx="398" cy="332" r="678.02" gradientTransform="matrix(1, 0, 0, 1, 0, 0)" xlink:href="#radial-gradient-2"/></defs><title>warpprism</title><circle class="cls-3" cx="81.36" cy="84.98" r="70.04"/><circle class="cls-4" cx="81.31" cy="84.96" r="70.04"/><path class="cls-1" d="M588.45,569l4.48,6.15a35.83,35.83,0,0,0-5.9-6.24,58.66,58.66,0,0,0-8.08-5.66,111.33,111.33,0,0,0-10.36-5.35c-3.84-1.77-8.08-3.52-12.72-5.32A155.29,155.29,0,0,1,532,541.23a75,75,0,0,1-17.15-13.65,50.83,50.83,0,0,1-10.34-16.94A61.31,61.31,0,0,1,501,489.43q0-.92,0-1.83c0-.61,0-1.21.08-1.81s.07-1.21.12-1.81.11-1.2.18-1.79l10.83,9.41c0,.5-.1,1-.14,1.5s-.08,1-.11,1.5-.05,1-.06,1.51,0,1,0,1.52a51,51,0,0,0,2.88,17.67,42.43,42.43,0,0,0,8.6,14.1,62.92,62.92,0,0,0,14.29,11.37,129.08,129.08,0,0,0,19.91,9.44c3.86,1.5,7.38,3,10.58,4.43a92.89,92.89,0,0,1,8.63,4.46,49.31,49.31,0,0,1,6.73,4.71A30.12,30.12,0,0,1,588.45,569Z" transform="translate(-480.4 -456.02)"/><g class="cls-5"><g class="cls-6"><path class="cls-1" d="M501.42,482.19l10.83,9.41c0,.5-.1,1-.14,1.5s-.08,1-.11,1.5-.05,1-.06,1.51,0,1,0,1.52a51,51,0,0,0,2.88,17.67,42.43,42.43,0,0,0,8.6,14.1,62.92,62.92,0,0,0,14.29,11.37,129.08,129.08,0,0,0,19.91,9.44c3.86,1.5,7.38,3,10.58,4.43a92.89,92.89,0,0,1,8.63,4.46,49.31,49.31,0,0,1,6.73,4.71,30.12,30.12,0,0,1,4.91,5.19l4.48,6.15a35.83,35.83,0,0,0-5.9-6.24,58.66,58.66,0,0,0-8.08-5.66,111.33,111.33,0,0,0-10.36-5.35c-3.84-1.77-8.08-3.52-12.72-5.32A155.29,155.29,0,0,1,532,541.23a75,75,0,0,1-17.15-13.65,50.83,50.83,0,0,1-10.34-16.94A61.31,61.31,0,0,1,501,489.43q0-.92,0-1.83c0-.61,0-1.21.08-1.81s.07-1.21.12-1.81.11-1.2.18-1.79" transform="translate(-480.4 -456.02)"/></g></g><path class="cls-7" d="M566.16,624.2a85.72,85.72,0,0,1-64.74-142c-.07.59-.13,1.19-.18,1.79s-.09,1.2-.12,1.81-.06,1.2-.08,1.81,0,1.22,0,1.83a61.31,61.31,0,0,0,3.46,21.21,50.83,50.83,0,0,0,10.34,16.94A75,75,0,0,0,532,541.23a155.29,155.29,0,0,0,23.91,11.35,181.11,181.11,0,0,1,19.2,8.5,63.07,63.07,0,0,1,13.3,9,31,31,0,0,1,7.74,10.62,33.3,33.3,0,0,1,2.5,13.34,29.94,29.94,0,0,1-5.33,17,31,31,0,0,1-7.12,7.29,37,37,0,0,1-10.48,5.33c-.78.09-1.56.16-2.35.23s-1.58.12-2.37.16-1.59.08-2.39.1S567,624.2,566.16,624.2Z" transform="translate(-480.4 -456.02)"/><path class="cls-2" d="M537,511.22l-4.48-6.15a36.14,36.14,0,0,0,5.89,6.24,59.4,59.4,0,0,0,8.09,5.66,111.33,111.33,0,0,0,10.36,5.35c3.84,1.77,8.07,3.52,12.71,5.32A154.85,154.85,0,0,1,593.43,539a75.08,75.08,0,0,1,17.16,13.65,50.81,50.81,0,0,1,10.33,16.94,61.08,61.08,0,0,1,3.46,21.21c0,.61,0,1.22,0,1.83s-.05,1.21-.08,1.81-.08,1.21-.13,1.81-.1,1.2-.17,1.79l-10.84-9.41q.09-.75.15-1.5c0-.49.08-1,.1-1.5s.05-1,.07-1.51,0-1,0-1.52a51,51,0,0,0-2.88-17.67,42.46,42.46,0,0,0-8.61-14.1,62.64,62.64,0,0,0-14.28-11.37A129.08,129.08,0,0,0,567.8,530c-3.86-1.5-7.39-3-10.59-4.43a92.65,92.65,0,0,1-8.62-4.46,48.1,48.1,0,0,1-6.73-4.71A30.12,30.12,0,0,1,537,511.22Z" transform="translate(-480.4 -456.02)"/><g class="cls-8"><g class="cls-6"><path class="cls-2" d="M624,598l-10.84-9.41q.09-.75.15-1.5c0-.49.08-1,.1-1.5s.05-1,.07-1.51,0-1,0-1.52a51,51,0,0,0-2.88-17.67,42.46,42.46,0,0,0-8.61-14.1,62.64,62.64,0,0,0-14.28-11.37A129.08,129.08,0,0,0,567.8,530c-3.86-1.5-7.39-3-10.59-4.43a92.65,92.65,0,0,1-8.62-4.46,48.1,48.1,0,0,1-6.73-4.71,30.12,30.12,0,0,1-4.91-5.19l-4.48-6.15a36.14,36.14,0,0,0,5.89,6.24,59.4,59.4,0,0,0,8.09,5.66,111.33,111.33,0,0,0,10.36,5.35c3.84,1.77,8.07,3.52,12.71,5.32A154.85,154.85,0,0,1,593.43,539a75.08,75.08,0,0,1,17.16,13.65,50.81,50.81,0,0,1,10.33,16.94,61.08,61.08,0,0,1,3.46,21.21c0,.61,0,1.22,0,1.83s-.05,1.21-.08,1.81-.08,1.21-.13,1.81-.1,1.2-.17,1.79" transform="translate(-480.4 -456.02)"/></g></g><path class="cls-9" d="M559.23,456A85.69,85.69,0,0,1,645,541.78a86.88,86.88,0,0,1-1.44,15.75,85.42,85.42,0,0,1-10.77,28.39A86.33,86.33,0,0,1,624,598c.07-.59.12-1.19.17-1.79s.1-1.2.13-1.81.06-1.2.08-1.81,0-1.22,0-1.83a61.08,61.08,0,0,0-3.46-21.21,50.81,50.81,0,0,0-10.33-16.94A75.08,75.08,0,0,0,593.43,539a154.85,154.85,0,0,0-23.91-11.35,181.79,181.79,0,0,1-19.19-8.5,62.81,62.81,0,0,1-13.3-9,31,31,0,0,1-7.74-10.62,33.3,33.3,0,0,1-2.51-13.34,30.05,30.05,0,0,1,5.34-17,30.85,30.85,0,0,1,7.12-7.29,36.83,36.83,0,0,1,10.48-5.33c.78-.09,1.56-.16,2.35-.23s1.58-.12,2.37-.16,1.59-.08,2.39-.1S558.43,456,559.23,456Z" transform="translate(-480.4 -456.02)"/><path d="M729.1,491.63l-14.49,98.16H700.4l-8.07-56.87-7.93,56.87H670.18l-14.49-98.16h13l9.3,73.55,9.29-73.55h10.26l9.29,73.55,9.3-73.55Z" transform="translate(-480.4 -456.02)"/><path d="M747.7,589.79H734.57V508.45q0-16.81,15.72-16.82h9.85q15.72,0,15.72,16.82v81.34H762.73V553.84h-15Zm15-47.85V509.27q0-5.75-5.74-5.74h-3.55q-5.75,0-5.74,5.74v32.67Z" transform="translate(-480.4 -456.02)"/><path d="M787.48,491.63h25.7q15,0,15,16.82v24.2q0,12.84-7.79,16.26l9.16,40.88H817.14l-8.61-39.65H800.6v39.65H787.48Zm13.12,47.3h8.61q5.88,0,5.88-7.1V510.64q0-7.11-5.88-7.11H800.6Z" transform="translate(-480.4 -456.02)"/><path d="M839.15,491.63h23.92q15.85,0,15.86,16.82v29.12q0,16.68-15.72,16.68H852.27v35.54H839.15Zm13.12,50.72h8.34c3.46,0,5.2-1.91,5.2-5.74V509.27c0-3.83-2-5.74-5.88-5.74h-7.66Z" transform="translate(-480.4 -456.02)"/><path d="M911.19,491.63h23.92q15.85,0,15.86,16.82v29.12q0,16.68-15.72,16.68H924.31v35.54H911.19Zm13.12,50.72h8.34c3.46,0,5.2-1.91,5.2-5.74V509.27c0-3.83-2-5.74-5.88-5.74h-7.66Z" transform="translate(-480.4 -456.02)"/><path d="M961.36,491.63h25.7q15,0,15,16.82v24.2q0,12.84-7.8,16.26l9.16,40.88H991l-8.61-39.65h-7.93v39.65H961.36Zm13.12,47.3h8.61q5.88,0,5.88-7.1V510.64q0-7.11-5.88-7.11h-8.61Z" transform="translate(-480.4 -456.02)"/><path d="M1013,589.79V491.63h13.12v98.16Z" transform="translate(-480.4 -456.02)"/><path d="M1063.61,518v-8.61q0-5.88-5.74-5.88h-2q-5.61,0-5.61,5.88v16.26c0,1.83.37,3.06,1.1,3.69a27.37,27.37,0,0,0,3.55,2.47l12.44,6.69a56.85,56.85,0,0,1,5.81,3.63,9.34,9.34,0,0,1,2.67,3.14q.95,1.85,1,7v20.92q0,16.54-15.85,16.54h-8.07q-15.72,0-15.72-18v-4.92h13.12v5.33q0,5.75,5.88,5.75h2.32q5.21,0,5.2-5.75V555.48c0-1.83-.37-3.06-1.09-3.69a27.5,27.5,0,0,0-3.56-2.46l-12.44-7a38.36,38.36,0,0,1-5.94-3.69,8.37,8.37,0,0,1-2.67-3.9,19.41,19.41,0,0,1-.82-6.21v-20.1q0-16.81,15.72-16.82h8.2q15.72,0,15.72,16.82V518Z" transform="translate(-480.4 -456.02)"/><path d="M1114.33,549.33l12.16-57.7H1141v98.16h-13.12l1.37-64.25L1119.38,572h-10.11l-9.85-46.48,1.37,64.25h-13.12V491.63h14.49Z" transform="translate(-480.4 -456.02)"/><path d="M1196.07,503.53v86.26H1183V503.53h-12.58v-11.9h38.28v11.9Z" transform="translate(-480.4 -456.02)"/><path d="M1216.17,589.79V491.63h32.53v11.9h-19.41v29.8h17.22v11.89h-17.22V577.9h19.41v11.89Z" transform="translate(-480.4 -456.02)"/><path d="M1297.37,566.82v6.29q0,16.68-15.72,16.68h-8.48q-15.72,0-15.72-16.68v-64.8q0-16.68,15.72-16.68h8.48q15.72,0,15.72,16.68v11.08h-13.12V509.27c0-3.83-2-5.74-5.88-5.74h-2.6q-5.2,0-5.2,5.74v62.88q0,5.75,5.2,5.75h3.28c3.46,0,5.2-1.92,5.2-5.75v-5.33Z" transform="translate(-480.4 -456.02)"/><path d="M1336.88,589.79V545.22h-16.13v44.57h-13.13V491.63h13.13v41.7h16.13v-41.7H1350v98.16Z" transform="translate(-480.4 -456.02)"/></svg>