<svg id="Layer_1" data-name="Layer 1" xmlns="http://www.w3.org/2000/svg" xmlns:xlink="http://www.w3.org/1999/xlink" viewBox="0 0 430.04 439.41"><defs><style>.cls-1{fill:url(#linear-gradient);}.cls-2{fill:url(#linear-gradient-2);}.cls-3{fill:url(#radial-gradient);}.cls-4{opacity:0.3;fill:url(#radial-gradient-2);}.cls-5{clip-path:url(#clip-path);}.cls-6{isolation:isolate;}.cls-7{fill:url(#radial-gradient-3);}.cls-8{clip-path:url(#clip-path-2);}.cls-9{fill:url(#radial-gradient-4);}</style><linearGradient id="linear-gradient" x1="766.48" y1="520.71" x2="1107.27" y2="520.71" gradientTransform="translate(606.49 -501.76) rotate(45)" gradientUnits="userSpaceOnUse"><stop offset="0" stop-color="#2c2c2c"/><stop offset="0.54" stop-color="#5b9fc1"/><stop offset="1" stop-color="#6affd3"/></linearGradient><linearGradient id="linear-gradient-2" x1="1005.92" y1="1052.81" x2="1346.71" y2="1052.81" gradientTransform="translate(1107.4 2126.76) rotate(-135)" xlink:href="#linear-gradient"/><radialGradient id="radial-gradient" cx="991.23" cy="531.9" r="182.99" gradientTransform="translate(-883.51 -31.12) rotate(-15.21)" gradientUnits="userSpaceOnUse"><stop offset="0" stop-color="#ccc"/><stop offset="1" stop-color="#575757"/></radialGradient><radialGradient id="radial-gradient-2" cx="212.84" cy="225.64" r="194.16" gradientUnits="userSpaceOnUse"><stop offset="0" stop-opacity="0"/><stop offset="0.86" stop-opacity="0.47"/><stop offset="1"/></radialGradient><clipPath id="clip-path" transform="translate(-745.4 -320.02)"><path class="cls-1" d="M1027.7,615.2l11.7,16.06A93.43,93.43,0,0,0,1024,615a155.76,155.76,0,0,0-21.13-14.79,291.52,291.52,0,0,0-27.07-14c-10-4.61-21.09-9.2-33.21-13.89-23.75-9.16-44.58-18.9-62.47-29.64S847.28,520.17,835.3,507a132.7,132.7,0,0,1-27-44.25c-6-16.47-9-34.81-9-55.43,0-1.6,0-3.19.07-4.77s.11-3.17.2-4.75.2-3.15.33-4.71.28-3.13.46-4.69L828.63,413c-.15,1.29-.28,2.6-.38,3.9s-.21,2.61-.28,3.93-.13,2.63-.17,3.95,0,2.64,0,4c0,17.17,2.51,32.44,7.52,46.15a110.63,110.63,0,0,0,22.49,36.85c10,11,22.42,20.75,37.31,29.69s32.24,17.06,52,24.69c10.09,3.91,19.3,7.73,27.65,11.56a244.19,244.19,0,0,1,22.54,11.64,128.17,128.17,0,0,1,17.59,12.32A78.51,78.51,0,0,1,1027.7,615.2Z"/></clipPath><radialGradient id="radial-gradient-3" cx="971" cy="516" r="520.43" gradientUnits="userSpaceOnUse"><stop offset="0" stop-color="#fff"/><stop offset="0.54" stop-color="#e5b24c"/><stop offset="1" stop-color="#eaa51c"/></radialGradient><clipPath id="clip-path-2" transform="translate(-745.4 -320.02)"><path class="cls-2" d="M893.14,464.24l-11.7-16.05a93.73,93.73,0,0,0,15.4,16.29A155,155,0,0,0,918,479.27a291.61,291.61,0,0,0,27.07,14c10,4.61,21.1,9.2,33.22,13.89,23.74,9.17,44.58,18.9,62.47,29.65s32.84,22.48,44.81,35.66a132.89,132.89,0,0,1,27,44.25c6,16.48,9,34.81,9,55.43q0,2.4-.06,4.77c0,1.59-.11,3.17-.2,4.75s-.2,3.15-.33,4.71-.29,3.13-.46,4.69l-28.31-24.6c.14-1.29.27-2.59.38-3.9s.2-2.61.27-3.93.13-2.62.17-4,.06-2.64.06-4c0-17.17-2.52-32.43-7.53-46.15a110.77,110.77,0,0,0-22.48-36.85c-10-11-22.42-20.75-37.32-29.69s-32.24-17.06-52-24.69c-10.09-3.9-19.3-7.72-27.66-11.56a241.51,241.51,0,0,1-22.53-11.64A129.15,129.15,0,0,1,906,477.81,78.13,78.13,0,0,1,893.14,464.24Z"/></clipPath><radialGradient id="radial-gradient-4" cx="880" cy="530" r="528.4" gradientUnits="userSpaceOnUse"><stop offset="0" stop-color="#fff"/><stop offset="0.54" stop-color="#7745a8"/><stop offset="1" stop-color="#6a32b2"/></radialGradient></defs><title>warpprism</title><circle class="cls-3" cx="212.56" cy="222.01" r="182.99"/><circle class="cls-4" cx="212.42" cy="221.98" r="182.99"/><path class="cls-1" d="M1027.7,615.2l11.7,16.06A93.43,93.43,0,0,0,1024,615a155.76,155.76,0,0,0-21.13-14.79,291.52,291.52,0,0,0-27.07-14c-10-4.61-21.09-9.2-33.21-13.89-23.75-9.16-44.58-18.9-62.47-29.64S847.28,520.17,835.3,507a132.7,132.7,0,0,1-27-44.25c-6-16.47-9-34.81-9-55.43,0-1.6,0-3.19.07-4.77s.11-3.17.2-4.75.2-3.15.33-4.71.28-3.13.46-4.69L828.63,413c-.15,1.29-.28,2.6-.38,3.9s-.21,2.61-.28,3.93-.13,2.63-.17,3.95,0,2.64,0,4c0,17.17,2.51,32.44,7.52,46.15a110.63,110.63,0,0,0,22.49,36.85c10,11,22.42,20.75,37.31,29.69s32.24,17.06,52,24.69c10.09,3.91,19.3,7.73,27.65,11.56a244.19,244.19,0,0,1,22.54,11.64,128.17,128.17,0,0,1,17.59,12.32A78.51,78.51,0,0,1,1027.7,615.2Z" transform="translate(-745.4 -320.02)"/><g class="cls-5"><g class="cls-6"><path class="cls-1" d="M800.32,388.39,828.63,413c-.15,1.29-.28,2.6-.38,3.9s-.21,2.61-.28,3.93-.13,2.63-.17,3.95,0,2.64,0,4c0,17.17,2.51,32.44,7.52,46.15a110.63,110.63,0,0,0,22.49,36.85c10,11,22.42,20.75,37.31,29.69s32.24,17.06,52,24.69c10.09,3.91,19.3,7.73,27.65,11.56a244.19,244.19,0,0,1,22.54,11.64,128.17,128.17,0,0,1,17.59,12.32,78.51,78.51,0,0,1,12.83,13.56l11.7,16.06A93.43,93.43,0,0,0,1024,615a155.76,155.76,0,0,0-21.13-14.79,291.52,291.52,0,0,0-27.07-14c-10-4.61-21.09-9.2-33.21-13.89-23.75-9.16-44.58-18.9-62.47-29.64S847.28,520.17,835.3,507a132.7,132.7,0,0,1-27-44.25c-6-16.47-9-34.81-9-55.43,0-1.6,0-3.19.07-4.77s.11-3.17.2-4.75.2-3.15.33-4.71.28-3.13.46-4.69" transform="translate(-745.4 -320.02)"/></g></g><path class="cls-7" d="M969.47,759.43a224,224,0,0,1-169.15-371c-.18,1.56-.33,3.12-.46,4.69s-.24,3.14-.33,4.71-.16,3.16-.2,4.75-.07,3.17-.07,4.77c0,20.62,3,39,9,55.43a132.7,132.7,0,0,0,27,44.25c12,13.18,26.93,24.92,44.82,35.67s38.72,20.48,62.47,29.64c19.37,7.5,36,14.74,50.14,22.2s25.64,15.14,34.75,23.53,15.81,17.47,20.22,27.75,6.55,21.73,6.55,34.85a78.26,78.26,0,0,1-13.94,44.46,81,81,0,0,1-18.59,19,97.26,97.26,0,0,1-27.39,13.92q-3.06.33-6.14.59c-2.06.17-4.12.32-6.2.43s-4.15.2-6.24.26S971.57,759.43,969.47,759.43Z" transform="translate(-745.4 -320.02)"/><path class="cls-2" d="M893.14,464.24l-11.7-16.05a93.73,93.73,0,0,0,15.4,16.29A155,155,0,0,0,918,479.27a291.61,291.61,0,0,0,27.07,14c10,4.61,21.1,9.2,33.22,13.89,23.74,9.17,44.58,18.9,62.47,29.65s32.84,22.48,44.81,35.66a132.89,132.89,0,0,1,27,44.25c6,16.48,9,34.81,9,55.43q0,2.4-.06,4.77c0,1.59-.11,3.17-.2,4.75s-.2,3.15-.33,4.71-.29,3.13-.46,4.69l-28.31-24.6c.14-1.29.27-2.59.38-3.9s.2-2.61.27-3.93.13-2.62.17-4,.06-2.64.06-4c0-17.17-2.52-32.43-7.53-46.15a110.77,110.77,0,0,0-22.48-36.85c-10-11-22.42-20.75-37.32-29.69s-32.24-17.06-52-24.69c-10.09-3.9-19.3-7.72-27.66-11.56a241.51,241.51,0,0,1-22.53-11.64A129.15,129.15,0,0,1,906,477.81,78.13,78.13,0,0,1,893.14,464.24Z" transform="translate(-745.4 -320.02)"/><g class="cls-8"><g class="cls-6"><path class="cls-2" d="M1120.52,691.05l-28.31-24.6c.14-1.29.27-2.59.38-3.9s.2-2.61.27-3.93.13-2.62.17-4,.06-2.64.06-4c0-17.17-2.52-32.43-7.53-46.15a110.77,110.77,0,0,0-22.48-36.85c-10-11-22.42-20.75-37.32-29.69s-32.24-17.06-52-24.69c-10.09-3.9-19.3-7.72-27.66-11.56a241.51,241.51,0,0,1-22.53-11.64A129.15,129.15,0,0,1,906,477.81a78.13,78.13,0,0,1-12.82-13.57l-11.7-16.05a93.73,93.73,0,0,0,15.4,16.29A155,155,0,0,0,918,479.27a291.61,291.61,0,0,0,27.07,14c10,4.61,21.1,9.2,33.22,13.89,23.74,9.17,44.58,18.9,62.47,29.65s32.84,22.48,44.81,35.66a132.89,132.89,0,0,1,27,44.25c6,16.48,9,34.81,9,55.43q0,2.4-.06,4.77c0,1.59-.11,3.17-.2,4.75s-.2,3.15-.33,4.71-.29,3.13-.46,4.69" transform="translate(-745.4 -320.02)"/></g></g><path class="cls-9" d="M951.36,320a223.89,223.89,0,0,1,224.08,224.07,225.84,225.84,0,0,1-3.77,41.15,223.57,223.57,0,0,1-51.15,105.81c.17-1.56.33-3.12.46-4.69s.24-3.14.33-4.71.15-3.16.2-4.75.06-3.17.06-4.77c0-20.62-3-39-9-55.43a132.89,132.89,0,0,0-27-44.25c-12-13.18-26.92-24.92-44.81-35.66s-38.73-20.48-62.47-29.65c-19.38-7.5-36-14.74-50.15-22.2s-25.63-15.14-34.75-23.53-15.8-17.47-20.22-27.74-6.55-21.73-6.55-34.86a78.38,78.38,0,0,1,13.95-44.46,81,81,0,0,1,18.59-19.05,97.46,97.46,0,0,1,27.38-13.92q3.06-.33,6.15-.59t6.19-.43q3.12-.17,6.24-.26C947.17,320,949.26,320,951.36,320Z" transform="translate(-745.4 -320.02)"/></svg>