<svg id="Layer_1" data-name="Layer 1" xmlns="http://www.w3.org/2000/svg" viewBox="0 0 300.28 339.83"><defs><style>.cls-1{fill:#fff;}.cls-2{fill:#fcfcfc;}</style></defs><title>whitepointlogo</title><path d="M906.23,369c-7.29-10.3-69.57-61.83-135.72-71.95h-.28C704.08,307.17,641.81,358.7,634.51,369c-45.72,64.56,23.34,170.41,135.72,267.75l.14.13h0l.14-.13C882.89,539.41,952,433.56,906.23,369Z" transform="translate(-620.23 -297.05)"/><path class="cls-1" d="M770.51,632.76c107.75-93.33,174-194.82,130.13-256.72-7-9.88-66.71-59.29-130.13-69h-.27c-63.43,9.7-123.14,59.11-130.13,69-43.84,61.9,22.38,163.39,130.13,256.72" transform="translate(-620.23 -297.05)"/><path class="cls-1" d="M770.37,632.88" transform="translate(-620.23 -297.05)"/><path class="cls-1" d="M770.51,632.76c107.75-93.33,174-194.82,130.13-256.72-7-9.88-66.71-59.29-130.13-69h-.27" transform="translate(-620.23 -297.05)"/><path class="cls-1" d="M770.37,632.88" transform="translate(-620.23 -297.05)"/><path class="cls-1" d="M770.24,632.76" transform="translate(-620.23 -297.05)"/><circle cx="234.09" cy="164.13" r="11.23"/><path class="cls-2" d="M797.92,401l-27.44,71.4H749.16l-12-37.13L725.19,472.4H703.77L676.43,401h23l14.28,44,12.65-44H748l12.64,44L775,401Z" transform="translate(-620.23 -297.05)"/><path d="M770.37,635.88C662.62,542.54,593.66,435.66,637.5,373.75c7-9.88,69.13-59,132.56-68.7h.27" transform="translate(-620.23 -297.05)"/><path class="cls-2" d="M797.92,401l-27.44,71.4H749.16l-12-37.13L725.19,472.4H703.77L676.43,401h23l14.28,44,12.65-44H748l12.64,44L775,401Z" transform="translate(-620.23 -297.05)"/><path d="M823.88,401H775l-4.63,14.26V472.4h.15l24-62.52V472.4h19.58V451.69h9.8c17.24,0,27.84-11.73,27.84-25.4S841.12,401,823.88,401Zm-.72,34.17h-9.08V417.52h9.08c8.37,0,10.92,4.28,10.92,8.77S831.53,435.17,823.16,435.17Z" transform="translate(-620.23 -297.05)"/><path d="M800.43,484.63a4.94,4.94,0,0,1,2.84.9v-5.19h3.53V495h-3.53v-1a3.88,3.88,0,0,1-2.84,1.31c-2.85,0-4.64-2.4-4.64-5.38S797.58,484.63,800.43,484.63Zm.84,7.7a2.36,2.36,0,0,0,0-4.66,2.37,2.37,0,0,0,0,4.66Z" transform="translate(-620.23 -297.05)"/><path d="M812.85,485V495h-3.53V485ZM809.34,482a1.74,1.74,0,1,1,1.74,1.75A1.74,1.74,0,0,1,809.34,482Z" transform="translate(-620.23 -297.05)"/><path d="M825.74,493.87c0,3.06-.76,5-3.4,5.81a8.49,8.49,0,0,1-3.36.25,9.33,9.33,0,0,1-3.85-1.49l1.1-2.39a5.73,5.73,0,0,0,2.64,1c2.35.21,3.24-.74,3.32-1.77,0-.31,0-.81,0-.84a4.93,4.93,0,0,1-2.85.91c-2.84,0-4.62-2.42-4.62-5.38s1.78-5.37,4.62-5.37a4,4,0,0,1,2.85,1.3v-1h3.53ZM822.21,490a2.19,2.19,0,0,0-2-2.33,2.38,2.38,0,0,0,0,4.68A2.2,2.2,0,0,0,822.21,490Z" transform="translate(-620.23 -297.05)"/><path d="M831.58,485V495h-3.53V485ZM828.07,482a1.75,1.75,0,1,1,1.74,1.75A1.74,1.74,0,0,1,828.07,482Z" transform="translate(-620.23 -297.05)"/><path d="M841.61,494.66a6.5,6.5,0,0,1-3.06.7c-3.26,0-3.68-2.48-3.68-5.25v-2h-1.4V485h1.4V482.8l3.55-.44V485H841v3.17h-2.61V490c0,1.91.91,2.48,2.42,1.75Z" transform="translate(-620.23 -297.05)"/><path d="M852.22,488.57V495h-3.53v-1a3.54,3.54,0,0,1-3,1.31,3,3,0,0,1-3-3,3.2,3.2,0,0,1,2.87-3.43,27.6,27.6,0,0,1,3.13-.27,1.31,1.31,0,0,0-1.47-1.32,6.94,6.94,0,0,0-3.08.82l-1-2.29a8.57,8.57,0,0,1,4.49-1.28C849.91,484.63,852.22,485.47,852.22,488.57Zm-3.53,3.07v-1.09a4,4,0,0,0-2,.38,1,1,0,0,0,.71,1.78C848.4,492.71,848.69,492.06,848.69,491.64Z" transform="translate(-620.23 -297.05)"/><path d="M857.85,480.34V495h-3.53v-14.7Z" transform="translate(-620.23 -297.05)"/></svg>